%TF.GenerationSoftware,KiCad,Pcbnew,9.0.8*%
%TF.CreationDate,2026-08-21T19:12:29-05:00*%
%TF.ProjectId,Devboard,44657662-6f61-4726-942e-6b696361645f,rev?*%
%TF.SameCoordinates,Original*%
%TF.FileFunction,Legend,Top*%
%TF.FilePolarity,Positive*%
%FSLAX46Y46*%
G04 Gerber Fmt 4.6, Leading zero omitted, Abs format (unit mm)*
G04 Created by KiCad (PCBNEW 9.0.8) date 2026-08-21 19:12:29*
%MOMM*%
%LPD*%
G01*
G04 APERTURE LIST*
%ADD10C,0.150000*%
%ADD11C,0.062500*%
%ADD12C,0.075000*%
%ADD13C,0.125000*%
%ADD14C,0.100000*%
%ADD15C,0.120000*%
%ADD16C,0.000000*%
G04 APERTURE END LIST*
D10*
X154764819Y-65081904D02*
X155574342Y-65081904D01*
X155574342Y-65081904D02*
X155669580Y-65034285D01*
X155669580Y-65034285D02*
X155717200Y-64986666D01*
X155717200Y-64986666D02*
X155764819Y-64891428D01*
X155764819Y-64891428D02*
X155764819Y-64700952D01*
X155764819Y-64700952D02*
X155717200Y-64605714D01*
X155717200Y-64605714D02*
X155669580Y-64558095D01*
X155669580Y-64558095D02*
X155574342Y-64510476D01*
X155574342Y-64510476D02*
X154764819Y-64510476D01*
X154860057Y-64081904D02*
X154812438Y-64034285D01*
X154812438Y-64034285D02*
X154764819Y-63939047D01*
X154764819Y-63939047D02*
X154764819Y-63700952D01*
X154764819Y-63700952D02*
X154812438Y-63605714D01*
X154812438Y-63605714D02*
X154860057Y-63558095D01*
X154860057Y-63558095D02*
X154955295Y-63510476D01*
X154955295Y-63510476D02*
X155050533Y-63510476D01*
X155050533Y-63510476D02*
X155193390Y-63558095D01*
X155193390Y-63558095D02*
X155764819Y-64129523D01*
X155764819Y-64129523D02*
X155764819Y-63510476D01*
D11*
X159318595Y-67600714D02*
X159330500Y-67612618D01*
X159330500Y-67612618D02*
X159342404Y-67648333D01*
X159342404Y-67648333D02*
X159342404Y-67672142D01*
X159342404Y-67672142D02*
X159330500Y-67707856D01*
X159330500Y-67707856D02*
X159306690Y-67731666D01*
X159306690Y-67731666D02*
X159282880Y-67743571D01*
X159282880Y-67743571D02*
X159235261Y-67755475D01*
X159235261Y-67755475D02*
X159199547Y-67755475D01*
X159199547Y-67755475D02*
X159151928Y-67743571D01*
X159151928Y-67743571D02*
X159128119Y-67731666D01*
X159128119Y-67731666D02*
X159104309Y-67707856D01*
X159104309Y-67707856D02*
X159092404Y-67672142D01*
X159092404Y-67672142D02*
X159092404Y-67648333D01*
X159092404Y-67648333D02*
X159104309Y-67612618D01*
X159104309Y-67612618D02*
X159116214Y-67600714D01*
X159342404Y-67362618D02*
X159342404Y-67505475D01*
X159342404Y-67434047D02*
X159092404Y-67434047D01*
X159092404Y-67434047D02*
X159128119Y-67457856D01*
X159128119Y-67457856D02*
X159151928Y-67481666D01*
X159151928Y-67481666D02*
X159163833Y-67505475D01*
X159092404Y-67279285D02*
X159092404Y-67112619D01*
X159092404Y-67112619D02*
X159342404Y-67219761D01*
D12*
X164368454Y-80558805D02*
X164348251Y-80558805D01*
X164348251Y-80558805D02*
X164307844Y-80538602D01*
X164307844Y-80538602D02*
X164287641Y-80518399D01*
X164287641Y-80518399D02*
X164267438Y-80477992D01*
X164267438Y-80477992D02*
X164267438Y-80437586D01*
X164267438Y-80437586D02*
X164277540Y-80407282D01*
X164277540Y-80407282D02*
X164307844Y-80356774D01*
X164307844Y-80356774D02*
X164338149Y-80326470D01*
X164338149Y-80326470D02*
X164388657Y-80296165D01*
X164388657Y-80296165D02*
X164418961Y-80286063D01*
X164418961Y-80286063D02*
X164459367Y-80286063D01*
X164459367Y-80286063D02*
X164499773Y-80306267D01*
X164499773Y-80306267D02*
X164519976Y-80326470D01*
X164519976Y-80326470D02*
X164540179Y-80366876D01*
X164540179Y-80366876D02*
X164540179Y-80387079D01*
X164550281Y-80781038D02*
X164429063Y-80659820D01*
X164489672Y-80720429D02*
X164701804Y-80508297D01*
X164701804Y-80508297D02*
X164651296Y-80518399D01*
X164651296Y-80518399D02*
X164610890Y-80518399D01*
X164610890Y-80518399D02*
X164580586Y-80508297D01*
X164752311Y-80983069D02*
X164631093Y-80861850D01*
X164691702Y-80922459D02*
X164903834Y-80710327D01*
X164903834Y-80710327D02*
X164853327Y-80720429D01*
X164853327Y-80720429D02*
X164812920Y-80720429D01*
X164812920Y-80720429D02*
X164782616Y-80710327D01*
D13*
X162346666Y-64367190D02*
X162322857Y-64391000D01*
X162322857Y-64391000D02*
X162251428Y-64414809D01*
X162251428Y-64414809D02*
X162203809Y-64414809D01*
X162203809Y-64414809D02*
X162132381Y-64391000D01*
X162132381Y-64391000D02*
X162084762Y-64343380D01*
X162084762Y-64343380D02*
X162060952Y-64295761D01*
X162060952Y-64295761D02*
X162037143Y-64200523D01*
X162037143Y-64200523D02*
X162037143Y-64129095D01*
X162037143Y-64129095D02*
X162060952Y-64033857D01*
X162060952Y-64033857D02*
X162084762Y-63986238D01*
X162084762Y-63986238D02*
X162132381Y-63938619D01*
X162132381Y-63938619D02*
X162203809Y-63914809D01*
X162203809Y-63914809D02*
X162251428Y-63914809D01*
X162251428Y-63914809D02*
X162322857Y-63938619D01*
X162322857Y-63938619D02*
X162346666Y-63962428D01*
X162775238Y-63914809D02*
X162680000Y-63914809D01*
X162680000Y-63914809D02*
X162632381Y-63938619D01*
X162632381Y-63938619D02*
X162608571Y-63962428D01*
X162608571Y-63962428D02*
X162560952Y-64033857D01*
X162560952Y-64033857D02*
X162537143Y-64129095D01*
X162537143Y-64129095D02*
X162537143Y-64319571D01*
X162537143Y-64319571D02*
X162560952Y-64367190D01*
X162560952Y-64367190D02*
X162584762Y-64391000D01*
X162584762Y-64391000D02*
X162632381Y-64414809D01*
X162632381Y-64414809D02*
X162727619Y-64414809D01*
X162727619Y-64414809D02*
X162775238Y-64391000D01*
X162775238Y-64391000D02*
X162799047Y-64367190D01*
X162799047Y-64367190D02*
X162822857Y-64319571D01*
X162822857Y-64319571D02*
X162822857Y-64200523D01*
X162822857Y-64200523D02*
X162799047Y-64152904D01*
X162799047Y-64152904D02*
X162775238Y-64129095D01*
X162775238Y-64129095D02*
X162727619Y-64105285D01*
X162727619Y-64105285D02*
X162632381Y-64105285D01*
X162632381Y-64105285D02*
X162584762Y-64129095D01*
X162584762Y-64129095D02*
X162560952Y-64152904D01*
X162560952Y-64152904D02*
X162537143Y-64200523D01*
D12*
X153970000Y-79806314D02*
X153955714Y-79820600D01*
X153955714Y-79820600D02*
X153912857Y-79834885D01*
X153912857Y-79834885D02*
X153884285Y-79834885D01*
X153884285Y-79834885D02*
X153841428Y-79820600D01*
X153841428Y-79820600D02*
X153812857Y-79792028D01*
X153812857Y-79792028D02*
X153798571Y-79763457D01*
X153798571Y-79763457D02*
X153784285Y-79706314D01*
X153784285Y-79706314D02*
X153784285Y-79663457D01*
X153784285Y-79663457D02*
X153798571Y-79606314D01*
X153798571Y-79606314D02*
X153812857Y-79577742D01*
X153812857Y-79577742D02*
X153841428Y-79549171D01*
X153841428Y-79549171D02*
X153884285Y-79534885D01*
X153884285Y-79534885D02*
X153912857Y-79534885D01*
X153912857Y-79534885D02*
X153955714Y-79549171D01*
X153955714Y-79549171D02*
X153970000Y-79563457D01*
X154070000Y-79534885D02*
X154270000Y-79534885D01*
X154270000Y-79534885D02*
X154141428Y-79834885D01*
D10*
X166666666Y-46864819D02*
X166666666Y-47579104D01*
X166666666Y-47579104D02*
X166619047Y-47721961D01*
X166619047Y-47721961D02*
X166523809Y-47817200D01*
X166523809Y-47817200D02*
X166380952Y-47864819D01*
X166380952Y-47864819D02*
X166285714Y-47864819D01*
X167047619Y-46864819D02*
X167666666Y-46864819D01*
X167666666Y-46864819D02*
X167333333Y-47245771D01*
X167333333Y-47245771D02*
X167476190Y-47245771D01*
X167476190Y-47245771D02*
X167571428Y-47293390D01*
X167571428Y-47293390D02*
X167619047Y-47341009D01*
X167619047Y-47341009D02*
X167666666Y-47436247D01*
X167666666Y-47436247D02*
X167666666Y-47674342D01*
X167666666Y-47674342D02*
X167619047Y-47769580D01*
X167619047Y-47769580D02*
X167571428Y-47817200D01*
X167571428Y-47817200D02*
X167476190Y-47864819D01*
X167476190Y-47864819D02*
X167190476Y-47864819D01*
X167190476Y-47864819D02*
X167095238Y-47817200D01*
X167095238Y-47817200D02*
X167047619Y-47769580D01*
D12*
X159494885Y-55519999D02*
X159352028Y-55619999D01*
X159494885Y-55691428D02*
X159194885Y-55691428D01*
X159194885Y-55691428D02*
X159194885Y-55577142D01*
X159194885Y-55577142D02*
X159209171Y-55548571D01*
X159209171Y-55548571D02*
X159223457Y-55534285D01*
X159223457Y-55534285D02*
X159252028Y-55519999D01*
X159252028Y-55519999D02*
X159294885Y-55519999D01*
X159294885Y-55519999D02*
X159323457Y-55534285D01*
X159323457Y-55534285D02*
X159337742Y-55548571D01*
X159337742Y-55548571D02*
X159352028Y-55577142D01*
X159352028Y-55577142D02*
X159352028Y-55691428D01*
X159223457Y-55405714D02*
X159209171Y-55391428D01*
X159209171Y-55391428D02*
X159194885Y-55362857D01*
X159194885Y-55362857D02*
X159194885Y-55291428D01*
X159194885Y-55291428D02*
X159209171Y-55262857D01*
X159209171Y-55262857D02*
X159223457Y-55248571D01*
X159223457Y-55248571D02*
X159252028Y-55234285D01*
X159252028Y-55234285D02*
X159280600Y-55234285D01*
X159280600Y-55234285D02*
X159323457Y-55248571D01*
X159323457Y-55248571D02*
X159494885Y-55419999D01*
X159494885Y-55419999D02*
X159494885Y-55234285D01*
D10*
X159564285Y-86434057D02*
X159564285Y-86719771D01*
X159364285Y-86119771D02*
X159564285Y-86434057D01*
X159564285Y-86434057D02*
X159764285Y-86119771D01*
X160278571Y-86719771D02*
X159935714Y-86719771D01*
X160107143Y-86719771D02*
X160107143Y-86119771D01*
X160107143Y-86119771D02*
X160050000Y-86205485D01*
X160050000Y-86205485D02*
X159992857Y-86262628D01*
X159992857Y-86262628D02*
X159935714Y-86291200D01*
D13*
X162786666Y-63537190D02*
X162762857Y-63561000D01*
X162762857Y-63561000D02*
X162691428Y-63584809D01*
X162691428Y-63584809D02*
X162643809Y-63584809D01*
X162643809Y-63584809D02*
X162572381Y-63561000D01*
X162572381Y-63561000D02*
X162524762Y-63513380D01*
X162524762Y-63513380D02*
X162500952Y-63465761D01*
X162500952Y-63465761D02*
X162477143Y-63370523D01*
X162477143Y-63370523D02*
X162477143Y-63299095D01*
X162477143Y-63299095D02*
X162500952Y-63203857D01*
X162500952Y-63203857D02*
X162524762Y-63156238D01*
X162524762Y-63156238D02*
X162572381Y-63108619D01*
X162572381Y-63108619D02*
X162643809Y-63084809D01*
X162643809Y-63084809D02*
X162691428Y-63084809D01*
X162691428Y-63084809D02*
X162762857Y-63108619D01*
X162762857Y-63108619D02*
X162786666Y-63132428D01*
X163215238Y-63251476D02*
X163215238Y-63584809D01*
X163096190Y-63061000D02*
X162977143Y-63418142D01*
X162977143Y-63418142D02*
X163286666Y-63418142D01*
D12*
X165846314Y-68849999D02*
X165860600Y-68864285D01*
X165860600Y-68864285D02*
X165874885Y-68907142D01*
X165874885Y-68907142D02*
X165874885Y-68935714D01*
X165874885Y-68935714D02*
X165860600Y-68978571D01*
X165860600Y-68978571D02*
X165832028Y-69007142D01*
X165832028Y-69007142D02*
X165803457Y-69021428D01*
X165803457Y-69021428D02*
X165746314Y-69035714D01*
X165746314Y-69035714D02*
X165703457Y-69035714D01*
X165703457Y-69035714D02*
X165646314Y-69021428D01*
X165646314Y-69021428D02*
X165617742Y-69007142D01*
X165617742Y-69007142D02*
X165589171Y-68978571D01*
X165589171Y-68978571D02*
X165574885Y-68935714D01*
X165574885Y-68935714D02*
X165574885Y-68907142D01*
X165574885Y-68907142D02*
X165589171Y-68864285D01*
X165589171Y-68864285D02*
X165603457Y-68849999D01*
X165874885Y-68564285D02*
X165874885Y-68735714D01*
X165874885Y-68649999D02*
X165574885Y-68649999D01*
X165574885Y-68649999D02*
X165617742Y-68678571D01*
X165617742Y-68678571D02*
X165646314Y-68707142D01*
X165646314Y-68707142D02*
X165660600Y-68735714D01*
D11*
X156818333Y-66152404D02*
X156735000Y-66033357D01*
X156675476Y-66152404D02*
X156675476Y-65902404D01*
X156675476Y-65902404D02*
X156770714Y-65902404D01*
X156770714Y-65902404D02*
X156794524Y-65914309D01*
X156794524Y-65914309D02*
X156806429Y-65926214D01*
X156806429Y-65926214D02*
X156818333Y-65950023D01*
X156818333Y-65950023D02*
X156818333Y-65985738D01*
X156818333Y-65985738D02*
X156806429Y-66009547D01*
X156806429Y-66009547D02*
X156794524Y-66021452D01*
X156794524Y-66021452D02*
X156770714Y-66033357D01*
X156770714Y-66033357D02*
X156675476Y-66033357D01*
X157032619Y-65902404D02*
X156985000Y-65902404D01*
X156985000Y-65902404D02*
X156961191Y-65914309D01*
X156961191Y-65914309D02*
X156949286Y-65926214D01*
X156949286Y-65926214D02*
X156925476Y-65961928D01*
X156925476Y-65961928D02*
X156913572Y-66009547D01*
X156913572Y-66009547D02*
X156913572Y-66104785D01*
X156913572Y-66104785D02*
X156925476Y-66128595D01*
X156925476Y-66128595D02*
X156937381Y-66140500D01*
X156937381Y-66140500D02*
X156961191Y-66152404D01*
X156961191Y-66152404D02*
X157008810Y-66152404D01*
X157008810Y-66152404D02*
X157032619Y-66140500D01*
X157032619Y-66140500D02*
X157044524Y-66128595D01*
X157044524Y-66128595D02*
X157056429Y-66104785D01*
X157056429Y-66104785D02*
X157056429Y-66045261D01*
X157056429Y-66045261D02*
X157044524Y-66021452D01*
X157044524Y-66021452D02*
X157032619Y-66009547D01*
X157032619Y-66009547D02*
X157008810Y-65997642D01*
X157008810Y-65997642D02*
X156961191Y-65997642D01*
X156961191Y-65997642D02*
X156937381Y-66009547D01*
X156937381Y-66009547D02*
X156925476Y-66021452D01*
X156925476Y-66021452D02*
X156913572Y-66045261D01*
D12*
X162764885Y-69079999D02*
X162622028Y-69179999D01*
X162764885Y-69251428D02*
X162464885Y-69251428D01*
X162464885Y-69251428D02*
X162464885Y-69137142D01*
X162464885Y-69137142D02*
X162479171Y-69108571D01*
X162479171Y-69108571D02*
X162493457Y-69094285D01*
X162493457Y-69094285D02*
X162522028Y-69079999D01*
X162522028Y-69079999D02*
X162564885Y-69079999D01*
X162564885Y-69079999D02*
X162593457Y-69094285D01*
X162593457Y-69094285D02*
X162607742Y-69108571D01*
X162607742Y-69108571D02*
X162622028Y-69137142D01*
X162622028Y-69137142D02*
X162622028Y-69251428D01*
X162564885Y-68822857D02*
X162764885Y-68822857D01*
X162450600Y-68894285D02*
X162664885Y-68965714D01*
X162664885Y-68965714D02*
X162664885Y-68779999D01*
D10*
X165256667Y-62687200D02*
X165399524Y-62734819D01*
X165399524Y-62734819D02*
X165637619Y-62734819D01*
X165637619Y-62734819D02*
X165732857Y-62687200D01*
X165732857Y-62687200D02*
X165780476Y-62639580D01*
X165780476Y-62639580D02*
X165828095Y-62544342D01*
X165828095Y-62544342D02*
X165828095Y-62449104D01*
X165828095Y-62449104D02*
X165780476Y-62353866D01*
X165780476Y-62353866D02*
X165732857Y-62306247D01*
X165732857Y-62306247D02*
X165637619Y-62258628D01*
X165637619Y-62258628D02*
X165447143Y-62211009D01*
X165447143Y-62211009D02*
X165351905Y-62163390D01*
X165351905Y-62163390D02*
X165304286Y-62115771D01*
X165304286Y-62115771D02*
X165256667Y-62020533D01*
X165256667Y-62020533D02*
X165256667Y-61925295D01*
X165256667Y-61925295D02*
X165304286Y-61830057D01*
X165304286Y-61830057D02*
X165351905Y-61782438D01*
X165351905Y-61782438D02*
X165447143Y-61734819D01*
X165447143Y-61734819D02*
X165685238Y-61734819D01*
X165685238Y-61734819D02*
X165828095Y-61782438D01*
X166161429Y-61734819D02*
X166399524Y-62734819D01*
X166399524Y-62734819D02*
X166590000Y-62020533D01*
X166590000Y-62020533D02*
X166780476Y-62734819D01*
X166780476Y-62734819D02*
X167018572Y-61734819D01*
X167923333Y-62734819D02*
X167351905Y-62734819D01*
X167637619Y-62734819D02*
X167637619Y-61734819D01*
X167637619Y-61734819D02*
X167542381Y-61877676D01*
X167542381Y-61877676D02*
X167447143Y-61972914D01*
X167447143Y-61972914D02*
X167351905Y-62020533D01*
D12*
X167320000Y-78596314D02*
X167305714Y-78610600D01*
X167305714Y-78610600D02*
X167262857Y-78624885D01*
X167262857Y-78624885D02*
X167234285Y-78624885D01*
X167234285Y-78624885D02*
X167191428Y-78610600D01*
X167191428Y-78610600D02*
X167162857Y-78582028D01*
X167162857Y-78582028D02*
X167148571Y-78553457D01*
X167148571Y-78553457D02*
X167134285Y-78496314D01*
X167134285Y-78496314D02*
X167134285Y-78453457D01*
X167134285Y-78453457D02*
X167148571Y-78396314D01*
X167148571Y-78396314D02*
X167162857Y-78367742D01*
X167162857Y-78367742D02*
X167191428Y-78339171D01*
X167191428Y-78339171D02*
X167234285Y-78324885D01*
X167234285Y-78324885D02*
X167262857Y-78324885D01*
X167262857Y-78324885D02*
X167305714Y-78339171D01*
X167305714Y-78339171D02*
X167320000Y-78353457D01*
X167491428Y-78453457D02*
X167462857Y-78439171D01*
X167462857Y-78439171D02*
X167448571Y-78424885D01*
X167448571Y-78424885D02*
X167434285Y-78396314D01*
X167434285Y-78396314D02*
X167434285Y-78382028D01*
X167434285Y-78382028D02*
X167448571Y-78353457D01*
X167448571Y-78353457D02*
X167462857Y-78339171D01*
X167462857Y-78339171D02*
X167491428Y-78324885D01*
X167491428Y-78324885D02*
X167548571Y-78324885D01*
X167548571Y-78324885D02*
X167577143Y-78339171D01*
X167577143Y-78339171D02*
X167591428Y-78353457D01*
X167591428Y-78353457D02*
X167605714Y-78382028D01*
X167605714Y-78382028D02*
X167605714Y-78396314D01*
X167605714Y-78396314D02*
X167591428Y-78424885D01*
X167591428Y-78424885D02*
X167577143Y-78439171D01*
X167577143Y-78439171D02*
X167548571Y-78453457D01*
X167548571Y-78453457D02*
X167491428Y-78453457D01*
X167491428Y-78453457D02*
X167462857Y-78467742D01*
X167462857Y-78467742D02*
X167448571Y-78482028D01*
X167448571Y-78482028D02*
X167434285Y-78510600D01*
X167434285Y-78510600D02*
X167434285Y-78567742D01*
X167434285Y-78567742D02*
X167448571Y-78596314D01*
X167448571Y-78596314D02*
X167462857Y-78610600D01*
X167462857Y-78610600D02*
X167491428Y-78624885D01*
X167491428Y-78624885D02*
X167548571Y-78624885D01*
X167548571Y-78624885D02*
X167577143Y-78610600D01*
X167577143Y-78610600D02*
X167591428Y-78596314D01*
X167591428Y-78596314D02*
X167605714Y-78567742D01*
X167605714Y-78567742D02*
X167605714Y-78510600D01*
X167605714Y-78510600D02*
X167591428Y-78482028D01*
X167591428Y-78482028D02*
X167577143Y-78467742D01*
X167577143Y-78467742D02*
X167548571Y-78453457D01*
D11*
X160779285Y-67358595D02*
X160767381Y-67370500D01*
X160767381Y-67370500D02*
X160731666Y-67382404D01*
X160731666Y-67382404D02*
X160707857Y-67382404D01*
X160707857Y-67382404D02*
X160672143Y-67370500D01*
X160672143Y-67370500D02*
X160648333Y-67346690D01*
X160648333Y-67346690D02*
X160636428Y-67322880D01*
X160636428Y-67322880D02*
X160624524Y-67275261D01*
X160624524Y-67275261D02*
X160624524Y-67239547D01*
X160624524Y-67239547D02*
X160636428Y-67191928D01*
X160636428Y-67191928D02*
X160648333Y-67168119D01*
X160648333Y-67168119D02*
X160672143Y-67144309D01*
X160672143Y-67144309D02*
X160707857Y-67132404D01*
X160707857Y-67132404D02*
X160731666Y-67132404D01*
X160731666Y-67132404D02*
X160767381Y-67144309D01*
X160767381Y-67144309D02*
X160779285Y-67156214D01*
X161017381Y-67382404D02*
X160874524Y-67382404D01*
X160945952Y-67382404D02*
X160945952Y-67132404D01*
X160945952Y-67132404D02*
X160922143Y-67168119D01*
X160922143Y-67168119D02*
X160898333Y-67191928D01*
X160898333Y-67191928D02*
X160874524Y-67203833D01*
X161112619Y-67156214D02*
X161124523Y-67144309D01*
X161124523Y-67144309D02*
X161148333Y-67132404D01*
X161148333Y-67132404D02*
X161207857Y-67132404D01*
X161207857Y-67132404D02*
X161231666Y-67144309D01*
X161231666Y-67144309D02*
X161243571Y-67156214D01*
X161243571Y-67156214D02*
X161255476Y-67180023D01*
X161255476Y-67180023D02*
X161255476Y-67203833D01*
X161255476Y-67203833D02*
X161243571Y-67239547D01*
X161243571Y-67239547D02*
X161100714Y-67382404D01*
X161100714Y-67382404D02*
X161255476Y-67382404D01*
X158299285Y-66648595D02*
X158287381Y-66660500D01*
X158287381Y-66660500D02*
X158251666Y-66672404D01*
X158251666Y-66672404D02*
X158227857Y-66672404D01*
X158227857Y-66672404D02*
X158192143Y-66660500D01*
X158192143Y-66660500D02*
X158168333Y-66636690D01*
X158168333Y-66636690D02*
X158156428Y-66612880D01*
X158156428Y-66612880D02*
X158144524Y-66565261D01*
X158144524Y-66565261D02*
X158144524Y-66529547D01*
X158144524Y-66529547D02*
X158156428Y-66481928D01*
X158156428Y-66481928D02*
X158168333Y-66458119D01*
X158168333Y-66458119D02*
X158192143Y-66434309D01*
X158192143Y-66434309D02*
X158227857Y-66422404D01*
X158227857Y-66422404D02*
X158251666Y-66422404D01*
X158251666Y-66422404D02*
X158287381Y-66434309D01*
X158287381Y-66434309D02*
X158299285Y-66446214D01*
X158537381Y-66672404D02*
X158394524Y-66672404D01*
X158465952Y-66672404D02*
X158465952Y-66422404D01*
X158465952Y-66422404D02*
X158442143Y-66458119D01*
X158442143Y-66458119D02*
X158418333Y-66481928D01*
X158418333Y-66481928D02*
X158394524Y-66493833D01*
X158620714Y-66422404D02*
X158775476Y-66422404D01*
X158775476Y-66422404D02*
X158692142Y-66517642D01*
X158692142Y-66517642D02*
X158727857Y-66517642D01*
X158727857Y-66517642D02*
X158751666Y-66529547D01*
X158751666Y-66529547D02*
X158763571Y-66541452D01*
X158763571Y-66541452D02*
X158775476Y-66565261D01*
X158775476Y-66565261D02*
X158775476Y-66624785D01*
X158775476Y-66624785D02*
X158763571Y-66648595D01*
X158763571Y-66648595D02*
X158751666Y-66660500D01*
X158751666Y-66660500D02*
X158727857Y-66672404D01*
X158727857Y-66672404D02*
X158656428Y-66672404D01*
X158656428Y-66672404D02*
X158632619Y-66660500D01*
X158632619Y-66660500D02*
X158620714Y-66648595D01*
D13*
X154269047Y-67864809D02*
X154269047Y-68269571D01*
X154269047Y-68269571D02*
X154292857Y-68317190D01*
X154292857Y-68317190D02*
X154316666Y-68341000D01*
X154316666Y-68341000D02*
X154364285Y-68364809D01*
X154364285Y-68364809D02*
X154459523Y-68364809D01*
X154459523Y-68364809D02*
X154507142Y-68341000D01*
X154507142Y-68341000D02*
X154530952Y-68317190D01*
X154530952Y-68317190D02*
X154554761Y-68269571D01*
X154554761Y-68269571D02*
X154554761Y-67864809D01*
X154745238Y-67864809D02*
X155054762Y-67864809D01*
X155054762Y-67864809D02*
X154888095Y-68055285D01*
X154888095Y-68055285D02*
X154959524Y-68055285D01*
X154959524Y-68055285D02*
X155007143Y-68079095D01*
X155007143Y-68079095D02*
X155030952Y-68102904D01*
X155030952Y-68102904D02*
X155054762Y-68150523D01*
X155054762Y-68150523D02*
X155054762Y-68269571D01*
X155054762Y-68269571D02*
X155030952Y-68317190D01*
X155030952Y-68317190D02*
X155007143Y-68341000D01*
X155007143Y-68341000D02*
X154959524Y-68364809D01*
X154959524Y-68364809D02*
X154816667Y-68364809D01*
X154816667Y-68364809D02*
X154769048Y-68341000D01*
X154769048Y-68341000D02*
X154745238Y-68317190D01*
D10*
X160316666Y-48704819D02*
X160316666Y-49419104D01*
X160316666Y-49419104D02*
X160269047Y-49561961D01*
X160269047Y-49561961D02*
X160173809Y-49657200D01*
X160173809Y-49657200D02*
X160030952Y-49704819D01*
X160030952Y-49704819D02*
X159935714Y-49704819D01*
X161316666Y-49704819D02*
X160745238Y-49704819D01*
X161030952Y-49704819D02*
X161030952Y-48704819D01*
X161030952Y-48704819D02*
X160935714Y-48847676D01*
X160935714Y-48847676D02*
X160840476Y-48942914D01*
X160840476Y-48942914D02*
X160745238Y-48990533D01*
D12*
X154690000Y-71246314D02*
X154675714Y-71260600D01*
X154675714Y-71260600D02*
X154632857Y-71274885D01*
X154632857Y-71274885D02*
X154604285Y-71274885D01*
X154604285Y-71274885D02*
X154561428Y-71260600D01*
X154561428Y-71260600D02*
X154532857Y-71232028D01*
X154532857Y-71232028D02*
X154518571Y-71203457D01*
X154518571Y-71203457D02*
X154504285Y-71146314D01*
X154504285Y-71146314D02*
X154504285Y-71103457D01*
X154504285Y-71103457D02*
X154518571Y-71046314D01*
X154518571Y-71046314D02*
X154532857Y-71017742D01*
X154532857Y-71017742D02*
X154561428Y-70989171D01*
X154561428Y-70989171D02*
X154604285Y-70974885D01*
X154604285Y-70974885D02*
X154632857Y-70974885D01*
X154632857Y-70974885D02*
X154675714Y-70989171D01*
X154675714Y-70989171D02*
X154690000Y-71003457D01*
X154804285Y-71003457D02*
X154818571Y-70989171D01*
X154818571Y-70989171D02*
X154847143Y-70974885D01*
X154847143Y-70974885D02*
X154918571Y-70974885D01*
X154918571Y-70974885D02*
X154947143Y-70989171D01*
X154947143Y-70989171D02*
X154961428Y-71003457D01*
X154961428Y-71003457D02*
X154975714Y-71032028D01*
X154975714Y-71032028D02*
X154975714Y-71060600D01*
X154975714Y-71060600D02*
X154961428Y-71103457D01*
X154961428Y-71103457D02*
X154790000Y-71274885D01*
X154790000Y-71274885D02*
X154975714Y-71274885D01*
X164040000Y-84366314D02*
X164025714Y-84380600D01*
X164025714Y-84380600D02*
X163982857Y-84394885D01*
X163982857Y-84394885D02*
X163954285Y-84394885D01*
X163954285Y-84394885D02*
X163911428Y-84380600D01*
X163911428Y-84380600D02*
X163882857Y-84352028D01*
X163882857Y-84352028D02*
X163868571Y-84323457D01*
X163868571Y-84323457D02*
X163854285Y-84266314D01*
X163854285Y-84266314D02*
X163854285Y-84223457D01*
X163854285Y-84223457D02*
X163868571Y-84166314D01*
X163868571Y-84166314D02*
X163882857Y-84137742D01*
X163882857Y-84137742D02*
X163911428Y-84109171D01*
X163911428Y-84109171D02*
X163954285Y-84094885D01*
X163954285Y-84094885D02*
X163982857Y-84094885D01*
X163982857Y-84094885D02*
X164025714Y-84109171D01*
X164025714Y-84109171D02*
X164040000Y-84123457D01*
X164182857Y-84394885D02*
X164240000Y-84394885D01*
X164240000Y-84394885D02*
X164268571Y-84380600D01*
X164268571Y-84380600D02*
X164282857Y-84366314D01*
X164282857Y-84366314D02*
X164311428Y-84323457D01*
X164311428Y-84323457D02*
X164325714Y-84266314D01*
X164325714Y-84266314D02*
X164325714Y-84152028D01*
X164325714Y-84152028D02*
X164311428Y-84123457D01*
X164311428Y-84123457D02*
X164297143Y-84109171D01*
X164297143Y-84109171D02*
X164268571Y-84094885D01*
X164268571Y-84094885D02*
X164211428Y-84094885D01*
X164211428Y-84094885D02*
X164182857Y-84109171D01*
X164182857Y-84109171D02*
X164168571Y-84123457D01*
X164168571Y-84123457D02*
X164154285Y-84152028D01*
X164154285Y-84152028D02*
X164154285Y-84223457D01*
X164154285Y-84223457D02*
X164168571Y-84252028D01*
X164168571Y-84252028D02*
X164182857Y-84266314D01*
X164182857Y-84266314D02*
X164211428Y-84280600D01*
X164211428Y-84280600D02*
X164268571Y-84280600D01*
X164268571Y-84280600D02*
X164297143Y-84266314D01*
X164297143Y-84266314D02*
X164311428Y-84252028D01*
X164311428Y-84252028D02*
X164325714Y-84223457D01*
X164144885Y-54919999D02*
X164002028Y-55019999D01*
X164144885Y-55091428D02*
X163844885Y-55091428D01*
X163844885Y-55091428D02*
X163844885Y-54977142D01*
X163844885Y-54977142D02*
X163859171Y-54948571D01*
X163859171Y-54948571D02*
X163873457Y-54934285D01*
X163873457Y-54934285D02*
X163902028Y-54919999D01*
X163902028Y-54919999D02*
X163944885Y-54919999D01*
X163944885Y-54919999D02*
X163973457Y-54934285D01*
X163973457Y-54934285D02*
X163987742Y-54948571D01*
X163987742Y-54948571D02*
X164002028Y-54977142D01*
X164002028Y-54977142D02*
X164002028Y-55091428D01*
X164144885Y-54634285D02*
X164144885Y-54805714D01*
X164144885Y-54719999D02*
X163844885Y-54719999D01*
X163844885Y-54719999D02*
X163887742Y-54748571D01*
X163887742Y-54748571D02*
X163916314Y-54777142D01*
X163916314Y-54777142D02*
X163930600Y-54805714D01*
X160850000Y-81344885D02*
X160750000Y-81202028D01*
X160678571Y-81344885D02*
X160678571Y-81044885D01*
X160678571Y-81044885D02*
X160792857Y-81044885D01*
X160792857Y-81044885D02*
X160821428Y-81059171D01*
X160821428Y-81059171D02*
X160835714Y-81073457D01*
X160835714Y-81073457D02*
X160850000Y-81102028D01*
X160850000Y-81102028D02*
X160850000Y-81144885D01*
X160850000Y-81144885D02*
X160835714Y-81173457D01*
X160835714Y-81173457D02*
X160821428Y-81187742D01*
X160821428Y-81187742D02*
X160792857Y-81202028D01*
X160792857Y-81202028D02*
X160678571Y-81202028D01*
X161121428Y-81044885D02*
X160978571Y-81044885D01*
X160978571Y-81044885D02*
X160964285Y-81187742D01*
X160964285Y-81187742D02*
X160978571Y-81173457D01*
X160978571Y-81173457D02*
X161007143Y-81159171D01*
X161007143Y-81159171D02*
X161078571Y-81159171D01*
X161078571Y-81159171D02*
X161107143Y-81173457D01*
X161107143Y-81173457D02*
X161121428Y-81187742D01*
X161121428Y-81187742D02*
X161135714Y-81216314D01*
X161135714Y-81216314D02*
X161135714Y-81287742D01*
X161135714Y-81287742D02*
X161121428Y-81316314D01*
X161121428Y-81316314D02*
X161107143Y-81330600D01*
X161107143Y-81330600D02*
X161078571Y-81344885D01*
X161078571Y-81344885D02*
X161007143Y-81344885D01*
X161007143Y-81344885D02*
X160978571Y-81330600D01*
X160978571Y-81330600D02*
X160964285Y-81316314D01*
X156957143Y-85876314D02*
X156942857Y-85890600D01*
X156942857Y-85890600D02*
X156900000Y-85904885D01*
X156900000Y-85904885D02*
X156871428Y-85904885D01*
X156871428Y-85904885D02*
X156828571Y-85890600D01*
X156828571Y-85890600D02*
X156800000Y-85862028D01*
X156800000Y-85862028D02*
X156785714Y-85833457D01*
X156785714Y-85833457D02*
X156771428Y-85776314D01*
X156771428Y-85776314D02*
X156771428Y-85733457D01*
X156771428Y-85733457D02*
X156785714Y-85676314D01*
X156785714Y-85676314D02*
X156800000Y-85647742D01*
X156800000Y-85647742D02*
X156828571Y-85619171D01*
X156828571Y-85619171D02*
X156871428Y-85604885D01*
X156871428Y-85604885D02*
X156900000Y-85604885D01*
X156900000Y-85604885D02*
X156942857Y-85619171D01*
X156942857Y-85619171D02*
X156957143Y-85633457D01*
X157242857Y-85904885D02*
X157071428Y-85904885D01*
X157157143Y-85904885D02*
X157157143Y-85604885D01*
X157157143Y-85604885D02*
X157128571Y-85647742D01*
X157128571Y-85647742D02*
X157100000Y-85676314D01*
X157100000Y-85676314D02*
X157071428Y-85690600D01*
X157500000Y-85604885D02*
X157442857Y-85604885D01*
X157442857Y-85604885D02*
X157414285Y-85619171D01*
X157414285Y-85619171D02*
X157400000Y-85633457D01*
X157400000Y-85633457D02*
X157371428Y-85676314D01*
X157371428Y-85676314D02*
X157357142Y-85733457D01*
X157357142Y-85733457D02*
X157357142Y-85847742D01*
X157357142Y-85847742D02*
X157371428Y-85876314D01*
X157371428Y-85876314D02*
X157385714Y-85890600D01*
X157385714Y-85890600D02*
X157414285Y-85904885D01*
X157414285Y-85904885D02*
X157471428Y-85904885D01*
X157471428Y-85904885D02*
X157500000Y-85890600D01*
X157500000Y-85890600D02*
X157514285Y-85876314D01*
X157514285Y-85876314D02*
X157528571Y-85847742D01*
X157528571Y-85847742D02*
X157528571Y-85776314D01*
X157528571Y-85776314D02*
X157514285Y-85747742D01*
X157514285Y-85747742D02*
X157500000Y-85733457D01*
X157500000Y-85733457D02*
X157471428Y-85719171D01*
X157471428Y-85719171D02*
X157414285Y-85719171D01*
X157414285Y-85719171D02*
X157385714Y-85733457D01*
X157385714Y-85733457D02*
X157371428Y-85747742D01*
X157371428Y-85747742D02*
X157357142Y-85776314D01*
X163534885Y-71789999D02*
X163392028Y-71889999D01*
X163534885Y-71961428D02*
X163234885Y-71961428D01*
X163234885Y-71961428D02*
X163234885Y-71847142D01*
X163234885Y-71847142D02*
X163249171Y-71818571D01*
X163249171Y-71818571D02*
X163263457Y-71804285D01*
X163263457Y-71804285D02*
X163292028Y-71789999D01*
X163292028Y-71789999D02*
X163334885Y-71789999D01*
X163334885Y-71789999D02*
X163363457Y-71804285D01*
X163363457Y-71804285D02*
X163377742Y-71818571D01*
X163377742Y-71818571D02*
X163392028Y-71847142D01*
X163392028Y-71847142D02*
X163392028Y-71961428D01*
X163234885Y-71689999D02*
X163234885Y-71504285D01*
X163234885Y-71504285D02*
X163349171Y-71604285D01*
X163349171Y-71604285D02*
X163349171Y-71561428D01*
X163349171Y-71561428D02*
X163363457Y-71532857D01*
X163363457Y-71532857D02*
X163377742Y-71518571D01*
X163377742Y-71518571D02*
X163406314Y-71504285D01*
X163406314Y-71504285D02*
X163477742Y-71504285D01*
X163477742Y-71504285D02*
X163506314Y-71518571D01*
X163506314Y-71518571D02*
X163520600Y-71532857D01*
X163520600Y-71532857D02*
X163534885Y-71561428D01*
X163534885Y-71561428D02*
X163534885Y-71647142D01*
X163534885Y-71647142D02*
X163520600Y-71675714D01*
X163520600Y-71675714D02*
X163506314Y-71689999D01*
D14*
X156073333Y-90956109D02*
X156073333Y-91313252D01*
X156073333Y-91313252D02*
X156049524Y-91384680D01*
X156049524Y-91384680D02*
X156001905Y-91432300D01*
X156001905Y-91432300D02*
X155930476Y-91456109D01*
X155930476Y-91456109D02*
X155882857Y-91456109D01*
X156525714Y-91122776D02*
X156525714Y-91456109D01*
X156406666Y-90932300D02*
X156287619Y-91289442D01*
X156287619Y-91289442D02*
X156597142Y-91289442D01*
D12*
X164646314Y-70859999D02*
X164660600Y-70874285D01*
X164660600Y-70874285D02*
X164674885Y-70917142D01*
X164674885Y-70917142D02*
X164674885Y-70945714D01*
X164674885Y-70945714D02*
X164660600Y-70988571D01*
X164660600Y-70988571D02*
X164632028Y-71017142D01*
X164632028Y-71017142D02*
X164603457Y-71031428D01*
X164603457Y-71031428D02*
X164546314Y-71045714D01*
X164546314Y-71045714D02*
X164503457Y-71045714D01*
X164503457Y-71045714D02*
X164446314Y-71031428D01*
X164446314Y-71031428D02*
X164417742Y-71017142D01*
X164417742Y-71017142D02*
X164389171Y-70988571D01*
X164389171Y-70988571D02*
X164374885Y-70945714D01*
X164374885Y-70945714D02*
X164374885Y-70917142D01*
X164374885Y-70917142D02*
X164389171Y-70874285D01*
X164389171Y-70874285D02*
X164403457Y-70859999D01*
X164374885Y-70759999D02*
X164374885Y-70574285D01*
X164374885Y-70574285D02*
X164489171Y-70674285D01*
X164489171Y-70674285D02*
X164489171Y-70631428D01*
X164489171Y-70631428D02*
X164503457Y-70602857D01*
X164503457Y-70602857D02*
X164517742Y-70588571D01*
X164517742Y-70588571D02*
X164546314Y-70574285D01*
X164546314Y-70574285D02*
X164617742Y-70574285D01*
X164617742Y-70574285D02*
X164646314Y-70588571D01*
X164646314Y-70588571D02*
X164660600Y-70602857D01*
X164660600Y-70602857D02*
X164674885Y-70631428D01*
X164674885Y-70631428D02*
X164674885Y-70717142D01*
X164674885Y-70717142D02*
X164660600Y-70745714D01*
X164660600Y-70745714D02*
X164646314Y-70759999D01*
X154697143Y-56396314D02*
X154682857Y-56410600D01*
X154682857Y-56410600D02*
X154640000Y-56424885D01*
X154640000Y-56424885D02*
X154611428Y-56424885D01*
X154611428Y-56424885D02*
X154568571Y-56410600D01*
X154568571Y-56410600D02*
X154540000Y-56382028D01*
X154540000Y-56382028D02*
X154525714Y-56353457D01*
X154525714Y-56353457D02*
X154511428Y-56296314D01*
X154511428Y-56296314D02*
X154511428Y-56253457D01*
X154511428Y-56253457D02*
X154525714Y-56196314D01*
X154525714Y-56196314D02*
X154540000Y-56167742D01*
X154540000Y-56167742D02*
X154568571Y-56139171D01*
X154568571Y-56139171D02*
X154611428Y-56124885D01*
X154611428Y-56124885D02*
X154640000Y-56124885D01*
X154640000Y-56124885D02*
X154682857Y-56139171D01*
X154682857Y-56139171D02*
X154697143Y-56153457D01*
X154982857Y-56424885D02*
X154811428Y-56424885D01*
X154897143Y-56424885D02*
X154897143Y-56124885D01*
X154897143Y-56124885D02*
X154868571Y-56167742D01*
X154868571Y-56167742D02*
X154840000Y-56196314D01*
X154840000Y-56196314D02*
X154811428Y-56210600D01*
X155240000Y-56224885D02*
X155240000Y-56424885D01*
X155168571Y-56110600D02*
X155097142Y-56324885D01*
X155097142Y-56324885D02*
X155282857Y-56324885D01*
X156033333Y-91827409D02*
X156033333Y-92184552D01*
X156033333Y-92184552D02*
X156009524Y-92255980D01*
X156009524Y-92255980D02*
X155961905Y-92303600D01*
X155961905Y-92303600D02*
X155890476Y-92327409D01*
X155890476Y-92327409D02*
X155842857Y-92327409D01*
X156509523Y-91827409D02*
X156271428Y-91827409D01*
X156271428Y-91827409D02*
X156247619Y-92065504D01*
X156247619Y-92065504D02*
X156271428Y-92041695D01*
X156271428Y-92041695D02*
X156319047Y-92017885D01*
X156319047Y-92017885D02*
X156438095Y-92017885D01*
X156438095Y-92017885D02*
X156485714Y-92041695D01*
X156485714Y-92041695D02*
X156509523Y-92065504D01*
X156509523Y-92065504D02*
X156533333Y-92113123D01*
X156533333Y-92113123D02*
X156533333Y-92232171D01*
X156533333Y-92232171D02*
X156509523Y-92279790D01*
X156509523Y-92279790D02*
X156485714Y-92303600D01*
X156485714Y-92303600D02*
X156438095Y-92327409D01*
X156438095Y-92327409D02*
X156319047Y-92327409D01*
X156319047Y-92327409D02*
X156271428Y-92303600D01*
X156271428Y-92303600D02*
X156247619Y-92279790D01*
D11*
X156818333Y-66652404D02*
X156735000Y-66533357D01*
X156675476Y-66652404D02*
X156675476Y-66402404D01*
X156675476Y-66402404D02*
X156770714Y-66402404D01*
X156770714Y-66402404D02*
X156794524Y-66414309D01*
X156794524Y-66414309D02*
X156806429Y-66426214D01*
X156806429Y-66426214D02*
X156818333Y-66450023D01*
X156818333Y-66450023D02*
X156818333Y-66485738D01*
X156818333Y-66485738D02*
X156806429Y-66509547D01*
X156806429Y-66509547D02*
X156794524Y-66521452D01*
X156794524Y-66521452D02*
X156770714Y-66533357D01*
X156770714Y-66533357D02*
X156675476Y-66533357D01*
X156901667Y-66402404D02*
X157068333Y-66402404D01*
X157068333Y-66402404D02*
X156961191Y-66652404D01*
D12*
X165007143Y-67166313D02*
X164992857Y-67180599D01*
X164992857Y-67180599D02*
X164950000Y-67194884D01*
X164950000Y-67194884D02*
X164921428Y-67194884D01*
X164921428Y-67194884D02*
X164878571Y-67180599D01*
X164878571Y-67180599D02*
X164850000Y-67152027D01*
X164850000Y-67152027D02*
X164835714Y-67123456D01*
X164835714Y-67123456D02*
X164821428Y-67066313D01*
X164821428Y-67066313D02*
X164821428Y-67023456D01*
X164821428Y-67023456D02*
X164835714Y-66966313D01*
X164835714Y-66966313D02*
X164850000Y-66937741D01*
X164850000Y-66937741D02*
X164878571Y-66909170D01*
X164878571Y-66909170D02*
X164921428Y-66894884D01*
X164921428Y-66894884D02*
X164950000Y-66894884D01*
X164950000Y-66894884D02*
X164992857Y-66909170D01*
X164992857Y-66909170D02*
X165007143Y-66923456D01*
X165292857Y-67194884D02*
X165121428Y-67194884D01*
X165207143Y-67194884D02*
X165207143Y-66894884D01*
X165207143Y-66894884D02*
X165178571Y-66937741D01*
X165178571Y-66937741D02*
X165150000Y-66966313D01*
X165150000Y-66966313D02*
X165121428Y-66980599D01*
X165478571Y-66894884D02*
X165507142Y-66894884D01*
X165507142Y-66894884D02*
X165535714Y-66909170D01*
X165535714Y-66909170D02*
X165550000Y-66923456D01*
X165550000Y-66923456D02*
X165564285Y-66952027D01*
X165564285Y-66952027D02*
X165578571Y-67009170D01*
X165578571Y-67009170D02*
X165578571Y-67080599D01*
X165578571Y-67080599D02*
X165564285Y-67137741D01*
X165564285Y-67137741D02*
X165550000Y-67166313D01*
X165550000Y-67166313D02*
X165535714Y-67180599D01*
X165535714Y-67180599D02*
X165507142Y-67194884D01*
X165507142Y-67194884D02*
X165478571Y-67194884D01*
X165478571Y-67194884D02*
X165450000Y-67180599D01*
X165450000Y-67180599D02*
X165435714Y-67166313D01*
X165435714Y-67166313D02*
X165421428Y-67137741D01*
X165421428Y-67137741D02*
X165407142Y-67080599D01*
X165407142Y-67080599D02*
X165407142Y-67009170D01*
X165407142Y-67009170D02*
X165421428Y-66952027D01*
X165421428Y-66952027D02*
X165435714Y-66923456D01*
X165435714Y-66923456D02*
X165450000Y-66909170D01*
X165450000Y-66909170D02*
X165478571Y-66894884D01*
D10*
X154036666Y-46864819D02*
X154036666Y-47579104D01*
X154036666Y-47579104D02*
X153989047Y-47721961D01*
X153989047Y-47721961D02*
X153893809Y-47817200D01*
X153893809Y-47817200D02*
X153750952Y-47864819D01*
X153750952Y-47864819D02*
X153655714Y-47864819D01*
X154465238Y-46960057D02*
X154512857Y-46912438D01*
X154512857Y-46912438D02*
X154608095Y-46864819D01*
X154608095Y-46864819D02*
X154846190Y-46864819D01*
X154846190Y-46864819D02*
X154941428Y-46912438D01*
X154941428Y-46912438D02*
X154989047Y-46960057D01*
X154989047Y-46960057D02*
X155036666Y-47055295D01*
X155036666Y-47055295D02*
X155036666Y-47150533D01*
X155036666Y-47150533D02*
X154989047Y-47293390D01*
X154989047Y-47293390D02*
X154417619Y-47864819D01*
X154417619Y-47864819D02*
X155036666Y-47864819D01*
D12*
X163317143Y-85366314D02*
X163302857Y-85380600D01*
X163302857Y-85380600D02*
X163260000Y-85394885D01*
X163260000Y-85394885D02*
X163231428Y-85394885D01*
X163231428Y-85394885D02*
X163188571Y-85380600D01*
X163188571Y-85380600D02*
X163160000Y-85352028D01*
X163160000Y-85352028D02*
X163145714Y-85323457D01*
X163145714Y-85323457D02*
X163131428Y-85266314D01*
X163131428Y-85266314D02*
X163131428Y-85223457D01*
X163131428Y-85223457D02*
X163145714Y-85166314D01*
X163145714Y-85166314D02*
X163160000Y-85137742D01*
X163160000Y-85137742D02*
X163188571Y-85109171D01*
X163188571Y-85109171D02*
X163231428Y-85094885D01*
X163231428Y-85094885D02*
X163260000Y-85094885D01*
X163260000Y-85094885D02*
X163302857Y-85109171D01*
X163302857Y-85109171D02*
X163317143Y-85123457D01*
X163602857Y-85394885D02*
X163431428Y-85394885D01*
X163517143Y-85394885D02*
X163517143Y-85094885D01*
X163517143Y-85094885D02*
X163488571Y-85137742D01*
X163488571Y-85137742D02*
X163460000Y-85166314D01*
X163460000Y-85166314D02*
X163431428Y-85180600D01*
X163874285Y-85094885D02*
X163731428Y-85094885D01*
X163731428Y-85094885D02*
X163717142Y-85237742D01*
X163717142Y-85237742D02*
X163731428Y-85223457D01*
X163731428Y-85223457D02*
X163760000Y-85209171D01*
X163760000Y-85209171D02*
X163831428Y-85209171D01*
X163831428Y-85209171D02*
X163860000Y-85223457D01*
X163860000Y-85223457D02*
X163874285Y-85237742D01*
X163874285Y-85237742D02*
X163888571Y-85266314D01*
X163888571Y-85266314D02*
X163888571Y-85337742D01*
X163888571Y-85337742D02*
X163874285Y-85366314D01*
X163874285Y-85366314D02*
X163860000Y-85380600D01*
X163860000Y-85380600D02*
X163831428Y-85394885D01*
X163831428Y-85394885D02*
X163760000Y-85394885D01*
X163760000Y-85394885D02*
X163731428Y-85380600D01*
X163731428Y-85380600D02*
X163717142Y-85366314D01*
D13*
X166463333Y-92054809D02*
X166463333Y-92411952D01*
X166463333Y-92411952D02*
X166439524Y-92483380D01*
X166439524Y-92483380D02*
X166391905Y-92531000D01*
X166391905Y-92531000D02*
X166320476Y-92554809D01*
X166320476Y-92554809D02*
X166272857Y-92554809D01*
X166915714Y-92054809D02*
X166820476Y-92054809D01*
X166820476Y-92054809D02*
X166772857Y-92078619D01*
X166772857Y-92078619D02*
X166749047Y-92102428D01*
X166749047Y-92102428D02*
X166701428Y-92173857D01*
X166701428Y-92173857D02*
X166677619Y-92269095D01*
X166677619Y-92269095D02*
X166677619Y-92459571D01*
X166677619Y-92459571D02*
X166701428Y-92507190D01*
X166701428Y-92507190D02*
X166725238Y-92531000D01*
X166725238Y-92531000D02*
X166772857Y-92554809D01*
X166772857Y-92554809D02*
X166868095Y-92554809D01*
X166868095Y-92554809D02*
X166915714Y-92531000D01*
X166915714Y-92531000D02*
X166939523Y-92507190D01*
X166939523Y-92507190D02*
X166963333Y-92459571D01*
X166963333Y-92459571D02*
X166963333Y-92340523D01*
X166963333Y-92340523D02*
X166939523Y-92292904D01*
X166939523Y-92292904D02*
X166915714Y-92269095D01*
X166915714Y-92269095D02*
X166868095Y-92245285D01*
X166868095Y-92245285D02*
X166772857Y-92245285D01*
X166772857Y-92245285D02*
X166725238Y-92269095D01*
X166725238Y-92269095D02*
X166701428Y-92292904D01*
X166701428Y-92292904D02*
X166677619Y-92340523D01*
D12*
X165806314Y-72249999D02*
X165820600Y-72264285D01*
X165820600Y-72264285D02*
X165834885Y-72307142D01*
X165834885Y-72307142D02*
X165834885Y-72335714D01*
X165834885Y-72335714D02*
X165820600Y-72378571D01*
X165820600Y-72378571D02*
X165792028Y-72407142D01*
X165792028Y-72407142D02*
X165763457Y-72421428D01*
X165763457Y-72421428D02*
X165706314Y-72435714D01*
X165706314Y-72435714D02*
X165663457Y-72435714D01*
X165663457Y-72435714D02*
X165606314Y-72421428D01*
X165606314Y-72421428D02*
X165577742Y-72407142D01*
X165577742Y-72407142D02*
X165549171Y-72378571D01*
X165549171Y-72378571D02*
X165534885Y-72335714D01*
X165534885Y-72335714D02*
X165534885Y-72307142D01*
X165534885Y-72307142D02*
X165549171Y-72264285D01*
X165549171Y-72264285D02*
X165563457Y-72249999D01*
X165534885Y-71978571D02*
X165534885Y-72121428D01*
X165534885Y-72121428D02*
X165677742Y-72135714D01*
X165677742Y-72135714D02*
X165663457Y-72121428D01*
X165663457Y-72121428D02*
X165649171Y-72092857D01*
X165649171Y-72092857D02*
X165649171Y-72021428D01*
X165649171Y-72021428D02*
X165663457Y-71992857D01*
X165663457Y-71992857D02*
X165677742Y-71978571D01*
X165677742Y-71978571D02*
X165706314Y-71964285D01*
X165706314Y-71964285D02*
X165777742Y-71964285D01*
X165777742Y-71964285D02*
X165806314Y-71978571D01*
X165806314Y-71978571D02*
X165820600Y-71992857D01*
X165820600Y-71992857D02*
X165834885Y-72021428D01*
X165834885Y-72021428D02*
X165834885Y-72092857D01*
X165834885Y-72092857D02*
X165820600Y-72121428D01*
X165820600Y-72121428D02*
X165806314Y-72135714D01*
D15*
%TO.C,U2*%
X154850000Y-59240000D02*
X154850000Y-63000000D01*
X154850000Y-63000000D02*
X156110000Y-63000000D01*
X161670000Y-59240000D02*
X161670000Y-63000000D01*
X161670000Y-63000000D02*
X160410000Y-63000000D01*
X161900000Y-58200000D02*
X161570000Y-57960000D01*
X161900000Y-57720000D01*
X161900000Y-58200000D01*
G36*
X161900000Y-58200000D02*
G01*
X161570000Y-57960000D01*
X161900000Y-57720000D01*
X161900000Y-58200000D01*
G37*
%TO.C,C17*%
X159630000Y-68047836D02*
X159630000Y-67832164D01*
X160350000Y-68047836D02*
X160350000Y-67832164D01*
%TO.C,C11*%
X163708601Y-82417718D02*
X163861104Y-82570221D01*
X164217718Y-81908601D02*
X164370221Y-82061104D01*
%TO.C,C6*%
X162050000Y-65557836D02*
X162050000Y-65342164D01*
X162770000Y-65557836D02*
X162770000Y-65342164D01*
%TO.C,C7*%
X153690000Y-78342164D02*
X153690000Y-78557836D01*
X154410000Y-78342164D02*
X154410000Y-78557836D01*
%TO.C,J3*%
X168160000Y-46740000D02*
X169540000Y-46740000D01*
X168160000Y-48120000D02*
X168160000Y-46740000D01*
X168160000Y-49390000D02*
X168160000Y-97760000D01*
X168160000Y-49390000D02*
X170920000Y-49390000D01*
X168160000Y-97760000D02*
X170920000Y-97760000D01*
X170920000Y-49390000D02*
X170920000Y-97760000D01*
%TO.C,R2*%
X159870000Y-55476359D02*
X159870000Y-55783641D01*
X160630000Y-55476359D02*
X160630000Y-55783641D01*
%TO.C,Y1*%
X161870000Y-82490000D02*
X157750000Y-82490000D01*
X161870000Y-85910000D02*
X161870000Y-82490000D01*
%TO.C,C4*%
X163070000Y-64787836D02*
X163070000Y-64572164D01*
X163790000Y-64787836D02*
X163790000Y-64572164D01*
%TO.C,C1*%
X164630000Y-68907836D02*
X164630000Y-68692164D01*
X165350000Y-68907836D02*
X165350000Y-68692164D01*
%TO.C,R6*%
X155620000Y-66606359D02*
X155620000Y-66913641D01*
X156380000Y-66606359D02*
X156380000Y-66913641D01*
%TO.C,R4*%
X161000000Y-70446359D02*
X161000000Y-70753641D01*
X161760000Y-70446359D02*
X161760000Y-70753641D01*
%TO.C,SW1*%
X163380000Y-56620000D02*
X163680000Y-56620000D01*
X163380000Y-60760000D02*
X163380000Y-56620000D01*
X163680000Y-60760000D02*
X163380000Y-60760000D01*
X166220000Y-56620000D02*
X166520000Y-56620000D01*
X166520000Y-56620000D02*
X166520000Y-60760000D01*
X166520000Y-60760000D02*
X166220000Y-60760000D01*
%TO.C,C8*%
X166612164Y-77300000D02*
X166827836Y-77300000D01*
X166612164Y-78020000D02*
X166827836Y-78020000D01*
%TO.C,C12*%
X160620000Y-68527836D02*
X160620000Y-68312164D01*
X161340000Y-68527836D02*
X161340000Y-68312164D01*
%TO.C,C13*%
X160480580Y-65770000D02*
X160199420Y-65770000D01*
X160480580Y-66790000D02*
X160199420Y-66790000D01*
%TO.C,U3*%
X156089432Y-67985000D02*
X158885000Y-67985000D01*
X158885000Y-70255000D02*
X155665000Y-70255000D01*
X155795000Y-67980000D02*
X155655000Y-67790000D01*
X155935000Y-67790000D01*
X155795000Y-67980000D01*
G36*
X155795000Y-67980000D02*
G01*
X155655000Y-67790000D01*
X155935000Y-67790000D01*
X155795000Y-67980000D01*
G37*
%TO.C,J1*%
X155950000Y-47250000D02*
X155950000Y-45350000D01*
X155950000Y-51150000D02*
X155950000Y-49150000D01*
X165350000Y-45350000D02*
X155950000Y-45350000D01*
X165350000Y-47250000D02*
X165350000Y-45350000D01*
X165350000Y-51150000D02*
X165350000Y-49150000D01*
%TO.C,C2*%
X154710000Y-72427836D02*
X154710000Y-72212164D01*
X155430000Y-72427836D02*
X155430000Y-72212164D01*
%TO.C,U1*%
X157040000Y-72640000D02*
X157690000Y-72640000D01*
X157040000Y-73290000D02*
X157040000Y-72640000D01*
X157040000Y-79860000D02*
X157040000Y-79210000D01*
X157690000Y-79860000D02*
X157040000Y-79860000D01*
X163610000Y-72640000D02*
X164260000Y-72640000D01*
X164260000Y-72640000D02*
X164260000Y-73290000D01*
X164260000Y-79210000D02*
X164260000Y-79860000D01*
X164260000Y-79860000D02*
X163610000Y-79860000D01*
X156510000Y-73650000D02*
X156180000Y-73890000D01*
X156180000Y-73410000D01*
X156510000Y-73650000D01*
G36*
X156510000Y-73650000D02*
G01*
X156180000Y-73890000D01*
X156180000Y-73410000D01*
X156510000Y-73650000D01*
G37*
%TO.C,C9*%
X162167954Y-82221910D02*
X162167954Y-82437582D01*
X162887954Y-82221910D02*
X162887954Y-82437582D01*
%TO.C,R1*%
X162416359Y-54790000D02*
X162723641Y-54790000D01*
X162416359Y-55550000D02*
X162723641Y-55550000D01*
%TO.C,R5*%
X161111595Y-81519746D02*
X160804313Y-81519746D01*
X161111595Y-82279746D02*
X160804313Y-82279746D01*
%TO.C,C16*%
X156800000Y-84422164D02*
X156800000Y-84637836D01*
X157520000Y-84422164D02*
X157520000Y-84637836D01*
%TO.C,R3*%
X161940000Y-70446359D02*
X161940000Y-70753641D01*
X162700000Y-70446359D02*
X162700000Y-70753641D01*
%TO.C,J4*%
X156730000Y-91683956D02*
X156730000Y-90303956D01*
X158110000Y-91683956D02*
X156730000Y-91683956D01*
X159380000Y-88923956D02*
X164570000Y-88923956D01*
X159380000Y-91683956D02*
X159380000Y-88923956D01*
X159380000Y-91683956D02*
X164570000Y-91683956D01*
X164570000Y-91683956D02*
X164570000Y-88923956D01*
%TO.C,C3*%
X163410000Y-70557836D02*
X163410000Y-70342164D01*
X164130000Y-70557836D02*
X164130000Y-70342164D01*
%TO.C,C14*%
X157045580Y-54980000D02*
X156764420Y-54980000D01*
X157045580Y-56000000D02*
X156764420Y-56000000D01*
%TO.C,J5*%
X153920000Y-92460000D02*
X155300000Y-92460000D01*
X153920000Y-93840000D02*
X153920000Y-92460000D01*
X153920000Y-95110000D02*
X153920000Y-97760000D01*
X153920000Y-95110000D02*
X156680000Y-95110000D01*
X153920000Y-97760000D02*
X156680000Y-97760000D01*
X156680000Y-95110000D02*
X156680000Y-97760000D01*
%TO.C,R7*%
X157803641Y-66920000D02*
X157496359Y-66920000D01*
X157803641Y-67680000D02*
X157496359Y-67680000D01*
%TO.C,C10*%
X163689190Y-67551693D02*
X163841693Y-67399190D01*
X164198307Y-68060810D02*
X164350810Y-67908307D01*
%TO.C,J2*%
X150380000Y-46740000D02*
X151760000Y-46740000D01*
X150380000Y-48120000D02*
X150380000Y-46740000D01*
X150380000Y-49390000D02*
X150380000Y-97760000D01*
X150380000Y-49390000D02*
X153140000Y-49390000D01*
X150380000Y-97760000D02*
X153140000Y-97760000D01*
X153140000Y-49390000D02*
X153140000Y-97760000D01*
%TO.C,C15*%
X162180000Y-84377836D02*
X162180000Y-84162164D01*
X162900000Y-84377836D02*
X162900000Y-84162164D01*
D16*
%TO.C,G\u002A\u002A\u002A*%
G36*
X161187752Y-97497021D02*
G01*
X161177681Y-97507092D01*
X161167609Y-97497021D01*
X161177681Y-97486950D01*
X161187752Y-97497021D01*
G37*
G36*
X161328751Y-97033738D02*
G01*
X161318680Y-97043809D01*
X161308608Y-97033738D01*
X161318680Y-97023666D01*
X161328751Y-97033738D01*
G37*
G36*
X161711463Y-97557449D02*
G01*
X161701392Y-97567521D01*
X161691321Y-97557449D01*
X161701392Y-97547378D01*
X161711463Y-97557449D01*
G37*
G36*
X161751749Y-96912881D02*
G01*
X161741677Y-96922953D01*
X161731606Y-96912881D01*
X161741677Y-96902810D01*
X161751749Y-96912881D01*
G37*
G36*
X161973319Y-97315736D02*
G01*
X161963248Y-97325808D01*
X161953176Y-97315736D01*
X161963248Y-97305665D01*
X161973319Y-97315736D01*
G37*
G36*
X163524310Y-96792025D02*
G01*
X163514239Y-96802096D01*
X163504167Y-96792025D01*
X163514239Y-96781954D01*
X163524310Y-96792025D01*
G37*
G36*
X162340924Y-94975909D02*
G01*
X162343454Y-94983261D01*
X162315746Y-94986069D01*
X162287150Y-94982903D01*
X162290567Y-94975909D01*
X162331806Y-94973249D01*
X162340924Y-94975909D01*
G37*
G36*
X160804636Y-94998834D02*
G01*
X160817626Y-95024161D01*
X160808695Y-95029535D01*
X160779172Y-95014711D01*
X160773997Y-95008052D01*
X160766457Y-94981830D01*
X160782089Y-94979678D01*
X160804636Y-94998834D01*
G37*
G36*
X160044406Y-94773944D02*
G01*
X160049687Y-94787822D01*
X160020458Y-94806559D01*
X160009401Y-94807965D01*
X159975614Y-94795194D01*
X159969116Y-94787822D01*
X159976340Y-94772972D01*
X160009401Y-94767679D01*
X160044406Y-94773944D01*
G37*
G36*
X160689240Y-95143162D02*
G01*
X160686002Y-95176772D01*
X160672326Y-95199784D01*
X160651840Y-95224547D01*
X160644702Y-95215653D01*
X160643898Y-95184455D01*
X160649966Y-95144791D01*
X160662852Y-95130249D01*
X160689240Y-95143162D01*
G37*
G36*
X162132407Y-93087063D02*
G01*
X162128055Y-93104044D01*
X162101719Y-93123707D01*
X162069252Y-93134910D01*
X162063961Y-93135168D01*
X162061890Y-93125172D01*
X162082634Y-93105470D01*
X162116206Y-93086940D01*
X162132407Y-93087063D01*
G37*
G36*
X162146250Y-93165530D02*
G01*
X162149988Y-93180179D01*
X162126547Y-93208057D01*
X162095257Y-93209107D01*
X162087881Y-93203679D01*
X162074538Y-93174814D01*
X162097084Y-93158049D01*
X162115997Y-93156260D01*
X162146250Y-93165530D01*
G37*
G36*
X163287843Y-95559640D02*
G01*
X163292669Y-95573389D01*
X163264258Y-95590310D01*
X163241123Y-95593532D01*
X163209043Y-95584867D01*
X163202026Y-95573389D01*
X163219300Y-95558376D01*
X163253572Y-95553246D01*
X163287843Y-95559640D01*
G37*
G36*
X160416790Y-95608639D02*
G01*
X160410040Y-95669502D01*
X160396059Y-95693952D01*
X160375935Y-95680303D01*
X160373257Y-95676184D01*
X160373117Y-95647338D01*
X160387206Y-95599742D01*
X160390954Y-95590577D01*
X160419813Y-95523032D01*
X160416790Y-95608639D01*
G37*
G36*
X161281750Y-93691326D02*
G01*
X161275607Y-93710185D01*
X161254316Y-93733441D01*
X161225877Y-93740255D01*
X161208459Y-93727345D01*
X161207895Y-93722412D01*
X161223993Y-93700618D01*
X161239756Y-93692197D01*
X161274810Y-93681291D01*
X161281750Y-93691326D01*
G37*
G36*
X162777689Y-93286359D02*
G01*
X162798108Y-93313737D01*
X162779701Y-93343972D01*
X162756980Y-93358707D01*
X162727122Y-93371325D01*
X162723136Y-93356411D01*
X162729268Y-93334237D01*
X162744521Y-93291020D01*
X162758319Y-93278248D01*
X162777689Y-93286359D01*
G37*
G36*
X163707823Y-95104277D02*
G01*
X163702019Y-95120055D01*
X163666896Y-95138450D01*
X163654552Y-95142672D01*
X163606660Y-95154414D01*
X163586810Y-95148849D01*
X163584738Y-95139498D01*
X163601803Y-95117255D01*
X163640696Y-95100935D01*
X163682965Y-95095817D01*
X163707823Y-95104277D01*
G37*
G36*
X157226899Y-95308759D02*
G01*
X157233094Y-95350403D01*
X157233645Y-95400633D01*
X157228261Y-95443759D01*
X157218544Y-95463276D01*
X157207017Y-95452856D01*
X157200343Y-95411198D01*
X157199489Y-95383222D01*
X157202602Y-95328744D01*
X157210490Y-95295827D01*
X157215351Y-95291390D01*
X157226899Y-95308759D01*
G37*
G36*
X159957827Y-93774764D02*
G01*
X159954002Y-93807709D01*
X159932040Y-93844796D01*
X159927392Y-93849746D01*
X159894407Y-93877183D01*
X159881121Y-93876265D01*
X159886853Y-93856220D01*
X159903780Y-93815369D01*
X159911024Y-93795792D01*
X159929742Y-93766089D01*
X159941251Y-93760542D01*
X159957827Y-93774764D01*
G37*
G36*
X159656903Y-93879296D02*
G01*
X159667868Y-93912293D01*
X159694656Y-93958298D01*
X159698560Y-93963896D01*
X159723463Y-94003009D01*
X159723614Y-94019695D01*
X159709149Y-94022398D01*
X159679794Y-94006011D01*
X159649037Y-93965933D01*
X159645635Y-93959655D01*
X159625963Y-93908207D01*
X159633015Y-93877255D01*
X159635047Y-93875055D01*
X159653534Y-93865005D01*
X159656903Y-93879296D01*
G37*
G36*
X160079221Y-93850764D02*
G01*
X160088446Y-93876111D01*
X160085287Y-93903264D01*
X160072056Y-93929546D01*
X160059482Y-93921236D01*
X160041339Y-93908550D01*
X160030873Y-93919533D01*
X159998505Y-93940269D01*
X159959777Y-93934263D01*
X159952403Y-93928470D01*
X159957848Y-93911241D01*
X159987036Y-93886918D01*
X160026471Y-93863772D01*
X160062656Y-93850073D01*
X160079221Y-93850764D01*
G37*
G36*
X159792278Y-93798272D02*
G01*
X159797874Y-93840966D01*
X159797903Y-93844563D01*
X159808257Y-93902171D01*
X159831239Y-93945276D01*
X159853292Y-93972589D01*
X159846879Y-93981411D01*
X159830211Y-93982112D01*
X159798834Y-93964251D01*
X159769153Y-93918028D01*
X159766861Y-93912738D01*
X159750208Y-93852380D01*
X159752542Y-93805160D01*
X159772820Y-93781634D01*
X159779915Y-93780685D01*
X159792278Y-93798272D01*
G37*
G36*
X163735696Y-95167306D02*
G01*
X163771520Y-95190677D01*
X163817696Y-95219172D01*
X163856485Y-95230962D01*
X163879526Y-95243408D01*
X163877679Y-95267802D01*
X163855407Y-95283837D01*
X163828330Y-95276756D01*
X163782616Y-95252992D01*
X163762642Y-95240529D01*
X163714221Y-95206167D01*
X163681289Y-95177906D01*
X163675847Y-95171288D01*
X163674371Y-95152874D01*
X163697728Y-95152237D01*
X163735696Y-95167306D01*
G37*
G36*
X158894215Y-92900409D02*
G01*
X158898655Y-92904457D01*
X158925862Y-92944494D01*
X158929113Y-92978669D01*
X158907712Y-92994938D01*
X158903900Y-92995118D01*
X158876832Y-93011991D01*
X158865518Y-93035335D01*
X158839145Y-93065478D01*
X158784871Y-93070471D01*
X158706537Y-93049970D01*
X158705848Y-93049711D01*
X158659838Y-93032405D01*
X158720266Y-92981254D01*
X158753572Y-92950231D01*
X158754574Y-92940265D01*
X158740409Y-92943556D01*
X158713090Y-92950467D01*
X158720079Y-92937477D01*
X158730337Y-92927032D01*
X158785309Y-92891878D01*
X158844921Y-92882335D01*
X158894215Y-92900409D01*
G37*
G36*
X163442481Y-94871775D02*
G01*
X163470071Y-94896641D01*
X163471928Y-94900592D01*
X163499047Y-94920921D01*
X163552297Y-94928821D01*
X163552750Y-94928821D01*
X163612641Y-94943033D01*
X163661068Y-94978686D01*
X163684818Y-95025304D01*
X163685452Y-95034017D01*
X163672847Y-95049868D01*
X163644721Y-95043219D01*
X163615611Y-95018391D01*
X163611132Y-95011917D01*
X163574888Y-94983647D01*
X163536458Y-94983922D01*
X163489953Y-94980841D01*
X163441374Y-94948914D01*
X163425171Y-94933494D01*
X163390490Y-94894457D01*
X163374696Y-94867715D01*
X163375310Y-94862966D01*
X163404093Y-94857901D01*
X163442481Y-94871775D01*
G37*
G36*
X162247091Y-92887840D02*
G01*
X162290335Y-92900126D01*
X162320256Y-92914206D01*
X162325747Y-92926635D01*
X162319087Y-92930218D01*
X162305027Y-92950029D01*
X162308129Y-92958805D01*
X162308487Y-92985636D01*
X162278306Y-93003883D01*
X162226868Y-93011054D01*
X162163456Y-93004655D01*
X162149568Y-93001376D01*
X162118773Y-92977609D01*
X162113426Y-92939527D01*
X162122323Y-92921261D01*
X162241889Y-92921261D01*
X162244654Y-92933236D01*
X162255317Y-92934689D01*
X162271897Y-92927320D01*
X162268746Y-92921261D01*
X162244841Y-92918850D01*
X162241889Y-92921261D01*
X162122323Y-92921261D01*
X162131549Y-92902321D01*
X162165066Y-92882435D01*
X162201632Y-92880794D01*
X162247091Y-92887840D01*
G37*
G36*
X161373852Y-97193451D02*
G01*
X161365705Y-97225037D01*
X161364172Y-97227726D01*
X161349035Y-97262107D01*
X161359926Y-97278110D01*
X161364001Y-97279761D01*
X161388789Y-97298665D01*
X161381654Y-97315200D01*
X161349381Y-97315832D01*
X161346371Y-97314936D01*
X161316814Y-97310881D01*
X161315936Y-97321367D01*
X161313024Y-97348794D01*
X161298315Y-97366277D01*
X161274497Y-97380734D01*
X161268625Y-97364256D01*
X161268631Y-97363524D01*
X161279196Y-97322478D01*
X161287369Y-97306750D01*
X161293638Y-97262281D01*
X161284717Y-97238232D01*
X161273457Y-97210190D01*
X161287967Y-97208387D01*
X161295549Y-97211089D01*
X161328980Y-97212102D01*
X161339366Y-97204071D01*
X161361783Y-97183326D01*
X161373852Y-97193451D01*
G37*
G36*
X158971847Y-93074990D02*
G01*
X159003746Y-93088484D01*
X158997025Y-93102916D01*
X158980077Y-93131907D01*
X158972133Y-93181961D01*
X158972050Y-93187663D01*
X158963940Y-93239894D01*
X158938204Y-93256252D01*
X158892730Y-93238042D01*
X158891646Y-93237360D01*
X158848988Y-93226736D01*
X158816111Y-93229781D01*
X158779620Y-93232992D01*
X158775598Y-93215645D01*
X158804308Y-93176907D01*
X158835854Y-93144999D01*
X158911622Y-93144999D01*
X158922138Y-93172559D01*
X158931765Y-93176402D01*
X158951331Y-93161945D01*
X158951907Y-93157448D01*
X158937266Y-93130168D01*
X158931765Y-93126046D01*
X158914520Y-93130612D01*
X158911622Y-93144999D01*
X158835854Y-93144999D01*
X158846176Y-93134558D01*
X158898483Y-93090284D01*
X158938441Y-93072806D01*
X158971847Y-93074990D01*
G37*
G36*
X161552303Y-93891161D02*
G01*
X161551866Y-93936613D01*
X161561516Y-93952078D01*
X161594800Y-93945446D01*
X161649076Y-93932844D01*
X161681249Y-93930517D01*
X161703529Y-93935225D01*
X161714808Y-93953833D01*
X161717753Y-93995712D01*
X161715907Y-94052197D01*
X161708944Y-94134742D01*
X161696357Y-94179976D01*
X161676278Y-94190697D01*
X161646839Y-94169702D01*
X161641394Y-94163873D01*
X161608107Y-94133632D01*
X161586635Y-94123111D01*
X161571316Y-94119981D01*
X161549473Y-94106652D01*
X161512865Y-94077219D01*
X161464715Y-94035767D01*
X161421801Y-93993926D01*
X161411962Y-93970405D01*
X161434159Y-93962096D01*
X161440035Y-93961969D01*
X161469314Y-93945125D01*
X161489893Y-93911613D01*
X161515052Y-93868821D01*
X161538300Y-93862990D01*
X161552303Y-93891161D01*
G37*
G36*
X159000477Y-94121226D02*
G01*
X159016778Y-94169906D01*
X159034911Y-94239874D01*
X159041467Y-94269146D01*
X159058798Y-94348718D01*
X159073559Y-94414575D01*
X159083246Y-94455615D01*
X159084844Y-94461621D01*
X159076511Y-94492906D01*
X159046570Y-94532786D01*
X159007377Y-94568187D01*
X158971286Y-94586039D01*
X158966923Y-94586394D01*
X158929635Y-94573221D01*
X158915650Y-94562223D01*
X158893391Y-94528168D01*
X158908020Y-94502263D01*
X158941836Y-94485681D01*
X158979359Y-94460732D01*
X158992193Y-94434634D01*
X159001834Y-94413401D01*
X159012336Y-94415181D01*
X159028705Y-94411928D01*
X159030042Y-94374878D01*
X159016572Y-94307515D01*
X159002046Y-94255874D01*
X158979882Y-94174659D01*
X158973160Y-94125821D01*
X158981481Y-94104701D01*
X158988898Y-94102969D01*
X159000477Y-94121226D01*
G37*
G36*
X161270640Y-93569133D02*
G01*
X161273359Y-93569926D01*
X161349814Y-93603433D01*
X161396883Y-93647298D01*
X161409322Y-93686478D01*
X161419374Y-93733697D01*
X161433493Y-93756513D01*
X161441725Y-93773102D01*
X161417953Y-93779953D01*
X161391851Y-93780685D01*
X161347782Y-93777223D01*
X161334514Y-93762192D01*
X161338771Y-93740562D01*
X161333960Y-93702670D01*
X161303000Y-93675161D01*
X161259885Y-93665072D01*
X161218612Y-93679440D01*
X161218076Y-93679880D01*
X161187129Y-93695479D01*
X161173629Y-93692705D01*
X161172870Y-93671683D01*
X161199878Y-93649902D01*
X161242716Y-93633428D01*
X161289447Y-93628322D01*
X161298537Y-93629247D01*
X161358965Y-93638222D01*
X161293501Y-93615897D01*
X161249950Y-93595495D01*
X161229484Y-93576018D01*
X161235311Y-93564789D01*
X161270640Y-93569133D01*
G37*
G36*
X161742451Y-92632233D02*
G01*
X161728968Y-92682184D01*
X161721511Y-92703819D01*
X161695725Y-92828520D01*
X161698939Y-92965328D01*
X161730725Y-93098841D01*
X161732689Y-93104173D01*
X161775056Y-93189580D01*
X161836223Y-93278972D01*
X161906360Y-93360162D01*
X161975633Y-93420965D01*
X162001232Y-93437027D01*
X162041633Y-93465339D01*
X162052991Y-93488076D01*
X162032407Y-93498567D01*
X162028023Y-93498686D01*
X162002188Y-93485036D01*
X161958289Y-93449077D01*
X161905378Y-93398294D01*
X161900178Y-93392937D01*
X161818640Y-93304250D01*
X161761287Y-93229946D01*
X161721027Y-93159025D01*
X161690763Y-93080484D01*
X161683499Y-93056926D01*
X161657687Y-92927434D01*
X161657248Y-92805980D01*
X161681467Y-92701457D01*
X161717256Y-92637097D01*
X161738528Y-92616911D01*
X161742451Y-92632233D01*
G37*
G36*
X159098365Y-92404243D02*
G01*
X159135510Y-92434795D01*
X159181842Y-92484711D01*
X159231045Y-92546741D01*
X159276805Y-92613633D01*
X159304948Y-92662404D01*
X159342402Y-92739256D01*
X159363561Y-92801457D01*
X159372928Y-92867569D01*
X159375005Y-92951260D01*
X159363991Y-93102336D01*
X159328764Y-93227929D01*
X159266369Y-93336777D01*
X159229333Y-93381854D01*
X159187891Y-93425253D01*
X159170365Y-93436634D01*
X159175536Y-93418115D01*
X159197747Y-93377479D01*
X159212806Y-93357687D01*
X159238140Y-93326407D01*
X159269916Y-93272366D01*
X159300293Y-93210471D01*
X159321434Y-93155630D01*
X159324019Y-93146188D01*
X159331260Y-93094798D01*
X159335689Y-93020057D01*
X159336383Y-92944761D01*
X159319804Y-92805494D01*
X159272594Y-92677408D01*
X159191143Y-92551925D01*
X159150641Y-92503341D01*
X159108920Y-92453153D01*
X159082374Y-92415721D01*
X159076719Y-92400309D01*
X159098365Y-92404243D01*
G37*
G36*
X161328281Y-96939384D02*
G01*
X161328751Y-96947662D01*
X161318984Y-96983130D01*
X161310376Y-96992360D01*
X161292832Y-97014236D01*
X161262036Y-97062672D01*
X161223616Y-97128641D01*
X161209266Y-97154463D01*
X161126532Y-97305211D01*
X161177537Y-97386009D01*
X161216484Y-97439096D01*
X161247402Y-97465199D01*
X161265529Y-97461198D01*
X161268323Y-97445475D01*
X161280539Y-97433180D01*
X161287586Y-97436049D01*
X161298970Y-97461061D01*
X161286516Y-97491079D01*
X161258658Y-97506999D01*
X161256223Y-97507092D01*
X161229192Y-97491899D01*
X161190985Y-97453104D01*
X161167877Y-97423695D01*
X161107464Y-97340297D01*
X161053942Y-97458944D01*
X161026210Y-97526246D01*
X161007524Y-97582837D01*
X161002192Y-97612842D01*
X160994831Y-97642676D01*
X160985073Y-97648092D01*
X160969056Y-97631453D01*
X160966198Y-97612842D01*
X160974488Y-97577576D01*
X160996205Y-97519018D01*
X161026626Y-97449891D01*
X161056784Y-97383300D01*
X161078438Y-97330065D01*
X161087030Y-97301417D01*
X161087038Y-97301048D01*
X161077143Y-97273410D01*
X161051609Y-97224231D01*
X161026610Y-97181698D01*
X160993579Y-97124573D01*
X160971630Y-97080017D01*
X160966182Y-97062461D01*
X160974118Y-97047425D01*
X160995574Y-97064840D01*
X161027021Y-97110653D01*
X161059016Y-97168991D01*
X161110799Y-97271179D01*
X161191089Y-97122245D01*
X161248235Y-97020725D01*
X161290163Y-96956390D01*
X161316852Y-96929267D01*
X161328281Y-96939384D01*
G37*
G36*
X163822379Y-96577348D02*
G01*
X163826451Y-96602911D01*
X163830806Y-96629846D01*
X163851331Y-96638117D01*
X163899213Y-96631952D01*
X163901987Y-96631440D01*
X163991778Y-96615098D01*
X164047689Y-96606035D01*
X164075381Y-96603811D01*
X164080511Y-96607987D01*
X164068740Y-96618122D01*
X164068164Y-96618528D01*
X164029458Y-96635090D01*
X163971242Y-96649589D01*
X163955676Y-96652225D01*
X163899500Y-96661769D01*
X163861361Y-96675011D01*
X163837930Y-96698963D01*
X163825876Y-96740635D01*
X163821872Y-96807037D01*
X163822586Y-96905179D01*
X163823042Y-96931492D01*
X163823224Y-97039918D01*
X163819603Y-97116472D01*
X163812404Y-97157947D01*
X163806645Y-97164666D01*
X163795619Y-97146140D01*
X163788241Y-97096923D01*
X163786009Y-97038774D01*
X163784386Y-96968505D01*
X163777227Y-96927323D01*
X163760765Y-96904068D01*
X163735652Y-96889598D01*
X163699600Y-96876480D01*
X163686867Y-96889389D01*
X163685452Y-96916932D01*
X163677515Y-96954095D01*
X163658447Y-96957185D01*
X163618569Y-96957515D01*
X163603730Y-96963950D01*
X163564753Y-96967674D01*
X163549677Y-96959216D01*
X163520804Y-96946688D01*
X163510570Y-96950122D01*
X163486587Y-96950678D01*
X163473123Y-96942407D01*
X163448295Y-96935646D01*
X163436162Y-96953929D01*
X163416144Y-96975095D01*
X163403426Y-96973292D01*
X163381841Y-96979560D01*
X163364275Y-97007265D01*
X163350300Y-97032978D01*
X163344302Y-97027993D01*
X163335654Y-97012400D01*
X163306100Y-97021954D01*
X163299299Y-97025508D01*
X163261352Y-97038404D01*
X163236213Y-97022537D01*
X163233835Y-97019420D01*
X163196640Y-96991705D01*
X163158944Y-97001446D01*
X163127244Y-97046428D01*
X163122984Y-97057238D01*
X163097866Y-97109071D01*
X163074756Y-97121617D01*
X163054613Y-97094519D01*
X163050956Y-97084095D01*
X163030990Y-97048516D01*
X163003171Y-97051806D01*
X162986240Y-97066225D01*
X162954339Y-97078759D01*
X162928639Y-97058817D01*
X162922798Y-97033738D01*
X162940171Y-97033738D01*
X162950242Y-97043809D01*
X162960313Y-97033738D01*
X162950242Y-97023666D01*
X162940171Y-97033738D01*
X162922798Y-97033738D01*
X162920028Y-97021846D01*
X162933466Y-96984953D01*
X162963438Y-96967393D01*
X162994434Y-96976192D01*
X163001548Y-96984917D01*
X163017783Y-97000211D01*
X163031745Y-96978143D01*
X163031884Y-96977781D01*
X163052294Y-96946148D01*
X163070754Y-96951532D01*
X163082030Y-96990795D01*
X163083226Y-97008559D01*
X163085283Y-97074023D01*
X163106077Y-97009277D01*
X163129080Y-96962432D01*
X163160915Y-96948458D01*
X163168037Y-96948848D01*
X163204929Y-96938017D01*
X163221277Y-96904303D01*
X163238813Y-96865584D01*
X163261419Y-96846796D01*
X163278863Y-96853288D01*
X163282597Y-96872242D01*
X163273325Y-96916723D01*
X163260823Y-96946145D01*
X163248741Y-96982972D01*
X163252129Y-96999912D01*
X163271650Y-96996271D01*
X163298973Y-96968287D01*
X163325106Y-96928233D01*
X163341059Y-96888383D01*
X163342578Y-96876443D01*
X163351728Y-96852000D01*
X163363497Y-96852656D01*
X163375141Y-96876758D01*
X163372417Y-96883998D01*
X163378682Y-96892168D01*
X163411661Y-96883376D01*
X163457680Y-96874426D01*
X163474429Y-96883437D01*
X163498932Y-96902051D01*
X163523916Y-96881168D01*
X163541961Y-96840871D01*
X163562008Y-96802432D01*
X163582288Y-96790824D01*
X163584272Y-96791736D01*
X163594154Y-96818162D01*
X163584793Y-96842280D01*
X163567851Y-96888359D01*
X163564596Y-96911557D01*
X163572234Y-96940633D01*
X163590877Y-96937121D01*
X163614114Y-96904757D01*
X163626794Y-96875285D01*
X163649408Y-96829215D01*
X163675960Y-96815567D01*
X163690231Y-96817652D01*
X163728045Y-96839561D01*
X163740317Y-96856937D01*
X163755110Y-96873119D01*
X163770152Y-96856927D01*
X163781656Y-96816070D01*
X163785857Y-96764211D01*
X163783594Y-96719258D01*
X163768196Y-96702982D01*
X163727603Y-96705646D01*
X163715666Y-96707552D01*
X163669467Y-96710626D01*
X163645930Y-96703542D01*
X163645167Y-96701029D01*
X163662767Y-96685885D01*
X163706079Y-96671805D01*
X163715666Y-96669839D01*
X163764459Y-96655275D01*
X163783953Y-96630389D01*
X163786166Y-96608498D01*
X163793353Y-96571730D01*
X163806309Y-96560383D01*
X163822379Y-96577348D01*
G37*
G36*
X162451440Y-92193002D02*
G01*
X162531421Y-92198974D01*
X162612801Y-92209249D01*
X162685998Y-92223248D01*
X162713916Y-92230670D01*
X162779212Y-92245284D01*
X162827734Y-92241313D01*
X162852798Y-92231869D01*
X162897808Y-92219127D01*
X162918202Y-92226578D01*
X162943719Y-92243478D01*
X162992858Y-92262327D01*
X163010670Y-92267544D01*
X163071710Y-92295346D01*
X163135333Y-92341712D01*
X163191559Y-92397035D01*
X163230408Y-92451711D01*
X163242312Y-92490475D01*
X163256375Y-92530255D01*
X163290757Y-92574937D01*
X163295986Y-92579974D01*
X163349661Y-92629744D01*
X163285915Y-92702347D01*
X163248815Y-92749790D01*
X163229667Y-92794264D01*
X163222786Y-92852891D01*
X163222169Y-92894349D01*
X163211747Y-93005547D01*
X163184342Y-93112730D01*
X163181556Y-93120254D01*
X163152499Y-93183810D01*
X163115524Y-93247768D01*
X163076654Y-93303732D01*
X163041908Y-93343306D01*
X163017308Y-93358093D01*
X163012433Y-93356092D01*
X163016077Y-93335071D01*
X163039242Y-93303662D01*
X163100478Y-93218943D01*
X163148422Y-93116172D01*
X163179114Y-93008099D01*
X163188592Y-92907470D01*
X163180614Y-92848758D01*
X163154693Y-92794014D01*
X163112180Y-92738924D01*
X163063907Y-92694930D01*
X163020704Y-92673478D01*
X163014160Y-92672893D01*
X162997640Y-92690559D01*
X162989138Y-92733499D01*
X162988957Y-92738357D01*
X162974342Y-92868145D01*
X162936144Y-92970231D01*
X162896805Y-93025762D01*
X162854181Y-93067844D01*
X162817901Y-93092839D01*
X162807156Y-93095831D01*
X162781724Y-93107801D01*
X162779029Y-93116683D01*
X162792150Y-93126817D01*
X162819314Y-93115974D01*
X162849862Y-93105060D01*
X162859264Y-93123767D01*
X162859600Y-93135408D01*
X162848148Y-93167452D01*
X162809243Y-93176402D01*
X162768742Y-93165896D01*
X162758886Y-93146188D01*
X162742093Y-93121582D01*
X162718600Y-93115974D01*
X162690898Y-93123806D01*
X162679671Y-93154430D01*
X162678315Y-93186888D01*
X162668998Y-93241284D01*
X162643672Y-93318942D01*
X162606270Y-93408121D01*
X162599002Y-93423565D01*
X162535048Y-93570475D01*
X162470492Y-93742199D01*
X162410426Y-93923669D01*
X162359947Y-94099821D01*
X162334168Y-94206712D01*
X162309022Y-94317674D01*
X162288432Y-94394938D01*
X162269676Y-94444428D01*
X162250029Y-94472067D01*
X162226769Y-94483782D01*
X162205923Y-94485681D01*
X162151727Y-94466335D01*
X162119818Y-94431117D01*
X162102155Y-94395297D01*
X162091702Y-94347714D01*
X162087192Y-94278758D01*
X162087264Y-94184368D01*
X162093354Y-94052220D01*
X162106333Y-93917828D01*
X162124496Y-93795102D01*
X162125464Y-93790756D01*
X162235175Y-93790756D01*
X162245246Y-93800827D01*
X162255317Y-93790756D01*
X162245246Y-93780685D01*
X162235175Y-93790756D01*
X162125464Y-93790756D01*
X162146138Y-93697951D01*
X162147397Y-93693621D01*
X162166934Y-93667534D01*
X162182842Y-93666354D01*
X162199836Y-93659145D01*
X162199592Y-93622309D01*
X162204033Y-93553896D01*
X162232545Y-93455062D01*
X162264831Y-93372794D01*
X162268731Y-93349345D01*
X162250746Y-93340751D01*
X162475315Y-93340751D01*
X162536530Y-93304590D01*
X162577475Y-93274279D01*
X162597379Y-93247518D01*
X162597744Y-93244714D01*
X162581704Y-93218696D01*
X162547941Y-93203956D01*
X162517987Y-93209420D01*
X162516405Y-93210992D01*
X162501741Y-93240736D01*
X162488773Y-93283755D01*
X162475315Y-93340751D01*
X162250746Y-93340751D01*
X162247785Y-93339336D01*
X162207116Y-93337544D01*
X162159673Y-93332336D01*
X162135318Y-93319480D01*
X162134461Y-93316213D01*
X162145592Y-93302960D01*
X162151070Y-93305146D01*
X162184790Y-93308288D01*
X162242309Y-93298582D01*
X162310737Y-93279828D01*
X162377188Y-93255825D01*
X162428773Y-93230373D01*
X162444641Y-93218597D01*
X162478430Y-93171096D01*
X162486210Y-93108271D01*
X162485802Y-93100417D01*
X162481655Y-93041784D01*
X162477124Y-93016372D01*
X162469474Y-93017184D01*
X162459134Y-93032228D01*
X162443189Y-93038288D01*
X162420631Y-93011281D01*
X162398509Y-92969432D01*
X162371508Y-92919780D01*
X162341861Y-92887318D01*
X162297594Y-92862926D01*
X162226734Y-92837485D01*
X162224175Y-92836644D01*
X162138791Y-92810302D01*
X162081875Y-92796358D01*
X162056335Y-92795285D01*
X162065080Y-92807553D01*
X162071578Y-92811889D01*
X162087066Y-92839004D01*
X162074843Y-92866339D01*
X162052701Y-92874261D01*
X162041829Y-92855885D01*
X162035411Y-92807269D01*
X162033185Y-92738182D01*
X162034889Y-92658392D01*
X162040262Y-92577669D01*
X162049042Y-92505780D01*
X162060969Y-92452495D01*
X162064232Y-92443652D01*
X162088127Y-92394944D01*
X162106121Y-92372339D01*
X162113699Y-92379171D01*
X162108482Y-92410978D01*
X162102376Y-92439233D01*
X162108869Y-92447962D01*
X162135440Y-92436832D01*
X162186187Y-92407501D01*
X162253720Y-92381180D01*
X162346194Y-92362240D01*
X162448717Y-92352041D01*
X162546396Y-92351940D01*
X162624340Y-92363296D01*
X162634858Y-92366569D01*
X162682674Y-92377372D01*
X162714583Y-92364640D01*
X162727019Y-92352376D01*
X162752147Y-92316717D01*
X162758886Y-92296760D01*
X162740131Y-92275400D01*
X162689413Y-92256196D01*
X162615053Y-92241010D01*
X162525375Y-92231708D01*
X162459444Y-92229693D01*
X162373980Y-92226535D01*
X162326153Y-92217197D01*
X162315746Y-92206672D01*
X162334018Y-92196273D01*
X162382444Y-92191909D01*
X162451440Y-92193002D01*
G37*
G36*
X162862685Y-96736696D02*
G01*
X162870765Y-96762688D01*
X162879587Y-96819429D01*
X162888423Y-96897469D01*
X162896546Y-96987356D01*
X162903230Y-97079638D01*
X162907747Y-97164865D01*
X162909369Y-97233586D01*
X162907370Y-97276350D01*
X162904867Y-97284939D01*
X162889555Y-97287116D01*
X162876744Y-97253168D01*
X162867108Y-97187213D01*
X162861318Y-97093370D01*
X162859908Y-97009748D01*
X162858340Y-96918554D01*
X162854321Y-96843064D01*
X162848485Y-96791851D01*
X162842448Y-96773731D01*
X162826312Y-96783551D01*
X162807925Y-96824948D01*
X162789695Y-96889482D01*
X162774031Y-96968715D01*
X162763765Y-97049417D01*
X162755620Y-97113775D01*
X162745487Y-97159926D01*
X162737931Y-97175239D01*
X162728648Y-97161713D01*
X162718412Y-97117279D01*
X162709294Y-97051200D01*
X162708514Y-97043659D01*
X162699496Y-96972549D01*
X162689170Y-96918858D01*
X162679691Y-96893649D01*
X162679228Y-96893303D01*
X162668074Y-96906608D01*
X162652735Y-96951334D01*
X162635132Y-97019082D01*
X162617184Y-97101453D01*
X162600812Y-97190047D01*
X162587936Y-97276464D01*
X162584100Y-97309437D01*
X162574994Y-97371989D01*
X162563897Y-97414471D01*
X162555373Y-97426521D01*
X162547403Y-97407899D01*
X162540095Y-97358110D01*
X162534601Y-97286270D01*
X162533064Y-97250272D01*
X162527244Y-97074023D01*
X162467366Y-97139487D01*
X162412467Y-97189822D01*
X162373476Y-97203297D01*
X162350197Y-97179977D01*
X162350122Y-97179773D01*
X162340122Y-97178704D01*
X162327986Y-97209496D01*
X162326618Y-97215023D01*
X162309017Y-97281738D01*
X162295799Y-97310356D01*
X162285316Y-97302612D01*
X162277049Y-97267141D01*
X162267553Y-97223493D01*
X162256113Y-97214194D01*
X162237744Y-97231892D01*
X162203324Y-97259270D01*
X162182351Y-97265379D01*
X162159848Y-97282167D01*
X162154604Y-97305665D01*
X162146168Y-97338396D01*
X162134461Y-97345950D01*
X162117373Y-97329324D01*
X162114304Y-97310701D01*
X162098395Y-97281587D01*
X162059530Y-97272271D01*
X162016541Y-97262258D01*
X161996966Y-97245679D01*
X161983189Y-97242364D01*
X161960630Y-97263983D01*
X161937862Y-97299114D01*
X161923459Y-97336335D01*
X161922103Y-97345429D01*
X161917851Y-97394068D01*
X161916336Y-97409284D01*
X161900953Y-97444008D01*
X161867449Y-97489295D01*
X161826888Y-97532748D01*
X161790338Y-97561972D01*
X161775070Y-97567521D01*
X161745721Y-97552805D01*
X161741935Y-97547794D01*
X161742581Y-97512124D01*
X161774724Y-97512124D01*
X161777864Y-97525183D01*
X161790391Y-97527235D01*
X161811621Y-97511616D01*
X161842187Y-97472591D01*
X161852486Y-97456698D01*
X161882079Y-97400087D01*
X161888881Y-97368631D01*
X161875873Y-97366113D01*
X161846035Y-97396315D01*
X161826494Y-97423719D01*
X161790101Y-97480691D01*
X161774724Y-97512124D01*
X161742581Y-97512124D01*
X161742593Y-97511442D01*
X161773019Y-97450015D01*
X161828197Y-97370581D01*
X161856785Y-97327133D01*
X161868134Y-97297823D01*
X161866874Y-97293219D01*
X161842301Y-97282863D01*
X161791238Y-97268350D01*
X161748244Y-97258121D01*
X161673431Y-97233331D01*
X161636528Y-97197869D01*
X161635662Y-97147407D01*
X161668959Y-97077616D01*
X161669647Y-97076501D01*
X161711887Y-97023303D01*
X161767240Y-96972934D01*
X161825301Y-96932844D01*
X161875667Y-96910484D01*
X161902277Y-96909886D01*
X161930857Y-96931347D01*
X161928068Y-96951055D01*
X161897846Y-96954464D01*
X161890732Y-96952527D01*
X161849274Y-96958140D01*
X161796340Y-96990520D01*
X161741231Y-97041924D01*
X161693252Y-97104606D01*
X161679604Y-97128273D01*
X161664496Y-97162272D01*
X161666508Y-97185400D01*
X161691759Y-97203213D01*
X161746367Y-97221269D01*
X161796930Y-97234834D01*
X161858947Y-97249775D01*
X161896957Y-97251782D01*
X161925811Y-97238550D01*
X161958212Y-97209820D01*
X161994153Y-97177732D01*
X162010327Y-97172575D01*
X162015017Y-97192361D01*
X162015195Y-97196147D01*
X162020344Y-97217159D01*
X162026945Y-97209987D01*
X162048426Y-97186136D01*
X162070804Y-97198427D01*
X162079404Y-97220058D01*
X162087893Y-97234163D01*
X162098037Y-97210567D01*
X162110020Y-97148494D01*
X162124025Y-97047170D01*
X162127925Y-97015098D01*
X162142065Y-96929896D01*
X162159670Y-96879235D01*
X162172561Y-96866434D01*
X162190762Y-96869046D01*
X162190877Y-96899859D01*
X162187793Y-96915288D01*
X162177112Y-96971611D01*
X162165601Y-97043629D01*
X162161938Y-97069453D01*
X162155606Y-97126455D01*
X162158698Y-97152296D01*
X162173622Y-97155486D01*
X162185195Y-97151662D01*
X162210438Y-97147419D01*
X162213034Y-97169512D01*
X162209242Y-97186447D01*
X162196977Y-97235165D01*
X162236218Y-97187613D01*
X162266902Y-97124413D01*
X162277468Y-97036542D01*
X162283340Y-96942726D01*
X162296082Y-96878329D01*
X162314613Y-96847604D01*
X162325817Y-96846229D01*
X162341007Y-96868170D01*
X162340964Y-96882667D01*
X162327458Y-96978026D01*
X162320669Y-97056500D01*
X162320797Y-97111454D01*
X162328044Y-97136251D01*
X162333298Y-97136053D01*
X162358593Y-97138871D01*
X162368355Y-97153202D01*
X162387922Y-97174208D01*
X162399800Y-97172584D01*
X162410965Y-97146286D01*
X162407992Y-97131368D01*
X162406933Y-97111740D01*
X162414579Y-97113147D01*
X162434597Y-97110161D01*
X162445084Y-97085195D01*
X162439929Y-97056410D01*
X162435555Y-97050819D01*
X162422362Y-97014038D01*
X162426374Y-96979672D01*
X162460831Y-96979672D01*
X162465238Y-97030344D01*
X162488534Y-97060035D01*
X162506469Y-97063952D01*
X162524016Y-97055441D01*
X162533603Y-97024719D01*
X162537145Y-96964001D01*
X162537316Y-96938614D01*
X162536522Y-96871813D01*
X162532795Y-96839429D01*
X162524111Y-96835606D01*
X162508450Y-96854486D01*
X162508338Y-96854647D01*
X162475227Y-96917834D01*
X162460831Y-96979672D01*
X162426374Y-96979672D01*
X162428606Y-96960547D01*
X162449179Y-96901783D01*
X162478975Y-96849186D01*
X162512887Y-96814191D01*
X162544143Y-96807629D01*
X162557674Y-96830608D01*
X162569652Y-96884106D01*
X162577601Y-96954746D01*
X162583046Y-97026790D01*
X162587231Y-97061885D01*
X162591783Y-97063261D01*
X162598330Y-97034152D01*
X162603421Y-97006037D01*
X162624333Y-96923050D01*
X162650616Y-96867166D01*
X162678814Y-96841370D01*
X162705471Y-96848652D01*
X162727128Y-96891997D01*
X162728715Y-96897774D01*
X162737951Y-96927534D01*
X162746083Y-96929196D01*
X162757031Y-96898656D01*
X162768382Y-96856263D01*
X162795106Y-96774109D01*
X162822531Y-96731549D01*
X162851203Y-96727887D01*
X162862685Y-96736696D01*
G37*
G36*
X158660401Y-92241081D02*
G01*
X158809627Y-92266032D01*
X158942141Y-92310980D01*
X159007929Y-92346477D01*
X159043317Y-92372392D01*
X159043533Y-92381312D01*
X159009834Y-92373442D01*
X158943477Y-92348985D01*
X158891192Y-92327562D01*
X158820031Y-92298843D01*
X158763796Y-92281173D01*
X158709005Y-92272520D01*
X158642175Y-92270850D01*
X158549825Y-92274129D01*
X158539989Y-92274589D01*
X158437794Y-92281070D01*
X158361695Y-92291275D01*
X158297509Y-92308297D01*
X158231051Y-92335230D01*
X158204086Y-92347828D01*
X158065223Y-92433939D01*
X157946884Y-92546825D01*
X157854439Y-92679296D01*
X157793255Y-92824164D01*
X157772225Y-92926252D01*
X157766420Y-92983341D01*
X157768083Y-93006449D01*
X157779196Y-93001507D01*
X157792287Y-92986232D01*
X157817234Y-92941039D01*
X157823914Y-92910065D01*
X157838307Y-92872998D01*
X157854128Y-92861403D01*
X157879717Y-92833906D01*
X157884342Y-92812195D01*
X157901692Y-92776560D01*
X157945824Y-92742800D01*
X157947513Y-92741915D01*
X157996892Y-92721617D01*
X158034817Y-92724116D01*
X158059608Y-92735431D01*
X158097780Y-92751124D01*
X158118755Y-92742220D01*
X158125335Y-92732331D01*
X158188032Y-92643184D01*
X158263657Y-92565527D01*
X158337554Y-92513641D01*
X158427411Y-92471029D01*
X158499243Y-92447545D01*
X158568430Y-92439807D01*
X158650356Y-92444433D01*
X158651677Y-92444570D01*
X158716964Y-92453757D01*
X158764028Y-92469929D01*
X158799484Y-92500025D01*
X158829943Y-92550981D01*
X158862019Y-92629735D01*
X158882505Y-92686729D01*
X158912482Y-92774699D01*
X158927644Y-92829812D01*
X158927989Y-92856670D01*
X158913518Y-92859878D01*
X158884230Y-92844039D01*
X158882491Y-92842904D01*
X158850574Y-92825678D01*
X158821431Y-92823696D01*
X158786540Y-92840457D01*
X158737378Y-92879457D01*
X158689746Y-92922013D01*
X158635974Y-92977019D01*
X158607588Y-93025942D01*
X158595827Y-93083155D01*
X158594913Y-93156249D01*
X158612555Y-93210873D01*
X158654462Y-93253578D01*
X158726342Y-93290919D01*
X158800837Y-93318494D01*
X158878696Y-93346348D01*
X158919444Y-93366209D01*
X158924686Y-93381209D01*
X158896030Y-93394477D01*
X158846158Y-93406745D01*
X158804404Y-93425608D01*
X158792910Y-93460801D01*
X158810660Y-93517846D01*
X158821600Y-93540173D01*
X158850358Y-93605784D01*
X158879878Y-93689025D01*
X158906009Y-93776104D01*
X158924601Y-93853227D01*
X158931505Y-93905388D01*
X158938464Y-93950008D01*
X158951907Y-93972041D01*
X158967479Y-93999796D01*
X158972050Y-94033828D01*
X158968154Y-94067878D01*
X158949809Y-94068442D01*
X158933524Y-94059107D01*
X158899638Y-94046708D01*
X158855865Y-94052425D01*
X158809094Y-94068791D01*
X158747178Y-94089071D01*
X158714092Y-94090948D01*
X158712774Y-94074773D01*
X158726071Y-94058892D01*
X158733177Y-94036545D01*
X158715805Y-94001334D01*
X158677109Y-93953479D01*
X158636691Y-93903077D01*
X158585475Y-93832784D01*
X158528066Y-93749704D01*
X158469069Y-93660947D01*
X158413090Y-93573618D01*
X158364735Y-93494825D01*
X158331113Y-93436054D01*
X158441766Y-93436054D01*
X158442077Y-93495222D01*
X158460595Y-93561038D01*
X158492752Y-93630593D01*
X158501104Y-93644471D01*
X158539613Y-93697667D01*
X158592163Y-93761136D01*
X158652249Y-93828118D01*
X158713363Y-93891853D01*
X158768999Y-93945579D01*
X158812649Y-93982535D01*
X158837809Y-93995962D01*
X158839147Y-93995720D01*
X158851844Y-93971927D01*
X158856932Y-93919007D01*
X158856317Y-93889312D01*
X158847925Y-93821242D01*
X158830353Y-93732682D01*
X158807183Y-93641353D01*
X158803893Y-93630017D01*
X158779420Y-93550657D01*
X158759945Y-93501760D01*
X158740071Y-93474869D01*
X158714397Y-93461527D01*
X158693020Y-93456312D01*
X158644245Y-93449952D01*
X158632336Y-93459017D01*
X158656604Y-93484351D01*
X158664873Y-93490789D01*
X158688819Y-93511312D01*
X158680083Y-93517603D01*
X158665574Y-93518188D01*
X158630170Y-93505963D01*
X158581762Y-93474437D01*
X158561980Y-93458206D01*
X158503095Y-93416359D01*
X158462528Y-93409128D01*
X158441766Y-93436054D01*
X158331113Y-93436054D01*
X158328608Y-93431675D01*
X158309315Y-93391276D01*
X158307340Y-93382843D01*
X158295739Y-93363218D01*
X158272090Y-93368194D01*
X158222750Y-93384844D01*
X158191519Y-93392840D01*
X158159726Y-93394190D01*
X158147656Y-93372162D01*
X158146198Y-93341081D01*
X158152179Y-93293693D01*
X158166340Y-93267045D01*
X158185695Y-93236942D01*
X158174763Y-93203083D01*
X158153356Y-93188143D01*
X158113399Y-93190246D01*
X158086306Y-93206131D01*
X158039023Y-93235451D01*
X158003615Y-93232798D01*
X157987501Y-93200034D01*
X157987830Y-93181438D01*
X157985822Y-93136544D01*
X157965261Y-93124032D01*
X157923598Y-93143567D01*
X157889895Y-93168541D01*
X157824949Y-93220322D01*
X157862854Y-93294040D01*
X157899823Y-93354637D01*
X157949161Y-93422051D01*
X157970936Y-93448329D01*
X158007190Y-93489181D01*
X158035073Y-93511041D01*
X158065765Y-93514988D01*
X158110443Y-93502097D01*
X158180287Y-93473447D01*
X158189876Y-93469425D01*
X158211986Y-93470443D01*
X158241225Y-93493319D01*
X158282122Y-93542590D01*
X158330875Y-93610697D01*
X158387305Y-93694320D01*
X158442749Y-93779828D01*
X158487484Y-93852135D01*
X158497388Y-93869042D01*
X158524247Y-93920840D01*
X158559612Y-93996069D01*
X158600200Y-94086911D01*
X158642731Y-94185547D01*
X158683921Y-94284161D01*
X158720488Y-94374933D01*
X158749151Y-94450046D01*
X158766628Y-94501681D01*
X158770448Y-94519469D01*
X158785096Y-94547291D01*
X158820346Y-94582274D01*
X158822669Y-94584125D01*
X158874715Y-94625064D01*
X158825530Y-94637409D01*
X158774118Y-94637690D01*
X158710798Y-94622050D01*
X158699422Y-94617614D01*
X158652949Y-94599783D01*
X158623181Y-94598955D01*
X158599019Y-94620763D01*
X158569361Y-94670842D01*
X158559751Y-94688505D01*
X158545911Y-94746183D01*
X158560115Y-94800768D01*
X158597158Y-94838049D01*
X158617032Y-94844900D01*
X158641882Y-94843571D01*
X158645987Y-94818915D01*
X158641740Y-94794722D01*
X158639200Y-94742579D01*
X158649112Y-94707251D01*
X158665858Y-94692653D01*
X158688994Y-94703014D01*
X158724611Y-94738810D01*
X158772728Y-94788630D01*
X158818597Y-94831332D01*
X158825034Y-94836722D01*
X158857271Y-94859430D01*
X158882650Y-94858773D01*
X158919309Y-94833575D01*
X158923428Y-94830341D01*
X158955311Y-94801162D01*
X158953778Y-94788781D01*
X158944552Y-94787822D01*
X158916032Y-94778792D01*
X158911622Y-94769820D01*
X158929183Y-94762280D01*
X158975122Y-94766529D01*
X158994851Y-94770519D01*
X159057807Y-94781934D01*
X159083263Y-94780700D01*
X159071298Y-94768691D01*
X159021990Y-94747781D01*
X158993498Y-94737898D01*
X158932038Y-94713032D01*
X158898070Y-94690672D01*
X158893965Y-94675031D01*
X158922097Y-94670318D01*
X158958043Y-94674969D01*
X159009299Y-94677980D01*
X159049613Y-94658469D01*
X159078117Y-94631605D01*
X159118945Y-94576280D01*
X159155190Y-94506756D01*
X159163154Y-94486395D01*
X159188170Y-94425448D01*
X159213953Y-94377421D01*
X159222547Y-94365824D01*
X159249310Y-94325009D01*
X159257266Y-94303757D01*
X159253654Y-94268849D01*
X159237133Y-94217040D01*
X159213691Y-94162350D01*
X159189318Y-94118798D01*
X159170418Y-94100451D01*
X159135391Y-94096145D01*
X159128432Y-94095415D01*
X159103191Y-94077322D01*
X159097736Y-94043569D01*
X159113685Y-94014453D01*
X159121632Y-94010110D01*
X159148091Y-93980957D01*
X159150360Y-93930720D01*
X159131918Y-93879019D01*
X159117556Y-93831737D01*
X159117891Y-93804807D01*
X159129014Y-93796378D01*
X159148115Y-93816957D01*
X159170666Y-93857256D01*
X159192139Y-93907988D01*
X159208006Y-93959867D01*
X159213763Y-94001452D01*
X159220189Y-94049847D01*
X159240044Y-94060580D01*
X159268408Y-94040267D01*
X159300588Y-94028077D01*
X159313927Y-94032129D01*
X159322351Y-94051405D01*
X159302338Y-94071775D01*
X159279629Y-94107934D01*
X159289155Y-94148088D01*
X159326229Y-94176900D01*
X159362660Y-94175977D01*
X159417965Y-94159364D01*
X159448081Y-94146229D01*
X159515618Y-94115707D01*
X159555084Y-94105040D01*
X159573038Y-94113503D01*
X159576332Y-94132011D01*
X159583618Y-94147140D01*
X159610640Y-94153840D01*
X159665143Y-94153098D01*
X159714007Y-94149511D01*
X159821371Y-94148601D01*
X159897814Y-94168308D01*
X159948320Y-94210980D01*
X159976308Y-94273064D01*
X159984469Y-94350247D01*
X159976160Y-94447799D01*
X159953437Y-94550315D01*
X159930618Y-94615436D01*
X159901587Y-94707188D01*
X159902941Y-94774298D01*
X159936148Y-94818569D01*
X160002674Y-94841805D01*
X160103985Y-94845807D01*
X160117466Y-94845143D01*
X160187296Y-94844259D01*
X160230815Y-94850107D01*
X160241485Y-94858321D01*
X160244392Y-94887512D01*
X160251616Y-94943857D01*
X160260684Y-95008764D01*
X160269479Y-95087072D01*
X160267775Y-95133218D01*
X160255826Y-95153703D01*
X160243214Y-95175476D01*
X160247578Y-95183783D01*
X160274853Y-95187226D01*
X160297599Y-95177627D01*
X160339393Y-95167210D01*
X160384490Y-95175727D01*
X160416118Y-95198099D01*
X160421687Y-95215206D01*
X160408166Y-95254890D01*
X160378612Y-95292751D01*
X160346954Y-95311392D01*
X160344572Y-95311533D01*
X160323001Y-95323816D01*
X160325058Y-95353583D01*
X160345508Y-95390216D01*
X160379117Y-95423095D01*
X160406861Y-95437905D01*
X160423152Y-95453455D01*
X160420558Y-95459937D01*
X160395424Y-95462857D01*
X160350358Y-95452480D01*
X160346451Y-95451150D01*
X160285319Y-95439716D01*
X160240140Y-95453016D01*
X160208728Y-95466523D01*
X160203119Y-95456503D01*
X160205073Y-95449657D01*
X160197081Y-95416902D01*
X160160813Y-95382500D01*
X160107138Y-95354307D01*
X160054637Y-95340933D01*
X160009743Y-95344200D01*
X159963105Y-95359895D01*
X159924404Y-95382208D01*
X159903327Y-95405327D01*
X159909555Y-95423443D01*
X159913723Y-95425485D01*
X159936846Y-95452182D01*
X159938902Y-95464282D01*
X159950331Y-95489992D01*
X159959045Y-95492818D01*
X159977111Y-95509047D01*
X159979187Y-95521843D01*
X159992601Y-95557587D01*
X160027823Y-95563066D01*
X160058023Y-95549655D01*
X160094747Y-95535813D01*
X160113368Y-95539714D01*
X160111592Y-95561559D01*
X160084394Y-95592308D01*
X160042714Y-95623522D01*
X159997493Y-95646766D01*
X159965221Y-95653960D01*
X159930166Y-95646780D01*
X159921849Y-95617264D01*
X159923032Y-95602799D01*
X159917057Y-95559414D01*
X159881696Y-95525209D01*
X159868402Y-95517192D01*
X159826609Y-95493668D01*
X159803742Y-95481364D01*
X159802847Y-95480977D01*
X159805276Y-95463066D01*
X159817917Y-95421396D01*
X159820679Y-95413350D01*
X159833398Y-95364210D01*
X159826200Y-95338138D01*
X159818353Y-95331866D01*
X159807032Y-95314540D01*
X159830736Y-95294356D01*
X159845333Y-95283431D01*
X159985112Y-95283431D01*
X159985724Y-95284498D01*
X160009167Y-95284000D01*
X160028819Y-95271850D01*
X160055464Y-95257694D01*
X160071213Y-95277679D01*
X160071746Y-95279051D01*
X160091368Y-95305720D01*
X160112424Y-95310330D01*
X160120187Y-95293834D01*
X160136819Y-95274759D01*
X160177175Y-95252555D01*
X160180359Y-95251211D01*
X160216310Y-95229083D01*
X160229431Y-95207979D01*
X160217701Y-95197795D01*
X160190041Y-95203783D01*
X160166013Y-95199975D01*
X160160472Y-95172689D01*
X160166455Y-95139865D01*
X160175579Y-95132634D01*
X160218967Y-95133512D01*
X160226750Y-95117544D01*
X160212431Y-95098759D01*
X160193449Y-95085034D01*
X160172004Y-95087357D01*
X160140220Y-95109845D01*
X160090219Y-95156617D01*
X160077016Y-95169567D01*
X160028159Y-95220834D01*
X159995434Y-95261419D01*
X159985112Y-95283431D01*
X159845333Y-95283431D01*
X159853546Y-95277284D01*
X159840378Y-95271204D01*
X159838188Y-95271084D01*
X159808273Y-95254427D01*
X159773561Y-95215205D01*
X159767688Y-95206425D01*
X159725540Y-95151981D01*
X159693096Y-95136466D01*
X159670107Y-95159773D01*
X159668639Y-95163389D01*
X159671098Y-95201698D01*
X159686300Y-95215598D01*
X159713201Y-95244108D01*
X159717332Y-95259711D01*
X159731520Y-95293587D01*
X159749687Y-95313310D01*
X159770385Y-95344578D01*
X159774683Y-95396976D01*
X159771852Y-95430570D01*
X159769310Y-95496986D01*
X159775287Y-95553646D01*
X159779013Y-95566613D01*
X159786975Y-95608955D01*
X159773134Y-95621930D01*
X159745201Y-95603589D01*
X159726854Y-95579795D01*
X159700983Y-95545094D01*
X159683413Y-95541706D01*
X159667037Y-95559825D01*
X159637711Y-95590010D01*
X159621174Y-95582022D01*
X159616618Y-95542879D01*
X159600687Y-95494166D01*
X159551154Y-95451990D01*
X159497389Y-95424357D01*
X159434951Y-95399765D01*
X159376287Y-95382180D01*
X159333847Y-95375571D01*
X159321183Y-95378684D01*
X159326146Y-95398218D01*
X159356477Y-95429574D01*
X159402476Y-95464749D01*
X159454441Y-95495736D01*
X159474149Y-95504922D01*
X159518188Y-95528413D01*
X159526547Y-95548446D01*
X159520945Y-95556263D01*
X159490309Y-95561048D01*
X159441503Y-95542850D01*
X159384889Y-95507124D01*
X159330828Y-95459325D01*
X159325137Y-95453183D01*
X159281815Y-95422118D01*
X159244705Y-95412247D01*
X159190998Y-95423873D01*
X159151327Y-95452500D01*
X159136953Y-95488750D01*
X159139358Y-95499976D01*
X159140954Y-95520480D01*
X159119561Y-95530363D01*
X159066955Y-95533091D01*
X159060716Y-95533103D01*
X158976971Y-95543998D01*
X158905798Y-95581647D01*
X158900834Y-95585372D01*
X158856005Y-95612986D01*
X158783353Y-95650447D01*
X158692605Y-95693008D01*
X158593491Y-95735926D01*
X158584930Y-95739464D01*
X158473729Y-95783883D01*
X158388228Y-95814013D01*
X158317697Y-95832760D01*
X158251404Y-95843034D01*
X158186483Y-95847439D01*
X158092497Y-95846799D01*
X157996160Y-95839062D01*
X157924627Y-95827184D01*
X157850873Y-95807160D01*
X157784266Y-95785038D01*
X157756517Y-95773612D01*
X157714741Y-95757401D01*
X157692209Y-95763288D01*
X157679981Y-95780774D01*
X157647999Y-95810326D01*
X157611993Y-95810204D01*
X157589485Y-95784888D01*
X157561308Y-95762164D01*
X157514284Y-95754674D01*
X157454542Y-95744876D01*
X157388038Y-95720683D01*
X157375512Y-95714388D01*
X157315279Y-95688478D01*
X157260201Y-95674758D01*
X157249919Y-95674103D01*
X157217212Y-95669607D01*
X157202828Y-95648516D01*
X157199496Y-95599424D01*
X157199489Y-95594994D01*
X157207873Y-95530485D01*
X157237825Y-95486384D01*
X157248699Y-95477176D01*
X157289930Y-95429259D01*
X157312464Y-95380036D01*
X157333548Y-95329049D01*
X157338726Y-95322525D01*
X158781131Y-95322525D01*
X158799738Y-95328920D01*
X158837382Y-95322642D01*
X159024507Y-95290279D01*
X159188997Y-95278789D01*
X159342766Y-95288326D01*
X159497727Y-95319041D01*
X159543836Y-95331714D01*
X159641704Y-95357821D01*
X159704444Y-95369030D01*
X159734235Y-95365652D01*
X159737474Y-95359217D01*
X159722216Y-95335584D01*
X159684314Y-95300904D01*
X159635582Y-95265007D01*
X159596475Y-95241886D01*
X159543628Y-95222846D01*
X159475890Y-95207703D01*
X159459758Y-95205339D01*
X159384917Y-95184772D01*
X159313937Y-95148556D01*
X159304995Y-95142135D01*
X159235872Y-95100724D01*
X159177441Y-95094427D01*
X159120952Y-95123080D01*
X159103270Y-95138285D01*
X159055917Y-95169247D01*
X158985870Y-95200611D01*
X158922635Y-95221389D01*
X158844851Y-95246240D01*
X158800548Y-95270803D01*
X158783676Y-95296182D01*
X158781131Y-95322525D01*
X157338726Y-95322525D01*
X157358931Y-95297067D01*
X157379771Y-95277832D01*
X157366030Y-95272229D01*
X157355595Y-95271888D01*
X157326052Y-95258841D01*
X157323732Y-95230091D01*
X157347816Y-95198858D01*
X157360631Y-95190677D01*
X157393778Y-95179729D01*
X157400916Y-95189968D01*
X157413271Y-95209754D01*
X157448248Y-95199652D01*
X157502712Y-95160750D01*
X157514779Y-95150391D01*
X157554215Y-95113644D01*
X157564752Y-95095590D01*
X157549217Y-95090096D01*
X157542616Y-95089963D01*
X157508500Y-95079066D01*
X157505722Y-95052565D01*
X157533944Y-95019744D01*
X157545472Y-95011845D01*
X157581201Y-94994954D01*
X157603620Y-95004767D01*
X157610936Y-95013804D01*
X157640320Y-95033593D01*
X157681931Y-95023931D01*
X157741184Y-94983352D01*
X157749924Y-94976180D01*
X157782020Y-94944008D01*
X157783646Y-94930135D01*
X157760693Y-94935521D01*
X157719054Y-94961124D01*
X157708195Y-94969389D01*
X157666363Y-94997460D01*
X157648135Y-94995134D01*
X157651817Y-94960493D01*
X157664893Y-94920468D01*
X157679588Y-94870387D01*
X157673793Y-94836423D01*
X157643264Y-94797831D01*
X157638827Y-94793068D01*
X157593473Y-94736350D01*
X157556061Y-94676459D01*
X157555322Y-94675004D01*
X157535866Y-94628996D01*
X157537635Y-94597382D01*
X157554353Y-94568985D01*
X157599832Y-94526033D01*
X157669969Y-94483284D01*
X157749964Y-94449053D01*
X157787255Y-94438152D01*
X157857499Y-94407521D01*
X157892606Y-94358477D01*
X157893214Y-94298936D01*
X157886565Y-94257956D01*
X157898602Y-94244647D01*
X157939183Y-94249905D01*
X157945036Y-94251071D01*
X158010058Y-94259868D01*
X158083784Y-94264306D01*
X158093323Y-94264419D01*
X158142881Y-94267034D01*
X158155856Y-94275234D01*
X158146198Y-94284253D01*
X158107612Y-94296740D01*
X158049026Y-94303635D01*
X158031643Y-94304088D01*
X157947303Y-94304396D01*
X157959451Y-94379931D01*
X157970830Y-94428464D01*
X157991778Y-94465509D01*
X158029830Y-94498105D01*
X158092520Y-94533289D01*
X158156269Y-94563771D01*
X158273584Y-94617648D01*
X158360493Y-94655475D01*
X158422891Y-94678669D01*
X158466676Y-94688645D01*
X158497742Y-94686818D01*
X158521986Y-94674606D01*
X158542279Y-94656474D01*
X158554256Y-94643887D01*
X158557708Y-94632401D01*
X158547859Y-94617485D01*
X158519936Y-94594606D01*
X158469163Y-94559233D01*
X158390767Y-94506834D01*
X158370234Y-94493168D01*
X158299544Y-94448829D01*
X158229708Y-94409377D01*
X158188950Y-94389325D01*
X158115983Y-94357600D01*
X158187167Y-94344947D01*
X158241911Y-94332347D01*
X158250355Y-94329315D01*
X158429858Y-94329315D01*
X158444724Y-94373918D01*
X158473517Y-94406323D01*
X158537686Y-94455425D01*
X158597130Y-94479861D01*
X158643780Y-94477325D01*
X158663182Y-94460502D01*
X158673488Y-94411536D01*
X158653723Y-94342435D01*
X158627959Y-94291361D01*
X158602910Y-94240708D01*
X158589868Y-94202514D01*
X158589338Y-94197414D01*
X158572358Y-94174034D01*
X158530861Y-94150270D01*
X158524715Y-94147836D01*
X158466392Y-94134826D01*
X158436211Y-94148508D01*
X158436513Y-94186862D01*
X158448339Y-94213754D01*
X158464762Y-94257327D01*
X158454610Y-94285893D01*
X158451960Y-94288689D01*
X158429858Y-94329315D01*
X158250355Y-94329315D01*
X158280514Y-94318485D01*
X158282845Y-94317157D01*
X158303183Y-94283182D01*
X158307008Y-94225486D01*
X158296650Y-94155956D01*
X158274442Y-94086476D01*
X158242714Y-94028933D01*
X158221923Y-94006572D01*
X158202621Y-93980752D01*
X158203544Y-93942679D01*
X158212111Y-93910894D01*
X158233675Y-93864827D01*
X158259075Y-93841751D01*
X158263309Y-93841113D01*
X158292235Y-93854129D01*
X158339411Y-93888247D01*
X158394491Y-93935961D01*
X158455008Y-93987674D01*
X158492096Y-94008545D01*
X158506138Y-94000231D01*
X158497517Y-93964385D01*
X158466616Y-93902662D01*
X158413819Y-93816715D01*
X158342818Y-93712852D01*
X158294767Y-93646694D01*
X158254204Y-93593577D01*
X158227607Y-93561880D01*
X158222401Y-93557121D01*
X158178175Y-93549901D01*
X158122126Y-93569636D01*
X158066808Y-93611208D01*
X158053073Y-93626166D01*
X158028234Y-93658253D01*
X158013413Y-93689143D01*
X158006735Y-93729432D01*
X158006321Y-93789716D01*
X158009790Y-93870524D01*
X158011850Y-93988049D01*
X158003731Y-94069993D01*
X157984485Y-94119992D01*
X157953161Y-94141678D01*
X157938577Y-94143254D01*
X157920125Y-94140815D01*
X157909138Y-94128497D01*
X157904487Y-94098797D01*
X157905039Y-94044211D01*
X157909664Y-93957237D01*
X157909909Y-93953126D01*
X157919139Y-93851641D01*
X157932890Y-93767791D01*
X157949366Y-93712050D01*
X157952169Y-93706377D01*
X157991478Y-93634560D01*
X158012784Y-93587863D01*
X158015492Y-93555077D01*
X157999009Y-93524991D01*
X157962741Y-93486398D01*
X157939260Y-93462711D01*
X157835535Y-93331355D01*
X157768117Y-93188071D01*
X157737812Y-93037382D01*
X157745426Y-92883812D01*
X157791766Y-92731886D01*
X157804220Y-92705188D01*
X157902587Y-92546499D01*
X158025693Y-92419561D01*
X158173249Y-92324609D01*
X158344964Y-92261875D01*
X158361153Y-92257920D01*
X158506797Y-92237814D01*
X158660401Y-92241081D01*
G37*
G36*
X162959118Y-93424177D02*
G01*
X163022338Y-93445091D01*
X163030504Y-93449979D01*
X163047910Y-93462013D01*
X163063004Y-93475768D01*
X163076536Y-93494701D01*
X163089251Y-93522268D01*
X163101900Y-93561925D01*
X163115230Y-93617130D01*
X163129988Y-93691337D01*
X163146923Y-93788005D01*
X163166783Y-93910588D01*
X163190316Y-94062544D01*
X163218270Y-94247330D01*
X163251393Y-94468400D01*
X163252472Y-94475609D01*
X163277321Y-94639164D01*
X163297859Y-94767789D01*
X163315059Y-94866494D01*
X163329892Y-94940286D01*
X163343332Y-94994174D01*
X163356349Y-95033166D01*
X163364185Y-95051129D01*
X163404532Y-95106676D01*
X163471280Y-95169745D01*
X163554690Y-95233801D01*
X163645022Y-95292304D01*
X163732534Y-95338720D01*
X163807488Y-95366509D01*
X163841558Y-95371519D01*
X163876514Y-95381739D01*
X163886840Y-95418333D01*
X163886880Y-95422318D01*
X163880671Y-95457648D01*
X163854045Y-95472205D01*
X163821416Y-95475060D01*
X163771217Y-95475934D01*
X163740200Y-95474755D01*
X163739683Y-95474673D01*
X163716661Y-95485964D01*
X163678318Y-95517603D01*
X163662598Y-95532716D01*
X163620765Y-95570357D01*
X163588910Y-95591707D01*
X163582373Y-95593532D01*
X163553962Y-95604397D01*
X163511388Y-95630767D01*
X163508388Y-95632912D01*
X163452513Y-95661932D01*
X163361888Y-95692859D01*
X163234386Y-95726361D01*
X163151669Y-95745273D01*
X163101397Y-95756475D01*
X163053363Y-95767323D01*
X163012836Y-95768409D01*
X163003357Y-95751303D01*
X163025076Y-95723665D01*
X163052155Y-95705756D01*
X163098179Y-95672438D01*
X163106171Y-95641462D01*
X163081054Y-95610446D01*
X163047104Y-95576801D01*
X163049387Y-95559126D01*
X163089195Y-95553341D01*
X163099158Y-95553246D01*
X163153649Y-95569195D01*
X163182890Y-95610985D01*
X163184481Y-95647602D01*
X163196652Y-95661607D01*
X163241875Y-95664842D01*
X163283899Y-95662082D01*
X163358005Y-95654913D01*
X163403536Y-95648181D01*
X163432056Y-95638898D01*
X163455132Y-95624080D01*
X163466760Y-95614859D01*
X163488621Y-95581628D01*
X163477858Y-95553601D01*
X163441958Y-95539751D01*
X163406859Y-95543048D01*
X163364532Y-95545093D01*
X163343647Y-95534109D01*
X163317843Y-95521092D01*
X163281172Y-95512961D01*
X163524310Y-95512961D01*
X163539638Y-95532518D01*
X163544453Y-95533103D01*
X163564010Y-95517775D01*
X163564596Y-95512961D01*
X163549268Y-95493403D01*
X163544453Y-95492818D01*
X163524896Y-95508146D01*
X163524310Y-95512961D01*
X163281172Y-95512961D01*
X163264471Y-95509258D01*
X163209780Y-95502591D01*
X163112462Y-95503048D01*
X163017253Y-95518212D01*
X162934339Y-95545037D01*
X162873906Y-95580478D01*
X162849755Y-95610223D01*
X162824618Y-95641767D01*
X162799323Y-95643323D01*
X162786582Y-95617031D01*
X162782004Y-95575018D01*
X162781547Y-95570895D01*
X162760218Y-95557581D01*
X162701001Y-95555334D01*
X162668244Y-95557445D01*
X162601088Y-95560403D01*
X162566493Y-95554319D01*
X162557459Y-95539796D01*
X162541743Y-95520312D01*
X162502055Y-95517335D01*
X162449579Y-95527710D01*
X162395502Y-95548277D01*
X162351009Y-95575879D01*
X162328260Y-95604500D01*
X162317971Y-95636023D01*
X162327639Y-95649954D01*
X162366771Y-95659018D01*
X162369356Y-95659512D01*
X162431001Y-95655492D01*
X162490825Y-95631646D01*
X162539521Y-95606931D01*
X162574048Y-95594057D01*
X162578214Y-95593532D01*
X162597155Y-95605925D01*
X162593568Y-95632548D01*
X162571741Y-95657570D01*
X162559277Y-95663454D01*
X162513934Y-95688615D01*
X162496393Y-95705084D01*
X162485536Y-95723632D01*
X162501689Y-95727450D01*
X162539895Y-95721254D01*
X162587487Y-95707848D01*
X162613614Y-95692683D01*
X162614530Y-95691052D01*
X162637688Y-95675198D01*
X162647323Y-95674103D01*
X162677218Y-95659028D01*
X162705016Y-95628781D01*
X162736630Y-95583460D01*
X162737687Y-95640210D01*
X162743113Y-95679612D01*
X162762863Y-95688135D01*
X162779029Y-95684174D01*
X162811468Y-95682248D01*
X162819314Y-95692888D01*
X162837017Y-95707097D01*
X162880547Y-95714202D01*
X162889814Y-95714388D01*
X162936420Y-95718834D01*
X162959708Y-95729766D01*
X162960313Y-95732082D01*
X162941516Y-95748986D01*
X162890236Y-95767632D01*
X162814138Y-95786457D01*
X162720891Y-95803899D01*
X162618159Y-95818395D01*
X162513609Y-95828382D01*
X162477087Y-95830568D01*
X162383457Y-95834643D01*
X162324037Y-95835333D01*
X162292842Y-95831966D01*
X162283886Y-95823865D01*
X162291186Y-95810357D01*
X162291745Y-95809679D01*
X162306833Y-95779967D01*
X162294329Y-95763958D01*
X162265529Y-95762359D01*
X162258101Y-95769207D01*
X162227587Y-95786265D01*
X162171439Y-95797348D01*
X162103962Y-95801739D01*
X162039463Y-95798720D01*
X161992248Y-95787572D01*
X161984155Y-95782956D01*
X161944205Y-95759509D01*
X161922493Y-95757203D01*
X161926193Y-95775695D01*
X161933437Y-95785374D01*
X161951999Y-95815965D01*
X161938912Y-95823250D01*
X161895757Y-95806700D01*
X161885491Y-95801450D01*
X161836529Y-95783228D01*
X161806514Y-95792576D01*
X161805927Y-95793152D01*
X161770143Y-95813461D01*
X161740698Y-95807393D01*
X161731606Y-95784888D01*
X161720295Y-95758130D01*
X161696686Y-95760320D01*
X161678163Y-95785667D01*
X161665264Y-95801305D01*
X161636316Y-95808879D01*
X161582920Y-95809369D01*
X161512618Y-95804992D01*
X161427900Y-95799406D01*
X161350221Y-95795736D01*
X161295655Y-95794732D01*
X161293501Y-95794772D01*
X161253289Y-95792560D01*
X161232083Y-95777543D01*
X161224771Y-95740561D01*
X161225963Y-95683707D01*
X161282358Y-95683707D01*
X161293177Y-95697892D01*
X161308071Y-95716028D01*
X161292072Y-95731567D01*
X161292090Y-95741702D01*
X161328576Y-95746544D01*
X161363032Y-95746674D01*
X161458431Y-95731588D01*
X162007676Y-95731588D01*
X162018106Y-95742339D01*
X162055226Y-95745150D01*
X162102668Y-95744009D01*
X162167469Y-95739371D01*
X162197988Y-95734531D01*
X162396317Y-95734531D01*
X162410774Y-95754097D01*
X162415271Y-95754674D01*
X162442551Y-95740032D01*
X162446673Y-95734531D01*
X162442107Y-95717287D01*
X162427719Y-95714388D01*
X162400160Y-95724905D01*
X162396317Y-95734531D01*
X162197988Y-95734531D01*
X162216633Y-95731574D01*
X162232450Y-95726143D01*
X162247001Y-95698613D01*
X162254865Y-95647653D01*
X162255317Y-95631440D01*
X162251347Y-95584072D01*
X162241395Y-95561920D01*
X162236895Y-95562254D01*
X162215112Y-95558195D01*
X162210509Y-95549748D01*
X162190530Y-95534262D01*
X162159136Y-95545160D01*
X162128330Y-95576045D01*
X162115559Y-95600340D01*
X162090286Y-95641771D01*
X162066822Y-95660146D01*
X162032482Y-95686756D01*
X162016068Y-95709785D01*
X162007676Y-95731588D01*
X161458431Y-95731588D01*
X161461283Y-95731137D01*
X161520568Y-95700274D01*
X161580535Y-95655946D01*
X161535214Y-95623597D01*
X161501314Y-95586568D01*
X161493602Y-95564099D01*
X161517183Y-95564099D01*
X161527809Y-95581996D01*
X161554572Y-95580056D01*
X161560190Y-95573717D01*
X161587799Y-95554588D01*
X161617904Y-95559466D01*
X161630892Y-95583460D01*
X161642486Y-95610254D01*
X161652392Y-95613674D01*
X161664735Y-95629347D01*
X161661164Y-95653780D01*
X161657859Y-95698238D01*
X161664817Y-95719244D01*
X161679034Y-95727150D01*
X161687863Y-95697741D01*
X161688393Y-95696499D01*
X161780799Y-95696499D01*
X161781925Y-95707388D01*
X161799564Y-95702505D01*
X161827872Y-95678226D01*
X161832320Y-95663018D01*
X161847069Y-95630310D01*
X161867880Y-95609781D01*
X161916015Y-95550810D01*
X161935520Y-95492818D01*
X162607815Y-95492818D01*
X162609412Y-95511379D01*
X162616698Y-95512961D01*
X162637210Y-95498339D01*
X162638029Y-95492818D01*
X162631157Y-95473199D01*
X162629147Y-95472675D01*
X162611950Y-95486790D01*
X162607815Y-95492818D01*
X161935520Y-95492818D01*
X161945597Y-95462857D01*
X161953890Y-95376049D01*
X161960497Y-95306839D01*
X161961383Y-95303437D01*
X162965949Y-95303437D01*
X162976949Y-95310654D01*
X163003349Y-95304684D01*
X163055909Y-95296017D01*
X163121173Y-95291747D01*
X163128646Y-95291666D01*
X163180703Y-95287003D01*
X163196871Y-95272623D01*
X163195248Y-95266212D01*
X163133636Y-95117597D01*
X163089927Y-94989900D01*
X163060012Y-94870299D01*
X163049018Y-94809996D01*
X163032601Y-94702272D01*
X163024547Y-94633526D01*
X163024721Y-94603866D01*
X163032984Y-94613402D01*
X163049201Y-94662243D01*
X163073234Y-94750497D01*
X163081761Y-94783933D01*
X163112031Y-94888415D01*
X163149639Y-94994639D01*
X163191626Y-95096669D01*
X163235034Y-95188567D01*
X163276904Y-95264395D01*
X163314277Y-95318217D01*
X163344195Y-95344095D01*
X163359767Y-95341791D01*
X163354893Y-95321808D01*
X163328947Y-95287672D01*
X163327647Y-95286275D01*
X163290411Y-95235666D01*
X163268530Y-95196379D01*
X163328964Y-95196379D01*
X163352175Y-95239668D01*
X163372065Y-95269553D01*
X163416450Y-95322202D01*
X163451066Y-95338996D01*
X163457071Y-95337709D01*
X163468169Y-95323941D01*
X163453948Y-95296279D01*
X163411443Y-95248973D01*
X163411241Y-95248766D01*
X163359768Y-95200253D01*
X163331918Y-95183016D01*
X163328964Y-95196379D01*
X163268530Y-95196379D01*
X163249874Y-95162883D01*
X163208860Y-95075575D01*
X163170191Y-94981390D01*
X163136691Y-94887976D01*
X163111181Y-94802983D01*
X163096485Y-94734060D01*
X163095426Y-94688854D01*
X163102526Y-94676287D01*
X163118745Y-94685143D01*
X163132615Y-94721534D01*
X163145741Y-94770547D01*
X163166199Y-94835519D01*
X163190484Y-94906688D01*
X163215094Y-94974295D01*
X163236525Y-95028579D01*
X163251275Y-95059781D01*
X163255348Y-95063498D01*
X163254861Y-95041445D01*
X163243544Y-94998431D01*
X163243255Y-94997551D01*
X163233936Y-94954330D01*
X163223343Y-94881511D01*
X163212853Y-94789693D01*
X163204726Y-94700706D01*
X163196344Y-94606861D01*
X163187757Y-94528413D01*
X163179985Y-94473685D01*
X163174146Y-94451087D01*
X163151717Y-94452634D01*
X163131774Y-94465333D01*
X163092752Y-94492013D01*
X163039756Y-94522131D01*
X163035609Y-94524265D01*
X162992581Y-94554601D01*
X162976817Y-94584127D01*
X162977213Y-94587064D01*
X162980323Y-94616815D01*
X162984317Y-94678952D01*
X162988769Y-94765598D01*
X162993253Y-94868874D01*
X162995206Y-94919717D01*
X162998915Y-95051879D01*
X162998755Y-95149004D01*
X162994520Y-95216174D01*
X162986005Y-95258469D01*
X162981056Y-95270127D01*
X162965949Y-95303437D01*
X161961383Y-95303437D01*
X161976218Y-95246447D01*
X161983390Y-95230962D01*
X162008768Y-95170721D01*
X162005795Y-95136470D01*
X161979470Y-95131600D01*
X161934793Y-95159503D01*
X161911437Y-95182153D01*
X161887313Y-95212991D01*
X161871255Y-95250468D01*
X161860678Y-95304700D01*
X161852993Y-95385802D01*
X161850681Y-95419716D01*
X161839278Y-95536247D01*
X161822038Y-95617143D01*
X161802748Y-95660224D01*
X161780799Y-95696499D01*
X161688393Y-95696499D01*
X161702584Y-95663276D01*
X161723911Y-95662156D01*
X161753821Y-95655201D01*
X161770084Y-95628446D01*
X161775184Y-95591197D01*
X161751761Y-95561029D01*
X161734061Y-95548343D01*
X161673965Y-95522233D01*
X161618252Y-95513093D01*
X161570093Y-95521155D01*
X161533168Y-95540622D01*
X161517183Y-95564099D01*
X161493602Y-95564099D01*
X161489893Y-95553293D01*
X161477700Y-95509074D01*
X161446335Y-95492842D01*
X161403616Y-95502676D01*
X161357363Y-95536656D01*
X161315394Y-95592864D01*
X161313320Y-95596646D01*
X161286950Y-95652065D01*
X161282358Y-95683707D01*
X161225963Y-95683707D01*
X161226164Y-95674103D01*
X161222189Y-95624927D01*
X161199747Y-95590190D01*
X161151439Y-95563101D01*
X161090492Y-95543175D01*
X161207895Y-95543175D01*
X161224018Y-95569879D01*
X161238109Y-95573389D01*
X161264813Y-95557265D01*
X161268323Y-95543175D01*
X161252199Y-95516470D01*
X161238109Y-95512961D01*
X161211404Y-95529084D01*
X161207895Y-95543175D01*
X161090492Y-95543175D01*
X161079554Y-95539599D01*
X161005833Y-95521848D01*
X160961349Y-95519908D01*
X160941913Y-95529172D01*
X160930774Y-95560045D01*
X160949244Y-95587734D01*
X160987124Y-95602879D01*
X161020077Y-95600915D01*
X161059834Y-95598952D01*
X161078726Y-95624796D01*
X161080252Y-95630184D01*
X161109104Y-95667159D01*
X161144482Y-95678883D01*
X161197823Y-95685943D01*
X161140563Y-95714321D01*
X161098431Y-95731314D01*
X161072160Y-95724522D01*
X161049920Y-95699812D01*
X160998100Y-95663341D01*
X160920613Y-95643047D01*
X160851995Y-95629031D01*
X160817035Y-95612677D01*
X160818149Y-95595789D01*
X160842155Y-95584467D01*
X160870823Y-95559547D01*
X160871682Y-95527624D01*
X160872679Y-95482518D01*
X160884408Y-95418282D01*
X160893964Y-95382973D01*
X160910231Y-95325800D01*
X160918948Y-95287291D01*
X160919242Y-95278022D01*
X160898321Y-95278441D01*
X160868128Y-95284858D01*
X160834965Y-95302339D01*
X160832535Y-95337521D01*
X160834253Y-95344930D01*
X160834575Y-95387048D01*
X160810570Y-95406417D01*
X160781778Y-95424310D01*
X160743835Y-95455860D01*
X160706823Y-95491377D01*
X160680827Y-95521174D01*
X160675930Y-95535562D01*
X160676102Y-95535621D01*
X160700935Y-95539870D01*
X160707683Y-95540657D01*
X160735432Y-95555717D01*
X160736390Y-95579558D01*
X160710730Y-95593415D01*
X160707193Y-95593532D01*
X160665818Y-95583750D01*
X160650665Y-95550921D01*
X160659562Y-95489818D01*
X160661352Y-95483175D01*
X160670433Y-95429780D01*
X160663132Y-95401667D01*
X160662373Y-95401145D01*
X160642955Y-95377462D01*
X160657043Y-95359405D01*
X160697948Y-95355262D01*
X160699290Y-95355413D01*
X160739358Y-95354794D01*
X160753175Y-95332582D01*
X160754126Y-95309555D01*
X160760010Y-95271911D01*
X160783159Y-95265191D01*
X160789376Y-95266583D01*
X160818997Y-95265468D01*
X160825183Y-95255804D01*
X160808389Y-95235074D01*
X160784897Y-95225126D01*
X160752146Y-95203746D01*
X160744612Y-95184041D01*
X160746995Y-95170534D01*
X161812177Y-95170534D01*
X161819547Y-95187114D01*
X161825605Y-95183963D01*
X161828016Y-95160058D01*
X161825605Y-95157106D01*
X161813631Y-95159871D01*
X161812177Y-95170534D01*
X160746995Y-95170534D01*
X160747446Y-95167978D01*
X160758815Y-95146991D01*
X160783015Y-95115816D01*
X160824341Y-95069188D01*
X160887091Y-95001843D01*
X160932354Y-94954000D01*
X160966563Y-94910847D01*
X160968639Y-94890526D01*
X160941020Y-94895183D01*
X160894973Y-94921066D01*
X160857944Y-94939053D01*
X160845325Y-94930842D01*
X160861699Y-94903009D01*
X160900708Y-94873895D01*
X160912841Y-94868104D01*
X161804590Y-94868104D01*
X161811666Y-94876006D01*
X161853808Y-94884924D01*
X161865826Y-94886950D01*
X161926523Y-94901827D01*
X161973350Y-94921561D01*
X161981096Y-94926917D01*
X162022478Y-94949991D01*
X162088896Y-94976226D01*
X162165861Y-95000986D01*
X162238886Y-95019636D01*
X162293483Y-95027537D01*
X162295603Y-95027567D01*
X162348281Y-95020850D01*
X162411894Y-95004103D01*
X162421312Y-95000873D01*
X162484781Y-94974300D01*
X162540590Y-94944284D01*
X162579441Y-94916645D01*
X162592035Y-94897200D01*
X162590676Y-94894896D01*
X162567624Y-94895991D01*
X162524424Y-94912273D01*
X162515105Y-94916762D01*
X162468925Y-94936598D01*
X162440311Y-94935894D01*
X162416585Y-94918864D01*
X162372261Y-94898550D01*
X162302697Y-94888516D01*
X162283945Y-94888011D01*
X162214426Y-94881079D01*
X162126043Y-94863369D01*
X162111345Y-94859267D01*
X162476888Y-94859267D01*
X162492303Y-94868784D01*
X162534690Y-94856618D01*
X162598259Y-94824528D01*
X162606046Y-94820005D01*
X162668951Y-94774194D01*
X162724613Y-94719443D01*
X162736590Y-94704184D01*
X162784794Y-94636751D01*
X162706376Y-94709088D01*
X162644082Y-94759433D01*
X162577649Y-94802733D01*
X162552423Y-94815782D01*
X162505472Y-94839128D01*
X162479027Y-94856139D01*
X162476888Y-94859267D01*
X162111345Y-94859267D01*
X162037499Y-94838657D01*
X162034454Y-94837654D01*
X162025773Y-94834822D01*
X162161318Y-94834822D01*
X162164083Y-94846796D01*
X162174746Y-94848250D01*
X162191326Y-94840880D01*
X162188175Y-94834822D01*
X162164270Y-94832411D01*
X162161318Y-94834822D01*
X162025773Y-94834822D01*
X161949649Y-94809989D01*
X161896551Y-94794570D01*
X161868766Y-94790558D01*
X161859900Y-94797119D01*
X161863557Y-94813413D01*
X161864305Y-94815389D01*
X161856345Y-94842586D01*
X161828423Y-94858002D01*
X161804590Y-94868104D01*
X160912841Y-94868104D01*
X160947184Y-94851713D01*
X160985960Y-94844672D01*
X160996981Y-94848736D01*
X161032133Y-94853748D01*
X161057277Y-94840338D01*
X161079500Y-94820477D01*
X161073929Y-94804752D01*
X161036356Y-94782793D01*
X161033283Y-94781201D01*
X160996879Y-94754251D01*
X162020319Y-94754251D01*
X162023084Y-94766225D01*
X162033747Y-94767679D01*
X162050327Y-94760309D01*
X162047176Y-94754251D01*
X162023271Y-94751840D01*
X162020319Y-94754251D01*
X160996879Y-94754251D01*
X160987156Y-94747053D01*
X160982169Y-94739491D01*
X161880591Y-94739491D01*
X161884092Y-94744007D01*
X161923516Y-94745805D01*
X161983834Y-94736664D01*
X162029000Y-94716366D01*
X162060030Y-94696480D01*
X162066580Y-94700980D01*
X162061541Y-94716366D01*
X162063571Y-94743412D01*
X162076913Y-94748177D01*
X162086771Y-94757517D01*
X162063961Y-94781101D01*
X162038318Y-94803236D01*
X162044226Y-94805841D01*
X162060573Y-94800603D01*
X162113572Y-94789432D01*
X162137709Y-94787822D01*
X162165245Y-94781294D01*
X162169701Y-94754061D01*
X162165553Y-94731390D01*
X162162223Y-94690802D01*
X162181280Y-94664516D01*
X162218811Y-94643866D01*
X162260409Y-94622452D01*
X162269118Y-94608648D01*
X162269024Y-94608579D01*
X162321452Y-94608579D01*
X162325678Y-94628763D01*
X162327112Y-94632584D01*
X162343069Y-94657250D01*
X162352141Y-94657427D01*
X162349882Y-94636119D01*
X162338388Y-94621309D01*
X162321452Y-94608579D01*
X162269024Y-94608579D01*
X162248892Y-94593769D01*
X162243063Y-94590616D01*
X162182188Y-94571716D01*
X162104161Y-94564487D01*
X162028018Y-94569362D01*
X161976629Y-94584567D01*
X161945432Y-94606253D01*
X161939655Y-94619872D01*
X161962769Y-94619215D01*
X161994086Y-94606203D01*
X162034193Y-94593081D01*
X162065641Y-94609736D01*
X162068815Y-94612830D01*
X162084537Y-94634742D01*
X162074315Y-94653137D01*
X162032667Y-94677595D01*
X162031346Y-94678278D01*
X161971238Y-94706439D01*
X161916548Y-94727611D01*
X161913021Y-94728716D01*
X161880591Y-94739491D01*
X160982169Y-94739491D01*
X160951906Y-94693599D01*
X160921582Y-94611249D01*
X160916132Y-94592420D01*
X160912880Y-94534680D01*
X160926425Y-94467031D01*
X160951724Y-94405590D01*
X160983733Y-94366472D01*
X160987573Y-94364156D01*
X161014009Y-94339774D01*
X161014952Y-94321971D01*
X161023237Y-94310666D01*
X161069581Y-94311817D01*
X161094959Y-94315198D01*
X161152272Y-94321576D01*
X161179982Y-94316835D01*
X161187708Y-94299049D01*
X161187752Y-94296612D01*
X161197302Y-94268360D01*
X161206583Y-94264111D01*
X161249110Y-94273217D01*
X161300781Y-94294679D01*
X161342291Y-94319713D01*
X161353211Y-94330835D01*
X161365759Y-94338898D01*
X161368728Y-94319503D01*
X161378815Y-94288120D01*
X161405841Y-94292109D01*
X161425436Y-94308425D01*
X161445695Y-94321538D01*
X161449608Y-94309613D01*
X161434776Y-94278280D01*
X161429465Y-94274182D01*
X161410431Y-94244837D01*
X161409322Y-94235629D01*
X161417423Y-94223728D01*
X161446255Y-94222368D01*
X161502609Y-94231929D01*
X161555357Y-94243743D01*
X161701392Y-94277960D01*
X161707625Y-94374049D01*
X161708126Y-94437631D01*
X161696536Y-94475534D01*
X161672375Y-94499195D01*
X161640459Y-94531494D01*
X161630892Y-94555644D01*
X161616278Y-94585830D01*
X161607279Y-94590908D01*
X161602497Y-94608964D01*
X161618154Y-94643421D01*
X161645905Y-94682498D01*
X161677400Y-94714414D01*
X161703991Y-94727394D01*
X161738521Y-94709393D01*
X161758570Y-94662422D01*
X161761071Y-94636775D01*
X161772947Y-94605765D01*
X161812926Y-94596480D01*
X161815423Y-94596466D01*
X161868679Y-94589720D01*
X161886499Y-94567456D01*
X161875337Y-94532963D01*
X161850960Y-94469139D01*
X161830248Y-94381074D01*
X161816330Y-94284807D01*
X161812177Y-94209066D01*
X161826700Y-94073196D01*
X161867133Y-93923173D01*
X161928778Y-93771029D01*
X162006932Y-93628799D01*
X162076583Y-93532174D01*
X162120334Y-93484188D01*
X162144976Y-93467897D01*
X162148522Y-93483213D01*
X162128984Y-93530047D01*
X162126748Y-93534412D01*
X162106635Y-93586552D01*
X162086159Y-93660468D01*
X162073078Y-93722604D01*
X162057698Y-93808234D01*
X162042099Y-93893608D01*
X162033120Y-93941827D01*
X162020901Y-94035269D01*
X162015386Y-94141734D01*
X162016335Y-94249088D01*
X162023509Y-94345200D01*
X162036671Y-94417936D01*
X162042844Y-94436099D01*
X162090680Y-94502195D01*
X162161793Y-94540031D01*
X162207821Y-94546109D01*
X162260015Y-94526785D01*
X162309078Y-94472088D01*
X162351807Y-94386930D01*
X162384996Y-94276224D01*
X162385550Y-94273740D01*
X162413367Y-94155873D01*
X162445208Y-94033336D01*
X162451522Y-94010877D01*
X162768889Y-94010877D01*
X162769310Y-94040647D01*
X162773156Y-94097802D01*
X162773575Y-94102969D01*
X162780340Y-94172521D01*
X162787447Y-94225444D01*
X162792932Y-94249003D01*
X162820570Y-94263378D01*
X162862709Y-94261271D01*
X162898456Y-94245448D01*
X162907169Y-94233896D01*
X162907588Y-94207959D01*
X162899253Y-94203682D01*
X162881370Y-94187628D01*
X162879742Y-94176979D01*
X162866115Y-94145789D01*
X162833052Y-94106450D01*
X162830458Y-94103977D01*
X162793010Y-94058779D01*
X162772029Y-94014974D01*
X162772004Y-94014859D01*
X162768889Y-94010877D01*
X162451522Y-94010877D01*
X162478513Y-93914878D01*
X162510721Y-93809246D01*
X162539272Y-93725188D01*
X162561605Y-93671451D01*
X162562092Y-93670514D01*
X162592885Y-93611743D01*
X162606375Y-93691590D01*
X162621440Y-93761126D01*
X162636478Y-93799158D01*
X162649102Y-93803443D01*
X162656927Y-93771737D01*
X162658306Y-93740399D01*
X162671005Y-93648218D01*
X162703204Y-93553875D01*
X162748174Y-93475110D01*
X162767447Y-93452718D01*
X162815474Y-93428159D01*
X162884764Y-93418589D01*
X162959118Y-93424177D01*
G37*
D15*
%TO.C,J6*%
X164620000Y-92457974D02*
X166000000Y-92457974D01*
X164620000Y-93837974D02*
X164620000Y-92457974D01*
X164620000Y-95107974D02*
X164620000Y-97757974D01*
X164620000Y-95107974D02*
X167380000Y-95107974D01*
X164620000Y-97757974D02*
X167380000Y-97757974D01*
X167380000Y-95107974D02*
X167380000Y-97757974D01*
%TO.C,C5*%
X164620000Y-72307836D02*
X164620000Y-72092164D01*
X165340000Y-72307836D02*
X165340000Y-72092164D01*
%TD*%
M02*
