%TF.GenerationSoftware,KiCad,Pcbnew,9.0.8*%
%TF.CreationDate,2026-08-21T19:12:29-05:00*%
%TF.ProjectId,Devboard,44657662-6f61-4726-942e-6b696361645f,rev?*%
%TF.SameCoordinates,Original*%
%TF.FileFunction,Legend,Bot*%
%TF.FilePolarity,Positive*%
%FSLAX46Y46*%
G04 Gerber Fmt 4.6, Leading zero omitted, Abs format (unit mm)*
G04 Created by KiCad (PCBNEW 9.0.8) date 2026-08-21 19:12:29*
%MOMM*%
%LPD*%
G01*
G04 APERTURE LIST*
%ADD10C,0.100000*%
%ADD11C,0.150000*%
G04 APERTURE END LIST*
D10*
G36*
X155674213Y-91452189D02*
G01*
X155732953Y-91452189D01*
X155717014Y-91399525D01*
X155711765Y-91346310D01*
X155715962Y-91300534D01*
X155727666Y-91263432D01*
X155746203Y-91233225D01*
X155772574Y-91211184D01*
X155812959Y-91196302D01*
X155872904Y-91190544D01*
X156584445Y-91190544D01*
X156584445Y-91130460D01*
X155854464Y-91130460D01*
X155802585Y-91136361D01*
X155753714Y-91154030D01*
X155711664Y-91183303D01*
X155680319Y-91224066D01*
X155666473Y-91256037D01*
X155657571Y-91294932D01*
X155654368Y-91342219D01*
X155661055Y-91414449D01*
X155674213Y-91452189D01*
G37*
G36*
X155873698Y-90468440D02*
G01*
X156089609Y-90468440D01*
X156148286Y-90472926D01*
X156195674Y-90485336D01*
X156233923Y-90504641D01*
X156264670Y-90530600D01*
X156288453Y-90562997D01*
X156306519Y-90604062D01*
X156318314Y-90655753D01*
X156322616Y-90720498D01*
X156320333Y-90767669D01*
X156313396Y-90815814D01*
X156302385Y-90860173D01*
X156291842Y-90884446D01*
X156240612Y-90884446D01*
X156265541Y-90790924D01*
X156272730Y-90720498D01*
X156266668Y-90653225D01*
X156250599Y-90604702D01*
X156226385Y-90570228D01*
X156192603Y-90545085D01*
X156148085Y-90528991D01*
X156089548Y-90523089D01*
X156007848Y-90523089D01*
X156029087Y-90593081D01*
X156041247Y-90658210D01*
X156045157Y-90719155D01*
X156038846Y-90782307D01*
X156021004Y-90834726D01*
X155992217Y-90878646D01*
X155953396Y-90912892D01*
X155907776Y-90933337D01*
X155853182Y-90940439D01*
X155803531Y-90936382D01*
X155763225Y-90925106D01*
X155730455Y-90907429D01*
X155703888Y-90883408D01*
X155677087Y-90842796D01*
X155660338Y-90793366D01*
X155654368Y-90732772D01*
X155703583Y-90732772D01*
X155708016Y-90776950D01*
X155720473Y-90813058D01*
X155740464Y-90842803D01*
X155767797Y-90865041D01*
X155804381Y-90879230D01*
X155853182Y-90884446D01*
X155896403Y-90879395D01*
X155930543Y-90865277D01*
X155957718Y-90842437D01*
X155977467Y-90812392D01*
X155990041Y-90774319D01*
X155994598Y-90725994D01*
X155992370Y-90659306D01*
X155986782Y-90614986D01*
X155976719Y-90573356D01*
X155960099Y-90523089D01*
X155802379Y-90523089D01*
X155764819Y-90562837D01*
X155732648Y-90609185D01*
X155717055Y-90643139D01*
X155707129Y-90683855D01*
X155703583Y-90732772D01*
X155654368Y-90732772D01*
X155660931Y-90675803D01*
X155681479Y-90615963D01*
X155712231Y-90561648D01*
X155745287Y-90524433D01*
X155745287Y-90521685D01*
X155670000Y-90512159D01*
X155670000Y-90462944D01*
X155873698Y-90468440D01*
G37*
G36*
X156306985Y-90315055D02*
G01*
X156306985Y-90256315D01*
X155728984Y-90040465D01*
X155728984Y-90034970D01*
X156306985Y-89811610D01*
X156306985Y-89752869D01*
X155353461Y-90138834D01*
X155353461Y-90197575D01*
X155664748Y-90069836D01*
X156306985Y-90315055D01*
G37*
G36*
X154023522Y-91406393D02*
G01*
X154089101Y-91406393D01*
X154070705Y-91367127D01*
X154049473Y-91297095D01*
X154034589Y-91224057D01*
X154030361Y-91171432D01*
X154036214Y-91090382D01*
X154052030Y-91028044D01*
X154075973Y-90980495D01*
X154101450Y-90951873D01*
X154134506Y-90930904D01*
X154176876Y-90917441D01*
X154231128Y-90912534D01*
X154282985Y-90918638D01*
X154322353Y-90935432D01*
X154354653Y-90962297D01*
X154380177Y-90997958D01*
X154400877Y-91045874D01*
X154429881Y-91139986D01*
X154453531Y-91224110D01*
X154474455Y-91282745D01*
X154502650Y-91332348D01*
X154543210Y-91373604D01*
X154576202Y-91393352D01*
X154617380Y-91405938D01*
X154668872Y-91410484D01*
X154724119Y-91405094D01*
X154772033Y-91389589D01*
X154814106Y-91364208D01*
X154851322Y-91328175D01*
X154880522Y-91285447D01*
X154901914Y-91236134D01*
X154915344Y-91179033D01*
X154920076Y-91112630D01*
X154913751Y-91026174D01*
X154894797Y-90941844D01*
X154869518Y-90881760D01*
X154803939Y-90881760D01*
X154835019Y-90953201D01*
X154855840Y-91024886D01*
X154862601Y-91067981D01*
X154865427Y-91116782D01*
X154861384Y-91176653D01*
X154850305Y-91224372D01*
X154833332Y-91262220D01*
X154810961Y-91292027D01*
X154771466Y-91323259D01*
X154723951Y-91342334D01*
X154666064Y-91349057D01*
X154628647Y-91345938D01*
X154599244Y-91337387D01*
X154576182Y-91324145D01*
X154547597Y-91295291D01*
X154525807Y-91256856D01*
X154485019Y-91130460D01*
X154458491Y-91041654D01*
X154436964Y-90982937D01*
X154408569Y-90933601D01*
X154366195Y-90890369D01*
X154331692Y-90869336D01*
X154288327Y-90855908D01*
X154233754Y-90851046D01*
X154173884Y-90856711D01*
X154123212Y-90872820D01*
X154079910Y-90898863D01*
X154042756Y-90935432D01*
X154014469Y-90978859D01*
X153993123Y-91031972D01*
X153979338Y-91096734D01*
X153974368Y-91175523D01*
X153978509Y-91240156D01*
X153991404Y-91309429D01*
X154009659Y-91373469D01*
X154023522Y-91406393D01*
G37*
G36*
X154626985Y-89858993D02*
G01*
X153990000Y-90049563D01*
X153990000Y-90109708D01*
X154580579Y-90287334D01*
X154580579Y-90291425D01*
X153990000Y-90460807D01*
X153990000Y-90520952D01*
X154626985Y-90714942D01*
X154626985Y-90656202D01*
X154171411Y-90529134D01*
X154045931Y-90492925D01*
X154045931Y-90490177D01*
X154626985Y-90323543D01*
X154626985Y-90250392D01*
X154174159Y-90117890D01*
X154045931Y-90081681D01*
X154045931Y-90078934D01*
X154121646Y-90056402D01*
X154626985Y-89916390D01*
X154626985Y-89858993D01*
G37*
G36*
X154193698Y-89269696D02*
G01*
X154409609Y-89269696D01*
X154468286Y-89274182D01*
X154515674Y-89286592D01*
X154553923Y-89305897D01*
X154584670Y-89331856D01*
X154608453Y-89364253D01*
X154626519Y-89405318D01*
X154638314Y-89457009D01*
X154642616Y-89521755D01*
X154640333Y-89568925D01*
X154633396Y-89617070D01*
X154622385Y-89661429D01*
X154611842Y-89685703D01*
X154560612Y-89685703D01*
X154585541Y-89592180D01*
X154592730Y-89521755D01*
X154586668Y-89454481D01*
X154570599Y-89405958D01*
X154546385Y-89371484D01*
X154512603Y-89346341D01*
X154468085Y-89330247D01*
X154409548Y-89324345D01*
X154327848Y-89324345D01*
X154349087Y-89394337D01*
X154361247Y-89459466D01*
X154365157Y-89520411D01*
X154358846Y-89583563D01*
X154341004Y-89635982D01*
X154312217Y-89679902D01*
X154273396Y-89714148D01*
X154227776Y-89734593D01*
X154173182Y-89741695D01*
X154123531Y-89737638D01*
X154083225Y-89726362D01*
X154050455Y-89708685D01*
X154023888Y-89684665D01*
X153997087Y-89644052D01*
X153980338Y-89594622D01*
X153974368Y-89534028D01*
X154023583Y-89534028D01*
X154028016Y-89578206D01*
X154040473Y-89614314D01*
X154060464Y-89644059D01*
X154087797Y-89666297D01*
X154124381Y-89680487D01*
X154173182Y-89685703D01*
X154216403Y-89680651D01*
X154250543Y-89666533D01*
X154277718Y-89643693D01*
X154297467Y-89613649D01*
X154310041Y-89575575D01*
X154314598Y-89527250D01*
X154312370Y-89460562D01*
X154306782Y-89416242D01*
X154296719Y-89374612D01*
X154280099Y-89324345D01*
X154122379Y-89324345D01*
X154084819Y-89364093D01*
X154052648Y-89410441D01*
X154037055Y-89444395D01*
X154027129Y-89485111D01*
X154023583Y-89534028D01*
X153974368Y-89534028D01*
X153980931Y-89477060D01*
X154001479Y-89417219D01*
X154032231Y-89362904D01*
X154065287Y-89325689D01*
X154065287Y-89322941D01*
X153990000Y-89313415D01*
X153990000Y-89264200D01*
X154193698Y-89269696D01*
G37*
G36*
X154626985Y-88983138D02*
G01*
X154537042Y-88972208D01*
X154537042Y-88970865D01*
X154584738Y-88923711D01*
X154616360Y-88878602D01*
X154635670Y-88827978D01*
X154642616Y-88763808D01*
X154638044Y-88710792D01*
X154625283Y-88667486D01*
X154605125Y-88631978D01*
X154577726Y-88601416D01*
X154547231Y-88578912D01*
X154513168Y-88563651D01*
X154513168Y-88560903D01*
X154572448Y-88511375D01*
X154610926Y-88462901D01*
X154628266Y-88427294D01*
X154638922Y-88387423D01*
X154642616Y-88342367D01*
X154638371Y-88290085D01*
X154626505Y-88247049D01*
X154607799Y-88211519D01*
X154582288Y-88182205D01*
X154538983Y-88152754D01*
X154483696Y-88134000D01*
X154413028Y-88127189D01*
X153990000Y-88127189D01*
X153990000Y-88181838D01*
X154400022Y-88181838D01*
X154464600Y-88187448D01*
X154512258Y-88202444D01*
X154547011Y-88225148D01*
X154571596Y-88255479D01*
X154587093Y-88294963D01*
X154592730Y-88346458D01*
X154588578Y-88389420D01*
X154576599Y-88426972D01*
X154556948Y-88460214D01*
X154515324Y-88504632D01*
X154454488Y-88549363D01*
X153990000Y-88549363D01*
X153990000Y-88604012D01*
X154419745Y-88604012D01*
X154471649Y-88609292D01*
X154513100Y-88623997D01*
X154546385Y-88647426D01*
X154571427Y-88679141D01*
X154587088Y-88719386D01*
X154592730Y-88770708D01*
X154589343Y-88810853D01*
X154579519Y-88846803D01*
X154563421Y-88879335D01*
X154528973Y-88924494D01*
X154478302Y-88972208D01*
X153990000Y-88972208D01*
X153990000Y-89026857D01*
X154626985Y-89026857D01*
X154626985Y-88983138D01*
G37*
G36*
X154841919Y-87894731D02*
G01*
X154841919Y-87831838D01*
X154775484Y-87831838D01*
X154775484Y-87894731D01*
X154841919Y-87894731D01*
G37*
G36*
X154626985Y-87890640D02*
G01*
X154626985Y-87835990D01*
X153990000Y-87835990D01*
X153990000Y-87890640D01*
X154626985Y-87890640D01*
G37*
G36*
X154626985Y-87548944D02*
G01*
X154523304Y-87539357D01*
X154523304Y-87538014D01*
X154573802Y-87494075D01*
X154611048Y-87443431D01*
X154628591Y-87405715D01*
X154639077Y-87366163D01*
X154642616Y-87324180D01*
X154638440Y-87273997D01*
X154626784Y-87232916D01*
X154608416Y-87199184D01*
X154583326Y-87171528D01*
X154540838Y-87144284D01*
X154484316Y-87126508D01*
X154409609Y-87119931D01*
X153990000Y-87119931D01*
X153990000Y-87173909D01*
X154402709Y-87173909D01*
X154465476Y-87178744D01*
X154511761Y-87191596D01*
X154545408Y-87210790D01*
X154570615Y-87238778D01*
X154586745Y-87277612D01*
X154592730Y-87331018D01*
X154588884Y-87368724D01*
X154577186Y-87406079D01*
X154556948Y-87443736D01*
X154515497Y-87493982D01*
X154459923Y-87538014D01*
X153990000Y-87538014D01*
X153990000Y-87592663D01*
X154626985Y-87592663D01*
X154626985Y-87548944D01*
G37*
G36*
X154193698Y-86461880D02*
G01*
X154409609Y-86461880D01*
X154468286Y-86466366D01*
X154515674Y-86478776D01*
X154553923Y-86498081D01*
X154584670Y-86524040D01*
X154608453Y-86556438D01*
X154626519Y-86597503D01*
X154638314Y-86649193D01*
X154642616Y-86713939D01*
X154640333Y-86761109D01*
X154633396Y-86809255D01*
X154622385Y-86853614D01*
X154611842Y-86877887D01*
X154560612Y-86877887D01*
X154585541Y-86784365D01*
X154592730Y-86713939D01*
X154586668Y-86646665D01*
X154570599Y-86598142D01*
X154546385Y-86563668D01*
X154512603Y-86538525D01*
X154468085Y-86522431D01*
X154409548Y-86516530D01*
X154327848Y-86516530D01*
X154349087Y-86586521D01*
X154361247Y-86651650D01*
X154365157Y-86712595D01*
X154358846Y-86775747D01*
X154341004Y-86828166D01*
X154312217Y-86872086D01*
X154273396Y-86906332D01*
X154227776Y-86926777D01*
X154173182Y-86933879D01*
X154123531Y-86929822D01*
X154083225Y-86918547D01*
X154050455Y-86900870D01*
X154023888Y-86876849D01*
X153997087Y-86836237D01*
X153980338Y-86786806D01*
X153974368Y-86726212D01*
X154023583Y-86726212D01*
X154028016Y-86770390D01*
X154040473Y-86806498D01*
X154060464Y-86836243D01*
X154087797Y-86858481D01*
X154124381Y-86872671D01*
X154173182Y-86877887D01*
X154216403Y-86872835D01*
X154250543Y-86858717D01*
X154277718Y-86835877D01*
X154297467Y-86805833D01*
X154310041Y-86767759D01*
X154314598Y-86719434D01*
X154312370Y-86652746D01*
X154306782Y-86608426D01*
X154296719Y-86566796D01*
X154280099Y-86516530D01*
X154122379Y-86516530D01*
X154084819Y-86556278D01*
X154052648Y-86602625D01*
X154037055Y-86636579D01*
X154027129Y-86677295D01*
X154023583Y-86726212D01*
X153974368Y-86726212D01*
X153980931Y-86669244D01*
X154001479Y-86609403D01*
X154032231Y-86555088D01*
X154065287Y-86517873D01*
X154065287Y-86515125D01*
X153990000Y-86505600D01*
X153990000Y-86456385D01*
X154193698Y-86461880D01*
G37*
G36*
X154626985Y-86175322D02*
G01*
X154513778Y-86165736D01*
X154513778Y-86164392D01*
X154547975Y-86136546D01*
X154578679Y-86101247D01*
X154605980Y-86057475D01*
X154626556Y-86010172D01*
X154638622Y-85962881D01*
X154642616Y-85915020D01*
X154642616Y-85897252D01*
X154588639Y-85897252D01*
X154588639Y-85915020D01*
X154584179Y-85964061D01*
X154570734Y-86012004D01*
X154547789Y-86059551D01*
X154517287Y-86102551D01*
X154481775Y-86137224D01*
X154440872Y-86164392D01*
X153990000Y-86164392D01*
X153990000Y-86219042D01*
X154626985Y-86219042D01*
X154626985Y-86175322D01*
G37*
G36*
X154193698Y-85340317D02*
G01*
X154409609Y-85340317D01*
X154468286Y-85344803D01*
X154515674Y-85357213D01*
X154553923Y-85376518D01*
X154584670Y-85402477D01*
X154608453Y-85434875D01*
X154626519Y-85475940D01*
X154638314Y-85527630D01*
X154642616Y-85592376D01*
X154640333Y-85639546D01*
X154633396Y-85687691D01*
X154622385Y-85732051D01*
X154611842Y-85756324D01*
X154560612Y-85756324D01*
X154585541Y-85662801D01*
X154592730Y-85592376D01*
X154586668Y-85525102D01*
X154570599Y-85476579D01*
X154546385Y-85442105D01*
X154512603Y-85416962D01*
X154468085Y-85400868D01*
X154409548Y-85394966D01*
X154327848Y-85394966D01*
X154349087Y-85464958D01*
X154361247Y-85530087D01*
X154365157Y-85591032D01*
X154358846Y-85654184D01*
X154341004Y-85706603D01*
X154312217Y-85750523D01*
X154273396Y-85784769D01*
X154227776Y-85805214D01*
X154173182Y-85812316D01*
X154123531Y-85808259D01*
X154083225Y-85796983D01*
X154050455Y-85779306D01*
X154023888Y-85755286D01*
X153997087Y-85714673D01*
X153980338Y-85665243D01*
X153974368Y-85604649D01*
X154023583Y-85604649D01*
X154028016Y-85648827D01*
X154040473Y-85684935D01*
X154060464Y-85714680D01*
X154087797Y-85736918D01*
X154124381Y-85751108D01*
X154173182Y-85756324D01*
X154216403Y-85751272D01*
X154250543Y-85737154D01*
X154277718Y-85714314D01*
X154297467Y-85684270D01*
X154310041Y-85646196D01*
X154314598Y-85597871D01*
X154312370Y-85531183D01*
X154306782Y-85486863D01*
X154296719Y-85445233D01*
X154280099Y-85394966D01*
X154122379Y-85394966D01*
X154084819Y-85434715D01*
X154052648Y-85481062D01*
X154037055Y-85515016D01*
X154027129Y-85555732D01*
X154023583Y-85604649D01*
X153974368Y-85604649D01*
X153980931Y-85547681D01*
X154001479Y-85487840D01*
X154032231Y-85433525D01*
X154065287Y-85396310D01*
X154065287Y-85393562D01*
X153990000Y-85384036D01*
X153990000Y-85334822D01*
X154193698Y-85340317D01*
G37*
G36*
X154626985Y-85186933D02*
G01*
X154626985Y-85128192D01*
X154048984Y-84912342D01*
X154048984Y-84906847D01*
X154626985Y-84683487D01*
X154626985Y-84624747D01*
X153673461Y-85010711D01*
X153673461Y-85069452D01*
X153984748Y-84941713D01*
X154626985Y-85186933D01*
G37*
G36*
X154193698Y-84048761D02*
G01*
X154409609Y-84048761D01*
X154468286Y-84053247D01*
X154515674Y-84065657D01*
X154553923Y-84084962D01*
X154584670Y-84110921D01*
X154608453Y-84143318D01*
X154626519Y-84184383D01*
X154638314Y-84236074D01*
X154642616Y-84300819D01*
X154640333Y-84347990D01*
X154633396Y-84396135D01*
X154622385Y-84440494D01*
X154611842Y-84464767D01*
X154560612Y-84464767D01*
X154585541Y-84371245D01*
X154592730Y-84300819D01*
X154586668Y-84233546D01*
X154570599Y-84185023D01*
X154546385Y-84150549D01*
X154512603Y-84125406D01*
X154468085Y-84109312D01*
X154409548Y-84103410D01*
X154327848Y-84103410D01*
X154349087Y-84173402D01*
X154361247Y-84238531D01*
X154365157Y-84299476D01*
X154358846Y-84362628D01*
X154341004Y-84415047D01*
X154312217Y-84458967D01*
X154273396Y-84493213D01*
X154227776Y-84513658D01*
X154173182Y-84520760D01*
X154123531Y-84516703D01*
X154083225Y-84505427D01*
X154050455Y-84487750D01*
X154023888Y-84463729D01*
X153997087Y-84423117D01*
X153980338Y-84373687D01*
X153974368Y-84313093D01*
X154023583Y-84313093D01*
X154028016Y-84357271D01*
X154040473Y-84393379D01*
X154060464Y-84423124D01*
X154087797Y-84445362D01*
X154124381Y-84459551D01*
X154173182Y-84464767D01*
X154216403Y-84459716D01*
X154250543Y-84445598D01*
X154277718Y-84422758D01*
X154297467Y-84392713D01*
X154310041Y-84354640D01*
X154314598Y-84306315D01*
X154312370Y-84239627D01*
X154306782Y-84195307D01*
X154296719Y-84153677D01*
X154280099Y-84103410D01*
X154122379Y-84103410D01*
X154084819Y-84143158D01*
X154052648Y-84189506D01*
X154037055Y-84223460D01*
X154027129Y-84264176D01*
X154023583Y-84313093D01*
X153974368Y-84313093D01*
X153980931Y-84256124D01*
X154001479Y-84196284D01*
X154032231Y-84141969D01*
X154065287Y-84104754D01*
X154065287Y-84102006D01*
X153990000Y-84092480D01*
X153990000Y-84043265D01*
X154193698Y-84048761D01*
G37*
G36*
X154626985Y-83762203D02*
G01*
X154523304Y-83752616D01*
X154523304Y-83751273D01*
X154573802Y-83707334D01*
X154611048Y-83656690D01*
X154628591Y-83618974D01*
X154639077Y-83579422D01*
X154642616Y-83537438D01*
X154638440Y-83487256D01*
X154626784Y-83446175D01*
X154608416Y-83412443D01*
X154583326Y-83384787D01*
X154540838Y-83357543D01*
X154484316Y-83339767D01*
X154409609Y-83333190D01*
X153990000Y-83333190D01*
X153990000Y-83387168D01*
X154402709Y-83387168D01*
X154465476Y-83392003D01*
X154511761Y-83404854D01*
X154545408Y-83424049D01*
X154570615Y-83452037D01*
X154586745Y-83490871D01*
X154592730Y-83544277D01*
X154588884Y-83581983D01*
X154577186Y-83619338D01*
X154556948Y-83656995D01*
X154515497Y-83707241D01*
X154459923Y-83751273D01*
X153990000Y-83751273D01*
X153990000Y-83805922D01*
X154626985Y-83805922D01*
X154626985Y-83762203D01*
G37*
D11*
X161411904Y-75704819D02*
X161411904Y-76514342D01*
X161411904Y-76514342D02*
X161364285Y-76609580D01*
X161364285Y-76609580D02*
X161316666Y-76657200D01*
X161316666Y-76657200D02*
X161221428Y-76704819D01*
X161221428Y-76704819D02*
X161030952Y-76704819D01*
X161030952Y-76704819D02*
X160935714Y-76657200D01*
X160935714Y-76657200D02*
X160888095Y-76609580D01*
X160888095Y-76609580D02*
X160840476Y-76514342D01*
X160840476Y-76514342D02*
X160840476Y-75704819D01*
X159840476Y-76704819D02*
X160411904Y-76704819D01*
X160126190Y-76704819D02*
X160126190Y-75704819D01*
X160126190Y-75704819D02*
X160221428Y-75847676D01*
X160221428Y-75847676D02*
X160316666Y-75942914D01*
X160316666Y-75942914D02*
X160411904Y-75990533D01*
M02*
