%TF.GenerationSoftware,KiCad,Pcbnew,9.0.8*%
%TF.CreationDate,2026-08-21T19:12:29-05:00*%
%TF.ProjectId,Devboard,44657662-6f61-4726-942e-6b696361645f,rev?*%
%TF.SameCoordinates,Original*%
%TF.FileFunction,Copper,L2,Bot*%
%TF.FilePolarity,Positive*%
%FSLAX46Y46*%
G04 Gerber Fmt 4.6, Leading zero omitted, Abs format (unit mm)*
G04 Created by KiCad (PCBNEW 9.0.8) date 2026-08-21 19:12:29*
%MOMM*%
%LPD*%
G01*
G04 APERTURE LIST*
%TA.AperFunction,ComponentPad*%
%ADD10R,1.700000X1.700000*%
%TD*%
%TA.AperFunction,ComponentPad*%
%ADD11C,1.700000*%
%TD*%
%TA.AperFunction,HeatsinkPad*%
%ADD12O,1.000000X2.100000*%
%TD*%
%TA.AperFunction,HeatsinkPad*%
%ADD13O,1.000000X1.600000*%
%TD*%
%TA.AperFunction,ViaPad*%
%ADD14C,0.600000*%
%TD*%
%TA.AperFunction,Conductor*%
%ADD15C,0.200000*%
%TD*%
G04 APERTURE END LIST*
D10*
%TO.P,J3,1,Pin_1*%
%TO.N,VBUS*%
X169540000Y-48120000D03*
D11*
%TO.P,J3,2,Pin_2*%
%TO.N,GPIO23*%
X169540000Y-50660000D03*
%TO.P,J3,3,Pin_3*%
%TO.N,GND*%
X169540000Y-53200000D03*
%TO.P,J3,4,Pin_4*%
%TO.N,GPIO24*%
X169540000Y-55740000D03*
%TO.P,J3,5,Pin_5*%
%TO.N,+3V3*%
X169540000Y-58280000D03*
%TO.P,J3,6,Pin_6*%
%TO.N,GPIO25*%
X169540000Y-60820000D03*
%TO.P,J3,7,Pin_7*%
%TO.N,GPIO28_ADC2*%
X169540000Y-63360000D03*
%TO.P,J3,8,Pin_8*%
%TO.N,GND*%
X169540000Y-65900000D03*
%TO.P,J3,9,Pin_9*%
%TO.N,GPIO27_ADC1*%
X169540000Y-68440000D03*
%TO.P,J3,10,Pin_10*%
%TO.N,GPIO26_ADC0*%
X169540000Y-70980000D03*
%TO.P,J3,11,Pin_11*%
%TO.N,RUN*%
X169540000Y-73520000D03*
%TO.P,J3,12,Pin_12*%
%TO.N,GPIO22*%
X169540000Y-76060000D03*
%TO.P,J3,13,Pin_13*%
%TO.N,GND*%
X169540000Y-78600000D03*
%TO.P,J3,14,Pin_14*%
%TO.N,GPIO21*%
X169540000Y-81140000D03*
%TO.P,J3,15,Pin_15*%
%TO.N,GPIO20*%
X169540000Y-83680000D03*
%TO.P,J3,16,Pin_16*%
%TO.N,GPIO19*%
X169540000Y-86220000D03*
%TO.P,J3,17,Pin_17*%
%TO.N,GPIO18*%
X169540000Y-88760000D03*
%TO.P,J3,18,Pin_18*%
%TO.N,GND*%
X169540000Y-91300000D03*
%TO.P,J3,19,Pin_19*%
%TO.N,GPIO17*%
X169540000Y-93840000D03*
%TO.P,J3,20,Pin_20*%
%TO.N,GPIO16*%
X169540000Y-96380000D03*
%TD*%
D12*
%TO.P,J1,S1,SHIELD*%
%TO.N,GND*%
X164970000Y-52380000D03*
D13*
X164970000Y-48200000D03*
D12*
X156330000Y-52380000D03*
D13*
X156330000Y-48200000D03*
%TD*%
D10*
%TO.P,J4,1,Pin_1*%
%TO.N,SWCLK*%
X158110000Y-90303956D03*
D11*
%TO.P,J4,2,Pin_2*%
%TO.N,GND*%
X160650000Y-90303956D03*
%TO.P,J4,3,Pin_3*%
%TO.N,SWD*%
X163190000Y-90303956D03*
%TD*%
D10*
%TO.P,J5,1,Pin_1*%
%TO.N,+3V3*%
X155300000Y-93840000D03*
D11*
%TO.P,J5,2,Pin_2*%
%TO.N,GPIO29_ADC3*%
X155300000Y-96380000D03*
%TD*%
D10*
%TO.P,J2,1,Pin_1*%
%TO.N,GPIO0*%
X151760000Y-48120000D03*
D11*
%TO.P,J2,2,Pin_2*%
%TO.N,GPIO1*%
X151760000Y-50660000D03*
%TO.P,J2,3,Pin_3*%
%TO.N,GND*%
X151760000Y-53200000D03*
%TO.P,J2,4,Pin_4*%
%TO.N,GPIO2*%
X151760000Y-55740000D03*
%TO.P,J2,5,Pin_5*%
%TO.N,GPIO3*%
X151760000Y-58280000D03*
%TO.P,J2,6,Pin_6*%
%TO.N,GPIO4*%
X151760000Y-60820000D03*
%TO.P,J2,7,Pin_7*%
%TO.N,GPIO5*%
X151760000Y-63360000D03*
%TO.P,J2,8,Pin_8*%
%TO.N,GND*%
X151760000Y-65900000D03*
%TO.P,J2,9,Pin_9*%
%TO.N,GPIO6*%
X151760000Y-68440000D03*
%TO.P,J2,10,Pin_10*%
%TO.N,GPIO7*%
X151760000Y-70980000D03*
%TO.P,J2,11,Pin_11*%
%TO.N,GPIO8*%
X151760000Y-73520000D03*
%TO.P,J2,12,Pin_12*%
%TO.N,GPIO9*%
X151760000Y-76060000D03*
%TO.P,J2,13,Pin_13*%
%TO.N,GND*%
X151760000Y-78600000D03*
%TO.P,J2,14,Pin_14*%
%TO.N,GPIO10*%
X151760000Y-81140000D03*
%TO.P,J2,15,Pin_15*%
%TO.N,GPIO11*%
X151760000Y-83680000D03*
%TO.P,J2,16,Pin_16*%
%TO.N,GPIO12*%
X151760000Y-86220000D03*
%TO.P,J2,17,Pin_17*%
%TO.N,GPIO13*%
X151760000Y-88760000D03*
%TO.P,J2,18,Pin_18*%
%TO.N,GND*%
X151760000Y-91300000D03*
%TO.P,J2,19,Pin_19*%
%TO.N,GPIO14*%
X151760000Y-93840000D03*
%TO.P,J2,20,Pin_20*%
%TO.N,GPIO15*%
X151760000Y-96380000D03*
%TD*%
D10*
%TO.P,J6,1,Pin_1*%
%TO.N,VBUS*%
X166000000Y-93837974D03*
D11*
%TO.P,J6,2,Pin_2*%
%TO.N,+3V3*%
X166000000Y-96377974D03*
%TD*%
D14*
%TO.N,GND*%
X153050000Y-89850000D03*
X160870000Y-86630000D03*
X168310000Y-62300000D03*
X162310000Y-91920000D03*
X162430000Y-63470000D03*
X154010000Y-50330000D03*
X154910000Y-78380000D03*
X163590000Y-84620000D03*
X153530000Y-82020000D03*
X165160000Y-66420000D03*
X168400000Y-67280000D03*
X167470000Y-59310000D03*
X165380000Y-70490000D03*
X157240000Y-83130000D03*
X153530000Y-85820000D03*
X163070000Y-85670000D03*
X166830000Y-48200000D03*
X159320000Y-56180000D03*
X156480000Y-72620000D03*
X162510000Y-75230000D03*
X165020000Y-83350000D03*
X168300000Y-89970000D03*
X157666267Y-70900000D03*
X167340000Y-54500000D03*
X158200000Y-66040000D03*
X152840000Y-54580000D03*
X158980000Y-81820000D03*
%TO.N,+3V3*%
X157370000Y-72880000D03*
X165330000Y-91400000D03*
X161050000Y-71863598D03*
X161750000Y-67200000D03*
X166680292Y-78459706D03*
X158495735Y-54714265D03*
X165280000Y-87140000D03*
X164770000Y-55270000D03*
X164590000Y-70020000D03*
%TO.N,VBUS*%
X154990000Y-67360000D03*
X156830000Y-86590000D03*
X166220000Y-88940000D03*
X162730000Y-86810000D03*
%TO.N,GPIO3*%
X153390000Y-59630000D03*
%TO.N,GPIO8*%
X154720000Y-79830000D03*
%TO.N,GPIO1*%
X155391224Y-74050002D03*
%TO.N,GPIO4*%
X155057999Y-75827999D03*
%TO.N,GPIO5*%
X154220000Y-76260000D03*
%TO.N,GPIO2*%
X154629989Y-74320011D03*
%TO.N,RUN*%
X163135651Y-78753543D03*
%TO.N,SWCLK*%
X158818700Y-78350000D03*
%TO.N,SWD*%
X163151221Y-77953692D03*
%TO.N,GPIO29_ADC3*%
X163270000Y-74056054D03*
X164479265Y-86470735D03*
X166080292Y-82003410D03*
X165188235Y-80361765D03*
%TO.N,GPIO23*%
X166984873Y-76250000D03*
%TO.N,GPIO24*%
X168020000Y-72280000D03*
%TO.N,GPIO25*%
X167689265Y-70439265D03*
%TO.N,Net-(R6-Pad1)*%
X164570000Y-62050000D03*
X155000000Y-66250000D03*
%TD*%
D15*
%TO.N,GND*%
X152840000Y-54280000D02*
X151760000Y-53200000D01*
X167340000Y-54500000D02*
X168240000Y-54500000D01*
X162390000Y-73470000D02*
X162390000Y-75110000D01*
X157240000Y-83130000D02*
X158550000Y-81820000D01*
X165380000Y-70490000D02*
X165370000Y-70490000D01*
X165020000Y-83350000D02*
X164860000Y-83350000D01*
X154420000Y-82020000D02*
X153530000Y-82020000D01*
X152840000Y-54580000D02*
X152840000Y-54280000D01*
X164970000Y-48200000D02*
X164970000Y-52380000D01*
X163850000Y-86690000D02*
X165070000Y-87910000D01*
X151760000Y-78600000D02*
X153530000Y-80370000D01*
X153530000Y-82020000D02*
X153530000Y-85820000D01*
X166880000Y-87910000D02*
X168300000Y-89330000D01*
X164860000Y-83350000D02*
X163590000Y-84620000D01*
X165370000Y-70490000D02*
X162390000Y-73470000D01*
X155610000Y-80830000D02*
X154420000Y-82020000D01*
X155610000Y-79080000D02*
X155610000Y-80830000D01*
X154910000Y-78380000D02*
X155610000Y-79080000D01*
X168240000Y-54500000D02*
X169540000Y-53200000D01*
X163850000Y-84880000D02*
X163590000Y-84620000D01*
X158550000Y-81820000D02*
X158980000Y-81820000D01*
X163850000Y-86690000D02*
X163850000Y-84880000D01*
X162390000Y-75110000D02*
X162510000Y-75230000D01*
X153530000Y-80370000D02*
X153530000Y-82020000D01*
X168300000Y-89330000D02*
X168300000Y-89970000D01*
X165070000Y-87910000D02*
X166880000Y-87910000D01*
%TO.N,+3V3*%
X159051471Y-55270000D02*
X164770000Y-55270000D01*
X163462026Y-93840000D02*
X163462026Y-95412026D01*
X161050000Y-69570000D02*
X161050000Y-67900000D01*
X156095735Y-73315735D02*
X155190000Y-72410000D01*
X157370000Y-72880000D02*
X156934265Y-73315735D01*
X161750000Y-67200000D02*
X164570000Y-70020000D01*
X164427974Y-96377974D02*
X166000000Y-96377974D01*
X155990000Y-67900000D02*
X161050000Y-67900000D01*
X163462026Y-92407974D02*
X163462026Y-93840000D01*
X166680292Y-85739708D02*
X166680292Y-78459706D01*
X155190000Y-68700000D02*
X155990000Y-67900000D01*
X161050000Y-71863598D02*
X161050000Y-69570000D01*
X164470000Y-91400000D02*
X163462026Y-92407974D01*
X165280000Y-87140000D02*
X166680292Y-85739708D01*
X155190000Y-72410000D02*
X155190000Y-68700000D01*
X161050000Y-67900000D02*
X161750000Y-67200000D01*
X163462026Y-95412026D02*
X164427974Y-96377974D01*
X156934265Y-73315735D02*
X156095735Y-73315735D01*
X158495735Y-54714265D02*
X159051471Y-55270000D01*
X164570000Y-70020000D02*
X164590000Y-70020000D01*
X165330000Y-91400000D02*
X164470000Y-91400000D01*
%TO.N,VBUS*%
X157031421Y-86388579D02*
X156830000Y-86590000D01*
X157550000Y-75340000D02*
X157550000Y-79184314D01*
X162730000Y-86810000D02*
X162730000Y-87180000D01*
X164490000Y-88940000D02*
X166220000Y-88940000D01*
X156090000Y-85447158D02*
X157031421Y-86388579D01*
X154990000Y-67360000D02*
X154790000Y-67560000D01*
X156090000Y-80644314D02*
X156090000Y-85447158D01*
X162730000Y-87180000D02*
X164490000Y-88940000D01*
X154790000Y-72580000D02*
X157550000Y-75340000D01*
X154790000Y-67560000D02*
X154790000Y-72580000D01*
X157550000Y-79184314D02*
X156090000Y-80644314D01*
%TO.N,GPIO3*%
X153390000Y-59630000D02*
X153110000Y-59630000D01*
X153110000Y-59630000D02*
X151760000Y-58280000D01*
%TO.N,GPIO8*%
X151760000Y-74320000D02*
X153120000Y-75680000D01*
X151760000Y-73520000D02*
X151760000Y-74320000D01*
X154300000Y-80060000D02*
X154490000Y-80060000D01*
X153120000Y-78880000D02*
X154300000Y-80060000D01*
X154490000Y-80060000D02*
X154720000Y-79830000D01*
X153120000Y-75680000D02*
X153120000Y-78880000D01*
%TO.N,GPIO1*%
X154390000Y-73514336D02*
X154595675Y-73720011D01*
X155061233Y-73720011D02*
X155391224Y-74050002D01*
X154390000Y-53290000D02*
X154390000Y-73514336D01*
X154595675Y-73720011D02*
X155061233Y-73720011D01*
X151760000Y-50660000D02*
X154390000Y-53290000D01*
%TO.N,GPIO4*%
X153520000Y-74550000D02*
X153520000Y-62580000D01*
X155057999Y-75827999D02*
X154797999Y-75827999D01*
X154797999Y-75827999D02*
X153520000Y-74550000D01*
X153520000Y-62580000D02*
X151760000Y-60820000D01*
%TO.N,GPIO5*%
X151760000Y-63360000D02*
X153120000Y-64720000D01*
X154220000Y-76214314D02*
X154220000Y-76260000D01*
X153120000Y-64720000D02*
X153120000Y-75114314D01*
X153120000Y-75114314D02*
X154220000Y-76214314D01*
%TO.N,GPIO2*%
X153990000Y-57230000D02*
X153990000Y-73680022D01*
X152500000Y-55740000D02*
X153990000Y-57230000D01*
X153990000Y-73680022D02*
X154629989Y-74320011D01*
X151760000Y-55740000D02*
X152500000Y-55740000D01*
%TO.N,RUN*%
X164590000Y-81420000D02*
X165280000Y-81420000D01*
X163135651Y-79965651D02*
X164590000Y-81420000D01*
X165860000Y-77920000D02*
X166470000Y-77310000D01*
X165280000Y-81420000D02*
X165860000Y-80840000D01*
X167550000Y-76560000D02*
X167550000Y-76533402D01*
X166470000Y-77310000D02*
X166800000Y-77310000D01*
X167584873Y-76498529D02*
X167584873Y-74475127D01*
X167550000Y-76533402D02*
X167584873Y-76498529D01*
X165860000Y-80840000D02*
X165860000Y-77920000D01*
X166800000Y-77310000D02*
X167550000Y-76560000D01*
X168540000Y-73520000D02*
X169540000Y-73520000D01*
X163135651Y-78753543D02*
X163135651Y-79965651D01*
X167584873Y-74475127D02*
X168540000Y-73520000D01*
%TO.N,SWCLK*%
X156560000Y-85351471D02*
X158100000Y-86891471D01*
X158100000Y-86891471D02*
X158100000Y-90293956D01*
X158760000Y-78408700D02*
X158760000Y-78540000D01*
X158818700Y-78350000D02*
X158760000Y-78408700D01*
X158100000Y-90293956D02*
X158110000Y-90303956D01*
X156560000Y-80740000D02*
X156560000Y-85351471D01*
X158760000Y-78540000D02*
X156560000Y-80740000D01*
%TO.N,SWD*%
X163190000Y-88360000D02*
X163190000Y-90303956D01*
X163151221Y-77953692D02*
X162841418Y-77953692D01*
X162070000Y-87240000D02*
X163190000Y-88360000D01*
X162841418Y-77953692D02*
X162070000Y-78725110D01*
X162070000Y-78725110D02*
X162070000Y-87240000D01*
%TO.N,GPIO29_ADC3*%
X166080292Y-85589708D02*
X165199265Y-86470735D01*
X165188235Y-80361765D02*
X163830000Y-79003530D01*
X165199265Y-86470735D02*
X164479265Y-86470735D01*
X166080292Y-82003410D02*
X166080292Y-85589708D01*
X163830000Y-79003530D02*
X163830000Y-74616054D01*
X163830000Y-74616054D02*
X163270000Y-74056054D01*
%TO.N,GPIO23*%
X169540000Y-50660000D02*
X168130000Y-50660000D01*
X167420000Y-52780000D02*
X167420000Y-51970000D01*
X167410000Y-51380000D02*
X167410000Y-51960000D01*
X166984873Y-76250000D02*
X166020000Y-75285127D01*
X167410000Y-51960000D02*
X167420000Y-51970000D01*
X166020000Y-54180000D02*
X167420000Y-52780000D01*
X166020000Y-75285127D02*
X166020000Y-54180000D01*
X168130000Y-50660000D02*
X167410000Y-51380000D01*
%TO.N,GPIO24*%
X166720000Y-70980000D02*
X166720000Y-57360000D01*
X168340000Y-55740000D02*
X169540000Y-55740000D01*
X166720000Y-57360000D02*
X168340000Y-55740000D01*
X168020000Y-72280000D02*
X166720000Y-70980000D01*
%TO.N,GPIO25*%
X167689265Y-70439265D02*
X167400000Y-70150000D01*
X168210000Y-60820000D02*
X169540000Y-60820000D01*
X167400000Y-61630000D02*
X168210000Y-60820000D01*
X167400000Y-70150000D02*
X167400000Y-61630000D01*
%TO.N,Net-(R6-Pad1)*%
X156120000Y-67370000D02*
X155000000Y-66250000D01*
X164068364Y-63751636D02*
X160450000Y-67370000D01*
X160450000Y-67370000D02*
X156120000Y-67370000D01*
X164068364Y-62551636D02*
X164068364Y-63751636D01*
X164570000Y-62050000D02*
X164068364Y-62551636D01*
%TD*%
%TA.AperFunction,Conductor*%
%TO.N,GND*%
G36*
X156054470Y-74410863D02*
G01*
X157113181Y-75469574D01*
X157146666Y-75530897D01*
X157149500Y-75557255D01*
X157149500Y-78967059D01*
X157129815Y-79034098D01*
X157113181Y-79054740D01*
X155769522Y-80398398D01*
X155769518Y-80398404D01*
X155716793Y-80489725D01*
X155709660Y-80516350D01*
X155709659Y-80516352D01*
X155689500Y-80591587D01*
X155689500Y-85499884D01*
X155716793Y-85601747D01*
X155725601Y-85617002D01*
X155769520Y-85693071D01*
X155769522Y-85693073D01*
X156263259Y-86186810D01*
X156296744Y-86248133D01*
X156291760Y-86317825D01*
X156282967Y-86336488D01*
X156270424Y-86358213D01*
X156270423Y-86358216D01*
X156229500Y-86510943D01*
X156229500Y-86669057D01*
X156262233Y-86791216D01*
X156270423Y-86821783D01*
X156270426Y-86821790D01*
X156349475Y-86958709D01*
X156349479Y-86958714D01*
X156349480Y-86958716D01*
X156461284Y-87070520D01*
X156461286Y-87070521D01*
X156461290Y-87070524D01*
X156522552Y-87105893D01*
X156598216Y-87149577D01*
X156750943Y-87190500D01*
X156750945Y-87190500D01*
X156909055Y-87190500D01*
X156909057Y-87190500D01*
X157061784Y-87149577D01*
X157198716Y-87070520D01*
X157310520Y-86958716D01*
X157335988Y-86914602D01*
X157354083Y-86897348D01*
X157369066Y-86877335D01*
X157378932Y-86873654D01*
X157386555Y-86866387D01*
X157411105Y-86861654D01*
X157434530Y-86852918D01*
X157444819Y-86855156D01*
X157455162Y-86853163D01*
X157478374Y-86862455D01*
X157502803Y-86867770D01*
X157515625Y-86877368D01*
X157520027Y-86879131D01*
X157531057Y-86888921D01*
X157663181Y-87021045D01*
X157696666Y-87082368D01*
X157699500Y-87108726D01*
X157699500Y-89029456D01*
X157679815Y-89096495D01*
X157627011Y-89142250D01*
X157575500Y-89153456D01*
X157215143Y-89153456D01*
X157215117Y-89153458D01*
X157190012Y-89156369D01*
X157190008Y-89156371D01*
X157087235Y-89201749D01*
X157007794Y-89281190D01*
X156962415Y-89383962D01*
X156962415Y-89383964D01*
X156959500Y-89409087D01*
X156959500Y-91198812D01*
X156959502Y-91198838D01*
X156962413Y-91223943D01*
X156962415Y-91223947D01*
X157007793Y-91326720D01*
X157007794Y-91326721D01*
X157087235Y-91406162D01*
X157190009Y-91451541D01*
X157215135Y-91454456D01*
X159004864Y-91454455D01*
X159004879Y-91454453D01*
X159004882Y-91454453D01*
X159029987Y-91451542D01*
X159029988Y-91451541D01*
X159029991Y-91451541D01*
X159132765Y-91406162D01*
X159212206Y-91326721D01*
X159257585Y-91223947D01*
X159260500Y-91198821D01*
X159260499Y-91067032D01*
X159280183Y-90999996D01*
X159332987Y-90954241D01*
X159402145Y-90944297D01*
X159465701Y-90973321D01*
X159492495Y-91007556D01*
X159492829Y-91007352D01*
X159494607Y-91010253D01*
X159494977Y-91010726D01*
X159495373Y-91011503D01*
X159534728Y-91065672D01*
X160167037Y-90433364D01*
X160184075Y-90496949D01*
X160249901Y-90610963D01*
X160342993Y-90704055D01*
X160457007Y-90769881D01*
X160520590Y-90786918D01*
X159888282Y-91419225D01*
X159888282Y-91419226D01*
X159942449Y-91458580D01*
X160131782Y-91555051D01*
X160333870Y-91620713D01*
X160543754Y-91653956D01*
X160756246Y-91653956D01*
X160966127Y-91620713D01*
X160966130Y-91620713D01*
X161168217Y-91555051D01*
X161357554Y-91458578D01*
X161411716Y-91419226D01*
X161411717Y-91419226D01*
X160779408Y-90786918D01*
X160842993Y-90769881D01*
X160957007Y-90704055D01*
X161050099Y-90610963D01*
X161115925Y-90496949D01*
X161132962Y-90433365D01*
X161765270Y-91065673D01*
X161765270Y-91065672D01*
X161804622Y-91011510D01*
X161901095Y-90822173D01*
X161910492Y-90793251D01*
X161949928Y-90735574D01*
X162014286Y-90708375D01*
X162083133Y-90720287D01*
X162134610Y-90767530D01*
X162138908Y-90775270D01*
X162206004Y-90906951D01*
X162312441Y-91053450D01*
X162312445Y-91053455D01*
X162440500Y-91181510D01*
X162440505Y-91181514D01*
X162568287Y-91274352D01*
X162587006Y-91287952D01*
X162663094Y-91326721D01*
X162748360Y-91370167D01*
X162748363Y-91370168D01*
X162786377Y-91382519D01*
X162920591Y-91426127D01*
X163003429Y-91439247D01*
X163099449Y-91454456D01*
X163099454Y-91454456D01*
X163280551Y-91454456D01*
X163459409Y-91426127D01*
X163480648Y-91419226D01*
X163587482Y-91384513D01*
X163657322Y-91382519D01*
X163717155Y-91418599D01*
X163747983Y-91481300D01*
X163740018Y-91550714D01*
X163713480Y-91590126D01*
X163141548Y-92162058D01*
X163141544Y-92162064D01*
X163088818Y-92253386D01*
X163088819Y-92253387D01*
X163061526Y-92355247D01*
X163061526Y-93787273D01*
X163061526Y-95359299D01*
X163061526Y-95464753D01*
X163071083Y-95500421D01*
X163088819Y-95566615D01*
X163115182Y-95612276D01*
X163141546Y-95657939D01*
X164107492Y-96623884D01*
X164107494Y-96623887D01*
X164182061Y-96698454D01*
X164227724Y-96724817D01*
X164273386Y-96751181D01*
X164375247Y-96778474D01*
X164480701Y-96778474D01*
X164836840Y-96778474D01*
X164903879Y-96798159D01*
X164947325Y-96846179D01*
X165016003Y-96980967D01*
X165068058Y-97052615D01*
X165091537Y-97118422D01*
X165075711Y-97186476D01*
X165025605Y-97235170D01*
X164967739Y-97249500D01*
X156333733Y-97249500D01*
X156266694Y-97229815D01*
X156220939Y-97177011D01*
X156210995Y-97107853D01*
X156233414Y-97052615D01*
X156249805Y-97030053D01*
X156283996Y-96982994D01*
X156366211Y-96821639D01*
X156422171Y-96649409D01*
X156436765Y-96557259D01*
X156450500Y-96470551D01*
X156450500Y-96289448D01*
X156434019Y-96185397D01*
X156422171Y-96110591D01*
X156394191Y-96024476D01*
X156366212Y-95938363D01*
X156366211Y-95938360D01*
X156337740Y-95882484D01*
X156283996Y-95777006D01*
X156197491Y-95657941D01*
X156177558Y-95630505D01*
X156177554Y-95630500D01*
X156049499Y-95502445D01*
X156049494Y-95502441D01*
X155902997Y-95396006D01*
X155902996Y-95396005D01*
X155902994Y-95396004D01*
X155830957Y-95359299D01*
X155741639Y-95313788D01*
X155741636Y-95313787D01*
X155569410Y-95257829D01*
X155437728Y-95236972D01*
X155374594Y-95207042D01*
X155337663Y-95147731D01*
X155338661Y-95077868D01*
X155377271Y-95019636D01*
X155441235Y-94991522D01*
X155457120Y-94990499D01*
X156194864Y-94990499D01*
X156194879Y-94990497D01*
X156194882Y-94990497D01*
X156219987Y-94987586D01*
X156219988Y-94987585D01*
X156219991Y-94987585D01*
X156322765Y-94942206D01*
X156402206Y-94862765D01*
X156447585Y-94759991D01*
X156450500Y-94734865D01*
X156450499Y-92945136D01*
X156450264Y-92943109D01*
X156447586Y-92920012D01*
X156447585Y-92920010D01*
X156447585Y-92920009D01*
X156402206Y-92817235D01*
X156322765Y-92737794D01*
X156312211Y-92733134D01*
X156219992Y-92692415D01*
X156194865Y-92689500D01*
X154405143Y-92689500D01*
X154405117Y-92689502D01*
X154380012Y-92692413D01*
X154380008Y-92692415D01*
X154277235Y-92737793D01*
X154197794Y-92817234D01*
X154152415Y-92920006D01*
X154152415Y-92920008D01*
X154149500Y-92945131D01*
X154149500Y-94734856D01*
X154149502Y-94734882D01*
X154152413Y-94759987D01*
X154152415Y-94759991D01*
X154197793Y-94862764D01*
X154197794Y-94862765D01*
X154277235Y-94942206D01*
X154380009Y-94987585D01*
X154405135Y-94990500D01*
X155142873Y-94990499D01*
X155209910Y-95010183D01*
X155255665Y-95062987D01*
X155265609Y-95132146D01*
X155236584Y-95195702D01*
X155177806Y-95233476D01*
X155162270Y-95236972D01*
X155030589Y-95257829D01*
X154858363Y-95313787D01*
X154858360Y-95313788D01*
X154697002Y-95396006D01*
X154550505Y-95502441D01*
X154550500Y-95502445D01*
X154422445Y-95630500D01*
X154422441Y-95630505D01*
X154316006Y-95777002D01*
X154233788Y-95938360D01*
X154233787Y-95938363D01*
X154177829Y-96110589D01*
X154149500Y-96289448D01*
X154149500Y-96470551D01*
X154177829Y-96649410D01*
X154233787Y-96821636D01*
X154233788Y-96821639D01*
X154316003Y-96982993D01*
X154366586Y-97052615D01*
X154390065Y-97118422D01*
X154374239Y-97186476D01*
X154324133Y-97235170D01*
X154266267Y-97249500D01*
X152793733Y-97249500D01*
X152726694Y-97229815D01*
X152680939Y-97177011D01*
X152670995Y-97107853D01*
X152693414Y-97052615D01*
X152709805Y-97030053D01*
X152743996Y-96982994D01*
X152826211Y-96821639D01*
X152882171Y-96649409D01*
X152896765Y-96557259D01*
X152910500Y-96470551D01*
X152910500Y-96289448D01*
X152894019Y-96185397D01*
X152882171Y-96110591D01*
X152854191Y-96024476D01*
X152826212Y-95938363D01*
X152826211Y-95938360D01*
X152797740Y-95882484D01*
X152743996Y-95777006D01*
X152657491Y-95657941D01*
X152637558Y-95630505D01*
X152637554Y-95630500D01*
X152509499Y-95502445D01*
X152509494Y-95502441D01*
X152362997Y-95396006D01*
X152362996Y-95396005D01*
X152362994Y-95396004D01*
X152290957Y-95359299D01*
X152201639Y-95313788D01*
X152201636Y-95313787D01*
X152029410Y-95257829D01*
X151869321Y-95232473D01*
X151806186Y-95202544D01*
X151769255Y-95143232D01*
X151770253Y-95073370D01*
X151808863Y-95015137D01*
X151869321Y-94987527D01*
X151939425Y-94976422D01*
X152029409Y-94962171D01*
X152201639Y-94906211D01*
X152362994Y-94823996D01*
X152509501Y-94717553D01*
X152637553Y-94589501D01*
X152743996Y-94442994D01*
X152826211Y-94281639D01*
X152882171Y-94109409D01*
X152896765Y-94017259D01*
X152910500Y-93930551D01*
X152910500Y-93749448D01*
X152894019Y-93645397D01*
X152882171Y-93570591D01*
X152826211Y-93398361D01*
X152826211Y-93398360D01*
X152797740Y-93342484D01*
X152743996Y-93237006D01*
X152730396Y-93218287D01*
X152637558Y-93090505D01*
X152637554Y-93090500D01*
X152509499Y-92962445D01*
X152509494Y-92962441D01*
X152362995Y-92856004D01*
X152231314Y-92788908D01*
X152180519Y-92740934D01*
X152163724Y-92673113D01*
X152186262Y-92606978D01*
X152240977Y-92563527D01*
X152249295Y-92560492D01*
X152278217Y-92551095D01*
X152467554Y-92454622D01*
X152521716Y-92415270D01*
X152521717Y-92415270D01*
X151889409Y-91782962D01*
X151952993Y-91765925D01*
X152067007Y-91700099D01*
X152160099Y-91607007D01*
X152225925Y-91492993D01*
X152242962Y-91429408D01*
X152875270Y-92061717D01*
X152875270Y-92061716D01*
X152914622Y-92007554D01*
X153011095Y-91818217D01*
X153076757Y-91616130D01*
X153076757Y-91616127D01*
X153110000Y-91406246D01*
X153110000Y-91193753D01*
X153076757Y-90983872D01*
X153076757Y-90983869D01*
X153011095Y-90781782D01*
X152914624Y-90592449D01*
X152875270Y-90538282D01*
X152875269Y-90538282D01*
X152242962Y-91170590D01*
X152225925Y-91107007D01*
X152160099Y-90992993D01*
X152067007Y-90899901D01*
X151952993Y-90834075D01*
X151889407Y-90817036D01*
X152521716Y-90184728D01*
X152467550Y-90145375D01*
X152278217Y-90048904D01*
X152249292Y-90039506D01*
X152191616Y-90000068D01*
X152164418Y-89935710D01*
X152176333Y-89866863D01*
X152223577Y-89815388D01*
X152231315Y-89811090D01*
X152362994Y-89743996D01*
X152509501Y-89637553D01*
X152637553Y-89509501D01*
X152743996Y-89362994D01*
X152826211Y-89201639D01*
X152826211Y-89201638D01*
X152826213Y-89201635D01*
X152874551Y-89052860D01*
X152882171Y-89029409D01*
X152901677Y-88906255D01*
X152910500Y-88850551D01*
X152910500Y-88669448D01*
X152889917Y-88539500D01*
X152882171Y-88490591D01*
X152846376Y-88380423D01*
X152826212Y-88318363D01*
X152826211Y-88318360D01*
X152797740Y-88262484D01*
X152743996Y-88157006D01*
X152730396Y-88138287D01*
X152637558Y-88010505D01*
X152637554Y-88010500D01*
X152509499Y-87882445D01*
X152509494Y-87882441D01*
X152362997Y-87776006D01*
X152362996Y-87776005D01*
X152362994Y-87776004D01*
X152293312Y-87740499D01*
X152201639Y-87693788D01*
X152201636Y-87693787D01*
X152029410Y-87637829D01*
X151869321Y-87612473D01*
X151806186Y-87582544D01*
X151769255Y-87523232D01*
X151770253Y-87453370D01*
X151808863Y-87395137D01*
X151869321Y-87367527D01*
X151939425Y-87356422D01*
X152029409Y-87342171D01*
X152201639Y-87286211D01*
X152362994Y-87203996D01*
X152509501Y-87097553D01*
X152637553Y-86969501D01*
X152743996Y-86822994D01*
X152826211Y-86661639D01*
X152882171Y-86489409D01*
X152902950Y-86358216D01*
X152910500Y-86310551D01*
X152910500Y-86129448D01*
X152888447Y-85990216D01*
X152882171Y-85950591D01*
X152826211Y-85778361D01*
X152826211Y-85778360D01*
X152779650Y-85686981D01*
X152743996Y-85617006D01*
X152730396Y-85598287D01*
X152637558Y-85470505D01*
X152637554Y-85470500D01*
X152509499Y-85342445D01*
X152509494Y-85342441D01*
X152362997Y-85236006D01*
X152362996Y-85236005D01*
X152362994Y-85236004D01*
X152311300Y-85209664D01*
X152201639Y-85153788D01*
X152201636Y-85153787D01*
X152029410Y-85097829D01*
X151869321Y-85072473D01*
X151806186Y-85042544D01*
X151769255Y-84983232D01*
X151770253Y-84913370D01*
X151808863Y-84855137D01*
X151869321Y-84827527D01*
X151939425Y-84816422D01*
X152029409Y-84802171D01*
X152201639Y-84746211D01*
X152362994Y-84663996D01*
X152509501Y-84557553D01*
X152637553Y-84429501D01*
X152743996Y-84282994D01*
X152826211Y-84121639D01*
X152882171Y-83949409D01*
X152896765Y-83857259D01*
X152910500Y-83770551D01*
X152910500Y-83589448D01*
X152894019Y-83485397D01*
X152882171Y-83410591D01*
X152826211Y-83238361D01*
X152826211Y-83238360D01*
X152797740Y-83182484D01*
X152743996Y-83077006D01*
X152730396Y-83058287D01*
X152637558Y-82930505D01*
X152637554Y-82930500D01*
X152509499Y-82802445D01*
X152509494Y-82802441D01*
X152362997Y-82696006D01*
X152362996Y-82696005D01*
X152362994Y-82696004D01*
X152311300Y-82669664D01*
X152201639Y-82613788D01*
X152201636Y-82613787D01*
X152029410Y-82557829D01*
X151869321Y-82532473D01*
X151806186Y-82502544D01*
X151769255Y-82443232D01*
X151770253Y-82373370D01*
X151808863Y-82315137D01*
X151869321Y-82287527D01*
X151939425Y-82276422D01*
X152029409Y-82262171D01*
X152201639Y-82206211D01*
X152362994Y-82123996D01*
X152509501Y-82017553D01*
X152637553Y-81889501D01*
X152743996Y-81742994D01*
X152826211Y-81581639D01*
X152882171Y-81409409D01*
X152896765Y-81317259D01*
X152910500Y-81230551D01*
X152910500Y-81049448D01*
X152885279Y-80890215D01*
X152882171Y-80870591D01*
X152830207Y-80710659D01*
X152826212Y-80698363D01*
X152826211Y-80698360D01*
X152772806Y-80593549D01*
X152743996Y-80537006D01*
X152709645Y-80489725D01*
X152637558Y-80390505D01*
X152637554Y-80390500D01*
X152509499Y-80262445D01*
X152509494Y-80262441D01*
X152362995Y-80156004D01*
X152231314Y-80088908D01*
X152180519Y-80040934D01*
X152163724Y-79973113D01*
X152186262Y-79906978D01*
X152240977Y-79863527D01*
X152249295Y-79860492D01*
X152278217Y-79851095D01*
X152467554Y-79754622D01*
X152521716Y-79715270D01*
X152521717Y-79715270D01*
X151889409Y-79082962D01*
X151952993Y-79065925D01*
X152067007Y-79000099D01*
X152160099Y-78907007D01*
X152225925Y-78792993D01*
X152242962Y-78729409D01*
X152875270Y-79361717D01*
X152890993Y-79360479D01*
X152912615Y-79343807D01*
X152982229Y-79337828D01*
X153044024Y-79370434D01*
X153045284Y-79371677D01*
X154054087Y-80380480D01*
X154133174Y-80426141D01*
X154140721Y-80430499D01*
X154145412Y-80433207D01*
X154247273Y-80460500D01*
X154247275Y-80460500D01*
X154542725Y-80460500D01*
X154542727Y-80460500D01*
X154594220Y-80446702D01*
X154638925Y-80434725D01*
X154671017Y-80430500D01*
X154799055Y-80430500D01*
X154799057Y-80430500D01*
X154951784Y-80389577D01*
X155088716Y-80310520D01*
X155200520Y-80198716D01*
X155279577Y-80061784D01*
X155320500Y-79909057D01*
X155320500Y-79750943D01*
X155279577Y-79598216D01*
X155266425Y-79575436D01*
X155200524Y-79461290D01*
X155200518Y-79461282D01*
X155088717Y-79349481D01*
X155088709Y-79349475D01*
X154951790Y-79270426D01*
X154951786Y-79270424D01*
X154951784Y-79270423D01*
X154799057Y-79229500D01*
X154640943Y-79229500D01*
X154488216Y-79270423D01*
X154488209Y-79270426D01*
X154351284Y-79349478D01*
X154341253Y-79359509D01*
X154279927Y-79392990D01*
X154210236Y-79388001D01*
X154165896Y-79359503D01*
X153556819Y-78750426D01*
X153523334Y-78689103D01*
X153520500Y-78662745D01*
X153520500Y-76708627D01*
X153540185Y-76641588D01*
X153592989Y-76595833D01*
X153662147Y-76585889D01*
X153725703Y-76614914D01*
X153733505Y-76623196D01*
X153733733Y-76622969D01*
X153739480Y-76628716D01*
X153851284Y-76740520D01*
X153851286Y-76740521D01*
X153851290Y-76740524D01*
X153970760Y-76809499D01*
X153988216Y-76819577D01*
X154140943Y-76860500D01*
X154140945Y-76860500D01*
X154299055Y-76860500D01*
X154299057Y-76860500D01*
X154451784Y-76819577D01*
X154588716Y-76740520D01*
X154700520Y-76628716D01*
X154779577Y-76491784D01*
X154779579Y-76491773D01*
X154781471Y-76487210D01*
X154825310Y-76432805D01*
X154891603Y-76410737D01*
X154928125Y-76414882D01*
X154978942Y-76428499D01*
X154978944Y-76428499D01*
X155137054Y-76428499D01*
X155137056Y-76428499D01*
X155289783Y-76387576D01*
X155426715Y-76308519D01*
X155538519Y-76196715D01*
X155617576Y-76059783D01*
X155658499Y-75907056D01*
X155658499Y-75748942D01*
X155617576Y-75596215D01*
X155595083Y-75557255D01*
X155538523Y-75459289D01*
X155538517Y-75459281D01*
X155426716Y-75347480D01*
X155426708Y-75347474D01*
X155289789Y-75268425D01*
X155289785Y-75268423D01*
X155289783Y-75268422D01*
X155137056Y-75227499D01*
X154978942Y-75227499D01*
X154978940Y-75227499D01*
X154878486Y-75254415D01*
X154866486Y-75254129D01*
X154855240Y-75258324D01*
X154832205Y-75253313D01*
X154808636Y-75252752D01*
X154796988Y-75245652D01*
X154786967Y-75243472D01*
X154758713Y-75222321D01*
X154662055Y-75125663D01*
X154628570Y-75064340D01*
X154633554Y-74994648D01*
X154675426Y-74938715D01*
X154717640Y-74918207D01*
X154861773Y-74879588D01*
X154998705Y-74800531D01*
X155110509Y-74688727D01*
X155110512Y-74688720D01*
X155115459Y-74682276D01*
X155117120Y-74683551D01*
X155159615Y-74643021D01*
X155228220Y-74629789D01*
X155248540Y-74633453D01*
X155312167Y-74650502D01*
X155312169Y-74650502D01*
X155470279Y-74650502D01*
X155470281Y-74650502D01*
X155623008Y-74609579D01*
X155759940Y-74530522D01*
X155871744Y-74418718D01*
X155871744Y-74418717D01*
X155877491Y-74412971D01*
X155879491Y-74414971D01*
X155924823Y-74381861D01*
X155994568Y-74377696D01*
X156054470Y-74410863D01*
G37*
%TD.AperFunction*%
%TA.AperFunction,Conductor*%
G36*
X168562218Y-74166685D02*
G01*
X168618152Y-74208556D01*
X168619203Y-74209982D01*
X168662441Y-74269494D01*
X168662445Y-74269499D01*
X168790500Y-74397554D01*
X168790505Y-74397558D01*
X168918287Y-74490396D01*
X168937006Y-74503996D01*
X169042484Y-74557740D01*
X169098360Y-74586211D01*
X169098363Y-74586212D01*
X169170269Y-74609575D01*
X169270591Y-74642171D01*
X169343639Y-74653740D01*
X169430678Y-74667527D01*
X169493813Y-74697456D01*
X169530744Y-74756768D01*
X169529746Y-74826631D01*
X169491136Y-74884863D01*
X169430678Y-74912473D01*
X169270589Y-74937829D01*
X169098363Y-74993787D01*
X169098360Y-74993788D01*
X168937002Y-75076006D01*
X168790505Y-75182441D01*
X168790500Y-75182445D01*
X168662445Y-75310500D01*
X168662441Y-75310505D01*
X168556006Y-75457002D01*
X168473788Y-75618360D01*
X168473787Y-75618363D01*
X168417829Y-75790589D01*
X168389500Y-75969448D01*
X168389500Y-76150551D01*
X168417829Y-76329410D01*
X168473787Y-76501636D01*
X168473788Y-76501639D01*
X168529664Y-76611300D01*
X168550971Y-76653117D01*
X168556006Y-76662997D01*
X168662441Y-76809494D01*
X168662445Y-76809499D01*
X168790500Y-76937554D01*
X168790505Y-76937558D01*
X168901322Y-77018070D01*
X168937006Y-77043996D01*
X169038780Y-77095853D01*
X169068684Y-77111090D01*
X169119480Y-77159065D01*
X169136275Y-77226886D01*
X169113737Y-77293021D01*
X169059022Y-77336472D01*
X169050708Y-77339506D01*
X169021781Y-77348905D01*
X168832439Y-77445380D01*
X168778282Y-77484727D01*
X168778282Y-77484728D01*
X169410591Y-78117037D01*
X169347007Y-78134075D01*
X169232993Y-78199901D01*
X169139901Y-78292993D01*
X169074075Y-78407007D01*
X169057037Y-78470591D01*
X168424728Y-77838282D01*
X168424727Y-77838282D01*
X168385380Y-77892439D01*
X168288904Y-78081782D01*
X168223242Y-78283869D01*
X168223242Y-78283872D01*
X168190000Y-78493753D01*
X168190000Y-78706246D01*
X168223242Y-78916127D01*
X168223242Y-78916130D01*
X168288904Y-79118217D01*
X168385375Y-79307550D01*
X168424728Y-79361716D01*
X169057037Y-78729408D01*
X169074075Y-78792993D01*
X169139901Y-78907007D01*
X169232993Y-79000099D01*
X169347007Y-79065925D01*
X169410588Y-79082962D01*
X168778282Y-79715269D01*
X168778282Y-79715270D01*
X168832449Y-79754624D01*
X169021780Y-79851094D01*
X169050705Y-79860492D01*
X169108381Y-79899929D01*
X169135580Y-79964287D01*
X169123667Y-80033134D01*
X169076424Y-80084610D01*
X169068685Y-80088908D01*
X168937004Y-80156004D01*
X168790505Y-80262441D01*
X168790500Y-80262445D01*
X168662445Y-80390500D01*
X168662441Y-80390505D01*
X168556006Y-80537002D01*
X168473788Y-80698360D01*
X168473787Y-80698363D01*
X168417829Y-80870589D01*
X168389500Y-81049448D01*
X168389500Y-81230551D01*
X168417829Y-81409410D01*
X168473787Y-81581636D01*
X168473788Y-81581639D01*
X168529664Y-81691300D01*
X168539311Y-81710233D01*
X168556006Y-81742997D01*
X168662441Y-81889494D01*
X168662445Y-81889499D01*
X168790500Y-82017554D01*
X168790505Y-82017558D01*
X168879846Y-82082467D01*
X168937006Y-82123996D01*
X169042484Y-82177740D01*
X169098360Y-82206211D01*
X169098363Y-82206212D01*
X169184476Y-82234191D01*
X169270591Y-82262171D01*
X169343639Y-82273740D01*
X169430678Y-82287527D01*
X169493813Y-82317456D01*
X169530744Y-82376768D01*
X169529746Y-82446631D01*
X169491136Y-82504863D01*
X169430678Y-82532473D01*
X169270589Y-82557829D01*
X169098363Y-82613787D01*
X169098360Y-82613788D01*
X168937002Y-82696006D01*
X168790505Y-82802441D01*
X168790500Y-82802445D01*
X168662445Y-82930500D01*
X168662441Y-82930505D01*
X168556006Y-83077002D01*
X168473788Y-83238360D01*
X168473787Y-83238363D01*
X168417829Y-83410589D01*
X168389500Y-83589448D01*
X168389500Y-83770551D01*
X168417829Y-83949410D01*
X168473787Y-84121636D01*
X168473788Y-84121639D01*
X168556006Y-84282997D01*
X168662441Y-84429494D01*
X168662445Y-84429499D01*
X168790500Y-84557554D01*
X168790505Y-84557558D01*
X168918287Y-84650396D01*
X168937006Y-84663996D01*
X169042484Y-84717740D01*
X169098360Y-84746211D01*
X169098363Y-84746212D01*
X169184476Y-84774191D01*
X169270591Y-84802171D01*
X169343639Y-84813740D01*
X169430678Y-84827527D01*
X169493813Y-84857456D01*
X169530744Y-84916768D01*
X169529746Y-84986631D01*
X169491136Y-85044863D01*
X169430678Y-85072473D01*
X169270589Y-85097829D01*
X169098363Y-85153787D01*
X169098360Y-85153788D01*
X168937002Y-85236006D01*
X168790505Y-85342441D01*
X168790500Y-85342445D01*
X168662445Y-85470500D01*
X168662441Y-85470505D01*
X168556006Y-85617002D01*
X168473788Y-85778360D01*
X168473787Y-85778363D01*
X168417829Y-85950589D01*
X168389500Y-86129448D01*
X168389500Y-86310551D01*
X168417829Y-86489410D01*
X168473787Y-86661636D01*
X168473788Y-86661639D01*
X168509101Y-86730943D01*
X168555387Y-86821784D01*
X168556006Y-86822997D01*
X168662441Y-86969494D01*
X168662445Y-86969499D01*
X168790500Y-87097554D01*
X168790505Y-87097558D01*
X168862103Y-87149576D01*
X168937006Y-87203996D01*
X169042484Y-87257740D01*
X169098360Y-87286211D01*
X169098363Y-87286212D01*
X169184476Y-87314191D01*
X169270591Y-87342171D01*
X169343639Y-87353740D01*
X169430678Y-87367527D01*
X169493813Y-87397456D01*
X169530744Y-87456768D01*
X169529746Y-87526631D01*
X169491136Y-87584863D01*
X169430678Y-87612473D01*
X169270589Y-87637829D01*
X169098363Y-87693787D01*
X169098360Y-87693788D01*
X168937002Y-87776006D01*
X168790505Y-87882441D01*
X168790500Y-87882445D01*
X168662445Y-88010500D01*
X168662441Y-88010505D01*
X168556006Y-88157002D01*
X168473788Y-88318360D01*
X168473787Y-88318363D01*
X168417829Y-88490589D01*
X168389500Y-88669448D01*
X168389500Y-88850551D01*
X168417829Y-89029410D01*
X168473787Y-89201635D01*
X168473788Y-89201638D01*
X168473789Y-89201639D01*
X168544542Y-89340499D01*
X168556006Y-89362997D01*
X168662441Y-89509494D01*
X168662445Y-89509499D01*
X168790500Y-89637554D01*
X168790505Y-89637558D01*
X168877774Y-89700962D01*
X168937006Y-89743996D01*
X169018925Y-89785736D01*
X169068684Y-89811090D01*
X169119480Y-89859065D01*
X169136275Y-89926886D01*
X169113737Y-89993021D01*
X169059022Y-90036472D01*
X169050708Y-90039506D01*
X169021781Y-90048905D01*
X168832439Y-90145380D01*
X168778282Y-90184727D01*
X168778282Y-90184728D01*
X169410591Y-90817037D01*
X169347007Y-90834075D01*
X169232993Y-90899901D01*
X169139901Y-90992993D01*
X169074075Y-91107007D01*
X169057037Y-91170591D01*
X168424728Y-90538282D01*
X168424727Y-90538282D01*
X168385380Y-90592439D01*
X168288904Y-90781782D01*
X168223242Y-90983869D01*
X168223242Y-90983872D01*
X168190000Y-91193753D01*
X168190000Y-91406246D01*
X168223242Y-91616127D01*
X168223242Y-91616130D01*
X168288904Y-91818217D01*
X168385375Y-92007550D01*
X168424728Y-92061716D01*
X169057037Y-91429408D01*
X169074075Y-91492993D01*
X169139901Y-91607007D01*
X169232993Y-91700099D01*
X169347007Y-91765925D01*
X169410588Y-91782962D01*
X168778282Y-92415269D01*
X168778282Y-92415270D01*
X168832449Y-92454624D01*
X169021780Y-92551094D01*
X169050705Y-92560492D01*
X169108381Y-92599929D01*
X169135580Y-92664287D01*
X169123667Y-92733134D01*
X169076424Y-92784610D01*
X169068685Y-92788908D01*
X168937004Y-92856004D01*
X168790505Y-92962441D01*
X168790500Y-92962445D01*
X168662445Y-93090500D01*
X168662441Y-93090505D01*
X168556006Y-93237002D01*
X168473788Y-93398360D01*
X168473787Y-93398363D01*
X168417829Y-93570589D01*
X168389500Y-93749448D01*
X168389500Y-93930551D01*
X168417829Y-94109410D01*
X168473787Y-94281636D01*
X168473788Y-94281639D01*
X168556006Y-94442997D01*
X168662441Y-94589494D01*
X168662445Y-94589499D01*
X168790500Y-94717554D01*
X168790505Y-94717558D01*
X168918287Y-94810396D01*
X168937006Y-94823996D01*
X169013094Y-94862765D01*
X169098360Y-94906211D01*
X169098363Y-94906212D01*
X169184476Y-94934191D01*
X169270591Y-94962171D01*
X169343639Y-94973740D01*
X169430678Y-94987527D01*
X169493813Y-95017456D01*
X169530744Y-95076768D01*
X169529746Y-95146631D01*
X169491136Y-95204863D01*
X169430678Y-95232473D01*
X169270589Y-95257829D01*
X169098363Y-95313787D01*
X169098360Y-95313788D01*
X168937002Y-95396006D01*
X168790505Y-95502441D01*
X168790500Y-95502445D01*
X168662445Y-95630500D01*
X168662441Y-95630505D01*
X168556006Y-95777002D01*
X168473788Y-95938360D01*
X168473787Y-95938363D01*
X168417829Y-96110589D01*
X168389500Y-96289448D01*
X168389500Y-96470551D01*
X168417829Y-96649410D01*
X168473787Y-96821636D01*
X168473788Y-96821639D01*
X168556003Y-96982993D01*
X168606586Y-97052615D01*
X168630065Y-97118422D01*
X168614239Y-97186476D01*
X168564133Y-97235170D01*
X168506267Y-97249500D01*
X167032261Y-97249500D01*
X166965222Y-97229815D01*
X166919467Y-97177011D01*
X166909523Y-97107853D01*
X166931942Y-97052615D01*
X166947707Y-97030915D01*
X166983996Y-96980968D01*
X167066211Y-96819613D01*
X167122171Y-96647383D01*
X167136765Y-96555233D01*
X167150500Y-96468525D01*
X167150500Y-96287422D01*
X167134019Y-96183371D01*
X167122171Y-96108565D01*
X167066870Y-95938363D01*
X167066212Y-95936337D01*
X167066211Y-95936334D01*
X167037740Y-95880458D01*
X166983996Y-95774980D01*
X166898963Y-95657941D01*
X166877558Y-95628479D01*
X166877554Y-95628474D01*
X166749499Y-95500419D01*
X166749494Y-95500415D01*
X166602997Y-95393980D01*
X166602996Y-95393979D01*
X166602994Y-95393978D01*
X166534933Y-95359299D01*
X166441639Y-95311762D01*
X166441636Y-95311761D01*
X166269410Y-95255803D01*
X166137728Y-95234946D01*
X166074594Y-95205016D01*
X166037663Y-95145705D01*
X166038661Y-95075842D01*
X166077271Y-95017610D01*
X166141235Y-94989496D01*
X166157120Y-94988473D01*
X166894864Y-94988473D01*
X166894879Y-94988471D01*
X166894882Y-94988471D01*
X166919987Y-94985560D01*
X166919988Y-94985559D01*
X166919991Y-94985559D01*
X167022765Y-94940180D01*
X167102206Y-94860739D01*
X167147585Y-94757965D01*
X167150500Y-94732839D01*
X167150499Y-92943110D01*
X167150497Y-92943091D01*
X167147586Y-92917986D01*
X167147585Y-92917984D01*
X167147585Y-92917983D01*
X167102206Y-92815209D01*
X167022765Y-92735768D01*
X166982137Y-92717829D01*
X166919992Y-92690389D01*
X166894865Y-92687474D01*
X165105143Y-92687474D01*
X165105117Y-92687476D01*
X165080012Y-92690387D01*
X165080008Y-92690389D01*
X164977235Y-92735767D01*
X164897794Y-92815208D01*
X164852415Y-92917980D01*
X164852415Y-92917982D01*
X164849500Y-92943105D01*
X164849500Y-94732830D01*
X164849502Y-94732856D01*
X164852413Y-94757961D01*
X164852415Y-94757965D01*
X164897793Y-94860738D01*
X164897794Y-94860739D01*
X164977235Y-94940180D01*
X165080009Y-94985559D01*
X165105135Y-94988474D01*
X165842873Y-94988473D01*
X165909910Y-95008157D01*
X165955665Y-95060961D01*
X165965609Y-95130120D01*
X165936584Y-95193676D01*
X165877806Y-95231450D01*
X165862270Y-95234946D01*
X165730589Y-95255803D01*
X165558363Y-95311761D01*
X165558360Y-95311762D01*
X165397002Y-95393980D01*
X165250505Y-95500415D01*
X165250500Y-95500419D01*
X165122445Y-95628474D01*
X165122441Y-95628479D01*
X165016006Y-95774976D01*
X164947325Y-95909769D01*
X164936875Y-95920833D01*
X164930553Y-95934677D01*
X164913372Y-95945718D01*
X164899350Y-95960565D01*
X164883670Y-95964806D01*
X164871775Y-95972451D01*
X164836840Y-95977474D01*
X164645228Y-95977474D01*
X164578189Y-95957789D01*
X164557547Y-95941155D01*
X163898845Y-95282452D01*
X163865360Y-95221129D01*
X163862526Y-95194771D01*
X163862526Y-92625228D01*
X163882211Y-92558189D01*
X163898845Y-92537547D01*
X164599573Y-91836819D01*
X164626500Y-91822115D01*
X164652319Y-91805523D01*
X164658519Y-91804631D01*
X164660896Y-91803334D01*
X164687254Y-91800500D01*
X164829902Y-91800500D01*
X164896941Y-91820185D01*
X164917583Y-91836819D01*
X164961284Y-91880520D01*
X164961286Y-91880521D01*
X164961290Y-91880524D01*
X165098209Y-91959573D01*
X165098216Y-91959577D01*
X165250943Y-92000500D01*
X165250945Y-92000500D01*
X165409055Y-92000500D01*
X165409057Y-92000500D01*
X165561784Y-91959577D01*
X165698716Y-91880520D01*
X165810520Y-91768716D01*
X165889577Y-91631784D01*
X165930500Y-91479057D01*
X165930500Y-91320943D01*
X165889577Y-91168216D01*
X165881420Y-91154087D01*
X165810524Y-91031290D01*
X165810518Y-91031282D01*
X165698717Y-90919481D01*
X165698709Y-90919475D01*
X165561790Y-90840426D01*
X165561786Y-90840424D01*
X165561784Y-90840423D01*
X165409057Y-90799500D01*
X165250943Y-90799500D01*
X165098216Y-90840423D01*
X165098209Y-90840426D01*
X164961290Y-90919475D01*
X164961282Y-90919481D01*
X164917583Y-90963181D01*
X164856260Y-90996666D01*
X164829902Y-90999500D01*
X164522731Y-90999500D01*
X164522727Y-90999499D01*
X164417274Y-90999499D01*
X164340493Y-91020072D01*
X164330766Y-91021092D01*
X164305631Y-91016487D01*
X164280086Y-91015879D01*
X164271837Y-91010295D01*
X164262040Y-91008501D01*
X164243384Y-90991038D01*
X164222224Y-90976716D01*
X164218303Y-90967560D01*
X164211031Y-90960753D01*
X164204777Y-90935973D01*
X164194720Y-90912487D01*
X164196371Y-90902665D01*
X164193934Y-90893007D01*
X164202069Y-90868782D01*
X164206307Y-90843585D01*
X164207359Y-90841471D01*
X164207892Y-90840426D01*
X164256211Y-90745595D01*
X164312171Y-90573365D01*
X164326765Y-90481215D01*
X164340500Y-90394507D01*
X164340500Y-90213404D01*
X164314445Y-90048905D01*
X164312171Y-90034547D01*
X164277190Y-89926886D01*
X164256212Y-89862319D01*
X164256211Y-89862316D01*
X164217191Y-89785736D01*
X164173996Y-89700962D01*
X164160396Y-89682243D01*
X164067558Y-89554461D01*
X164067554Y-89554456D01*
X163939499Y-89426401D01*
X163939494Y-89426397D01*
X163792997Y-89319962D01*
X163792996Y-89319961D01*
X163792994Y-89319960D01*
X163658205Y-89251281D01*
X163647140Y-89240831D01*
X163633297Y-89234509D01*
X163622255Y-89217328D01*
X163607409Y-89203306D01*
X163603167Y-89187626D01*
X163595523Y-89175731D01*
X163590500Y-89140796D01*
X163590500Y-88906255D01*
X163610185Y-88839216D01*
X163662989Y-88793461D01*
X163732147Y-88783517D01*
X163795703Y-88812542D01*
X163802181Y-88818574D01*
X164244087Y-89260480D01*
X164335412Y-89313207D01*
X164437273Y-89340500D01*
X164542727Y-89340500D01*
X165719902Y-89340500D01*
X165786941Y-89360185D01*
X165807583Y-89376819D01*
X165851284Y-89420520D01*
X165851286Y-89420521D01*
X165851290Y-89420524D01*
X165988209Y-89499573D01*
X165988216Y-89499577D01*
X166140943Y-89540500D01*
X166140945Y-89540500D01*
X166299055Y-89540500D01*
X166299057Y-89540500D01*
X166451784Y-89499577D01*
X166588716Y-89420520D01*
X166700520Y-89308716D01*
X166779577Y-89171784D01*
X166820500Y-89019057D01*
X166820500Y-88860943D01*
X166779577Y-88708216D01*
X166757198Y-88669454D01*
X166700524Y-88571290D01*
X166700518Y-88571282D01*
X166588717Y-88459481D01*
X166588709Y-88459475D01*
X166451790Y-88380426D01*
X166451786Y-88380424D01*
X166451784Y-88380423D01*
X166299057Y-88339500D01*
X166140943Y-88339500D01*
X165988216Y-88380423D01*
X165988209Y-88380426D01*
X165851290Y-88459475D01*
X165851282Y-88459481D01*
X165807583Y-88503181D01*
X165746260Y-88536666D01*
X165719902Y-88539500D01*
X164707255Y-88539500D01*
X164640216Y-88519815D01*
X164619574Y-88503181D01*
X163308761Y-87192368D01*
X163275276Y-87131045D01*
X163280260Y-87061353D01*
X163289056Y-87042684D01*
X163289577Y-87041784D01*
X163330500Y-86889057D01*
X163330500Y-86730943D01*
X163289577Y-86578216D01*
X163273166Y-86549791D01*
X163210524Y-86441290D01*
X163210518Y-86441282D01*
X163098717Y-86329481D01*
X163098709Y-86329475D01*
X162961790Y-86250426D01*
X162961786Y-86250424D01*
X162961784Y-86250423D01*
X162809057Y-86209500D01*
X162650943Y-86209500D01*
X162626590Y-86216025D01*
X162556740Y-86214360D01*
X162498879Y-86175196D01*
X162471377Y-86110967D01*
X162470500Y-86096249D01*
X162470500Y-79236990D01*
X162476738Y-79215744D01*
X162478318Y-79193656D01*
X162486390Y-79182872D01*
X162490185Y-79169951D01*
X162506918Y-79155451D01*
X162520190Y-79137723D01*
X162532810Y-79133015D01*
X162542989Y-79124196D01*
X162564906Y-79121044D01*
X162585654Y-79113306D01*
X162598814Y-79116168D01*
X162612147Y-79114252D01*
X162632290Y-79123451D01*
X162653927Y-79128158D01*
X162671652Y-79141426D01*
X162675703Y-79143277D01*
X162682181Y-79149309D01*
X162698832Y-79165960D01*
X162732317Y-79227283D01*
X162735151Y-79253641D01*
X162735151Y-80018377D01*
X162762444Y-80120240D01*
X162783093Y-80156004D01*
X162815171Y-80211564D01*
X164344087Y-81740480D01*
X164435412Y-81793207D01*
X164537273Y-81820500D01*
X164537275Y-81820500D01*
X165332724Y-81820500D01*
X165332727Y-81820500D01*
X165332729Y-81820499D01*
X165339604Y-81819594D01*
X165408639Y-81830358D01*
X165460896Y-81876737D01*
X165479792Y-81942533D01*
X165479792Y-82082467D01*
X165512950Y-82206212D01*
X165520715Y-82235193D01*
X165520718Y-82235200D01*
X165599767Y-82372119D01*
X165599773Y-82372127D01*
X165643473Y-82415827D01*
X165676958Y-82477150D01*
X165679792Y-82503508D01*
X165679792Y-85372453D01*
X165660107Y-85439492D01*
X165643473Y-85460134D01*
X165069691Y-86033916D01*
X165042763Y-86048619D01*
X165016945Y-86065212D01*
X165010744Y-86066103D01*
X165008368Y-86067401D01*
X164982010Y-86070235D01*
X164979363Y-86070235D01*
X164912324Y-86050550D01*
X164891682Y-86033916D01*
X164847982Y-85990216D01*
X164847974Y-85990210D01*
X164711055Y-85911161D01*
X164711051Y-85911159D01*
X164711049Y-85911158D01*
X164558322Y-85870235D01*
X164400208Y-85870235D01*
X164247481Y-85911158D01*
X164247474Y-85911161D01*
X164110555Y-85990210D01*
X164110547Y-85990216D01*
X163998746Y-86102017D01*
X163998740Y-86102025D01*
X163919691Y-86238944D01*
X163919688Y-86238951D01*
X163878765Y-86391678D01*
X163878765Y-86549792D01*
X163908735Y-86661639D01*
X163919688Y-86702518D01*
X163919691Y-86702525D01*
X163998740Y-86839444D01*
X163998744Y-86839449D01*
X163998745Y-86839451D01*
X164110549Y-86951255D01*
X164110551Y-86951256D01*
X164110555Y-86951259D01*
X164142152Y-86969501D01*
X164247481Y-87030312D01*
X164400208Y-87071235D01*
X164400210Y-87071235D01*
X164555500Y-87071235D01*
X164622539Y-87090920D01*
X164668294Y-87143724D01*
X164679500Y-87195235D01*
X164679500Y-87219057D01*
X164719283Y-87367527D01*
X164720423Y-87371783D01*
X164720426Y-87371790D01*
X164799475Y-87508709D01*
X164799479Y-87508714D01*
X164799480Y-87508716D01*
X164911284Y-87620520D01*
X164911286Y-87620521D01*
X164911290Y-87620524D01*
X164941264Y-87637829D01*
X165048216Y-87699577D01*
X165200943Y-87740500D01*
X165200945Y-87740500D01*
X165359055Y-87740500D01*
X165359057Y-87740500D01*
X165511784Y-87699577D01*
X165648716Y-87620520D01*
X165760520Y-87508716D01*
X165839577Y-87371784D01*
X165880500Y-87219057D01*
X165880500Y-87157255D01*
X165900185Y-87090216D01*
X165916819Y-87069574D01*
X166457987Y-86528406D01*
X167000772Y-85985621D01*
X167053499Y-85894296D01*
X167080792Y-85792435D01*
X167080792Y-85686981D01*
X167080792Y-78959804D01*
X167100477Y-78892765D01*
X167117111Y-78872123D01*
X167160812Y-78828422D01*
X167239869Y-78691490D01*
X167280792Y-78538763D01*
X167280792Y-78380649D01*
X167239869Y-78227922D01*
X167166014Y-78100000D01*
X167160816Y-78090996D01*
X167160810Y-78090988D01*
X167049009Y-77979187D01*
X167049004Y-77979183D01*
X166928185Y-77909429D01*
X166879970Y-77858862D01*
X166866746Y-77790255D01*
X166892714Y-77725391D01*
X166947198Y-77686591D01*
X166947084Y-77686315D01*
X166948287Y-77685816D01*
X166949628Y-77684862D01*
X166953336Y-77683725D01*
X166954585Y-77683207D01*
X166954588Y-77683207D01*
X167045913Y-77630480D01*
X167870480Y-76805913D01*
X167923207Y-76714588D01*
X167923207Y-76714584D01*
X167925233Y-76711077D01*
X167928838Y-76703762D01*
X167958080Y-76653117D01*
X167985373Y-76551256D01*
X167985373Y-76445802D01*
X167985373Y-74692380D01*
X168005058Y-74625341D01*
X168021688Y-74604703D01*
X168431206Y-74195184D01*
X168492527Y-74161701D01*
X168562218Y-74166685D01*
G37*
%TD.AperFunction*%
%TA.AperFunction,Conductor*%
G36*
X155398099Y-47270185D02*
G01*
X155443854Y-47322989D01*
X155453798Y-47392147D01*
X155445621Y-47421953D01*
X155368429Y-47608310D01*
X155368427Y-47608318D01*
X155330000Y-47801504D01*
X155330000Y-47950000D01*
X156030000Y-47950000D01*
X156030000Y-48450000D01*
X155330000Y-48450000D01*
X155330000Y-48598495D01*
X155368427Y-48791681D01*
X155368430Y-48791693D01*
X155443807Y-48973671D01*
X155443814Y-48973684D01*
X155553248Y-49137462D01*
X155553251Y-49137466D01*
X155692533Y-49276748D01*
X155692537Y-49276751D01*
X155856315Y-49386185D01*
X155856328Y-49386192D01*
X156038308Y-49461569D01*
X156080000Y-49469862D01*
X156080000Y-48666988D01*
X156089940Y-48684205D01*
X156145795Y-48740060D01*
X156214204Y-48779556D01*
X156290504Y-48800000D01*
X156369496Y-48800000D01*
X156445796Y-48779556D01*
X156514205Y-48740060D01*
X156570060Y-48684205D01*
X156580000Y-48666988D01*
X156580000Y-49469862D01*
X156621690Y-49461569D01*
X156621692Y-49461569D01*
X156803671Y-49386192D01*
X156803684Y-49386185D01*
X156967462Y-49276751D01*
X156967466Y-49276748D01*
X157106748Y-49137466D01*
X157106751Y-49137462D01*
X157216185Y-48973684D01*
X157216192Y-48973671D01*
X157291569Y-48791693D01*
X157291572Y-48791681D01*
X157329999Y-48598495D01*
X157330000Y-48598492D01*
X157330000Y-48450000D01*
X156630000Y-48450000D01*
X156630000Y-47950000D01*
X157330000Y-47950000D01*
X157330000Y-47801508D01*
X157329999Y-47801504D01*
X157291572Y-47608318D01*
X157291570Y-47608310D01*
X157214379Y-47421953D01*
X157206910Y-47352483D01*
X157238185Y-47290004D01*
X157298274Y-47254352D01*
X157328940Y-47250500D01*
X163971060Y-47250500D01*
X164038099Y-47270185D01*
X164083854Y-47322989D01*
X164093798Y-47392147D01*
X164085621Y-47421953D01*
X164008429Y-47608310D01*
X164008427Y-47608318D01*
X163970000Y-47801504D01*
X163970000Y-47950000D01*
X164670000Y-47950000D01*
X164670000Y-48450000D01*
X163970000Y-48450000D01*
X163970000Y-48598495D01*
X164008427Y-48791681D01*
X164008430Y-48791693D01*
X164083807Y-48973671D01*
X164083814Y-48973684D01*
X164193248Y-49137462D01*
X164193251Y-49137466D01*
X164332533Y-49276748D01*
X164332537Y-49276751D01*
X164496315Y-49386185D01*
X164496328Y-49386192D01*
X164678308Y-49461569D01*
X164720000Y-49469862D01*
X164720000Y-48666988D01*
X164729940Y-48684205D01*
X164785795Y-48740060D01*
X164854204Y-48779556D01*
X164930504Y-48800000D01*
X165009496Y-48800000D01*
X165085796Y-48779556D01*
X165154205Y-48740060D01*
X165210060Y-48684205D01*
X165220000Y-48666988D01*
X165220000Y-49469862D01*
X165261690Y-49461569D01*
X165261692Y-49461569D01*
X165443671Y-49386192D01*
X165443684Y-49386185D01*
X165607462Y-49276751D01*
X165607466Y-49276748D01*
X165746748Y-49137466D01*
X165746751Y-49137462D01*
X165856185Y-48973684D01*
X165856192Y-48973671D01*
X165931569Y-48791693D01*
X165931572Y-48791681D01*
X165969999Y-48598495D01*
X165970000Y-48598492D01*
X165970000Y-48450000D01*
X165270000Y-48450000D01*
X165270000Y-47950000D01*
X165970000Y-47950000D01*
X165970000Y-47801508D01*
X165969999Y-47801504D01*
X165931572Y-47608318D01*
X165931570Y-47608310D01*
X165854379Y-47421953D01*
X165846910Y-47352483D01*
X165878185Y-47290004D01*
X165938274Y-47254352D01*
X165968940Y-47250500D01*
X168265500Y-47250500D01*
X168332539Y-47270185D01*
X168378294Y-47322989D01*
X168389500Y-47374500D01*
X168389500Y-49014856D01*
X168389502Y-49014882D01*
X168392413Y-49039987D01*
X168392415Y-49039991D01*
X168437793Y-49142764D01*
X168437794Y-49142765D01*
X168517235Y-49222206D01*
X168620009Y-49267585D01*
X168645135Y-49270500D01*
X169382876Y-49270499D01*
X169449913Y-49290183D01*
X169495668Y-49342987D01*
X169505612Y-49412146D01*
X169476587Y-49475702D01*
X169417809Y-49513476D01*
X169402272Y-49516972D01*
X169270589Y-49537829D01*
X169098363Y-49593787D01*
X169098360Y-49593788D01*
X168937002Y-49676006D01*
X168790505Y-49782441D01*
X168790500Y-49782445D01*
X168662445Y-49910500D01*
X168662441Y-49910505D01*
X168556006Y-50057002D01*
X168487325Y-50191795D01*
X168439350Y-50242591D01*
X168376840Y-50259500D01*
X168077273Y-50259500D01*
X167975412Y-50286793D01*
X167975409Y-50286794D01*
X167929750Y-50313155D01*
X167929750Y-50313156D01*
X167884087Y-50339520D01*
X167884084Y-50339522D01*
X167089522Y-51134084D01*
X167089518Y-51134090D01*
X167036792Y-51225412D01*
X167036793Y-51225413D01*
X167009500Y-51327273D01*
X167009500Y-52012726D01*
X167015275Y-52034279D01*
X167019500Y-52066372D01*
X167019500Y-52562745D01*
X166999815Y-52629784D01*
X166983181Y-52650426D01*
X165993842Y-53639764D01*
X165932519Y-53673249D01*
X165862827Y-53668265D01*
X165806894Y-53626393D01*
X165782477Y-53560929D01*
X165797329Y-53492656D01*
X165803059Y-53483191D01*
X165856188Y-53403678D01*
X165856192Y-53403671D01*
X165931569Y-53221693D01*
X165931572Y-53221681D01*
X165969999Y-53028495D01*
X165970000Y-53028492D01*
X165970000Y-52630000D01*
X165270000Y-52630000D01*
X165270000Y-52130000D01*
X165970000Y-52130000D01*
X165970000Y-51731508D01*
X165969999Y-51731504D01*
X165931572Y-51538318D01*
X165931569Y-51538306D01*
X165856192Y-51356328D01*
X165856185Y-51356315D01*
X165746751Y-51192537D01*
X165746748Y-51192533D01*
X165607466Y-51053251D01*
X165607462Y-51053248D01*
X165443684Y-50943814D01*
X165443671Y-50943807D01*
X165261691Y-50868429D01*
X165261683Y-50868427D01*
X165220000Y-50860135D01*
X165220000Y-51663011D01*
X165210060Y-51645795D01*
X165154205Y-51589940D01*
X165085796Y-51550444D01*
X165009496Y-51530000D01*
X164930504Y-51530000D01*
X164854204Y-51550444D01*
X164785795Y-51589940D01*
X164729940Y-51645795D01*
X164720000Y-51663011D01*
X164720000Y-50860136D01*
X164719999Y-50860135D01*
X164678316Y-50868427D01*
X164678308Y-50868429D01*
X164496328Y-50943807D01*
X164496315Y-50943814D01*
X164332537Y-51053248D01*
X164332533Y-51053251D01*
X164193248Y-51192536D01*
X164080427Y-51361387D01*
X164079003Y-51360435D01*
X164035742Y-51404451D01*
X163967600Y-51419892D01*
X163901927Y-51396041D01*
X163899907Y-51394306D01*
X163899811Y-51394432D01*
X163893367Y-51389487D01*
X163893365Y-51389485D01*
X163827750Y-51351602D01*
X163762136Y-51313719D01*
X163688950Y-51294109D01*
X163615766Y-51274500D01*
X163464234Y-51274500D01*
X163317863Y-51313719D01*
X163186635Y-51389485D01*
X163186632Y-51389487D01*
X163079487Y-51496632D01*
X163079485Y-51496635D01*
X163003719Y-51627863D01*
X162964500Y-51774234D01*
X162964500Y-51925765D01*
X163003719Y-52072136D01*
X163041602Y-52137750D01*
X163079485Y-52203365D01*
X163186635Y-52310515D01*
X163317865Y-52386281D01*
X163464234Y-52425500D01*
X163464236Y-52425500D01*
X163615764Y-52425500D01*
X163615766Y-52425500D01*
X163762135Y-52386281D01*
X163893365Y-52310515D01*
X164000515Y-52203365D01*
X164007077Y-52192000D01*
X164057644Y-52143784D01*
X164114464Y-52130000D01*
X164670000Y-52130000D01*
X164670000Y-52630000D01*
X163970000Y-52630000D01*
X163970000Y-53028495D01*
X164008427Y-53221681D01*
X164008430Y-53221693D01*
X164083807Y-53403671D01*
X164083814Y-53403684D01*
X164193248Y-53567462D01*
X164193251Y-53567466D01*
X164332533Y-53706748D01*
X164332537Y-53706751D01*
X164496315Y-53816185D01*
X164496328Y-53816192D01*
X164678308Y-53891569D01*
X164720000Y-53899862D01*
X164720000Y-53096988D01*
X164729940Y-53114205D01*
X164785795Y-53170060D01*
X164854204Y-53209556D01*
X164930504Y-53230000D01*
X165009496Y-53230000D01*
X165085796Y-53209556D01*
X165154205Y-53170060D01*
X165210060Y-53114205D01*
X165220000Y-53096988D01*
X165220000Y-53899862D01*
X165261690Y-53891569D01*
X165261692Y-53891569D01*
X165443671Y-53816192D01*
X165443683Y-53816185D01*
X165529881Y-53758590D01*
X165596558Y-53737712D01*
X165663938Y-53756196D01*
X165710629Y-53808175D01*
X165721805Y-53877145D01*
X165708943Y-53918598D01*
X165702462Y-53931144D01*
X165699520Y-53934087D01*
X165646793Y-54025412D01*
X165646793Y-54025413D01*
X165639273Y-54053479D01*
X165619500Y-54127273D01*
X165619500Y-75337853D01*
X165646793Y-75439716D01*
X165658094Y-75459289D01*
X165699520Y-75531040D01*
X165699522Y-75531042D01*
X166348054Y-76179574D01*
X166381539Y-76240897D01*
X166384373Y-76267255D01*
X166384373Y-76329057D01*
X166411019Y-76428499D01*
X166425296Y-76481783D01*
X166425299Y-76481790D01*
X166504348Y-76618709D01*
X166504354Y-76618717D01*
X166583456Y-76697819D01*
X166616941Y-76759142D01*
X166611957Y-76828834D01*
X166570085Y-76884767D01*
X166504621Y-76909184D01*
X166495775Y-76909500D01*
X166417273Y-76909500D01*
X166315410Y-76936793D01*
X166224087Y-76989520D01*
X166224084Y-76989522D01*
X165539522Y-77674084D01*
X165539520Y-77674087D01*
X165486793Y-77765410D01*
X165480774Y-77787874D01*
X165477765Y-77799105D01*
X165477765Y-77799106D01*
X165477764Y-77799105D01*
X165459500Y-77867271D01*
X165459500Y-79651167D01*
X165439815Y-79718206D01*
X165387011Y-79763961D01*
X165322316Y-79774464D01*
X165312723Y-79773438D01*
X165267292Y-79761265D01*
X165198880Y-79761265D01*
X165192306Y-79760562D01*
X165165882Y-79749634D01*
X165138451Y-79741580D01*
X165130066Y-79734823D01*
X165127739Y-79733861D01*
X165126295Y-79731784D01*
X165117809Y-79724946D01*
X164266819Y-78873956D01*
X164233334Y-78812633D01*
X164230500Y-78786275D01*
X164230500Y-74678783D01*
X164230501Y-74678770D01*
X164230501Y-74563328D01*
X164223332Y-74536572D01*
X164203207Y-74461467D01*
X164181119Y-74423209D01*
X164150480Y-74370141D01*
X164075913Y-74295574D01*
X164075912Y-74295573D01*
X164071592Y-74291253D01*
X164071581Y-74291243D01*
X163906817Y-74126478D01*
X163873334Y-74065157D01*
X163870500Y-74038799D01*
X163870500Y-73976999D01*
X163870500Y-73976997D01*
X163829577Y-73824270D01*
X163767203Y-73716234D01*
X163750524Y-73687344D01*
X163750518Y-73687336D01*
X163638717Y-73575535D01*
X163638709Y-73575529D01*
X163501790Y-73496480D01*
X163501786Y-73496478D01*
X163501784Y-73496477D01*
X163349057Y-73455554D01*
X163190943Y-73455554D01*
X163038216Y-73496477D01*
X163038209Y-73496480D01*
X162901290Y-73575529D01*
X162901282Y-73575535D01*
X162789481Y-73687336D01*
X162789475Y-73687344D01*
X162710426Y-73824263D01*
X162710423Y-73824270D01*
X162669500Y-73976997D01*
X162669500Y-74135111D01*
X162689180Y-74208556D01*
X162710423Y-74287837D01*
X162710426Y-74287844D01*
X162789475Y-74424763D01*
X162789479Y-74424768D01*
X162789480Y-74424770D01*
X162901284Y-74536574D01*
X162901286Y-74536575D01*
X162901290Y-74536578D01*
X163038209Y-74615627D01*
X163038216Y-74615631D01*
X163190943Y-74656554D01*
X163252746Y-74656554D01*
X163282186Y-74665198D01*
X163312173Y-74671722D01*
X163317188Y-74675476D01*
X163319785Y-74676239D01*
X163340427Y-74692873D01*
X163393181Y-74745627D01*
X163426666Y-74806950D01*
X163429500Y-74833308D01*
X163429500Y-77244973D01*
X163409815Y-77312012D01*
X163357011Y-77357767D01*
X163287853Y-77367711D01*
X163273408Y-77364748D01*
X163230279Y-77353192D01*
X163230278Y-77353192D01*
X163072164Y-77353192D01*
X162919437Y-77394115D01*
X162919430Y-77394118D01*
X162782511Y-77473167D01*
X162782507Y-77473170D01*
X162670840Y-77584837D01*
X162645161Y-77604541D01*
X162595507Y-77633209D01*
X162595501Y-77633214D01*
X161749522Y-78479194D01*
X161749518Y-78479200D01*
X161696793Y-78570521D01*
X161689991Y-78595911D01*
X161689990Y-78595913D01*
X161669500Y-78672383D01*
X161669500Y-87292726D01*
X161696793Y-87394589D01*
X161723156Y-87440250D01*
X161749520Y-87485913D01*
X161749522Y-87485915D01*
X162753181Y-88489574D01*
X162786666Y-88550897D01*
X162789500Y-88577255D01*
X162789500Y-89140796D01*
X162769815Y-89207835D01*
X162721795Y-89251281D01*
X162587002Y-89319962D01*
X162440505Y-89426397D01*
X162440500Y-89426401D01*
X162312445Y-89554456D01*
X162312441Y-89554461D01*
X162206004Y-89700960D01*
X162138908Y-89832641D01*
X162090933Y-89883436D01*
X162023112Y-89900231D01*
X161956977Y-89877693D01*
X161913527Y-89822977D01*
X161910492Y-89814661D01*
X161901094Y-89785736D01*
X161804624Y-89596405D01*
X161765270Y-89542238D01*
X161765269Y-89542238D01*
X161132962Y-90174546D01*
X161115925Y-90110963D01*
X161050099Y-89996949D01*
X160957007Y-89903857D01*
X160842993Y-89838031D01*
X160779409Y-89820993D01*
X161411716Y-89188684D01*
X161357550Y-89149331D01*
X161168217Y-89052860D01*
X160966129Y-88987198D01*
X160756246Y-88953956D01*
X160543754Y-88953956D01*
X160333872Y-88987198D01*
X160333869Y-88987198D01*
X160131782Y-89052860D01*
X159942439Y-89149336D01*
X159888282Y-89188683D01*
X159888282Y-89188684D01*
X160520591Y-89820993D01*
X160457007Y-89838031D01*
X160342993Y-89903857D01*
X160249901Y-89996949D01*
X160184075Y-90110963D01*
X160167037Y-90174547D01*
X159534728Y-89542238D01*
X159534727Y-89542238D01*
X159495380Y-89596396D01*
X159495377Y-89596401D01*
X159494981Y-89597179D01*
X159494752Y-89597420D01*
X159492838Y-89600546D01*
X159492180Y-89600143D01*
X159447004Y-89647973D01*
X159379183Y-89664765D01*
X159313049Y-89642224D01*
X159269600Y-89587507D01*
X159260499Y-89540879D01*
X159260499Y-89409099D01*
X159260499Y-89409092D01*
X159260497Y-89409073D01*
X159257586Y-89383968D01*
X159257585Y-89383967D01*
X159257585Y-89383965D01*
X159212206Y-89281191D01*
X159132765Y-89201750D01*
X159132505Y-89201635D01*
X159029992Y-89156371D01*
X159004868Y-89153456D01*
X159004865Y-89153456D01*
X158624500Y-89153456D01*
X158557461Y-89133771D01*
X158511706Y-89080967D01*
X158500500Y-89029456D01*
X158500500Y-86838747D01*
X158500499Y-86838740D01*
X158487765Y-86791215D01*
X158473207Y-86736883D01*
X158420480Y-86645558D01*
X156996819Y-85221897D01*
X156963334Y-85160574D01*
X156960500Y-85134216D01*
X156960500Y-80957254D01*
X156980185Y-80890215D01*
X156996814Y-80869578D01*
X158899037Y-78967354D01*
X158954624Y-78935262D01*
X159050481Y-78909578D01*
X159050482Y-78909577D01*
X159050484Y-78909577D01*
X159054936Y-78907007D01*
X159187409Y-78830524D01*
X159187408Y-78830524D01*
X159187416Y-78830520D01*
X159299220Y-78718716D01*
X159378277Y-78581784D01*
X159419200Y-78429057D01*
X159419200Y-78270943D01*
X159378277Y-78118216D01*
X159357242Y-78081782D01*
X159299224Y-77981290D01*
X159299218Y-77981282D01*
X159187417Y-77869481D01*
X159187409Y-77869475D01*
X159050490Y-77790426D01*
X159050486Y-77790424D01*
X159050484Y-77790423D01*
X158897757Y-77749500D01*
X158739643Y-77749500D01*
X158586916Y-77790423D01*
X158586909Y-77790426D01*
X158449990Y-77869475D01*
X158449982Y-77869481D01*
X158338181Y-77981282D01*
X158338175Y-77981290D01*
X158259126Y-78118209D01*
X158259123Y-78118216D01*
X158218200Y-78270943D01*
X158218200Y-78429056D01*
X158219261Y-78437118D01*
X158217696Y-78437323D01*
X158216253Y-78497862D01*
X158185826Y-78547779D01*
X158162183Y-78571423D01*
X158100861Y-78604910D01*
X158031169Y-78599927D01*
X157975234Y-78558057D01*
X157950816Y-78492593D01*
X157950500Y-78483744D01*
X157950500Y-75287275D01*
X157950500Y-75287273D01*
X157923207Y-75185413D01*
X157870480Y-75094087D01*
X157795913Y-75019520D01*
X156704309Y-73927916D01*
X156670824Y-73866593D01*
X156675808Y-73796901D01*
X156717680Y-73740968D01*
X156783144Y-73716551D01*
X156791990Y-73716235D01*
X156986990Y-73716235D01*
X156986992Y-73716235D01*
X157088853Y-73688942D01*
X157180178Y-73636215D01*
X157299574Y-73516819D01*
X157360897Y-73483334D01*
X157387255Y-73480500D01*
X157449055Y-73480500D01*
X157449057Y-73480500D01*
X157601784Y-73439577D01*
X157738716Y-73360520D01*
X157850520Y-73248716D01*
X157929577Y-73111784D01*
X157970500Y-72959057D01*
X157970500Y-72800943D01*
X157929577Y-72648216D01*
X157874653Y-72553084D01*
X157850524Y-72511290D01*
X157850518Y-72511282D01*
X157738717Y-72399481D01*
X157738709Y-72399475D01*
X157601790Y-72320426D01*
X157601786Y-72320424D01*
X157601784Y-72320423D01*
X157449057Y-72279500D01*
X157290943Y-72279500D01*
X157138216Y-72320423D01*
X157138209Y-72320426D01*
X157001290Y-72399475D01*
X157001282Y-72399481D01*
X156889481Y-72511282D01*
X156889475Y-72511290D01*
X156810426Y-72648209D01*
X156810423Y-72648216D01*
X156769500Y-72800942D01*
X156768647Y-72807424D01*
X156740378Y-72871320D01*
X156682053Y-72909789D01*
X156645708Y-72915235D01*
X156312989Y-72915235D01*
X156245950Y-72895550D01*
X156225308Y-72878916D01*
X155626819Y-72280426D01*
X155593334Y-72219103D01*
X155590500Y-72192745D01*
X155590500Y-68917255D01*
X155610185Y-68850216D01*
X155626819Y-68829574D01*
X156119574Y-68336819D01*
X156180897Y-68303334D01*
X156207255Y-68300500D01*
X160525500Y-68300500D01*
X160592539Y-68320185D01*
X160638294Y-68372989D01*
X160649500Y-68424500D01*
X160649500Y-71363500D01*
X160629815Y-71430539D01*
X160613181Y-71451181D01*
X160569481Y-71494880D01*
X160569475Y-71494888D01*
X160490426Y-71631807D01*
X160490423Y-71631814D01*
X160449500Y-71784541D01*
X160449500Y-71942655D01*
X160455219Y-71963996D01*
X160490423Y-72095381D01*
X160490426Y-72095388D01*
X160569475Y-72232307D01*
X160569479Y-72232312D01*
X160569480Y-72232314D01*
X160681284Y-72344118D01*
X160681286Y-72344119D01*
X160681290Y-72344122D01*
X160777176Y-72399481D01*
X160818216Y-72423175D01*
X160970943Y-72464098D01*
X160970945Y-72464098D01*
X161129055Y-72464098D01*
X161129057Y-72464098D01*
X161281784Y-72423175D01*
X161418716Y-72344118D01*
X161530520Y-72232314D01*
X161609577Y-72095382D01*
X161650500Y-71942655D01*
X161650500Y-71784541D01*
X161609577Y-71631814D01*
X161581391Y-71582994D01*
X161530524Y-71494888D01*
X161530518Y-71494880D01*
X161486819Y-71451181D01*
X161453334Y-71389858D01*
X161450500Y-71363500D01*
X161450500Y-68117255D01*
X161459144Y-68087814D01*
X161465668Y-68057828D01*
X161469422Y-68052812D01*
X161470185Y-68050216D01*
X161486819Y-68029574D01*
X161662319Y-67854074D01*
X161723642Y-67820589D01*
X161793334Y-67825573D01*
X161837681Y-67854074D01*
X163953181Y-69969574D01*
X163986666Y-70030897D01*
X163989500Y-70057255D01*
X163989500Y-70099057D01*
X164024722Y-70230505D01*
X164030423Y-70251783D01*
X164030426Y-70251790D01*
X164109475Y-70388709D01*
X164109479Y-70388714D01*
X164109480Y-70388716D01*
X164221284Y-70500520D01*
X164221286Y-70500521D01*
X164221290Y-70500524D01*
X164252118Y-70518322D01*
X164358216Y-70579577D01*
X164510943Y-70620500D01*
X164510945Y-70620500D01*
X164669055Y-70620500D01*
X164669057Y-70620500D01*
X164821784Y-70579577D01*
X164958716Y-70500520D01*
X165070520Y-70388716D01*
X165149577Y-70251784D01*
X165190500Y-70099057D01*
X165190500Y-69940943D01*
X165149577Y-69788216D01*
X165123606Y-69743232D01*
X165070524Y-69651290D01*
X165070518Y-69651282D01*
X164958717Y-69539481D01*
X164958709Y-69539475D01*
X164821790Y-69460426D01*
X164821786Y-69460424D01*
X164821784Y-69460423D01*
X164669057Y-69419500D01*
X164669056Y-69419500D01*
X164587255Y-69419500D01*
X164520216Y-69399815D01*
X164499574Y-69383181D01*
X162386819Y-67270426D01*
X162353334Y-67209103D01*
X162350500Y-67182745D01*
X162350500Y-67120945D01*
X162350500Y-67120943D01*
X162309577Y-66968216D01*
X162289350Y-66933181D01*
X162230524Y-66831290D01*
X162230518Y-66831282D01*
X162118717Y-66719481D01*
X162118709Y-66719475D01*
X161974746Y-66636359D01*
X161976104Y-66634006D01*
X161932079Y-66598519D01*
X161910022Y-66532223D01*
X161927308Y-66464525D01*
X161946258Y-66440134D01*
X164388844Y-63997549D01*
X164441570Y-63906224D01*
X164441571Y-63906223D01*
X164468864Y-63804363D01*
X164468864Y-62774500D01*
X164488549Y-62707461D01*
X164541353Y-62661706D01*
X164592864Y-62650500D01*
X164649055Y-62650500D01*
X164649057Y-62650500D01*
X164801784Y-62609577D01*
X164938716Y-62530520D01*
X165050520Y-62418716D01*
X165129577Y-62281784D01*
X165170500Y-62129057D01*
X165170500Y-61970943D01*
X165129577Y-61818216D01*
X165121367Y-61803996D01*
X165050524Y-61681290D01*
X165050518Y-61681282D01*
X164938717Y-61569481D01*
X164938709Y-61569475D01*
X164801790Y-61490426D01*
X164801786Y-61490424D01*
X164801784Y-61490423D01*
X164649057Y-61449500D01*
X164490943Y-61449500D01*
X164338216Y-61490423D01*
X164338209Y-61490426D01*
X164201290Y-61569475D01*
X164201282Y-61569481D01*
X164089481Y-61681282D01*
X164089475Y-61681290D01*
X164010426Y-61818209D01*
X164010423Y-61818216D01*
X163969500Y-61970943D01*
X163969500Y-62032745D01*
X163949815Y-62099784D01*
X163933181Y-62120426D01*
X163747886Y-62305720D01*
X163747882Y-62305726D01*
X163695156Y-62397048D01*
X163695157Y-62397049D01*
X163667864Y-62498909D01*
X163667864Y-63534381D01*
X163648179Y-63601420D01*
X163631545Y-63622062D01*
X160320426Y-66933181D01*
X160259103Y-66966666D01*
X160232745Y-66969500D01*
X156337255Y-66969500D01*
X156270216Y-66949815D01*
X156249574Y-66933181D01*
X155636819Y-66320426D01*
X155603334Y-66259103D01*
X155600500Y-66232745D01*
X155600500Y-66170945D01*
X155600500Y-66170943D01*
X155559577Y-66018216D01*
X155491326Y-65900000D01*
X155480524Y-65881290D01*
X155480518Y-65881282D01*
X155368717Y-65769481D01*
X155368709Y-65769475D01*
X155231790Y-65690426D01*
X155231786Y-65690424D01*
X155231784Y-65690423D01*
X155079057Y-65649500D01*
X154920943Y-65649500D01*
X154914500Y-65649500D01*
X154847461Y-65629815D01*
X154801706Y-65577011D01*
X154790500Y-65525500D01*
X154790500Y-54635208D01*
X157895235Y-54635208D01*
X157895235Y-54793322D01*
X157924164Y-54901284D01*
X157936158Y-54946048D01*
X157936161Y-54946055D01*
X158015210Y-55082974D01*
X158015214Y-55082979D01*
X158015215Y-55082981D01*
X158127019Y-55194785D01*
X158127021Y-55194786D01*
X158127025Y-55194789D01*
X158260405Y-55271795D01*
X158263951Y-55273842D01*
X158416678Y-55314765D01*
X158478481Y-55314765D01*
X158545520Y-55334450D01*
X158566162Y-55351084D01*
X158730989Y-55515911D01*
X158730991Y-55515913D01*
X158805558Y-55590480D01*
X158874856Y-55630489D01*
X158896884Y-55643207D01*
X158998745Y-55670501D01*
X158998748Y-55670501D01*
X159111794Y-55670501D01*
X159111810Y-55670500D01*
X164269902Y-55670500D01*
X164336941Y-55690185D01*
X164357583Y-55706819D01*
X164401284Y-55750520D01*
X164401286Y-55750521D01*
X164401290Y-55750524D01*
X164538209Y-55829573D01*
X164538216Y-55829577D01*
X164690943Y-55870500D01*
X164690945Y-55870500D01*
X164849055Y-55870500D01*
X164849057Y-55870500D01*
X165001784Y-55829577D01*
X165138716Y-55750520D01*
X165250520Y-55638716D01*
X165329577Y-55501784D01*
X165370500Y-55349057D01*
X165370500Y-55190943D01*
X165329577Y-55038216D01*
X165329573Y-55038209D01*
X165250524Y-54901290D01*
X165250518Y-54901282D01*
X165138717Y-54789481D01*
X165138709Y-54789475D01*
X165001790Y-54710426D01*
X165001786Y-54710424D01*
X165001784Y-54710423D01*
X164849057Y-54669500D01*
X164690943Y-54669500D01*
X164538216Y-54710423D01*
X164538209Y-54710426D01*
X164401290Y-54789475D01*
X164401282Y-54789481D01*
X164357583Y-54833181D01*
X164296260Y-54866666D01*
X164269902Y-54869500D01*
X159268726Y-54869500D01*
X159239285Y-54860855D01*
X159209299Y-54854332D01*
X159204283Y-54850577D01*
X159201687Y-54849815D01*
X159181045Y-54833181D01*
X159132554Y-54784690D01*
X159099069Y-54723367D01*
X159096235Y-54697009D01*
X159096235Y-54635210D01*
X159096235Y-54635208D01*
X159055312Y-54482481D01*
X159042617Y-54460492D01*
X158976259Y-54345555D01*
X158976253Y-54345547D01*
X158864452Y-54233746D01*
X158864444Y-54233740D01*
X158727525Y-54154691D01*
X158727521Y-54154689D01*
X158727519Y-54154688D01*
X158574792Y-54113765D01*
X158416678Y-54113765D01*
X158263951Y-54154688D01*
X158263944Y-54154691D01*
X158127025Y-54233740D01*
X158127017Y-54233746D01*
X158015216Y-54345547D01*
X158015210Y-54345555D01*
X157936161Y-54482474D01*
X157936158Y-54482481D01*
X157895235Y-54635208D01*
X154790500Y-54635208D01*
X154790500Y-53352729D01*
X154790501Y-53352716D01*
X154790501Y-53237274D01*
X154763207Y-53135414D01*
X154763207Y-53135413D01*
X154743038Y-53100480D01*
X154743037Y-53100478D01*
X154743037Y-53100477D01*
X154710482Y-53044090D01*
X154710481Y-53044089D01*
X154710480Y-53044087D01*
X154635913Y-52969520D01*
X154635912Y-52969519D01*
X154631582Y-52965189D01*
X154631571Y-52965179D01*
X154332711Y-52666319D01*
X153479491Y-51813098D01*
X153397897Y-51731504D01*
X155330000Y-51731504D01*
X155330000Y-52130000D01*
X156030000Y-52130000D01*
X156030000Y-52630000D01*
X155330000Y-52630000D01*
X155330000Y-53028495D01*
X155368427Y-53221681D01*
X155368430Y-53221693D01*
X155443807Y-53403671D01*
X155443814Y-53403684D01*
X155553248Y-53567462D01*
X155553251Y-53567466D01*
X155692533Y-53706748D01*
X155692537Y-53706751D01*
X155856315Y-53816185D01*
X155856328Y-53816192D01*
X156038308Y-53891569D01*
X156080000Y-53899862D01*
X156080000Y-53096988D01*
X156089940Y-53114205D01*
X156145795Y-53170060D01*
X156214204Y-53209556D01*
X156290504Y-53230000D01*
X156369496Y-53230000D01*
X156445796Y-53209556D01*
X156514205Y-53170060D01*
X156570060Y-53114205D01*
X156580000Y-53096988D01*
X156580000Y-53899862D01*
X156621690Y-53891569D01*
X156621692Y-53891569D01*
X156803671Y-53816192D01*
X156803684Y-53816185D01*
X156967462Y-53706751D01*
X156967466Y-53706748D01*
X157106748Y-53567466D01*
X157106751Y-53567462D01*
X157216185Y-53403684D01*
X157216192Y-53403671D01*
X157291569Y-53221693D01*
X157291572Y-53221681D01*
X157329999Y-53028495D01*
X157330000Y-53028492D01*
X157330000Y-52630000D01*
X156630000Y-52630000D01*
X156630000Y-52130000D01*
X157185536Y-52130000D01*
X157252575Y-52149685D01*
X157292923Y-52192000D01*
X157299482Y-52203361D01*
X157299484Y-52203364D01*
X157299485Y-52203365D01*
X157406635Y-52310515D01*
X157537865Y-52386281D01*
X157684234Y-52425500D01*
X157684236Y-52425500D01*
X157835764Y-52425500D01*
X157835766Y-52425500D01*
X157982135Y-52386281D01*
X158113365Y-52310515D01*
X158220515Y-52203365D01*
X158296281Y-52072135D01*
X158335500Y-51925766D01*
X158335500Y-51774234D01*
X158296281Y-51627865D01*
X158220515Y-51496635D01*
X158113365Y-51389485D01*
X158047750Y-51351602D01*
X157982136Y-51313719D01*
X157908950Y-51294109D01*
X157835766Y-51274500D01*
X157684234Y-51274500D01*
X157537863Y-51313719D01*
X157406635Y-51389485D01*
X157400189Y-51394432D01*
X157398099Y-51391709D01*
X157350217Y-51417466D01*
X157280558Y-51412043D01*
X157224888Y-51369821D01*
X157219299Y-51360976D01*
X157106751Y-51192537D01*
X157106748Y-51192533D01*
X156967466Y-51053251D01*
X156967462Y-51053248D01*
X156803684Y-50943814D01*
X156803671Y-50943807D01*
X156621691Y-50868429D01*
X156621683Y-50868427D01*
X156580000Y-50860135D01*
X156580000Y-51663011D01*
X156570060Y-51645795D01*
X156514205Y-51589940D01*
X156445796Y-51550444D01*
X156369496Y-51530000D01*
X156290504Y-51530000D01*
X156214204Y-51550444D01*
X156145795Y-51589940D01*
X156089940Y-51645795D01*
X156080000Y-51663011D01*
X156080000Y-50860136D01*
X156079999Y-50860135D01*
X156038316Y-50868427D01*
X156038308Y-50868429D01*
X155856328Y-50943807D01*
X155856315Y-50943814D01*
X155692537Y-51053248D01*
X155692533Y-51053251D01*
X155553251Y-51192533D01*
X155553248Y-51192537D01*
X155443814Y-51356315D01*
X155443807Y-51356328D01*
X155368430Y-51538306D01*
X155368427Y-51538318D01*
X155330000Y-51731504D01*
X153397897Y-51731504D01*
X152865674Y-51199281D01*
X152832189Y-51137958D01*
X152835423Y-51073284D01*
X152882171Y-50929409D01*
X152910500Y-50750551D01*
X152910500Y-50569448D01*
X152894019Y-50465397D01*
X152882171Y-50390591D01*
X152826211Y-50218361D01*
X152826211Y-50218360D01*
X152797740Y-50162484D01*
X152743996Y-50057006D01*
X152730396Y-50038287D01*
X152637558Y-49910505D01*
X152637554Y-49910500D01*
X152509499Y-49782445D01*
X152509494Y-49782441D01*
X152362997Y-49676006D01*
X152362996Y-49676005D01*
X152362994Y-49676004D01*
X152311300Y-49649664D01*
X152201639Y-49593788D01*
X152201636Y-49593787D01*
X152029410Y-49537829D01*
X151897727Y-49516972D01*
X151834592Y-49487043D01*
X151797661Y-49427731D01*
X151798659Y-49357868D01*
X151837269Y-49299636D01*
X151901233Y-49271522D01*
X151917118Y-49270499D01*
X152654864Y-49270499D01*
X152654879Y-49270497D01*
X152654882Y-49270497D01*
X152679987Y-49267586D01*
X152679988Y-49267585D01*
X152679991Y-49267585D01*
X152782765Y-49222206D01*
X152862206Y-49142765D01*
X152907585Y-49039991D01*
X152910500Y-49014865D01*
X152910499Y-47950000D01*
X152910499Y-47374500D01*
X152930183Y-47307461D01*
X152982987Y-47261706D01*
X153034499Y-47250500D01*
X155331060Y-47250500D01*
X155398099Y-47270185D01*
G37*
%TD.AperFunction*%
%TA.AperFunction,Conductor*%
G36*
X168437190Y-61261715D02*
G01*
X168493124Y-61303586D01*
X168504341Y-61321600D01*
X168523540Y-61359281D01*
X168556006Y-61422997D01*
X168662441Y-61569494D01*
X168662445Y-61569499D01*
X168790500Y-61697554D01*
X168790505Y-61697558D01*
X168875864Y-61759574D01*
X168937006Y-61803996D01*
X169021906Y-61847255D01*
X169098360Y-61886211D01*
X169098363Y-61886212D01*
X169160753Y-61906483D01*
X169270591Y-61942171D01*
X169343639Y-61953740D01*
X169430678Y-61967527D01*
X169493813Y-61997456D01*
X169530744Y-62056768D01*
X169529746Y-62126631D01*
X169491136Y-62184863D01*
X169430678Y-62212473D01*
X169270589Y-62237829D01*
X169098363Y-62293787D01*
X169098360Y-62293788D01*
X168937002Y-62376006D01*
X168790505Y-62482441D01*
X168790500Y-62482445D01*
X168662445Y-62610500D01*
X168662441Y-62610505D01*
X168556006Y-62757002D01*
X168473788Y-62918360D01*
X168473787Y-62918363D01*
X168417829Y-63090589D01*
X168389500Y-63269448D01*
X168389500Y-63450551D01*
X168417829Y-63629410D01*
X168473787Y-63801636D01*
X168473788Y-63801639D01*
X168556006Y-63962997D01*
X168662441Y-64109494D01*
X168662445Y-64109499D01*
X168790500Y-64237554D01*
X168790505Y-64237558D01*
X168918287Y-64330396D01*
X168937006Y-64343996D01*
X169038780Y-64395853D01*
X169068684Y-64411090D01*
X169119480Y-64459065D01*
X169136275Y-64526886D01*
X169113737Y-64593021D01*
X169059022Y-64636472D01*
X169050708Y-64639506D01*
X169021781Y-64648905D01*
X168832439Y-64745380D01*
X168778282Y-64784727D01*
X168778282Y-64784728D01*
X169410591Y-65417037D01*
X169347007Y-65434075D01*
X169232993Y-65499901D01*
X169139901Y-65592993D01*
X169074075Y-65707007D01*
X169057037Y-65770591D01*
X168424728Y-65138282D01*
X168424727Y-65138282D01*
X168385380Y-65192439D01*
X168288904Y-65381782D01*
X168223242Y-65583869D01*
X168223242Y-65583872D01*
X168190000Y-65793753D01*
X168190000Y-66006246D01*
X168223242Y-66216127D01*
X168223242Y-66216130D01*
X168288904Y-66418217D01*
X168385375Y-66607550D01*
X168424728Y-66661716D01*
X169057037Y-66029408D01*
X169074075Y-66092993D01*
X169139901Y-66207007D01*
X169232993Y-66300099D01*
X169347007Y-66365925D01*
X169410588Y-66382962D01*
X168778282Y-67015269D01*
X168778282Y-67015270D01*
X168832449Y-67054624D01*
X169021780Y-67151094D01*
X169050705Y-67160492D01*
X169108381Y-67199929D01*
X169135580Y-67264287D01*
X169123667Y-67333134D01*
X169076424Y-67384610D01*
X169068685Y-67388908D01*
X168937004Y-67456004D01*
X168790505Y-67562441D01*
X168790500Y-67562445D01*
X168662445Y-67690500D01*
X168662441Y-67690505D01*
X168556006Y-67837002D01*
X168473788Y-67998360D01*
X168473787Y-67998363D01*
X168417829Y-68170589D01*
X168389500Y-68349448D01*
X168389500Y-68530551D01*
X168417829Y-68709410D01*
X168473787Y-68881636D01*
X168473788Y-68881639D01*
X168556006Y-69042997D01*
X168662441Y-69189494D01*
X168662445Y-69189499D01*
X168790500Y-69317554D01*
X168790505Y-69317558D01*
X168913497Y-69406916D01*
X168937006Y-69423996D01*
X169042484Y-69477740D01*
X169098360Y-69506211D01*
X169098363Y-69506212D01*
X169184476Y-69534191D01*
X169270591Y-69562171D01*
X169343639Y-69573740D01*
X169430678Y-69587527D01*
X169493813Y-69617456D01*
X169530744Y-69676768D01*
X169529746Y-69746631D01*
X169491136Y-69804863D01*
X169430678Y-69832473D01*
X169270589Y-69857829D01*
X169098363Y-69913787D01*
X169098360Y-69913788D01*
X168937002Y-69996006D01*
X168790505Y-70102441D01*
X168790500Y-70102445D01*
X168662445Y-70230500D01*
X168662441Y-70230505D01*
X168556004Y-70377004D01*
X168524249Y-70439327D01*
X168476275Y-70490122D01*
X168408454Y-70506917D01*
X168342319Y-70484379D01*
X168298868Y-70429664D01*
X168289765Y-70383031D01*
X168289765Y-70360210D01*
X168289765Y-70360208D01*
X168248842Y-70207481D01*
X168188942Y-70103730D01*
X168169789Y-70070555D01*
X168169783Y-70070547D01*
X168057982Y-69958746D01*
X168057974Y-69958740D01*
X167921055Y-69879691D01*
X167921051Y-69879689D01*
X167921049Y-69879688D01*
X167921047Y-69879687D01*
X167921046Y-69879687D01*
X167892404Y-69872012D01*
X167832744Y-69835646D01*
X167802216Y-69772799D01*
X167800500Y-69752238D01*
X167800500Y-61847255D01*
X167820185Y-61780216D01*
X167836819Y-61759574D01*
X168026918Y-61569475D01*
X168306178Y-61290214D01*
X168367499Y-61256731D01*
X168437190Y-61261715D01*
G37*
%TD.AperFunction*%
%TA.AperFunction,Conductor*%
G36*
X168439438Y-56264856D02*
G01*
X168467544Y-56263652D01*
X168473820Y-56267315D01*
X168481071Y-56267834D01*
X168503591Y-56284693D01*
X168527886Y-56298874D01*
X168533865Y-56307356D01*
X168537004Y-56309706D01*
X168548221Y-56327720D01*
X168556004Y-56342995D01*
X168662441Y-56489494D01*
X168662445Y-56489499D01*
X168790500Y-56617554D01*
X168790505Y-56617558D01*
X168853199Y-56663107D01*
X168937006Y-56723996D01*
X169042484Y-56777740D01*
X169098360Y-56806211D01*
X169098363Y-56806212D01*
X169184476Y-56834191D01*
X169270591Y-56862171D01*
X169343639Y-56873740D01*
X169430678Y-56887527D01*
X169493813Y-56917456D01*
X169530744Y-56976768D01*
X169529746Y-57046631D01*
X169491136Y-57104863D01*
X169430678Y-57132473D01*
X169270589Y-57157829D01*
X169098363Y-57213787D01*
X169098360Y-57213788D01*
X168937002Y-57296006D01*
X168790505Y-57402441D01*
X168790500Y-57402445D01*
X168662445Y-57530500D01*
X168662441Y-57530505D01*
X168556006Y-57677002D01*
X168473788Y-57838360D01*
X168473787Y-57838363D01*
X168417829Y-58010589D01*
X168389500Y-58189448D01*
X168389500Y-58370551D01*
X168417829Y-58549410D01*
X168473787Y-58721636D01*
X168473788Y-58721639D01*
X168556006Y-58882997D01*
X168662441Y-59029494D01*
X168662445Y-59029499D01*
X168790500Y-59157554D01*
X168790505Y-59157558D01*
X168918287Y-59250396D01*
X168937006Y-59263996D01*
X169042484Y-59317740D01*
X169098360Y-59346211D01*
X169098363Y-59346212D01*
X169184476Y-59374191D01*
X169270591Y-59402171D01*
X169343639Y-59413740D01*
X169430678Y-59427527D01*
X169493813Y-59457456D01*
X169530744Y-59516768D01*
X169529746Y-59586631D01*
X169491136Y-59644863D01*
X169430678Y-59672473D01*
X169270589Y-59697829D01*
X169098363Y-59753787D01*
X169098360Y-59753788D01*
X168937002Y-59836006D01*
X168790505Y-59942441D01*
X168790500Y-59942445D01*
X168662445Y-60070500D01*
X168662441Y-60070505D01*
X168556006Y-60217002D01*
X168487325Y-60351795D01*
X168439350Y-60402591D01*
X168376840Y-60419500D01*
X168157273Y-60419500D01*
X168055410Y-60446793D01*
X167964087Y-60499520D01*
X167964084Y-60499522D01*
X167332181Y-61131426D01*
X167270858Y-61164911D01*
X167201166Y-61159927D01*
X167145233Y-61118055D01*
X167120816Y-61052591D01*
X167120500Y-61043745D01*
X167120500Y-57577254D01*
X167140185Y-57510215D01*
X167156814Y-57489578D01*
X168350058Y-56296333D01*
X168374742Y-56282855D01*
X168397738Y-56266644D01*
X168405000Y-56266332D01*
X168411379Y-56262850D01*
X168439438Y-56264856D01*
G37*
%TD.AperFunction*%
%TA.AperFunction,Conductor*%
G36*
X168391442Y-51064787D02*
G01*
X168406647Y-51064136D01*
X168424285Y-51074431D01*
X168443879Y-51080185D01*
X168454775Y-51092229D01*
X168466989Y-51099358D01*
X168487325Y-51128205D01*
X168493427Y-51140180D01*
X168536855Y-51225413D01*
X168556006Y-51262997D01*
X168662441Y-51409494D01*
X168662445Y-51409499D01*
X168790500Y-51537554D01*
X168790505Y-51537558D01*
X168914801Y-51627863D01*
X168937006Y-51643996D01*
X169038780Y-51695853D01*
X169068684Y-51711090D01*
X169119480Y-51759065D01*
X169136275Y-51826886D01*
X169113737Y-51893021D01*
X169059022Y-51936472D01*
X169050708Y-51939506D01*
X169021781Y-51948905D01*
X168832439Y-52045380D01*
X168778282Y-52084727D01*
X168778282Y-52084728D01*
X169410591Y-52717037D01*
X169347007Y-52734075D01*
X169232993Y-52799901D01*
X169139901Y-52892993D01*
X169074075Y-53007007D01*
X169057037Y-53070591D01*
X168424728Y-52438282D01*
X168424727Y-52438282D01*
X168385380Y-52492439D01*
X168288904Y-52681782D01*
X168223242Y-52883869D01*
X168223242Y-52883872D01*
X168190000Y-53093753D01*
X168190000Y-53306246D01*
X168223242Y-53516127D01*
X168223242Y-53516130D01*
X168288904Y-53718217D01*
X168385375Y-53907550D01*
X168424728Y-53961716D01*
X169057037Y-53329408D01*
X169074075Y-53392993D01*
X169139901Y-53507007D01*
X169232993Y-53600099D01*
X169347007Y-53665925D01*
X169410588Y-53682962D01*
X168778282Y-54315269D01*
X168778282Y-54315270D01*
X168832449Y-54354624D01*
X169021780Y-54451094D01*
X169050705Y-54460492D01*
X169108381Y-54499929D01*
X169135580Y-54564287D01*
X169123667Y-54633134D01*
X169076424Y-54684610D01*
X169068685Y-54688908D01*
X168937004Y-54756004D01*
X168790505Y-54862441D01*
X168790500Y-54862445D01*
X168662445Y-54990500D01*
X168662441Y-54990505D01*
X168556006Y-55137002D01*
X168487325Y-55271795D01*
X168439350Y-55322591D01*
X168376840Y-55339500D01*
X168287273Y-55339500D01*
X168185410Y-55366793D01*
X168094087Y-55419520D01*
X168094084Y-55419522D01*
X166632181Y-56881426D01*
X166570858Y-56914911D01*
X166501166Y-56909927D01*
X166445233Y-56868055D01*
X166420816Y-56802591D01*
X166420500Y-56793745D01*
X166420500Y-54397255D01*
X166440185Y-54330216D01*
X166456819Y-54309574D01*
X167098128Y-53668265D01*
X167740480Y-53025913D01*
X167793207Y-52934588D01*
X167820500Y-52832727D01*
X167820500Y-52727273D01*
X167820500Y-51917273D01*
X167814725Y-51895719D01*
X167810500Y-51863627D01*
X167810500Y-51597254D01*
X167830185Y-51530215D01*
X167846819Y-51509573D01*
X168259573Y-51096819D01*
X168320896Y-51063334D01*
X168347254Y-51060500D01*
X168376840Y-51060500D01*
X168391442Y-51064787D01*
G37*
%TD.AperFunction*%
%TA.AperFunction,Conductor*%
G36*
X153238574Y-52717839D02*
G01*
X153277985Y-52744377D01*
X153953181Y-53419573D01*
X153986666Y-53480896D01*
X153989500Y-53507254D01*
X153989500Y-56363745D01*
X153969815Y-56430784D01*
X153917011Y-56476539D01*
X153847853Y-56486483D01*
X153784297Y-56457458D01*
X153777819Y-56451426D01*
X152926691Y-55600298D01*
X152893206Y-55538975D01*
X152891905Y-55532055D01*
X152882171Y-55470591D01*
X152848446Y-55366793D01*
X152826212Y-55298363D01*
X152826211Y-55298360D01*
X152771478Y-55190943D01*
X152743996Y-55137006D01*
X152730396Y-55118287D01*
X152637558Y-54990505D01*
X152637554Y-54990500D01*
X152509499Y-54862445D01*
X152509494Y-54862441D01*
X152362995Y-54756004D01*
X152231314Y-54688908D01*
X152180519Y-54640934D01*
X152163724Y-54573113D01*
X152186262Y-54506978D01*
X152240977Y-54463527D01*
X152249295Y-54460492D01*
X152278217Y-54451095D01*
X152467554Y-54354622D01*
X152521716Y-54315270D01*
X152521717Y-54315270D01*
X151889409Y-53682962D01*
X151952993Y-53665925D01*
X152067007Y-53600099D01*
X152160099Y-53507007D01*
X152225925Y-53392993D01*
X152242962Y-53329409D01*
X152875270Y-53961717D01*
X152875270Y-53961716D01*
X152914622Y-53907554D01*
X153011095Y-53718217D01*
X153076757Y-53516130D01*
X153076757Y-53516127D01*
X153110000Y-53306246D01*
X153110000Y-53093753D01*
X153076757Y-52883872D01*
X153076756Y-52883865D01*
X153072373Y-52870375D01*
X153070378Y-52800534D01*
X153106459Y-52740702D01*
X153169160Y-52709874D01*
X153238574Y-52717839D01*
G37*
%TD.AperFunction*%
%TD*%
M02*
