M48
; DRILL file {KiCad 9.0.8} date 2026-08-21T19:34:30-0500
; FORMAT={-:-/ absolute / metric / decimal}
; #@! TF.CreationDate,2026-08-21T19:34:30-05:00
; #@! TF.GenerationSoftware,Kicad,Pcbnew,9.0.8
; #@! TF.FileFunction,Plated,1,2,PTH
FMAT,2
METRIC
; #@! TA.AperFunction,Plated,PTH,ViaDrill
T1C0.300
; #@! TA.AperFunction,Plated,PTH,ComponentDrill
T2C0.600
; #@! TA.AperFunction,Plated,PTH,ComponentDrill
T3C1.000
%
G90
G05
T1
X152.84Y-54.58
X153.05Y-89.85
X153.39Y-59.63
X153.53Y-82.02
X153.53Y-85.82
X154.01Y-50.33
X154.22Y-76.26
X154.63Y-74.32
X154.72Y-79.83
X154.91Y-78.38
X154.99Y-67.36
X155.0Y-66.25
X155.058Y-75.828
X155.391Y-74.05
X156.48Y-72.62
X156.83Y-86.59
X157.24Y-83.13
X157.37Y-72.88
X157.666Y-70.9
X158.2Y-66.04
X158.496Y-54.714
X158.819Y-78.35
X158.98Y-81.82
X159.32Y-56.18
X160.87Y-86.63
X161.05Y-71.864
X161.75Y-67.2
X162.31Y-91.92
X162.43Y-63.47
X162.51Y-75.23
X162.73Y-86.81
X163.07Y-85.67
X163.136Y-78.754
X163.151Y-77.954
X163.27Y-74.056
X163.59Y-84.62
X164.479Y-86.471
X164.57Y-62.05
X164.59Y-70.02
X164.77Y-55.27
X165.02Y-83.35
X165.16Y-66.42
X165.188Y-80.362
X165.28Y-87.14
X165.33Y-91.4
X165.38Y-70.49
X166.08Y-82.003
X166.22Y-88.94
X166.68Y-78.46
X166.83Y-48.2
X166.985Y-76.25
X167.34Y-54.5
X167.47Y-59.31
X167.689Y-70.439
X168.02Y-72.28
X168.3Y-89.97
X168.31Y-62.3
X168.4Y-67.28
T3
X151.76Y-48.12
X151.76Y-50.66
X151.76Y-53.2
X151.76Y-55.74
X151.76Y-58.28
X151.76Y-60.82
X151.76Y-63.36
X151.76Y-65.9
X151.76Y-68.44
X151.76Y-70.98
X151.76Y-73.52
X151.76Y-76.06
X151.76Y-78.6
X151.76Y-81.14
X151.76Y-83.68
X151.76Y-86.22
X151.76Y-88.76
X151.76Y-91.3
X151.76Y-93.84
X151.76Y-96.38
X155.3Y-93.84
X155.3Y-96.38
X158.11Y-90.304
X160.65Y-90.304
X163.19Y-90.304
X166.0Y-93.838
X166.0Y-96.378
X169.54Y-48.12
X169.54Y-50.66
X169.54Y-53.2
X169.54Y-55.74
X169.54Y-58.28
X169.54Y-60.82
X169.54Y-63.36
X169.54Y-65.9
X169.54Y-68.44
X169.54Y-70.98
X169.54Y-73.52
X169.54Y-76.06
X169.54Y-78.6
X169.54Y-81.14
X169.54Y-83.68
X169.54Y-86.22
X169.54Y-88.76
X169.54Y-91.3
X169.54Y-93.84
X169.54Y-96.38
T2
X156.33Y-48.5G85X156.33Y-47.9
G05
X156.33Y-52.93G85X156.33Y-51.83
G05
X164.97Y-48.5G85X164.97Y-47.9
G05
X164.97Y-52.93G85X164.97Y-51.83
G05
M30
