%TF.GenerationSoftware,KiCad,Pcbnew,9.0.8*%
%TF.CreationDate,2026-08-21T19:12:29-05:00*%
%TF.ProjectId,Devboard,44657662-6f61-4726-942e-6b696361645f,rev?*%
%TF.SameCoordinates,Original*%
%TF.FileFunction,Copper,L1,Top*%
%TF.FilePolarity,Positive*%
%FSLAX46Y46*%
G04 Gerber Fmt 4.6, Leading zero omitted, Abs format (unit mm)*
G04 Created by KiCad (PCBNEW 9.0.8) date 2026-08-21 19:12:29*
%MOMM*%
%LPD*%
G01*
G04 APERTURE LIST*
G04 Aperture macros list*
%AMRoundRect*
0 Rectangle with rounded corners*
0 $1 Rounding radius*
0 $2 $3 $4 $5 $6 $7 $8 $9 X,Y pos of 4 corners*
0 Add a 4 corners polygon primitive as box body*
4,1,4,$2,$3,$4,$5,$6,$7,$8,$9,$2,$3,0*
0 Add four circle primitives for the rounded corners*
1,1,$1+$1,$2,$3*
1,1,$1+$1,$4,$5*
1,1,$1+$1,$6,$7*
1,1,$1+$1,$8,$9*
0 Add four rect primitives between the rounded corners*
20,1,$1+$1,$2,$3,$4,$5,0*
20,1,$1+$1,$4,$5,$6,$7,0*
20,1,$1+$1,$6,$7,$8,$9,0*
20,1,$1+$1,$8,$9,$2,$3,0*%
G04 Aperture macros list end*
%TA.AperFunction,SMDPad,CuDef*%
%ADD10RoundRect,0.375000X-0.375000X0.625000X-0.375000X-0.625000X0.375000X-0.625000X0.375000X0.625000X0*%
%TD*%
%TA.AperFunction,SMDPad,CuDef*%
%ADD11RoundRect,0.500000X-1.400000X0.500000X-1.400000X-0.500000X1.400000X-0.500000X1.400000X0.500000X0*%
%TD*%
%TA.AperFunction,SMDPad,CuDef*%
%ADD12RoundRect,0.140000X0.170000X-0.140000X0.170000X0.140000X-0.170000X0.140000X-0.170000X-0.140000X0*%
%TD*%
%TA.AperFunction,SMDPad,CuDef*%
%ADD13RoundRect,0.140000X-0.219203X-0.021213X-0.021213X-0.219203X0.219203X0.021213X0.021213X0.219203X0*%
%TD*%
%TA.AperFunction,SMDPad,CuDef*%
%ADD14RoundRect,0.140000X-0.170000X0.140000X-0.170000X-0.140000X0.170000X-0.140000X0.170000X0.140000X0*%
%TD*%
%TA.AperFunction,ComponentPad*%
%ADD15R,1.700000X1.700000*%
%TD*%
%TA.AperFunction,ComponentPad*%
%ADD16C,1.700000*%
%TD*%
%TA.AperFunction,SMDPad,CuDef*%
%ADD17RoundRect,0.135000X-0.185000X0.135000X-0.185000X-0.135000X0.185000X-0.135000X0.185000X0.135000X0*%
%TD*%
%TA.AperFunction,SMDPad,CuDef*%
%ADD18RoundRect,0.250000X0.450000X0.350000X-0.450000X0.350000X-0.450000X-0.350000X0.450000X-0.350000X0*%
%TD*%
%TA.AperFunction,SMDPad,CuDef*%
%ADD19RoundRect,0.200000X-0.800000X0.200000X-0.800000X-0.200000X0.800000X-0.200000X0.800000X0.200000X0*%
%TD*%
%TA.AperFunction,SMDPad,CuDef*%
%ADD20RoundRect,0.140000X-0.140000X-0.170000X0.140000X-0.170000X0.140000X0.170000X-0.140000X0.170000X0*%
%TD*%
%TA.AperFunction,SMDPad,CuDef*%
%ADD21RoundRect,0.225000X0.225000X0.250000X-0.225000X0.250000X-0.225000X-0.250000X0.225000X-0.250000X0*%
%TD*%
%TA.AperFunction,SMDPad,CuDef*%
%ADD22RoundRect,0.062500X-0.387500X-0.062500X0.387500X-0.062500X0.387500X0.062500X-0.387500X0.062500X0*%
%TD*%
%TA.AperFunction,HeatsinkPad*%
%ADD23R,0.200000X1.600000*%
%TD*%
%TA.AperFunction,SMDPad,CuDef*%
%ADD24R,0.600000X1.450000*%
%TD*%
%TA.AperFunction,SMDPad,CuDef*%
%ADD25R,0.300000X1.450000*%
%TD*%
%TA.AperFunction,HeatsinkPad*%
%ADD26O,1.000000X2.100000*%
%TD*%
%TA.AperFunction,HeatsinkPad*%
%ADD27O,1.000000X1.600000*%
%TD*%
%TA.AperFunction,SMDPad,CuDef*%
%ADD28RoundRect,0.050000X-0.387500X-0.050000X0.387500X-0.050000X0.387500X0.050000X-0.387500X0.050000X0*%
%TD*%
%TA.AperFunction,SMDPad,CuDef*%
%ADD29RoundRect,0.050000X-0.050000X-0.387500X0.050000X-0.387500X0.050000X0.387500X-0.050000X0.387500X0*%
%TD*%
%TA.AperFunction,HeatsinkPad*%
%ADD30R,3.200000X3.200000*%
%TD*%
%TA.AperFunction,SMDPad,CuDef*%
%ADD31RoundRect,0.135000X-0.135000X-0.185000X0.135000X-0.185000X0.135000X0.185000X-0.135000X0.185000X0*%
%TD*%
%TA.AperFunction,SMDPad,CuDef*%
%ADD32RoundRect,0.135000X0.135000X0.185000X-0.135000X0.185000X-0.135000X-0.185000X0.135000X-0.185000X0*%
%TD*%
%TA.AperFunction,SMDPad,CuDef*%
%ADD33RoundRect,0.140000X0.021213X-0.219203X0.219203X-0.021213X-0.021213X0.219203X-0.219203X0.021213X0*%
%TD*%
%TA.AperFunction,ViaPad*%
%ADD34C,0.600000*%
%TD*%
%TA.AperFunction,Conductor*%
%ADD35C,0.200000*%
%TD*%
G04 APERTURE END LIST*
D10*
%TO.P,U2,1,GND*%
%TO.N,GND*%
X160560000Y-57940000D03*
%TO.P,U2,2,VO*%
%TO.N,+3V3*%
X158260000Y-57940000D03*
D11*
X158260000Y-64240000D03*
D10*
%TO.P,U2,3,VI*%
%TO.N,VBUS*%
X155960000Y-57940000D03*
%TD*%
D12*
%TO.P,C17,1*%
%TO.N,+3V3*%
X159990000Y-68420000D03*
%TO.P,C17,2*%
%TO.N,GND*%
X159990000Y-67460000D03*
%TD*%
D13*
%TO.P,C11,1*%
%TO.N,+1V1*%
X163700000Y-81900000D03*
%TO.P,C11,2*%
%TO.N,GND*%
X164378822Y-82578822D03*
%TD*%
D12*
%TO.P,C6,1*%
%TO.N,+3V3*%
X162410000Y-65930000D03*
%TO.P,C6,2*%
%TO.N,GND*%
X162410000Y-64970000D03*
%TD*%
D14*
%TO.P,C7,1*%
%TO.N,+3V3*%
X154050000Y-77970000D03*
%TO.P,C7,2*%
%TO.N,GND*%
X154050000Y-78930000D03*
%TD*%
D15*
%TO.P,J3,1,Pin_1*%
%TO.N,VBUS*%
X169540000Y-48120000D03*
D16*
%TO.P,J3,2,Pin_2*%
%TO.N,GPIO23*%
X169540000Y-50660000D03*
%TO.P,J3,3,Pin_3*%
%TO.N,GND*%
X169540000Y-53200000D03*
%TO.P,J3,4,Pin_4*%
%TO.N,GPIO24*%
X169540000Y-55740000D03*
%TO.P,J3,5,Pin_5*%
%TO.N,+3V3*%
X169540000Y-58280000D03*
%TO.P,J3,6,Pin_6*%
%TO.N,GPIO25*%
X169540000Y-60820000D03*
%TO.P,J3,7,Pin_7*%
%TO.N,GPIO28_ADC2*%
X169540000Y-63360000D03*
%TO.P,J3,8,Pin_8*%
%TO.N,GND*%
X169540000Y-65900000D03*
%TO.P,J3,9,Pin_9*%
%TO.N,GPIO27_ADC1*%
X169540000Y-68440000D03*
%TO.P,J3,10,Pin_10*%
%TO.N,GPIO26_ADC0*%
X169540000Y-70980000D03*
%TO.P,J3,11,Pin_11*%
%TO.N,RUN*%
X169540000Y-73520000D03*
%TO.P,J3,12,Pin_12*%
%TO.N,GPIO22*%
X169540000Y-76060000D03*
%TO.P,J3,13,Pin_13*%
%TO.N,GND*%
X169540000Y-78600000D03*
%TO.P,J3,14,Pin_14*%
%TO.N,GPIO21*%
X169540000Y-81140000D03*
%TO.P,J3,15,Pin_15*%
%TO.N,GPIO20*%
X169540000Y-83680000D03*
%TO.P,J3,16,Pin_16*%
%TO.N,GPIO19*%
X169540000Y-86220000D03*
%TO.P,J3,17,Pin_17*%
%TO.N,GPIO18*%
X169540000Y-88760000D03*
%TO.P,J3,18,Pin_18*%
%TO.N,GND*%
X169540000Y-91300000D03*
%TO.P,J3,19,Pin_19*%
%TO.N,GPIO17*%
X169540000Y-93840000D03*
%TO.P,J3,20,Pin_20*%
%TO.N,GPIO16*%
X169540000Y-96380000D03*
%TD*%
D17*
%TO.P,R2,1*%
%TO.N,Net-(J1-CC2)*%
X160250000Y-55120000D03*
%TO.P,R2,2*%
%TO.N,GND*%
X160250000Y-56140000D03*
%TD*%
D18*
%TO.P,Y1,1,1*%
%TO.N,Net-(C15-Pad2)*%
X160910000Y-83350000D03*
%TO.P,Y1,2,G*%
%TO.N,GND*%
X158710000Y-83350000D03*
%TO.P,Y1,3,3*%
%TO.N,XIN*%
X158710000Y-85050000D03*
%TO.P,Y1,4,G*%
%TO.N,GND*%
X160910000Y-85050000D03*
%TD*%
D12*
%TO.P,C4,1*%
%TO.N,+3V3*%
X163430000Y-65160000D03*
%TO.P,C4,2*%
%TO.N,GND*%
X163430000Y-64200000D03*
%TD*%
%TO.P,C1,1*%
%TO.N,+3V3*%
X164990000Y-69280000D03*
%TO.P,C1,2*%
%TO.N,GND*%
X164990000Y-68320000D03*
%TD*%
D17*
%TO.P,R6,1*%
%TO.N,Net-(R6-Pad1)*%
X156000000Y-66250000D03*
%TO.P,R6,2*%
%TO.N,QSPI_SS*%
X156000000Y-67270000D03*
%TD*%
%TO.P,R4,1*%
%TO.N,USB_D+*%
X161380000Y-70090000D03*
%TO.P,R4,2*%
%TO.N,/USB(v2)_D+*%
X161380000Y-71110000D03*
%TD*%
D19*
%TO.P,SW1,1,1*%
%TO.N,GND*%
X164950000Y-56590000D03*
%TO.P,SW1,2,2*%
%TO.N,Net-(R6-Pad1)*%
X164950000Y-60790000D03*
%TD*%
D20*
%TO.P,C8,1*%
%TO.N,+3V3*%
X166240000Y-77660000D03*
%TO.P,C8,2*%
%TO.N,GND*%
X167200000Y-77660000D03*
%TD*%
D12*
%TO.P,C12,1*%
%TO.N,+1V1*%
X160980000Y-68900000D03*
%TO.P,C12,2*%
%TO.N,GND*%
X160980000Y-67940000D03*
%TD*%
D21*
%TO.P,C13,1*%
%TO.N,+3V3*%
X161115000Y-66280000D03*
%TO.P,C13,2*%
%TO.N,GND*%
X159565000Y-66280000D03*
%TD*%
D22*
%TO.P,U3,1,~{CS}*%
%TO.N,QSPI_SS*%
X155850000Y-68370000D03*
%TO.P,U3,2,DO/IO_{1}*%
%TO.N,QSPI_SD1*%
X155850000Y-68870000D03*
%TO.P,U3,3,~{WP}/IO_{2}*%
%TO.N,QSPI_SD2*%
X155850000Y-69370000D03*
%TO.P,U3,4,GND*%
%TO.N,GND*%
X155850000Y-69870000D03*
%TO.P,U3,5,DI/IO_{0}*%
%TO.N,QSPI_SD0*%
X158700000Y-69870000D03*
%TO.P,U3,6,CLK*%
%TO.N,QSPI_SCLK*%
X158700000Y-69370000D03*
%TO.P,U3,7,~{HOLD}/~{RESET}/IO_{3}*%
%TO.N,QSPI_SD3*%
X158700000Y-68870000D03*
%TO.P,U3,8,VCC*%
%TO.N,+3V3*%
X158700000Y-68370000D03*
D23*
%TO.P,U3,9*%
%TO.N,N/C*%
X157275000Y-69120000D03*
%TD*%
D24*
%TO.P,J1,A1,GND*%
%TO.N,GND*%
X163900000Y-53295000D03*
%TO.P,J1,A4,VBUS*%
%TO.N,VBUS*%
X163100000Y-53295000D03*
D25*
%TO.P,J1,A5,CC1*%
%TO.N,Net-(J1-CC1)*%
X161900000Y-53295000D03*
%TO.P,J1,A6,D+*%
%TO.N,USB_D+*%
X160900000Y-53295000D03*
%TO.P,J1,A7,D-*%
%TO.N,USB_D-*%
X160400000Y-53295000D03*
%TO.P,J1,A8*%
%TO.N,N/C*%
X159400000Y-53295000D03*
D24*
%TO.P,J1,A9,VBUS*%
%TO.N,VBUS*%
X158200000Y-53295000D03*
%TO.P,J1,A12,GND*%
%TO.N,GND*%
X157400000Y-53295000D03*
%TO.P,J1,B1,GND*%
X157400000Y-53295000D03*
%TO.P,J1,B4,VBUS*%
%TO.N,VBUS*%
X158200000Y-53295000D03*
D25*
%TO.P,J1,B5,CC2*%
%TO.N,Net-(J1-CC2)*%
X158900000Y-53295000D03*
%TO.P,J1,B6,D+*%
%TO.N,USB_D+*%
X159900000Y-53295000D03*
%TO.P,J1,B7,D-*%
%TO.N,USB_D-*%
X161400000Y-53295000D03*
%TO.P,J1,B8*%
%TO.N,N/C*%
X162400000Y-53295000D03*
D24*
%TO.P,J1,B9,VBUS*%
%TO.N,VBUS*%
X163100000Y-53295000D03*
%TO.P,J1,B12,GND*%
%TO.N,GND*%
X163900000Y-53295000D03*
D26*
%TO.P,J1,S1,SHIELD*%
X164970000Y-52380000D03*
D27*
X164970000Y-48200000D03*
D26*
X156330000Y-52380000D03*
D27*
X156330000Y-48200000D03*
%TD*%
D12*
%TO.P,C2,1*%
%TO.N,+3V3*%
X155070000Y-72800000D03*
%TO.P,C2,2*%
%TO.N,GND*%
X155070000Y-71840000D03*
%TD*%
D28*
%TO.P,U1,1,IOVDD*%
%TO.N,+3V3*%
X157212500Y-73650000D03*
%TO.P,U1,2,GPIO0*%
%TO.N,GPIO0*%
X157212500Y-74050000D03*
%TO.P,U1,3,GPIO1*%
%TO.N,GPIO1*%
X157212500Y-74450000D03*
%TO.P,U1,4,GPIO2*%
%TO.N,GPIO2*%
X157212500Y-74850000D03*
%TO.P,U1,5,GPIO3*%
%TO.N,GPIO3*%
X157212500Y-75250000D03*
%TO.P,U1,6,GPIO4*%
%TO.N,GPIO4*%
X157212500Y-75650000D03*
%TO.P,U1,7,GPIO5*%
%TO.N,GPIO5*%
X157212500Y-76050000D03*
%TO.P,U1,8,GPIO6*%
%TO.N,GPIO6*%
X157212500Y-76450000D03*
%TO.P,U1,9,GPIO7*%
%TO.N,GPIO7*%
X157212500Y-76850000D03*
%TO.P,U1,10,IOVDD*%
%TO.N,+3V3*%
X157212500Y-77250000D03*
%TO.P,U1,11,GPIO8*%
%TO.N,GPIO8*%
X157212500Y-77650000D03*
%TO.P,U1,12,GPIO9*%
%TO.N,GPIO9*%
X157212500Y-78050000D03*
%TO.P,U1,13,GPIO10*%
%TO.N,GPIO10*%
X157212500Y-78450000D03*
%TO.P,U1,14,GPIO11*%
%TO.N,GPIO11*%
X157212500Y-78850000D03*
D29*
%TO.P,U1,15,GPIO12*%
%TO.N,GPIO12*%
X158050000Y-79687500D03*
%TO.P,U1,16,GPIO13*%
%TO.N,GPIO13*%
X158450000Y-79687500D03*
%TO.P,U1,17,GPIO14*%
%TO.N,GPIO14*%
X158850000Y-79687500D03*
%TO.P,U1,18,GPIO15*%
%TO.N,GPIO15*%
X159250000Y-79687500D03*
%TO.P,U1,19,TESTEN*%
%TO.N,GND*%
X159650000Y-79687500D03*
%TO.P,U1,20,XIN*%
%TO.N,XIN*%
X160050000Y-79687500D03*
%TO.P,U1,21,XOUT*%
%TO.N,XOUT*%
X160450000Y-79687500D03*
%TO.P,U1,22,IOVDD*%
%TO.N,+3V3*%
X160850000Y-79687500D03*
%TO.P,U1,23,DVDD*%
%TO.N,+1V1*%
X161250000Y-79687500D03*
%TO.P,U1,24,SWCLK*%
%TO.N,SWCLK*%
X161650000Y-79687500D03*
%TO.P,U1,25,SWDIO*%
%TO.N,SWD*%
X162050000Y-79687500D03*
%TO.P,U1,26,RUN*%
%TO.N,RUN*%
X162450000Y-79687500D03*
%TO.P,U1,27,GPIO16*%
%TO.N,GPIO16*%
X162850000Y-79687500D03*
%TO.P,U1,28,GPIO17*%
%TO.N,GPIO17*%
X163250000Y-79687500D03*
D28*
%TO.P,U1,29,GPIO18*%
%TO.N,GPIO18*%
X164087500Y-78850000D03*
%TO.P,U1,30,GPIO19*%
%TO.N,GPIO19*%
X164087500Y-78450000D03*
%TO.P,U1,31,GPIO20*%
%TO.N,GPIO20*%
X164087500Y-78050000D03*
%TO.P,U1,32,GPIO21*%
%TO.N,GPIO21*%
X164087500Y-77650000D03*
%TO.P,U1,33,IOVDD*%
%TO.N,+3V3*%
X164087500Y-77250000D03*
%TO.P,U1,34,GPIO22*%
%TO.N,GPIO22*%
X164087500Y-76850000D03*
%TO.P,U1,35,GPIO23*%
%TO.N,GPIO23*%
X164087500Y-76450000D03*
%TO.P,U1,36,GPIO24*%
%TO.N,GPIO24*%
X164087500Y-76050000D03*
%TO.P,U1,37,GPIO25*%
%TO.N,GPIO25*%
X164087500Y-75650000D03*
%TO.P,U1,38,GPIO26/ADC0*%
%TO.N,GPIO26_ADC0*%
X164087500Y-75250000D03*
%TO.P,U1,39,GPIO27/ADC1*%
%TO.N,GPIO27_ADC1*%
X164087500Y-74850000D03*
%TO.P,U1,40,GPIO28/ADC2*%
%TO.N,GPIO28_ADC2*%
X164087500Y-74450000D03*
%TO.P,U1,41,GPIO29/ADC3*%
%TO.N,GPIO29_ADC3*%
X164087500Y-74050000D03*
%TO.P,U1,42,IOVDD*%
%TO.N,+3V3*%
X164087500Y-73650000D03*
D29*
%TO.P,U1,43,ADC_AVDD*%
X163250000Y-72812500D03*
%TO.P,U1,44,VREG_VIN*%
X162850000Y-72812500D03*
%TO.P,U1,45,VREG_VOUT*%
%TO.N,+1V1*%
X162450000Y-72812500D03*
%TO.P,U1,46,USB_DM*%
%TO.N,/USB(v2)_D-*%
X162050000Y-72812500D03*
%TO.P,U1,47,USB_DP*%
%TO.N,/USB(v2)_D+*%
X161650000Y-72812500D03*
%TO.P,U1,48,USB_VDD*%
%TO.N,+3V3*%
X161250000Y-72812500D03*
%TO.P,U1,49,IOVDD*%
X160850000Y-72812500D03*
%TO.P,U1,50,DVDD*%
%TO.N,+1V1*%
X160450000Y-72812500D03*
%TO.P,U1,51,QSPI_SD3*%
%TO.N,QSPI_SD3*%
X160050000Y-72812500D03*
%TO.P,U1,52,QSPI_SCLK*%
%TO.N,QSPI_SCLK*%
X159650000Y-72812500D03*
%TO.P,U1,53,QSPI_SD0*%
%TO.N,QSPI_SD0*%
X159250000Y-72812500D03*
%TO.P,U1,54,QSPI_SD2*%
%TO.N,QSPI_SD2*%
X158850000Y-72812500D03*
%TO.P,U1,55,QSPI_SD1*%
%TO.N,QSPI_SD1*%
X158450000Y-72812500D03*
%TO.P,U1,56,~{QSPI_SS}*%
%TO.N,QSPI_SS*%
X158050000Y-72812500D03*
D30*
%TO.P,U1,57,GND*%
%TO.N,GND*%
X160650000Y-76250000D03*
%TD*%
D14*
%TO.P,C9,1*%
%TO.N,+3V3*%
X162527954Y-81849746D03*
%TO.P,C9,2*%
%TO.N,GND*%
X162527954Y-82809746D03*
%TD*%
D31*
%TO.P,R1,1*%
%TO.N,Net-(J1-CC1)*%
X162060000Y-55170000D03*
%TO.P,R1,2*%
%TO.N,GND*%
X163080000Y-55170000D03*
%TD*%
D32*
%TO.P,R5,1*%
%TO.N,Net-(C15-Pad2)*%
X161467954Y-81899746D03*
%TO.P,R5,2*%
%TO.N,XOUT*%
X160447954Y-81899746D03*
%TD*%
D14*
%TO.P,C16,1*%
%TO.N,GND*%
X157160000Y-84050000D03*
%TO.P,C16,2*%
%TO.N,XIN*%
X157160000Y-85010000D03*
%TD*%
D17*
%TO.P,R3,1*%
%TO.N,USB_D-*%
X162320000Y-70090000D03*
%TO.P,R3,2*%
%TO.N,/USB(v2)_D-*%
X162320000Y-71110000D03*
%TD*%
D15*
%TO.P,J4,1,Pin_1*%
%TO.N,SWCLK*%
X158110000Y-90303956D03*
D16*
%TO.P,J4,2,Pin_2*%
%TO.N,GND*%
X160650000Y-90303956D03*
%TO.P,J4,3,Pin_3*%
%TO.N,SWD*%
X163190000Y-90303956D03*
%TD*%
D12*
%TO.P,C3,1*%
%TO.N,+3V3*%
X163770000Y-70930000D03*
%TO.P,C3,2*%
%TO.N,GND*%
X163770000Y-69970000D03*
%TD*%
D21*
%TO.P,C14,1*%
%TO.N,VBUS*%
X157680000Y-55490000D03*
%TO.P,C14,2*%
%TO.N,GND*%
X156130000Y-55490000D03*
%TD*%
D15*
%TO.P,J5,1,Pin_1*%
%TO.N,+3V3*%
X155300000Y-93840000D03*
D16*
%TO.P,J5,2,Pin_2*%
%TO.N,GPIO29_ADC3*%
X155300000Y-96380000D03*
%TD*%
D32*
%TO.P,R7,1*%
%TO.N,+3V3*%
X158160000Y-67300000D03*
%TO.P,R7,2*%
%TO.N,QSPI_SS*%
X157140000Y-67300000D03*
%TD*%
D33*
%TO.P,C10,1*%
%TO.N,+1V1*%
X163680589Y-68069411D03*
%TO.P,C10,2*%
%TO.N,GND*%
X164359411Y-67390589D03*
%TD*%
D15*
%TO.P,J2,1,Pin_1*%
%TO.N,GPIO0*%
X151760000Y-48120000D03*
D16*
%TO.P,J2,2,Pin_2*%
%TO.N,GPIO1*%
X151760000Y-50660000D03*
%TO.P,J2,3,Pin_3*%
%TO.N,GND*%
X151760000Y-53200000D03*
%TO.P,J2,4,Pin_4*%
%TO.N,GPIO2*%
X151760000Y-55740000D03*
%TO.P,J2,5,Pin_5*%
%TO.N,GPIO3*%
X151760000Y-58280000D03*
%TO.P,J2,6,Pin_6*%
%TO.N,GPIO4*%
X151760000Y-60820000D03*
%TO.P,J2,7,Pin_7*%
%TO.N,GPIO5*%
X151760000Y-63360000D03*
%TO.P,J2,8,Pin_8*%
%TO.N,GND*%
X151760000Y-65900000D03*
%TO.P,J2,9,Pin_9*%
%TO.N,GPIO6*%
X151760000Y-68440000D03*
%TO.P,J2,10,Pin_10*%
%TO.N,GPIO7*%
X151760000Y-70980000D03*
%TO.P,J2,11,Pin_11*%
%TO.N,GPIO8*%
X151760000Y-73520000D03*
%TO.P,J2,12,Pin_12*%
%TO.N,GPIO9*%
X151760000Y-76060000D03*
%TO.P,J2,13,Pin_13*%
%TO.N,GND*%
X151760000Y-78600000D03*
%TO.P,J2,14,Pin_14*%
%TO.N,GPIO10*%
X151760000Y-81140000D03*
%TO.P,J2,15,Pin_15*%
%TO.N,GPIO11*%
X151760000Y-83680000D03*
%TO.P,J2,16,Pin_16*%
%TO.N,GPIO12*%
X151760000Y-86220000D03*
%TO.P,J2,17,Pin_17*%
%TO.N,GPIO13*%
X151760000Y-88760000D03*
%TO.P,J2,18,Pin_18*%
%TO.N,GND*%
X151760000Y-91300000D03*
%TO.P,J2,19,Pin_19*%
%TO.N,GPIO14*%
X151760000Y-93840000D03*
%TO.P,J2,20,Pin_20*%
%TO.N,GPIO15*%
X151760000Y-96380000D03*
%TD*%
D12*
%TO.P,C15,1*%
%TO.N,GND*%
X162540000Y-84750000D03*
%TO.P,C15,2*%
%TO.N,Net-(C15-Pad2)*%
X162540000Y-83790000D03*
%TD*%
D15*
%TO.P,J6,1,Pin_1*%
%TO.N,VBUS*%
X166000000Y-93837974D03*
D16*
%TO.P,J6,2,Pin_2*%
%TO.N,+3V3*%
X166000000Y-96377974D03*
%TD*%
D12*
%TO.P,C5,1*%
%TO.N,+3V3*%
X164980000Y-72680000D03*
%TO.P,C5,2*%
%TO.N,GND*%
X164980000Y-71720000D03*
%TD*%
D34*
%TO.N,GND*%
X153050000Y-89850000D03*
X160870000Y-86630000D03*
X168310000Y-62300000D03*
X162310000Y-91920000D03*
X162430000Y-63470000D03*
X154010000Y-50330000D03*
X154910000Y-78380000D03*
X163590000Y-84620000D03*
X153530000Y-82020000D03*
X165160000Y-66420000D03*
X168400000Y-67280000D03*
X167470000Y-59310000D03*
X165380000Y-70490000D03*
X157240000Y-83130000D03*
X153530000Y-85820000D03*
X163070000Y-85670000D03*
X166830000Y-48200000D03*
X159320000Y-56180000D03*
X156480000Y-72620000D03*
X162510000Y-75230000D03*
X165020000Y-83350000D03*
X168300000Y-89970000D03*
X157666267Y-70900000D03*
X167340000Y-54500000D03*
X158200000Y-66040000D03*
X152840000Y-54580000D03*
X158980000Y-81820000D03*
%TO.N,+3V3*%
X157370000Y-72880000D03*
X165330000Y-91400000D03*
X161050000Y-71863598D03*
X161750000Y-67200000D03*
X166680292Y-78459706D03*
X158495735Y-54714265D03*
X165280000Y-87140000D03*
X164770000Y-55270000D03*
X164590000Y-70020000D03*
%TO.N,VBUS*%
X154990000Y-67360000D03*
X156830000Y-86590000D03*
X166220000Y-88940000D03*
X162730000Y-86810000D03*
%TO.N,GPIO3*%
X153390000Y-59630000D03*
%TO.N,GPIO8*%
X154720000Y-79830000D03*
%TO.N,GPIO1*%
X155391224Y-74050002D03*
%TO.N,GPIO4*%
X155057999Y-75827999D03*
%TO.N,GPIO5*%
X154220000Y-76260000D03*
%TO.N,GPIO2*%
X154629989Y-74320011D03*
%TO.N,RUN*%
X163135651Y-78753543D03*
%TO.N,SWCLK*%
X158818700Y-78350000D03*
%TO.N,SWD*%
X163151221Y-77953692D03*
%TO.N,GPIO29_ADC3*%
X163270000Y-74056054D03*
X164479265Y-86470735D03*
X166080292Y-82003410D03*
X165188235Y-80361765D03*
%TO.N,GPIO23*%
X166984873Y-76250000D03*
%TO.N,GPIO24*%
X168020000Y-72280000D03*
%TO.N,GPIO25*%
X167689265Y-70439265D03*
%TO.N,Net-(R6-Pad1)*%
X164570000Y-62050000D03*
X155000000Y-66250000D03*
%TD*%
D35*
%TO.N,GND*%
X158980000Y-81690000D02*
X158920000Y-81630000D01*
X152760000Y-59870000D02*
X152760000Y-59140000D01*
X158980000Y-81820000D02*
X158710000Y-82090000D01*
X164378822Y-82578822D02*
X164378822Y-82708822D01*
X156297207Y-72715735D02*
X155421472Y-71840000D01*
X162540000Y-84750000D02*
X162540000Y-85140000D01*
X163770000Y-69540000D02*
X164990000Y-68320000D01*
X156384265Y-72715735D02*
X156297207Y-72715735D01*
X151760000Y-65900000D02*
X152600000Y-66740000D01*
X164970000Y-48200000D02*
X166830000Y-48200000D01*
X156130000Y-54565000D02*
X157400000Y-53295000D01*
X160910000Y-85050000D02*
X160910000Y-86590000D01*
X162510000Y-75230000D02*
X161670000Y-75230000D01*
X157245000Y-53295000D02*
X156330000Y-52380000D01*
X164359411Y-67220589D02*
X164359411Y-67390589D01*
X160250000Y-56140000D02*
X159360000Y-56140000D01*
X160250000Y-56140000D02*
X160250000Y-57630000D01*
X163080000Y-55170000D02*
X163900000Y-54350000D01*
X154050000Y-78930000D02*
X154360000Y-78930000D01*
X153050000Y-89850000D02*
X153050000Y-90010000D01*
X159360000Y-56140000D02*
X159320000Y-56180000D01*
X154360000Y-78930000D02*
X154910000Y-78380000D01*
X156480000Y-72620000D02*
X156384265Y-72715735D01*
X153420000Y-50920000D02*
X154010000Y-50330000D01*
X158980000Y-81820000D02*
X158980000Y-81690000D01*
X163180000Y-64200000D02*
X162410000Y-64970000D01*
X163430000Y-64200000D02*
X163180000Y-64200000D01*
X163460000Y-84750000D02*
X163590000Y-84620000D01*
X157400000Y-53295000D02*
X157245000Y-53295000D01*
X164950000Y-56590000D02*
X163530000Y-55170000D01*
X160980000Y-67940000D02*
X160470000Y-67940000D01*
X159565000Y-66280000D02*
X159565000Y-67035000D01*
X160250000Y-57630000D02*
X160560000Y-57940000D01*
X160470000Y-67940000D02*
X159990000Y-67460000D01*
X160910000Y-85050000D02*
X162240000Y-85050000D01*
X153050000Y-90010000D02*
X151760000Y-91300000D01*
X163770000Y-69970000D02*
X163770000Y-69540000D01*
X162540000Y-84750000D02*
X163460000Y-84750000D01*
X156130000Y-55490000D02*
X156130000Y-54565000D01*
X158920000Y-81504314D02*
X159650000Y-80774314D01*
X159650000Y-80774314D02*
X159650000Y-79687500D01*
X164359411Y-67689411D02*
X164990000Y-68320000D01*
X153200000Y-60310000D02*
X153200000Y-60288529D01*
X159325000Y-66040000D02*
X159565000Y-66280000D01*
X162240000Y-85050000D02*
X162540000Y-84750000D01*
X155421472Y-71840000D02*
X155070000Y-71840000D01*
X165370000Y-70490000D02*
X164980000Y-70880000D01*
X153200000Y-64460000D02*
X153200000Y-60310000D01*
X158010000Y-84050000D02*
X158710000Y-83350000D01*
X153200000Y-60310000D02*
X152760000Y-59870000D01*
X153420000Y-52940000D02*
X153420000Y-50920000D01*
X152760000Y-59140000D02*
X153420000Y-58480000D01*
X158920000Y-81630000D02*
X158920000Y-81504314D01*
X165380000Y-70490000D02*
X165370000Y-70490000D01*
X157160000Y-84050000D02*
X158010000Y-84050000D01*
X160910000Y-86590000D02*
X160870000Y-86630000D01*
X156880000Y-70900000D02*
X157666267Y-70900000D01*
X153420000Y-58480000D02*
X153420000Y-52940000D01*
X163900000Y-53295000D02*
X164055000Y-53295000D01*
X161670000Y-75230000D02*
X160650000Y-76250000D01*
X169540000Y-91210000D02*
X168300000Y-89970000D01*
X168400000Y-67040000D02*
X169540000Y-65900000D01*
X164359411Y-67390589D02*
X164359411Y-67689411D01*
X164055000Y-53295000D02*
X164970000Y-52380000D01*
X157160000Y-84050000D02*
X157160000Y-83210000D01*
X163900000Y-54350000D02*
X163900000Y-53295000D01*
X168600000Y-77660000D02*
X167200000Y-77660000D01*
X153160000Y-53200000D02*
X153420000Y-52940000D01*
X162410000Y-63490000D02*
X162430000Y-63470000D01*
X159565000Y-67035000D02*
X159990000Y-67460000D01*
X155850000Y-69870000D02*
X156880000Y-70900000D01*
X158710000Y-82090000D02*
X158710000Y-83350000D01*
X151760000Y-65900000D02*
X153200000Y-64460000D01*
X157160000Y-83210000D02*
X157240000Y-83130000D01*
X152600000Y-66740000D02*
X152600000Y-67270000D01*
X163590000Y-83871792D02*
X163590000Y-84620000D01*
X162527954Y-82809746D02*
X163590000Y-83871792D01*
X151760000Y-53200000D02*
X153160000Y-53200000D01*
X156330000Y-48200000D02*
X164970000Y-48200000D01*
X165160000Y-66420000D02*
X164359411Y-67220589D01*
X158200000Y-66040000D02*
X159325000Y-66040000D01*
X168400000Y-67280000D02*
X168400000Y-67040000D01*
X169540000Y-78600000D02*
X168600000Y-77660000D01*
X164980000Y-70880000D02*
X164980000Y-71720000D01*
X162540000Y-85140000D02*
X163070000Y-85670000D01*
X163530000Y-55170000D02*
X163080000Y-55170000D01*
X162410000Y-64970000D02*
X162410000Y-63490000D01*
X164378822Y-82708822D02*
X165020000Y-83350000D01*
X169540000Y-91300000D02*
X169540000Y-91210000D01*
%TO.N,+3V3*%
X164990000Y-69620000D02*
X164590000Y-70020000D01*
X157212500Y-73650000D02*
X157825685Y-73650000D01*
X163110000Y-74981471D02*
X163110000Y-76806360D01*
X155300000Y-93840000D02*
X155430000Y-93710000D01*
X163770000Y-70930000D02*
X163770000Y-71470000D01*
X157825685Y-73650000D02*
X157950000Y-73774315D01*
X164590000Y-70110000D02*
X163770000Y-70930000D01*
X158260000Y-57940000D02*
X158495735Y-57704265D01*
X158160000Y-67300000D02*
X158160000Y-67830000D01*
X162410000Y-65930000D02*
X161465000Y-65930000D01*
X160850000Y-80475686D02*
X160850000Y-79687500D01*
X162527954Y-81507954D02*
X162100000Y-81080000D01*
X155731584Y-77700000D02*
X156181584Y-77250000D01*
X165330000Y-87560000D02*
X165330000Y-87850000D01*
X163553640Y-77250000D02*
X164087500Y-77250000D01*
X165830000Y-77250000D02*
X164087500Y-77250000D01*
X164590000Y-70020000D02*
X164590000Y-70110000D01*
X160850000Y-72063598D02*
X161050000Y-71863598D01*
X161454314Y-81080000D02*
X160850000Y-80475686D01*
X161115000Y-66280000D02*
X159075000Y-64240000D01*
X162410000Y-66540000D02*
X161750000Y-67200000D01*
X160850000Y-72812500D02*
X160850000Y-72063598D01*
X165280000Y-87140000D02*
X165280000Y-87510000D01*
X165310000Y-87850000D02*
X165330000Y-87850000D01*
X163770000Y-70930000D02*
X163770000Y-72292500D01*
X155430000Y-93710000D02*
X155430000Y-89600000D01*
X162850000Y-72812500D02*
X163250000Y-72812500D01*
X157340000Y-66480000D02*
X158160000Y-67300000D01*
X159940000Y-68370000D02*
X159990000Y-68420000D01*
X165280000Y-84601792D02*
X165280000Y-87140000D01*
X157950000Y-77046360D02*
X157746360Y-77250000D01*
X164590000Y-88300000D02*
X165330000Y-87560000D01*
X161250000Y-72812500D02*
X161250000Y-72063598D01*
X155430000Y-89600000D02*
X156730000Y-88300000D01*
X162527954Y-81849746D02*
X162527954Y-81507954D01*
X155580000Y-72800000D02*
X155070000Y-72800000D01*
X162850000Y-73512046D02*
X162670000Y-73692045D01*
X157212500Y-73650000D02*
X156430000Y-73650000D01*
X161465000Y-65930000D02*
X161115000Y-66280000D01*
X166530000Y-55270000D02*
X169540000Y-58280000D01*
X162527954Y-81849746D02*
X165280000Y-84601792D01*
X159075000Y-64240000D02*
X158260000Y-64240000D01*
X162850000Y-72812500D02*
X162850000Y-73512046D01*
X165280000Y-87510000D02*
X165330000Y-87560000D01*
X154320000Y-77700000D02*
X155731584Y-77700000D01*
X158495735Y-57704265D02*
X158495735Y-54714265D01*
X157212500Y-73037500D02*
X157370000Y-72880000D01*
X165330000Y-87850000D02*
X165330000Y-91400000D01*
X158260000Y-64240000D02*
X158260000Y-57940000D01*
X156181584Y-77250000D02*
X157212500Y-77250000D01*
X154050000Y-77970000D02*
X154320000Y-77700000D01*
X163110000Y-76806360D02*
X163553640Y-77250000D01*
X157950000Y-73774315D02*
X157950000Y-77046360D01*
X166680292Y-78459706D02*
X166680292Y-78100292D01*
X158160000Y-67830000D02*
X158700000Y-68370000D01*
X164980000Y-72680000D02*
X164980000Y-72757500D01*
X163770000Y-72292500D02*
X163250000Y-72812500D01*
X157746360Y-77250000D02*
X157212500Y-77250000D01*
X164980000Y-72757500D02*
X164087500Y-73650000D01*
X163770000Y-71470000D02*
X164980000Y-72680000D01*
X161250000Y-72063598D02*
X161050000Y-71863598D01*
X156730000Y-88300000D02*
X164590000Y-88300000D01*
X162660000Y-65930000D02*
X163430000Y-65160000D01*
X162670000Y-74541471D02*
X163110000Y-74981471D01*
X157212500Y-73650000D02*
X157212500Y-73037500D01*
X162100000Y-81080000D02*
X161454314Y-81080000D01*
X164770000Y-55270000D02*
X166530000Y-55270000D01*
X166240000Y-77660000D02*
X165830000Y-77250000D01*
X156430000Y-73650000D02*
X155580000Y-72800000D01*
X162410000Y-65930000D02*
X162410000Y-66540000D01*
X158700000Y-68370000D02*
X159940000Y-68370000D01*
X166680292Y-78100292D02*
X166240000Y-77660000D01*
X158260000Y-64240000D02*
X157340000Y-65160000D01*
X164990000Y-69280000D02*
X164990000Y-69620000D01*
X157340000Y-65160000D02*
X157340000Y-66480000D01*
X162410000Y-65930000D02*
X162660000Y-65930000D01*
X162670000Y-73692045D02*
X162670000Y-74541471D01*
X157370000Y-72880000D02*
X157290000Y-72800000D01*
%TO.N,+1V1*%
X161250000Y-80310000D02*
X161620000Y-80680000D01*
X161250000Y-79153640D02*
X161046360Y-78950000D01*
X158080000Y-78600000D02*
X158430000Y-78950000D01*
X160450000Y-69430000D02*
X160980000Y-68900000D01*
X162450000Y-72194315D02*
X163020000Y-71624315D01*
X159086360Y-73910000D02*
X159910000Y-73910000D01*
X161250000Y-79687500D02*
X161250000Y-79153640D01*
X163700000Y-81730001D02*
X163700000Y-81900000D01*
X161046360Y-78950000D02*
X158430000Y-78950000D01*
X162450000Y-72812500D02*
X162450000Y-72194315D01*
X162649999Y-80680000D02*
X163700000Y-81730001D01*
X159910000Y-73910000D02*
X161886360Y-73910000D01*
X158080000Y-77740000D02*
X158080000Y-78600000D01*
X161620000Y-80680000D02*
X162649999Y-80680000D01*
X160450000Y-72812500D02*
X160450000Y-69430000D01*
X163020000Y-68730000D02*
X163680589Y-68069411D01*
X160450000Y-73370000D02*
X159910000Y-73910000D01*
X158350000Y-74646360D02*
X158350000Y-77470000D01*
X161250000Y-79687500D02*
X161250000Y-80310000D01*
X158350000Y-74646360D02*
X159086360Y-73910000D01*
X160450000Y-72812500D02*
X160450000Y-73370000D01*
X163020000Y-71624315D02*
X163020000Y-68730000D01*
X158350000Y-77470000D02*
X158080000Y-77740000D01*
X161886360Y-73910000D02*
X162450000Y-73346360D01*
X162450000Y-73346360D02*
X162450000Y-72812500D01*
%TO.N,VBUS*%
X157680000Y-55490000D02*
X157680000Y-56220000D01*
X154400000Y-58780000D02*
X155240000Y-57940000D01*
X154820000Y-67360000D02*
X154400000Y-66940000D01*
X162270000Y-87270000D02*
X162730000Y-86810000D01*
X163100000Y-52370000D02*
X163100000Y-53295000D01*
X158200000Y-53990000D02*
X157680000Y-54510000D01*
X157680000Y-54510000D02*
X157680000Y-55490000D01*
X162550000Y-51200000D02*
X162550000Y-51820000D01*
X166000000Y-93837974D02*
X166000000Y-89160000D01*
X159520000Y-51200000D02*
X162550000Y-51200000D01*
X157510000Y-87270000D02*
X162270000Y-87270000D01*
X168040000Y-49620000D02*
X169540000Y-48120000D01*
X156830000Y-86590000D02*
X157510000Y-87270000D01*
X164130000Y-49620000D02*
X168040000Y-49620000D01*
X158200000Y-53295000D02*
X158200000Y-53990000D01*
X162550000Y-51820000D02*
X163100000Y-52370000D01*
X154990000Y-67360000D02*
X154820000Y-67360000D01*
X162550000Y-51200000D02*
X164130000Y-49620000D01*
X155240000Y-57940000D02*
X155960000Y-57940000D01*
X157680000Y-56220000D02*
X155960000Y-57940000D01*
X158200000Y-53295000D02*
X158200000Y-52520000D01*
X158200000Y-52520000D02*
X159520000Y-51200000D01*
X154400000Y-66940000D02*
X154400000Y-58780000D01*
X166000000Y-89160000D02*
X166220000Y-88940000D01*
%TO.N,Net-(C15-Pad2)*%
X162540000Y-83790000D02*
X161350000Y-83790000D01*
X161467954Y-81899746D02*
X161467954Y-82792046D01*
X161350000Y-83790000D02*
X160910000Y-83350000D01*
X161467954Y-82792046D02*
X160910000Y-83350000D01*
%TO.N,XIN*%
X158710000Y-85050000D02*
X157200000Y-85050000D01*
X158710000Y-85050000D02*
X159710000Y-84050000D01*
X160050000Y-80940000D02*
X160050000Y-79687500D01*
X159710000Y-81300000D02*
X159700000Y-81290000D01*
X157200000Y-85050000D02*
X157160000Y-85010000D01*
X159710000Y-84050000D02*
X159710000Y-81300000D01*
X159700000Y-81290000D02*
X160050000Y-80940000D01*
%TO.N,USB_D-*%
X160450000Y-52270000D02*
X160400000Y-52320000D01*
X162075000Y-69364999D02*
X162320000Y-69609999D01*
X162845000Y-56926802D02*
X162845000Y-61556802D01*
X161375000Y-55456802D02*
X162845000Y-56926802D01*
X164945000Y-63656802D02*
X164945000Y-65523198D01*
X164945000Y-65523198D02*
X162075000Y-68393198D01*
X161400000Y-53295000D02*
X161400000Y-52320000D01*
X161350000Y-52270000D02*
X160450000Y-52270000D01*
X162845000Y-61556802D02*
X164945000Y-63656802D01*
X161400000Y-53295000D02*
X161400000Y-54382501D01*
X161400000Y-54382501D02*
X161375000Y-54407501D01*
X162320000Y-69609999D02*
X162320000Y-70090000D01*
X161400000Y-52320000D02*
X161350000Y-52270000D01*
X161375000Y-54407501D02*
X161375000Y-55456802D01*
X160400000Y-52320000D02*
X160400000Y-53295000D01*
X162075000Y-68393198D02*
X162075000Y-69364999D01*
%TO.N,Net-(J1-CC2)*%
X158890000Y-53305000D02*
X158900000Y-53295000D01*
X160250000Y-55120000D02*
X159750000Y-55120000D01*
X159750000Y-55120000D02*
X158900000Y-54270000D01*
X158900000Y-54270000D02*
X158900000Y-53295000D01*
X158930000Y-53325000D02*
X158900000Y-53295000D01*
%TO.N,USB_D+*%
X159950000Y-54320000D02*
X160850000Y-54320000D01*
X162395000Y-61743198D02*
X164495000Y-63843198D01*
X159900000Y-53295000D02*
X159900000Y-54270000D01*
X160925000Y-54407501D02*
X160925000Y-55643198D01*
X164495000Y-65336802D02*
X161625000Y-68206802D01*
X160900000Y-54382501D02*
X160925000Y-54407501D01*
X161625000Y-68206802D02*
X161625000Y-69364999D01*
X160900000Y-53295000D02*
X160900000Y-54382501D01*
X160925000Y-55643198D02*
X162395000Y-57113198D01*
X161380000Y-69609999D02*
X161380000Y-70090000D01*
X164495000Y-63843198D02*
X164495000Y-65336802D01*
X160850000Y-54320000D02*
X160900000Y-54270000D01*
X162395000Y-57113198D02*
X162395000Y-61743198D01*
X160900000Y-54270000D02*
X160900000Y-53295000D01*
X161625000Y-69364999D02*
X161380000Y-69609999D01*
X159900000Y-54270000D02*
X159950000Y-54320000D01*
%TO.N,Net-(J1-CC1)*%
X161900000Y-55010000D02*
X161900000Y-53295000D01*
X162060000Y-55170000D02*
X161900000Y-55010000D01*
%TO.N,GPIO6*%
X151760000Y-68440000D02*
X153180000Y-69860000D01*
X153180000Y-71834314D02*
X153620000Y-72274314D01*
X153180000Y-69860000D02*
X153180000Y-71834314D01*
X155850212Y-76450000D02*
X157212500Y-76450000D01*
X153850000Y-76860000D02*
X155440212Y-76860000D01*
X153620000Y-76630000D02*
X153850000Y-76860000D01*
X155440212Y-76860000D02*
X155850212Y-76450000D01*
X153620000Y-72274314D02*
X153620000Y-76630000D01*
%TO.N,GPIO3*%
X157212500Y-75250000D02*
X155594315Y-75250000D01*
X155572313Y-75227999D02*
X154612001Y-75227999D01*
X153600000Y-71275686D02*
X153600000Y-59840000D01*
X153600000Y-59840000D02*
X153390000Y-59630000D01*
X154020000Y-74640000D02*
X154020000Y-71695686D01*
X155594315Y-75250000D02*
X155572313Y-75227999D01*
X154612001Y-75227999D02*
X154610000Y-75230000D01*
X154610000Y-75230000D02*
X154020000Y-74640000D01*
X154020000Y-71695686D02*
X153600000Y-71275686D01*
%TO.N,GPIO15*%
X156470000Y-83280000D02*
X156470000Y-83020001D01*
X156470000Y-83020001D02*
X157530001Y-81960000D01*
X157890000Y-81960000D02*
X159250000Y-80600000D01*
X154580000Y-91585685D02*
X154580000Y-91550000D01*
X157530001Y-81960000D02*
X157890000Y-81960000D01*
X151760000Y-96380000D02*
X153460000Y-94680000D01*
X154600000Y-91530000D02*
X154600000Y-89261372D01*
X154600000Y-89261372D02*
X156110000Y-87751371D01*
X153460000Y-92705685D02*
X154580000Y-91585685D01*
X159250000Y-80600000D02*
X159250000Y-79687500D01*
X156110000Y-87751371D02*
X156110000Y-83640000D01*
X153460000Y-94680000D02*
X153460000Y-92705685D01*
X156110000Y-83640000D02*
X156470000Y-83280000D01*
X154580000Y-91550000D02*
X154600000Y-91530000D01*
%TO.N,GPIO7*%
X155605898Y-77260000D02*
X156015898Y-76850000D01*
X151760000Y-70980000D02*
X153220000Y-72440000D01*
X153220000Y-72440000D02*
X153220000Y-76950000D01*
X153530000Y-77260000D02*
X155605898Y-77260000D01*
X153220000Y-76950000D02*
X153530000Y-77260000D01*
X156015898Y-76850000D02*
X157212500Y-76850000D01*
%TO.N,GPIO11*%
X156765907Y-79296593D02*
X157212500Y-78850000D01*
X156765907Y-80405907D02*
X156765907Y-79296593D01*
X153500000Y-83671814D02*
X156765907Y-80405907D01*
X151760000Y-83680000D02*
X153500000Y-83680000D01*
X153500000Y-83680000D02*
X153500000Y-83671814D01*
%TO.N,GPIO8*%
X154720000Y-79830000D02*
X155520000Y-79030000D01*
X155520000Y-78477270D02*
X156347269Y-77650000D01*
X155520000Y-79030000D02*
X155520000Y-78477270D01*
X156347269Y-77650000D02*
X157212500Y-77650000D01*
%TO.N,GPIO12*%
X154910000Y-82827500D02*
X154910000Y-83070000D01*
X154910000Y-83070000D02*
X151760000Y-86220000D01*
X154910000Y-82827500D02*
X158050000Y-79687500D01*
%TO.N,GPIO1*%
X155525688Y-74050002D02*
X155391224Y-74050002D01*
X155925686Y-74450000D02*
X155525688Y-74050002D01*
X157212500Y-74450000D02*
X155925686Y-74450000D01*
%TO.N,GPIO13*%
X155310000Y-83048630D02*
X155310000Y-87420000D01*
X158450000Y-80221360D02*
X158041360Y-80630000D01*
X157728628Y-80630000D02*
X155310000Y-83048630D01*
X158450000Y-79687500D02*
X158450000Y-80221360D01*
X153970000Y-88760000D02*
X151760000Y-88760000D01*
X155310000Y-87420000D02*
X153970000Y-88760000D01*
X158041360Y-80630000D02*
X157728628Y-80630000D01*
%TO.N,GPIO4*%
X155235998Y-75650000D02*
X157212500Y-75650000D01*
X155057999Y-75827999D02*
X155235998Y-75650000D01*
%TO.N,GPIO5*%
X155684527Y-76050000D02*
X157212500Y-76050000D01*
X154387999Y-76427999D02*
X155306528Y-76427999D01*
X154220000Y-76260000D02*
X154387999Y-76427999D01*
X155306528Y-76427999D02*
X155684527Y-76050000D01*
%TO.N,GPIO9*%
X155920000Y-78642955D02*
X155920000Y-79654314D01*
X151760000Y-76060000D02*
X151760000Y-76125685D01*
X153080000Y-77380000D02*
X151760000Y-76060000D01*
X153580000Y-80740000D02*
X153080000Y-80240000D01*
X157212500Y-78050000D02*
X156512954Y-78050000D01*
X154834314Y-80740000D02*
X153580000Y-80740000D01*
X156512954Y-78050000D02*
X155920000Y-78642955D01*
X155920000Y-79654314D02*
X154834314Y-80740000D01*
X153080000Y-80240000D02*
X153080000Y-77380000D01*
%TO.N,GPIO14*%
X158850000Y-80390000D02*
X158850000Y-79687500D01*
X157364315Y-81560000D02*
X157680000Y-81560000D01*
X154180000Y-89115686D02*
X155710000Y-87585686D01*
X157680000Y-81560000D02*
X158850000Y-80390000D01*
X151760000Y-93840000D02*
X154180000Y-91420000D01*
X151760000Y-93840000D02*
X151900000Y-93840000D01*
X155710000Y-83214315D02*
X157364315Y-81560000D01*
X155710000Y-87585686D02*
X155710000Y-83214315D01*
X154180000Y-91420000D02*
X154180000Y-89115686D01*
%TO.N,GPIO10*%
X156320000Y-78808640D02*
X156320000Y-79820000D01*
X156678640Y-78450000D02*
X156320000Y-78808640D01*
X157212500Y-78450000D02*
X156678640Y-78450000D01*
X156320000Y-79820000D02*
X155000000Y-81140000D01*
X155000000Y-81140000D02*
X151760000Y-81140000D01*
%TO.N,GPIO0*%
X154420000Y-73176134D02*
X154693868Y-73450002D01*
X154693868Y-73450002D02*
X155639753Y-73450002D01*
X155100000Y-55328529D02*
X154000000Y-56428529D01*
X154270000Y-48120000D02*
X155100000Y-48950000D01*
X155639753Y-73450002D02*
X156239751Y-74050000D01*
X155100000Y-48950000D02*
X155100000Y-55328529D01*
X154000000Y-71110000D02*
X154420000Y-71530000D01*
X156239751Y-74050000D02*
X157212500Y-74050000D01*
X154000000Y-56428529D02*
X154000000Y-71110000D01*
X151760000Y-48120000D02*
X154270000Y-48120000D01*
X154420000Y-71530000D02*
X154420000Y-73176134D01*
%TO.N,GPIO2*%
X154959980Y-74650002D02*
X155560002Y-74650002D01*
X154629989Y-74320011D02*
X154959980Y-74650002D01*
X155560002Y-74650002D02*
X155760000Y-74850000D01*
X155760000Y-74850000D02*
X157212500Y-74850000D01*
%TO.N,GPIO19*%
X164690686Y-78450000D02*
X164087500Y-78450000D01*
X169540000Y-86220000D02*
X167840000Y-86220000D01*
X167360000Y-85740000D02*
X167360000Y-81119315D01*
X167840000Y-86220000D02*
X167360000Y-85740000D01*
X167360000Y-81119315D02*
X164690686Y-78450000D01*
%TO.N,GPIO17*%
X167520000Y-91820000D02*
X169540000Y-93840000D01*
X166560000Y-86345686D02*
X166560000Y-83331645D01*
X163851192Y-80622837D02*
X163851192Y-80288692D01*
X167520000Y-87305686D02*
X167520000Y-91820000D01*
X166560000Y-83331645D02*
X163851192Y-80622837D01*
X166560000Y-86345686D02*
X167520000Y-87305686D01*
X163851192Y-80288692D02*
X163250000Y-79687500D01*
%TO.N,GPIO22*%
X168750000Y-76850000D02*
X169540000Y-76060000D01*
X164087500Y-76850000D02*
X168750000Y-76850000D01*
%TO.N,GPIO27_ADC1*%
X166610000Y-74035685D02*
X166610000Y-69380000D01*
X165795686Y-74850000D02*
X166610000Y-74035685D01*
X166610000Y-69380000D02*
X167550000Y-68440000D01*
X167550000Y-68440000D02*
X169540000Y-68440000D01*
X164087500Y-74850000D02*
X165795686Y-74850000D01*
%TO.N,GPIO18*%
X164525000Y-78850000D02*
X164087500Y-78850000D01*
X166960000Y-86180000D02*
X166960000Y-81285000D01*
X169540000Y-88760000D02*
X166960000Y-86180000D01*
X166960000Y-81285000D02*
X164525000Y-78850000D01*
%TO.N,GPIO16*%
X163866693Y-81238053D02*
X162850000Y-80221360D01*
X166040000Y-83377330D02*
X163900723Y-81238053D01*
X167120000Y-88080000D02*
X166040000Y-87000000D01*
X163900723Y-81238053D02*
X163866693Y-81238053D01*
X167120000Y-91985685D02*
X167120000Y-88080000D01*
X167750000Y-92615685D02*
X167120000Y-91985685D01*
X167750000Y-94590000D02*
X167750000Y-92615685D01*
X169540000Y-96380000D02*
X167750000Y-94590000D01*
X162850000Y-80221360D02*
X162850000Y-79687500D01*
X166040000Y-87000000D02*
X166040000Y-83377330D01*
%TO.N,RUN*%
X162450000Y-79153640D02*
X162850097Y-78753543D01*
X162850097Y-78753543D02*
X163135651Y-78753543D01*
X162450000Y-79687500D02*
X162450000Y-79153640D01*
%TO.N,GPIO28_ADC2*%
X166210000Y-73870000D02*
X165630000Y-74450000D01*
X166210000Y-63870000D02*
X166210000Y-73870000D01*
X165630000Y-74450000D02*
X164087500Y-74450000D01*
X166720000Y-63360000D02*
X166210000Y-63870000D01*
X169540000Y-63360000D02*
X166720000Y-63360000D01*
%TO.N,GPIO26_ADC0*%
X169540000Y-71207057D02*
X169540000Y-70980000D01*
X168320000Y-69760000D02*
X169540000Y-70980000D01*
X167010000Y-74201370D02*
X167010000Y-70270000D01*
X167010000Y-70270000D02*
X167520000Y-69760000D01*
X164087500Y-75250000D02*
X165961372Y-75250000D01*
X167520000Y-69760000D02*
X168320000Y-69760000D01*
X165961372Y-75250000D02*
X167010000Y-74201370D01*
%TO.N,GPIO20*%
X169540000Y-83680000D02*
X167760000Y-81900000D01*
X167760000Y-80953629D02*
X164856371Y-78050000D01*
X167760000Y-81900000D02*
X167760000Y-80953629D01*
X164856371Y-78050000D02*
X164087500Y-78050000D01*
%TO.N,GPIO21*%
X165022057Y-77650000D02*
X168512057Y-81140000D01*
X164087500Y-77650000D02*
X165022057Y-77650000D01*
X168512057Y-81140000D02*
X169540000Y-81140000D01*
%TO.N,SWCLK*%
X158818700Y-78350000D02*
X158818700Y-78358700D01*
X161212046Y-78550000D02*
X161650000Y-78987955D01*
X158818700Y-78358700D02*
X159010000Y-78550000D01*
X159010000Y-78550000D02*
X161212046Y-78550000D01*
X161650000Y-78987955D02*
X161650000Y-79687500D01*
%TO.N,SWD*%
X163151221Y-77953692D02*
X162801418Y-77953692D01*
X162801418Y-77953692D02*
X162050000Y-78705110D01*
X162050000Y-78705110D02*
X162050000Y-79687500D01*
%TO.N,GPIO29_ADC3*%
X163580000Y-87370000D02*
X164479265Y-86470735D01*
X163270000Y-74056054D02*
X163276054Y-74050000D01*
X163276054Y-74050000D02*
X164087500Y-74050000D01*
X153860000Y-96120000D02*
X153860000Y-92871371D01*
X165188235Y-81111353D02*
X166080292Y-82003410D01*
X155000000Y-89464314D02*
X156594314Y-87870000D01*
X153860000Y-92871371D02*
X155000000Y-91731371D01*
X163100000Y-87870000D02*
X163580000Y-87390000D01*
X155250000Y-96330000D02*
X154070000Y-96330000D01*
X156594314Y-87870000D02*
X163100000Y-87870000D01*
X163580000Y-87390000D02*
X163580000Y-87370000D01*
X155000000Y-91731371D02*
X155000000Y-89464314D01*
X155300000Y-96380000D02*
X155250000Y-96330000D01*
X154070000Y-96330000D02*
X153860000Y-96120000D01*
X165188235Y-80361765D02*
X165188235Y-81111353D01*
%TO.N,GPIO23*%
X164087500Y-76450000D02*
X166784873Y-76450000D01*
X166784873Y-76450000D02*
X166984873Y-76250000D01*
%TO.N,GPIO24*%
X166336346Y-76050000D02*
X167860000Y-74526346D01*
X167860000Y-74526346D02*
X167860000Y-72440000D01*
X167860000Y-72440000D02*
X168020000Y-72280000D01*
X164087500Y-76050000D02*
X166336346Y-76050000D01*
%TO.N,GPIO25*%
X166127058Y-75650000D02*
X167420000Y-74357057D01*
X169540000Y-60820000D02*
X169210000Y-61150000D01*
X164087500Y-75650000D02*
X166127058Y-75650000D01*
X167420000Y-70708530D02*
X167689265Y-70439265D01*
X167420000Y-74357057D02*
X167420000Y-70708530D01*
%TO.N,/USB(v2)_D-*%
X162050000Y-71380000D02*
X162050000Y-72812500D01*
X162320000Y-71110000D02*
X162050000Y-71380000D01*
%TO.N,/USB(v2)_D+*%
X161380000Y-71110000D02*
X161650000Y-71380000D01*
X161650000Y-71380000D02*
X161650000Y-72812500D01*
%TO.N,XOUT*%
X160447954Y-81899746D02*
X160450000Y-81897700D01*
X160450000Y-81897700D02*
X160450000Y-79687500D01*
%TO.N,QSPI_SS*%
X155850000Y-68370000D02*
X155850000Y-67420000D01*
X157645000Y-71970000D02*
X156400000Y-71970000D01*
X158050000Y-72812500D02*
X158050000Y-72375000D01*
X154700000Y-68989928D02*
X155319928Y-68370000D01*
X157110000Y-67270000D02*
X157140000Y-67300000D01*
X158050000Y-72375000D02*
X157645000Y-71970000D01*
X155319928Y-68370000D02*
X155850000Y-68370000D01*
X155850000Y-67420000D02*
X156000000Y-67270000D01*
X154700000Y-70270000D02*
X154700000Y-68989928D01*
X156000000Y-67270000D02*
X157110000Y-67270000D01*
X156400000Y-71970000D02*
X154700000Y-70270000D01*
%TO.N,Net-(R6-Pad1)*%
X156000000Y-66250000D02*
X155000000Y-66250000D01*
X164570000Y-62050000D02*
X164570000Y-61170000D01*
X164570000Y-61170000D02*
X164950000Y-60790000D01*
%TO.N,QSPI_SD1*%
X157390000Y-71570000D02*
X157970000Y-71570000D01*
X155850000Y-68870000D02*
X155385614Y-68870000D01*
X157970000Y-71570000D02*
X158450000Y-72050000D01*
X158450000Y-72050000D02*
X158450000Y-72812500D01*
X155100000Y-69155614D02*
X155100000Y-70084386D01*
X155100000Y-70084386D02*
X156315614Y-71300000D01*
X157120000Y-71300000D02*
X157390000Y-71570000D01*
X155385614Y-68870000D02*
X155100000Y-69155614D01*
X156315614Y-71300000D02*
X157120000Y-71300000D01*
%TO.N,QSPI_SD3*%
X158700000Y-68870000D02*
X159230071Y-68870000D01*
X159230071Y-68870000D02*
X160050000Y-69689929D01*
X160050000Y-69689929D02*
X160050000Y-72812500D01*
%TO.N,QSPI_SD2*%
X156520000Y-69370000D02*
X156820000Y-69670000D01*
X156820000Y-70165000D02*
X156820000Y-69670000D01*
X156955000Y-70300000D02*
X156820000Y-70165000D01*
X158850000Y-70884314D02*
X158265686Y-70300000D01*
X158265686Y-70300000D02*
X156955000Y-70300000D01*
X158850000Y-72812500D02*
X158850000Y-70884314D01*
X155850000Y-69370000D02*
X156520000Y-69370000D01*
%TO.N,QSPI_SCLK*%
X159650000Y-69855614D02*
X159164386Y-69370000D01*
X159650000Y-72812500D02*
X159650000Y-69855614D01*
X159164386Y-69370000D02*
X158700000Y-69370000D01*
%TO.N,QSPI_SD0*%
X159250000Y-70420000D02*
X158700000Y-69870000D01*
X159250000Y-72812500D02*
X159250000Y-70420000D01*
%TD*%
%TA.AperFunction,Conductor*%
%TO.N,GND*%
G36*
X164877417Y-88680208D02*
G01*
X164920613Y-88735125D01*
X164929500Y-88781222D01*
X164929500Y-90899902D01*
X164909815Y-90966941D01*
X164893181Y-90987583D01*
X164849481Y-91031282D01*
X164849475Y-91031290D01*
X164770426Y-91168209D01*
X164770423Y-91168216D01*
X164729500Y-91320943D01*
X164729500Y-91479057D01*
X164769845Y-91629625D01*
X164770423Y-91631783D01*
X164770426Y-91631790D01*
X164849475Y-91768709D01*
X164849479Y-91768714D01*
X164849480Y-91768716D01*
X164961284Y-91880520D01*
X164961286Y-91880521D01*
X164961290Y-91880524D01*
X165098209Y-91959573D01*
X165098216Y-91959577D01*
X165250943Y-92000500D01*
X165250945Y-92000500D01*
X165409055Y-92000500D01*
X165409057Y-92000500D01*
X165443406Y-91991296D01*
X165513255Y-91992957D01*
X165571118Y-92032119D01*
X165598623Y-92096347D01*
X165599500Y-92111070D01*
X165599500Y-92563474D01*
X165579815Y-92630513D01*
X165527011Y-92676268D01*
X165475500Y-92687474D01*
X165105143Y-92687474D01*
X165105117Y-92687476D01*
X165080012Y-92690387D01*
X165080008Y-92690389D01*
X164977235Y-92735767D01*
X164897794Y-92815208D01*
X164852415Y-92917980D01*
X164852415Y-92917982D01*
X164849500Y-92943105D01*
X164849500Y-94732830D01*
X164849502Y-94732856D01*
X164852413Y-94757961D01*
X164852415Y-94757965D01*
X164897793Y-94860738D01*
X164897794Y-94860739D01*
X164977235Y-94940180D01*
X165080009Y-94985559D01*
X165105135Y-94988474D01*
X165842873Y-94988473D01*
X165909910Y-95008157D01*
X165955665Y-95060961D01*
X165965609Y-95130120D01*
X165936584Y-95193676D01*
X165877806Y-95231450D01*
X165862270Y-95234946D01*
X165730589Y-95255803D01*
X165558363Y-95311761D01*
X165558360Y-95311762D01*
X165397002Y-95393980D01*
X165250505Y-95500415D01*
X165250500Y-95500419D01*
X165122445Y-95628474D01*
X165122441Y-95628479D01*
X165016006Y-95774976D01*
X164933788Y-95936334D01*
X164933787Y-95936337D01*
X164877829Y-96108563D01*
X164849500Y-96287422D01*
X164849500Y-96468525D01*
X164877829Y-96647384D01*
X164933787Y-96819610D01*
X164933788Y-96819613D01*
X165016003Y-96980967D01*
X165068058Y-97052615D01*
X165091537Y-97118422D01*
X165075711Y-97186476D01*
X165025605Y-97235170D01*
X164967739Y-97249500D01*
X156333733Y-97249500D01*
X156266694Y-97229815D01*
X156220939Y-97177011D01*
X156210995Y-97107853D01*
X156233414Y-97052615D01*
X156249805Y-97030053D01*
X156283996Y-96982994D01*
X156366211Y-96821639D01*
X156422171Y-96649409D01*
X156436765Y-96557259D01*
X156450500Y-96470551D01*
X156450500Y-96289448D01*
X156432012Y-96172726D01*
X156422171Y-96110591D01*
X156366211Y-95938361D01*
X156366211Y-95938360D01*
X156316459Y-95840718D01*
X156283996Y-95777006D01*
X156270396Y-95758287D01*
X156177558Y-95630505D01*
X156177554Y-95630500D01*
X156049499Y-95502445D01*
X156049494Y-95502441D01*
X155902997Y-95396006D01*
X155902996Y-95396005D01*
X155902994Y-95396004D01*
X155851300Y-95369664D01*
X155741639Y-95313788D01*
X155741636Y-95313787D01*
X155569410Y-95257829D01*
X155437728Y-95236972D01*
X155374594Y-95207042D01*
X155337663Y-95147731D01*
X155338661Y-95077868D01*
X155377271Y-95019636D01*
X155441235Y-94991522D01*
X155457120Y-94990499D01*
X156194864Y-94990499D01*
X156194879Y-94990497D01*
X156194882Y-94990497D01*
X156219987Y-94987586D01*
X156219988Y-94987585D01*
X156219991Y-94987585D01*
X156322765Y-94942206D01*
X156402206Y-94862765D01*
X156447585Y-94759991D01*
X156450500Y-94734865D01*
X156450499Y-92945136D01*
X156450264Y-92943109D01*
X156447586Y-92920012D01*
X156447585Y-92920010D01*
X156447585Y-92920009D01*
X156402206Y-92817235D01*
X156322765Y-92737794D01*
X156318174Y-92735767D01*
X156219992Y-92692415D01*
X156194868Y-92689500D01*
X156194865Y-92689500D01*
X155954500Y-92689500D01*
X155887461Y-92669815D01*
X155841706Y-92617011D01*
X155830500Y-92565500D01*
X155830500Y-89817254D01*
X155850185Y-89750215D01*
X155866819Y-89729573D01*
X156187305Y-89409087D01*
X156959500Y-89409087D01*
X156959500Y-91198812D01*
X156959502Y-91198838D01*
X156962413Y-91223943D01*
X156962415Y-91223947D01*
X157007793Y-91326720D01*
X157007794Y-91326721D01*
X157087235Y-91406162D01*
X157190009Y-91451541D01*
X157215135Y-91454456D01*
X159004864Y-91454455D01*
X159004879Y-91454453D01*
X159004882Y-91454453D01*
X159029987Y-91451542D01*
X159029988Y-91451541D01*
X159029991Y-91451541D01*
X159132765Y-91406162D01*
X159212206Y-91326721D01*
X159257585Y-91223947D01*
X159260500Y-91198821D01*
X159260499Y-91067032D01*
X159280183Y-90999996D01*
X159332987Y-90954241D01*
X159402145Y-90944297D01*
X159465701Y-90973321D01*
X159492495Y-91007556D01*
X159492829Y-91007352D01*
X159494607Y-91010253D01*
X159494977Y-91010726D01*
X159495373Y-91011503D01*
X159534728Y-91065672D01*
X160167037Y-90433364D01*
X160184075Y-90496949D01*
X160249901Y-90610963D01*
X160342993Y-90704055D01*
X160457007Y-90769881D01*
X160520590Y-90786918D01*
X159888282Y-91419225D01*
X159888282Y-91419226D01*
X159942449Y-91458580D01*
X160131782Y-91555051D01*
X160333870Y-91620713D01*
X160543754Y-91653956D01*
X160756246Y-91653956D01*
X160966127Y-91620713D01*
X160966130Y-91620713D01*
X161168217Y-91555051D01*
X161357554Y-91458578D01*
X161411716Y-91419226D01*
X161411717Y-91419226D01*
X160779408Y-90786918D01*
X160842993Y-90769881D01*
X160957007Y-90704055D01*
X161050099Y-90610963D01*
X161115925Y-90496949D01*
X161132962Y-90433365D01*
X161765270Y-91065673D01*
X161765270Y-91065672D01*
X161804622Y-91011510D01*
X161901095Y-90822173D01*
X161910492Y-90793251D01*
X161949928Y-90735574D01*
X162014286Y-90708375D01*
X162083133Y-90720287D01*
X162134610Y-90767530D01*
X162138908Y-90775270D01*
X162206004Y-90906951D01*
X162312441Y-91053450D01*
X162312445Y-91053455D01*
X162440500Y-91181510D01*
X162440505Y-91181514D01*
X162540422Y-91254107D01*
X162587006Y-91287952D01*
X162663094Y-91326721D01*
X162748360Y-91370167D01*
X162748363Y-91370168D01*
X162806616Y-91389095D01*
X162920591Y-91426127D01*
X163003429Y-91439247D01*
X163099449Y-91454456D01*
X163099454Y-91454456D01*
X163280551Y-91454456D01*
X163367259Y-91440721D01*
X163459409Y-91426127D01*
X163631639Y-91370167D01*
X163792994Y-91287952D01*
X163939501Y-91181509D01*
X164067553Y-91053457D01*
X164173996Y-90906950D01*
X164256211Y-90745595D01*
X164312171Y-90573365D01*
X164326765Y-90481215D01*
X164340500Y-90394507D01*
X164340500Y-90213404D01*
X164314445Y-90048905D01*
X164312171Y-90034547D01*
X164277190Y-89926886D01*
X164256212Y-89862319D01*
X164256211Y-89862316D01*
X164217191Y-89785736D01*
X164173996Y-89700962D01*
X164160396Y-89682243D01*
X164067558Y-89554461D01*
X164067554Y-89554456D01*
X163939499Y-89426401D01*
X163939494Y-89426397D01*
X163792997Y-89319962D01*
X163792996Y-89319961D01*
X163792994Y-89319960D01*
X163726399Y-89286028D01*
X163631639Y-89237744D01*
X163631636Y-89237743D01*
X163459410Y-89181785D01*
X163280551Y-89153456D01*
X163280546Y-89153456D01*
X163099454Y-89153456D01*
X163099449Y-89153456D01*
X162920589Y-89181785D01*
X162748363Y-89237743D01*
X162748360Y-89237744D01*
X162587002Y-89319962D01*
X162440505Y-89426397D01*
X162440500Y-89426401D01*
X162312445Y-89554456D01*
X162312441Y-89554461D01*
X162206004Y-89700960D01*
X162138908Y-89832641D01*
X162090933Y-89883436D01*
X162023112Y-89900231D01*
X161956977Y-89877693D01*
X161913527Y-89822977D01*
X161910492Y-89814661D01*
X161901094Y-89785736D01*
X161804624Y-89596405D01*
X161765270Y-89542238D01*
X161765269Y-89542238D01*
X161132962Y-90174546D01*
X161115925Y-90110963D01*
X161050099Y-89996949D01*
X160957007Y-89903857D01*
X160842993Y-89838031D01*
X160779409Y-89820993D01*
X161411716Y-89188684D01*
X161357550Y-89149331D01*
X161168217Y-89052860D01*
X160966129Y-88987198D01*
X160756246Y-88953956D01*
X160543754Y-88953956D01*
X160333872Y-88987198D01*
X160333869Y-88987198D01*
X160131782Y-89052860D01*
X159942439Y-89149336D01*
X159888282Y-89188683D01*
X159888282Y-89188684D01*
X160520591Y-89820993D01*
X160457007Y-89838031D01*
X160342993Y-89903857D01*
X160249901Y-89996949D01*
X160184075Y-90110963D01*
X160167037Y-90174547D01*
X159534728Y-89542238D01*
X159534727Y-89542238D01*
X159495380Y-89596396D01*
X159495377Y-89596401D01*
X159494981Y-89597179D01*
X159494752Y-89597420D01*
X159492838Y-89600546D01*
X159492180Y-89600143D01*
X159447004Y-89647973D01*
X159379183Y-89664765D01*
X159313049Y-89642224D01*
X159269600Y-89587507D01*
X159260499Y-89540879D01*
X159260499Y-89409099D01*
X159260499Y-89409092D01*
X159260497Y-89409073D01*
X159257586Y-89383968D01*
X159257585Y-89383967D01*
X159257585Y-89383965D01*
X159212206Y-89281191D01*
X159132765Y-89201750D01*
X159132505Y-89201635D01*
X159029992Y-89156371D01*
X159004865Y-89153456D01*
X157215143Y-89153456D01*
X157215117Y-89153458D01*
X157190012Y-89156369D01*
X157190008Y-89156371D01*
X157087235Y-89201749D01*
X157007794Y-89281190D01*
X156962415Y-89383962D01*
X156962415Y-89383964D01*
X156959500Y-89409087D01*
X156187305Y-89409087D01*
X156859573Y-88736819D01*
X156920896Y-88703334D01*
X156947254Y-88700500D01*
X164642725Y-88700500D01*
X164642727Y-88700500D01*
X164744588Y-88673207D01*
X164744592Y-88673204D01*
X164752102Y-88670095D01*
X164752725Y-88671599D01*
X164811388Y-88657362D01*
X164877417Y-88680208D01*
G37*
%TD.AperFunction*%
%TA.AperFunction,Conductor*%
G36*
X168125703Y-87912542D02*
G01*
X168132181Y-87918574D01*
X168434325Y-88220718D01*
X168467810Y-88282041D01*
X168464575Y-88346716D01*
X168417829Y-88490587D01*
X168389500Y-88669448D01*
X168389500Y-88850551D01*
X168417829Y-89029410D01*
X168473787Y-89201635D01*
X168556006Y-89362997D01*
X168662441Y-89509494D01*
X168662445Y-89509499D01*
X168790500Y-89637554D01*
X168790505Y-89637558D01*
X168877774Y-89700962D01*
X168937006Y-89743996D01*
X169018925Y-89785736D01*
X169068684Y-89811090D01*
X169119480Y-89859065D01*
X169136275Y-89926886D01*
X169113737Y-89993021D01*
X169059022Y-90036472D01*
X169050708Y-90039506D01*
X169021781Y-90048905D01*
X168832439Y-90145380D01*
X168778282Y-90184727D01*
X168778282Y-90184728D01*
X169410591Y-90817037D01*
X169347007Y-90834075D01*
X169232993Y-90899901D01*
X169139901Y-90992993D01*
X169074075Y-91107007D01*
X169057037Y-91170591D01*
X168424728Y-90538282D01*
X168424727Y-90538282D01*
X168385380Y-90592439D01*
X168288904Y-90781782D01*
X168223242Y-90983869D01*
X168223242Y-90983872D01*
X168190000Y-91193753D01*
X168190000Y-91406246D01*
X168223242Y-91616127D01*
X168223243Y-91616131D01*
X168227627Y-91629625D01*
X168229620Y-91699466D01*
X168193539Y-91759298D01*
X168130837Y-91790124D01*
X168061423Y-91782158D01*
X168022014Y-91755621D01*
X167956819Y-91690426D01*
X167923334Y-91629103D01*
X167920500Y-91602745D01*
X167920500Y-88006255D01*
X167940185Y-87939216D01*
X167992989Y-87893461D01*
X168062147Y-87883517D01*
X168125703Y-87912542D01*
G37*
%TD.AperFunction*%
%TA.AperFunction,Conductor*%
G36*
X153722539Y-89180185D02*
G01*
X153768294Y-89232989D01*
X153779500Y-89284500D01*
X153779500Y-91202744D01*
X153759815Y-91269783D01*
X153743181Y-91290425D01*
X153277985Y-91755621D01*
X153216662Y-91789106D01*
X153146970Y-91784122D01*
X153091037Y-91742250D01*
X153066620Y-91676786D01*
X153072374Y-91629619D01*
X153076757Y-91616129D01*
X153076757Y-91616127D01*
X153110000Y-91406246D01*
X153110000Y-91193753D01*
X153076757Y-90983872D01*
X153076757Y-90983869D01*
X153011095Y-90781782D01*
X152914624Y-90592449D01*
X152875270Y-90538282D01*
X152875269Y-90538282D01*
X152242962Y-91170589D01*
X152225925Y-91107007D01*
X152160099Y-90992993D01*
X152067007Y-90899901D01*
X151952993Y-90834075D01*
X151889407Y-90817036D01*
X152521716Y-90184728D01*
X152467550Y-90145375D01*
X152278217Y-90048904D01*
X152249292Y-90039506D01*
X152191616Y-90000068D01*
X152164418Y-89935710D01*
X152176333Y-89866863D01*
X152223577Y-89815388D01*
X152231315Y-89811090D01*
X152362994Y-89743996D01*
X152509501Y-89637553D01*
X152637553Y-89509501D01*
X152743996Y-89362994D01*
X152812675Y-89228205D01*
X152860650Y-89177409D01*
X152923160Y-89160500D01*
X153655500Y-89160500D01*
X153722539Y-89180185D01*
G37*
%TD.AperFunction*%
%TA.AperFunction,Conductor*%
G36*
X154828834Y-83820072D02*
G01*
X154884767Y-83861944D01*
X154909184Y-83927408D01*
X154909500Y-83936254D01*
X154909500Y-87202745D01*
X154889815Y-87269784D01*
X154873181Y-87290426D01*
X153840426Y-88323181D01*
X153779103Y-88356666D01*
X153752745Y-88359500D01*
X152923160Y-88359500D01*
X152856121Y-88339815D01*
X152812675Y-88291795D01*
X152770780Y-88209573D01*
X152743996Y-88157006D01*
X152730396Y-88138287D01*
X152637558Y-88010505D01*
X152637554Y-88010500D01*
X152509499Y-87882445D01*
X152509494Y-87882441D01*
X152362997Y-87776006D01*
X152362996Y-87776005D01*
X152362994Y-87776004D01*
X152311300Y-87749664D01*
X152201639Y-87693788D01*
X152201636Y-87693787D01*
X152029410Y-87637829D01*
X151869321Y-87612473D01*
X151806186Y-87582544D01*
X151769255Y-87523232D01*
X151770253Y-87453370D01*
X151808863Y-87395137D01*
X151869321Y-87367527D01*
X151939425Y-87356422D01*
X152029409Y-87342171D01*
X152201639Y-87286211D01*
X152362994Y-87203996D01*
X152509501Y-87097553D01*
X152637553Y-86969501D01*
X152743996Y-86822994D01*
X152826211Y-86661639D01*
X152882171Y-86489409D01*
X152902951Y-86358209D01*
X152910500Y-86310551D01*
X152910500Y-86129448D01*
X152888447Y-85990216D01*
X152882171Y-85950591D01*
X152835424Y-85806716D01*
X152833429Y-85736875D01*
X152865672Y-85680719D01*
X154697819Y-83848573D01*
X154759142Y-83815088D01*
X154828834Y-83820072D01*
G37*
%TD.AperFunction*%
%TA.AperFunction,Conductor*%
G36*
X163348798Y-83270050D02*
G01*
X163359682Y-83269967D01*
X163380530Y-83283140D01*
X163403327Y-83292544D01*
X163413343Y-83301528D01*
X164843181Y-84731365D01*
X164876666Y-84792688D01*
X164879500Y-84819046D01*
X164879500Y-85795353D01*
X164859815Y-85862392D01*
X164807011Y-85908147D01*
X164737853Y-85918091D01*
X164718992Y-85912918D01*
X164718900Y-85913262D01*
X164711050Y-85911158D01*
X164711049Y-85911158D01*
X164558322Y-85870235D01*
X164400208Y-85870235D01*
X164247481Y-85911158D01*
X164247474Y-85911161D01*
X164110555Y-85990210D01*
X164110547Y-85990216D01*
X163998746Y-86102017D01*
X163998740Y-86102025D01*
X163919691Y-86238944D01*
X163919688Y-86238951D01*
X163878765Y-86391678D01*
X163878765Y-86453479D01*
X163859080Y-86520518D01*
X163842446Y-86541160D01*
X163542181Y-86841425D01*
X163480858Y-86874910D01*
X163411166Y-86869926D01*
X163355233Y-86828054D01*
X163330816Y-86762590D01*
X163330500Y-86753744D01*
X163330500Y-86730945D01*
X163330500Y-86730943D01*
X163289577Y-86578216D01*
X163268183Y-86541160D01*
X163210524Y-86441290D01*
X163210518Y-86441282D01*
X163098717Y-86329481D01*
X163098709Y-86329475D01*
X162961790Y-86250426D01*
X162961786Y-86250424D01*
X162961784Y-86250423D01*
X162809057Y-86209500D01*
X162650943Y-86209500D01*
X162498216Y-86250423D01*
X162498209Y-86250426D01*
X162361290Y-86329475D01*
X162361282Y-86329481D01*
X162249481Y-86441282D01*
X162249475Y-86441290D01*
X162170426Y-86578209D01*
X162170423Y-86578216D01*
X162129500Y-86730943D01*
X162129500Y-86745500D01*
X162109815Y-86812539D01*
X162057011Y-86858294D01*
X162005500Y-86869500D01*
X157727255Y-86869500D01*
X157697814Y-86860855D01*
X157667828Y-86854332D01*
X157662812Y-86850577D01*
X157660216Y-86849815D01*
X157639574Y-86833181D01*
X157466819Y-86660426D01*
X157433334Y-86599103D01*
X157430500Y-86572745D01*
X157430500Y-86510945D01*
X157430500Y-86510943D01*
X157389577Y-86358216D01*
X157372987Y-86329481D01*
X157310524Y-86221290D01*
X157310518Y-86221282D01*
X157198717Y-86109481D01*
X157198709Y-86109475D01*
X157061790Y-86030426D01*
X157061786Y-86030424D01*
X157061784Y-86030423D01*
X156909057Y-85989500D01*
X156750943Y-85989500D01*
X156750941Y-85989500D01*
X156666592Y-86012101D01*
X156596743Y-86010438D01*
X156538880Y-85971275D01*
X156511377Y-85907046D01*
X156510500Y-85892326D01*
X156510500Y-85589221D01*
X156530185Y-85522182D01*
X156582989Y-85476427D01*
X156652147Y-85466483D01*
X156708128Y-85489448D01*
X156781843Y-85543852D01*
X156781846Y-85543853D01*
X156907173Y-85587708D01*
X156907177Y-85587708D01*
X156907181Y-85587710D01*
X156922057Y-85589105D01*
X156936930Y-85590500D01*
X156936934Y-85590500D01*
X157383070Y-85590500D01*
X157396705Y-85589221D01*
X157412819Y-85587710D01*
X157412823Y-85587708D01*
X157412826Y-85587708D01*
X157538154Y-85543853D01*
X157538153Y-85543853D01*
X157538157Y-85543852D01*
X157553051Y-85532859D01*
X157618675Y-85508888D01*
X157686846Y-85524201D01*
X157735916Y-85573940D01*
X157742038Y-85587139D01*
X157775637Y-85672339D01*
X157775638Y-85672341D01*
X157867077Y-85792922D01*
X157987656Y-85884360D01*
X157987657Y-85884360D01*
X157987658Y-85884361D01*
X158128436Y-85939877D01*
X158216898Y-85950500D01*
X158216903Y-85950500D01*
X159203097Y-85950500D01*
X159203102Y-85950500D01*
X159291564Y-85939877D01*
X159432342Y-85884361D01*
X159552922Y-85792922D01*
X159591502Y-85742046D01*
X159647692Y-85700524D01*
X159717413Y-85695971D01*
X159778528Y-85729836D01*
X159795843Y-85751875D01*
X159867680Y-85868340D01*
X159867683Y-85868344D01*
X159991654Y-85992315D01*
X160140875Y-86084356D01*
X160140880Y-86084358D01*
X160307302Y-86139505D01*
X160307309Y-86139506D01*
X160410019Y-86149999D01*
X160659999Y-86149999D01*
X160660000Y-86149998D01*
X160660000Y-85174000D01*
X160679685Y-85106961D01*
X160732489Y-85061206D01*
X160784000Y-85050000D01*
X161036000Y-85050000D01*
X161103039Y-85069685D01*
X161148794Y-85122489D01*
X161160000Y-85174000D01*
X161160000Y-86149999D01*
X161409972Y-86149999D01*
X161409986Y-86149998D01*
X161512697Y-86139505D01*
X161679119Y-86084358D01*
X161679124Y-86084356D01*
X161828345Y-85992315D01*
X161952315Y-85868345D01*
X162044356Y-85719124D01*
X162044358Y-85719119D01*
X162084543Y-85597850D01*
X162124315Y-85540405D01*
X162188831Y-85513582D01*
X162236843Y-85517777D01*
X162269089Y-85527145D01*
X162290000Y-85528789D01*
X162790000Y-85528789D01*
X162810910Y-85527145D01*
X162966195Y-85482031D01*
X163105374Y-85399721D01*
X163105383Y-85399714D01*
X163219714Y-85285383D01*
X163219721Y-85285374D01*
X163302031Y-85146195D01*
X163344504Y-85000000D01*
X162790000Y-85000000D01*
X162790000Y-85528789D01*
X162290000Y-85528789D01*
X162290000Y-84874000D01*
X162309685Y-84806961D01*
X162362489Y-84761206D01*
X162414000Y-84750000D01*
X162540000Y-84750000D01*
X162540000Y-84624000D01*
X162559685Y-84556961D01*
X162612489Y-84511206D01*
X162664000Y-84500000D01*
X163344504Y-84500000D01*
X163302031Y-84353804D01*
X163219721Y-84214625D01*
X163219714Y-84214616D01*
X163169159Y-84164061D01*
X163135674Y-84102738D01*
X163139798Y-84035428D01*
X163147710Y-84012819D01*
X163149565Y-83993039D01*
X163150500Y-83983070D01*
X163150500Y-83596929D01*
X163147711Y-83567190D01*
X163147710Y-83567188D01*
X163147710Y-83567181D01*
X163131425Y-83520643D01*
X163130827Y-83508922D01*
X163125868Y-83498280D01*
X163129078Y-83474668D01*
X163127863Y-83450868D01*
X163133938Y-83438920D01*
X163135281Y-83429047D01*
X163149346Y-83408621D01*
X163154133Y-83399210D01*
X163231328Y-83308728D01*
X163251971Y-83295236D01*
X163269996Y-83278406D01*
X163280705Y-83276457D01*
X163289815Y-83270504D01*
X163314472Y-83270314D01*
X163338737Y-83265900D01*
X163348798Y-83270050D01*
G37*
%TD.AperFunction*%
%TA.AperFunction,Conductor*%
G36*
X164570295Y-82489863D02*
G01*
X164614642Y-82518364D01*
X165603181Y-83506903D01*
X165636666Y-83568226D01*
X165639500Y-83594584D01*
X165639500Y-84095537D01*
X165619815Y-84162576D01*
X165567011Y-84208331D01*
X165497853Y-84218275D01*
X165434297Y-84189250D01*
X165427819Y-84183218D01*
X164738720Y-83494119D01*
X164705235Y-83432796D01*
X164710219Y-83363104D01*
X164745870Y-83312148D01*
X164752732Y-83306286D01*
X164289726Y-82843280D01*
X164285387Y-82835334D01*
X164278140Y-82829909D01*
X164268905Y-82805149D01*
X164256241Y-82781957D01*
X164256886Y-82772927D01*
X164253723Y-82764445D01*
X164259339Y-82738624D01*
X164261225Y-82712265D01*
X164267043Y-82703211D01*
X164268575Y-82696172D01*
X164289726Y-82667918D01*
X164439280Y-82518364D01*
X164500603Y-82484879D01*
X164570295Y-82489863D01*
G37*
%TD.AperFunction*%
%TA.AperFunction,Conductor*%
G36*
X157440479Y-82718427D02*
G01*
X157496412Y-82760299D01*
X157520829Y-82825763D01*
X157520503Y-82847211D01*
X157510000Y-82950011D01*
X157510000Y-83144936D01*
X157490315Y-83211975D01*
X157437511Y-83257730D01*
X157421526Y-83260555D01*
X157410000Y-83271210D01*
X157410000Y-83926000D01*
X157390315Y-83993039D01*
X157337511Y-84038794D01*
X157286000Y-84050000D01*
X157034000Y-84050000D01*
X156966961Y-84030315D01*
X156921206Y-83977511D01*
X156910000Y-83926000D01*
X156910000Y-83248907D01*
X156903978Y-83238841D01*
X156906219Y-83169007D01*
X156936331Y-83120061D01*
X157309466Y-82746926D01*
X157370787Y-82713443D01*
X157440479Y-82718427D01*
G37*
%TD.AperFunction*%
%TA.AperFunction,Conductor*%
G36*
X159228834Y-81290072D02*
G01*
X159284767Y-81331944D01*
X159309184Y-81397408D01*
X159309500Y-81406254D01*
X159309500Y-82126000D01*
X159289815Y-82193039D01*
X159237011Y-82238794D01*
X159185500Y-82250000D01*
X158960000Y-82250000D01*
X158960000Y-83226000D01*
X158940315Y-83293039D01*
X158887511Y-83338794D01*
X158836000Y-83350000D01*
X158584000Y-83350000D01*
X158516961Y-83330315D01*
X158471206Y-83277511D01*
X158460000Y-83226000D01*
X158460000Y-82250000D01*
X158457607Y-82247607D01*
X158398715Y-82230315D01*
X158352960Y-82177511D01*
X158343016Y-82108353D01*
X158372041Y-82044797D01*
X158378059Y-82038333D01*
X159097821Y-81318571D01*
X159159142Y-81285088D01*
X159228834Y-81290072D01*
G37*
%TD.AperFunction*%
%TA.AperFunction,Conductor*%
G36*
X154832597Y-81560185D02*
G01*
X154878352Y-81612989D01*
X154888296Y-81682147D01*
X154859271Y-81745703D01*
X154853239Y-81752181D01*
X153362240Y-83243181D01*
X153300917Y-83276666D01*
X153274559Y-83279500D01*
X152923160Y-83279500D01*
X152856121Y-83259815D01*
X152812675Y-83211795D01*
X152776459Y-83140718D01*
X152743996Y-83077006D01*
X152656733Y-82956898D01*
X152637558Y-82930505D01*
X152637554Y-82930500D01*
X152509499Y-82802445D01*
X152509494Y-82802441D01*
X152362997Y-82696006D01*
X152362996Y-82696005D01*
X152362994Y-82696004D01*
X152311300Y-82669664D01*
X152201639Y-82613788D01*
X152201636Y-82613787D01*
X152029410Y-82557829D01*
X151869321Y-82532473D01*
X151806186Y-82502544D01*
X151769255Y-82443232D01*
X151770253Y-82373370D01*
X151808863Y-82315137D01*
X151869321Y-82287527D01*
X151939425Y-82276422D01*
X152029409Y-82262171D01*
X152201639Y-82206211D01*
X152362994Y-82123996D01*
X152509501Y-82017553D01*
X152637553Y-81889501D01*
X152743996Y-81742994D01*
X152812675Y-81608205D01*
X152860650Y-81557409D01*
X152923160Y-81540500D01*
X154765558Y-81540500D01*
X154832597Y-81560185D01*
G37*
%TD.AperFunction*%
%TA.AperFunction,Conductor*%
G36*
X168786075Y-77270185D02*
G01*
X168831830Y-77322989D01*
X168841774Y-77392147D01*
X168812749Y-77455703D01*
X168791921Y-77474819D01*
X168778282Y-77484727D01*
X168778282Y-77484728D01*
X169410591Y-78117037D01*
X169347007Y-78134075D01*
X169232993Y-78199901D01*
X169139901Y-78292993D01*
X169074075Y-78407007D01*
X169057037Y-78470591D01*
X168424728Y-77838282D01*
X168424727Y-77838282D01*
X168385380Y-77892439D01*
X168288904Y-78081782D01*
X168223242Y-78283869D01*
X168223242Y-78283872D01*
X168190000Y-78493753D01*
X168190000Y-78706246D01*
X168223242Y-78916127D01*
X168223242Y-78916130D01*
X168288904Y-79118217D01*
X168385375Y-79307550D01*
X168424728Y-79361716D01*
X169057037Y-78729408D01*
X169074075Y-78792993D01*
X169139901Y-78907007D01*
X169232993Y-79000099D01*
X169347007Y-79065925D01*
X169410588Y-79082962D01*
X168778282Y-79715269D01*
X168778282Y-79715270D01*
X168832449Y-79754624D01*
X169021780Y-79851094D01*
X169050705Y-79860492D01*
X169108381Y-79899929D01*
X169135580Y-79964287D01*
X169123667Y-80033134D01*
X169076424Y-80084610D01*
X169068685Y-80088908D01*
X168937004Y-80156004D01*
X168790505Y-80262441D01*
X168790500Y-80262445D01*
X168662445Y-80390500D01*
X168607445Y-80466201D01*
X168552114Y-80508866D01*
X168482501Y-80514845D01*
X168420706Y-80482239D01*
X168419446Y-80480996D01*
X167051523Y-79113073D01*
X167018038Y-79051750D01*
X167023022Y-78982058D01*
X167051523Y-78937711D01*
X167088808Y-78900426D01*
X167160812Y-78828422D01*
X167239869Y-78691490D01*
X167274591Y-78561903D01*
X167310955Y-78502245D01*
X167373802Y-78471716D01*
X167394365Y-78469999D01*
X167404624Y-78469999D01*
X167404649Y-78469998D01*
X167440910Y-78467145D01*
X167596196Y-78422030D01*
X167663633Y-78382149D01*
X167735374Y-78339721D01*
X167735383Y-78339714D01*
X167849714Y-78225383D01*
X167849721Y-78225374D01*
X167932031Y-78086195D01*
X167932033Y-78086190D01*
X167977144Y-77930918D01*
X167977145Y-77930912D01*
X167978790Y-77910000D01*
X167324000Y-77910000D01*
X167256961Y-77890315D01*
X167211206Y-77837511D01*
X167200000Y-77786000D01*
X167200000Y-77534000D01*
X167219685Y-77466961D01*
X167272489Y-77421206D01*
X167324000Y-77410000D01*
X167978789Y-77410000D01*
X167976762Y-77384224D01*
X167991129Y-77315847D01*
X168040182Y-77266093D01*
X168100380Y-77250500D01*
X168719036Y-77250500D01*
X168786075Y-77270185D01*
G37*
%TD.AperFunction*%
%TA.AperFunction,Conductor*%
G36*
X155127335Y-78120185D02*
G01*
X155173090Y-78172989D01*
X155183034Y-78242147D01*
X155167683Y-78286500D01*
X155146794Y-78322680D01*
X155146793Y-78322683D01*
X155119500Y-78424543D01*
X155119500Y-78812745D01*
X155099815Y-78879784D01*
X155083181Y-78900426D01*
X154839926Y-79143681D01*
X154778603Y-79177166D01*
X154752245Y-79180000D01*
X154300000Y-79180000D01*
X154300000Y-79349402D01*
X154280315Y-79416441D01*
X154263681Y-79437083D01*
X154239481Y-79461282D01*
X154239475Y-79461290D01*
X154160426Y-79598209D01*
X154160423Y-79598216D01*
X154119500Y-79750943D01*
X154119500Y-79909057D01*
X154159324Y-80057680D01*
X154160423Y-80061783D01*
X154160424Y-80061786D01*
X154213375Y-80153500D01*
X154229848Y-80221400D01*
X154206995Y-80287427D01*
X154152074Y-80330618D01*
X154105988Y-80339500D01*
X153797254Y-80339500D01*
X153730215Y-80319815D01*
X153709573Y-80303181D01*
X153516819Y-80110426D01*
X153502115Y-80083498D01*
X153485523Y-80057680D01*
X153484631Y-80051479D01*
X153483334Y-80049103D01*
X153480500Y-80022745D01*
X153480500Y-79785550D01*
X153500185Y-79718511D01*
X153552989Y-79672756D01*
X153622147Y-79662812D01*
X153639095Y-79666474D01*
X153779086Y-79707144D01*
X153800000Y-79708789D01*
X153800000Y-79054000D01*
X153819685Y-78986961D01*
X153872489Y-78941206D01*
X153924000Y-78930000D01*
X154050000Y-78930000D01*
X154050000Y-78804000D01*
X154069685Y-78736961D01*
X154122489Y-78691206D01*
X154174000Y-78680000D01*
X154854504Y-78680000D01*
X154812031Y-78533804D01*
X154729721Y-78394625D01*
X154729714Y-78394616D01*
X154679159Y-78344061D01*
X154671440Y-78329925D01*
X154659734Y-78318864D01*
X154655040Y-78299891D01*
X154645674Y-78282738D01*
X154646637Y-78265924D01*
X154642955Y-78251039D01*
X154649417Y-78217408D01*
X154649478Y-78216353D01*
X154649592Y-78216018D01*
X154657710Y-78192819D01*
X154657787Y-78191988D01*
X154660351Y-78184473D01*
X154676585Y-78161455D01*
X154690104Y-78136746D01*
X154696453Y-78133285D01*
X154700622Y-78127376D01*
X154726723Y-78116789D01*
X154751455Y-78103312D01*
X154763003Y-78102075D01*
X154765369Y-78101116D01*
X154767760Y-78101565D01*
X154777713Y-78100500D01*
X155060296Y-78100500D01*
X155127335Y-78120185D01*
G37*
%TD.AperFunction*%
%TA.AperFunction,Conductor*%
G36*
X162157136Y-74244152D02*
G01*
X162163147Y-74243288D01*
X162189767Y-74255445D01*
X162217425Y-74265017D01*
X162221178Y-74269790D01*
X162226703Y-74272313D01*
X162242526Y-74296934D01*
X162260617Y-74319938D01*
X162262033Y-74327289D01*
X162264477Y-74331091D01*
X162269500Y-74366026D01*
X162269500Y-74594197D01*
X162296793Y-74696060D01*
X162323156Y-74741721D01*
X162349520Y-74787384D01*
X162349522Y-74787386D01*
X162673181Y-75111045D01*
X162706666Y-75172368D01*
X162709500Y-75198726D01*
X162709500Y-76859086D01*
X162736793Y-76960949D01*
X162767235Y-77013676D01*
X162789520Y-77052273D01*
X162939523Y-77202276D01*
X162973008Y-77263599D01*
X162968024Y-77333290D01*
X162926153Y-77389224D01*
X162913842Y-77397344D01*
X162782503Y-77473172D01*
X162709064Y-77546610D01*
X162695183Y-77554624D01*
X162685934Y-77564802D01*
X162653491Y-77578699D01*
X162647045Y-77580427D01*
X162646837Y-77580481D01*
X162646832Y-77580484D01*
X162555502Y-77633214D01*
X162480936Y-77707781D01*
X161796258Y-78392458D01*
X161734935Y-78425943D01*
X161665243Y-78420959D01*
X161620898Y-78392460D01*
X161457959Y-78229520D01*
X161394392Y-78192819D01*
X161366635Y-78176793D01*
X161315403Y-78163066D01*
X161264773Y-78149500D01*
X161264772Y-78149500D01*
X159467931Y-78149500D01*
X159400892Y-78129815D01*
X159360544Y-78087500D01*
X159299222Y-77981287D01*
X159299218Y-77981282D01*
X159187417Y-77869481D01*
X159187409Y-77869475D01*
X159050490Y-77790426D01*
X159050486Y-77790424D01*
X159050484Y-77790423D01*
X158897757Y-77749500D01*
X158851337Y-77749500D01*
X158784298Y-77729815D01*
X158738543Y-77677011D01*
X158728045Y-77612269D01*
X158729071Y-77602699D01*
X158730526Y-77597273D01*
X158750501Y-77522727D01*
X158750501Y-77417273D01*
X158750500Y-77417269D01*
X158750500Y-74863615D01*
X158770185Y-74796576D01*
X158786819Y-74775934D01*
X159215934Y-74346819D01*
X159277257Y-74313334D01*
X159303615Y-74310500D01*
X161939085Y-74310500D01*
X161939087Y-74310500D01*
X162040948Y-74283207D01*
X162083499Y-74258639D01*
X162089400Y-74257207D01*
X162093989Y-74253232D01*
X162122953Y-74249067D01*
X162151398Y-74242166D01*
X162157136Y-74244152D01*
G37*
%TD.AperFunction*%
%TA.AperFunction,Conductor*%
G36*
X155981758Y-72148560D02*
G01*
X156004073Y-72151702D01*
X156019057Y-72162073D01*
X156026265Y-72164685D01*
X156030113Y-72169726D01*
X156040573Y-72176966D01*
X156154087Y-72290480D01*
X156216861Y-72326723D01*
X156244263Y-72342544D01*
X156245412Y-72343207D01*
X156347273Y-72370500D01*
X156452727Y-72370500D01*
X156755988Y-72370500D01*
X156823027Y-72390185D01*
X156868782Y-72442989D01*
X156878726Y-72512147D01*
X156863375Y-72556499D01*
X156850728Y-72578403D01*
X156810424Y-72648213D01*
X156810423Y-72648216D01*
X156769500Y-72800943D01*
X156769500Y-72959057D01*
X156797938Y-73065190D01*
X156805499Y-73093407D01*
X156804903Y-73118401D01*
X156808462Y-73143147D01*
X156804086Y-73152727D01*
X156803836Y-73163257D01*
X156789823Y-73183960D01*
X156779437Y-73206703D01*
X156770575Y-73212397D01*
X156764673Y-73221119D01*
X156741692Y-73230960D01*
X156720659Y-73244477D01*
X156704803Y-73246756D01*
X156700445Y-73248623D01*
X156685724Y-73249500D01*
X156647254Y-73249500D01*
X156580215Y-73229815D01*
X156559573Y-73213181D01*
X155825915Y-72479522D01*
X155825914Y-72479521D01*
X155825913Y-72479520D01*
X155825910Y-72479518D01*
X155820834Y-72475623D01*
X155820344Y-72475446D01*
X155819977Y-72474966D01*
X155819464Y-72474572D01*
X155819570Y-72474432D01*
X155803108Y-72452867D01*
X155783502Y-72432306D01*
X155782181Y-72425453D01*
X155777948Y-72419908D01*
X155775655Y-72391595D01*
X155770278Y-72363699D01*
X155772735Y-72355546D01*
X155772308Y-72350267D01*
X155781424Y-72326723D01*
X155784331Y-72317083D01*
X155843506Y-72206246D01*
X155859287Y-72190164D01*
X155871415Y-72171172D01*
X155883289Y-72165706D01*
X155892444Y-72156379D01*
X155914414Y-72151382D01*
X155934886Y-72141961D01*
X155947829Y-72143783D01*
X155960574Y-72140885D01*
X155981758Y-72148560D01*
G37*
%TD.AperFunction*%
%TA.AperFunction,Conductor*%
G36*
X165742695Y-69517348D02*
G01*
X165793098Y-69565735D01*
X165809500Y-69627369D01*
X165809500Y-71035040D01*
X165789815Y-71102079D01*
X165737011Y-71147834D01*
X165667853Y-71157778D01*
X165604297Y-71128753D01*
X165597819Y-71122721D01*
X165545383Y-71070285D01*
X165545374Y-71070278D01*
X165406195Y-70987968D01*
X165406190Y-70987966D01*
X165250918Y-70942855D01*
X165250912Y-70942854D01*
X165230000Y-70941209D01*
X165230000Y-71596000D01*
X165210315Y-71663039D01*
X165157511Y-71708794D01*
X165106000Y-71720000D01*
X164854000Y-71720000D01*
X164786961Y-71700315D01*
X164741206Y-71647511D01*
X164730000Y-71596000D01*
X164730000Y-70941210D01*
X164729999Y-70941209D01*
X164709087Y-70942854D01*
X164629428Y-70965997D01*
X164625040Y-70965984D01*
X164621192Y-70968086D01*
X164590411Y-70965884D01*
X164559558Y-70965796D01*
X164555876Y-70963414D01*
X164551500Y-70963102D01*
X164526796Y-70944608D01*
X164500889Y-70927854D01*
X164499078Y-70923858D01*
X164495567Y-70921230D01*
X164484784Y-70892320D01*
X164472046Y-70864215D01*
X164472682Y-70859875D01*
X164471150Y-70855766D01*
X164477708Y-70825615D01*
X164482188Y-70795085D01*
X164485332Y-70790569D01*
X164486002Y-70787493D01*
X164507150Y-70759242D01*
X164613922Y-70652470D01*
X164669504Y-70620380D01*
X164821784Y-70579577D01*
X164958716Y-70500520D01*
X165070520Y-70388716D01*
X165149577Y-70251784D01*
X165190500Y-70099057D01*
X165190500Y-70037255D01*
X165198669Y-70009432D01*
X165204030Y-69980931D01*
X165209078Y-69973984D01*
X165210185Y-69970216D01*
X165224373Y-69952089D01*
X165225557Y-69950835D01*
X165310480Y-69865913D01*
X165317820Y-69853198D01*
X165327807Y-69842630D01*
X165345028Y-69832583D01*
X165359998Y-69818163D01*
X165368148Y-69813854D01*
X165368157Y-69813852D01*
X165474999Y-69734999D01*
X165553852Y-69628157D01*
X165567029Y-69590500D01*
X165568459Y-69586414D01*
X165609181Y-69529638D01*
X165674134Y-69503891D01*
X165742695Y-69517348D01*
G37*
%TD.AperFunction*%
%TA.AperFunction,Conductor*%
G36*
X158115470Y-70720185D02*
G01*
X158136112Y-70736819D01*
X158413181Y-71013887D01*
X158427884Y-71040814D01*
X158444477Y-71066633D01*
X158445368Y-71072833D01*
X158446666Y-71075210D01*
X158449500Y-71101568D01*
X158449500Y-71183745D01*
X158429815Y-71250784D01*
X158377011Y-71296539D01*
X158307853Y-71306483D01*
X158244297Y-71277458D01*
X158237819Y-71271426D01*
X158215915Y-71249522D01*
X158215913Y-71249520D01*
X158146632Y-71209520D01*
X158124589Y-71196793D01*
X158073657Y-71183146D01*
X158022727Y-71169500D01*
X158022726Y-71169500D01*
X157607254Y-71169500D01*
X157540215Y-71149815D01*
X157519578Y-71133185D01*
X157365913Y-70979520D01*
X157283411Y-70931887D01*
X157235196Y-70881319D01*
X157221974Y-70812712D01*
X157247942Y-70747847D01*
X157304857Y-70707320D01*
X157345412Y-70700500D01*
X158048431Y-70700500D01*
X158115470Y-70720185D01*
G37*
%TD.AperFunction*%
%TA.AperFunction,Conductor*%
G36*
X156570405Y-70481910D02*
G01*
X156573592Y-70484985D01*
X156709087Y-70620480D01*
X156783733Y-70663577D01*
X156791589Y-70668113D01*
X156793698Y-70670324D01*
X156796627Y-70671185D01*
X156817640Y-70695436D01*
X156839804Y-70718681D01*
X156840382Y-70721681D01*
X156842382Y-70723989D01*
X156846951Y-70755767D01*
X156853026Y-70787288D01*
X156851891Y-70790122D01*
X156852326Y-70793147D01*
X156838988Y-70822352D01*
X156827058Y-70852153D01*
X156824569Y-70853924D01*
X156823301Y-70856703D01*
X156796289Y-70874062D01*
X156770143Y-70892680D01*
X156766318Y-70893323D01*
X156764523Y-70894477D01*
X156729588Y-70899500D01*
X156532869Y-70899500D01*
X156465830Y-70879815D01*
X156445188Y-70863181D01*
X156277767Y-70695760D01*
X156244282Y-70634437D01*
X156249266Y-70564745D01*
X156291138Y-70508812D01*
X156349263Y-70485140D01*
X156384340Y-70480522D01*
X156384345Y-70480520D01*
X156438457Y-70458106D01*
X156507926Y-70450636D01*
X156570405Y-70481910D01*
G37*
%TD.AperFunction*%
%TA.AperFunction,Conductor*%
G36*
X164105821Y-68577459D02*
G01*
X164136253Y-68579636D01*
X164140054Y-68582481D01*
X164144755Y-68583171D01*
X164167763Y-68603223D01*
X164192187Y-68621506D01*
X164194837Y-68626818D01*
X164197428Y-68629077D01*
X164211998Y-68661223D01*
X164227969Y-68716196D01*
X164310278Y-68855374D01*
X164310285Y-68855383D01*
X164360839Y-68905936D01*
X164394325Y-68967259D01*
X164396117Y-69009659D01*
X164394451Y-69022425D01*
X164382290Y-69057181D01*
X164379500Y-69086934D01*
X164379500Y-69137032D01*
X164378458Y-69145020D01*
X164367479Y-69169917D01*
X164359815Y-69196018D01*
X164353591Y-69201410D01*
X164350267Y-69208950D01*
X164327567Y-69223960D01*
X164307011Y-69241773D01*
X164298858Y-69242945D01*
X164291987Y-69247489D01*
X164264782Y-69247844D01*
X164237853Y-69251717D01*
X164228210Y-69248323D01*
X164222124Y-69248403D01*
X164213969Y-69243311D01*
X164203912Y-69239772D01*
X164203353Y-69241066D01*
X164196190Y-69237966D01*
X164040918Y-69192855D01*
X164040912Y-69192854D01*
X164020000Y-69191209D01*
X164020000Y-69810790D01*
X164015775Y-69842882D01*
X164006341Y-69878092D01*
X163969977Y-69937753D01*
X163907131Y-69968283D01*
X163886566Y-69970000D01*
X163644000Y-69970000D01*
X163576961Y-69950315D01*
X163531206Y-69897511D01*
X163520000Y-69846000D01*
X163520000Y-69191210D01*
X163506159Y-69178416D01*
X163485848Y-69174149D01*
X163475945Y-69164386D01*
X163463297Y-69158610D01*
X163451556Y-69140341D01*
X163436093Y-69125096D01*
X163432267Y-69110326D01*
X163425523Y-69099832D01*
X163420500Y-69064897D01*
X163420500Y-68947254D01*
X163440185Y-68880215D01*
X163456815Y-68859577D01*
X163553691Y-68762700D01*
X163615014Y-68729216D01*
X163659853Y-68727767D01*
X163701802Y-68734090D01*
X163833108Y-68714299D01*
X163952748Y-68656684D01*
X163952748Y-68656683D01*
X163952750Y-68656683D01*
X163952752Y-68656681D01*
X163962121Y-68648917D01*
X163975759Y-68637618D01*
X164005240Y-68608136D01*
X164009406Y-68605861D01*
X164011986Y-68601873D01*
X164039780Y-68589275D01*
X164066561Y-68574652D01*
X164071298Y-68574990D01*
X164075625Y-68573030D01*
X164105821Y-68577459D01*
G37*
%TD.AperFunction*%
%TA.AperFunction,Conductor*%
G36*
X152875270Y-66661717D02*
G01*
X152875270Y-66661716D01*
X152914622Y-66607554D01*
X152965015Y-66508654D01*
X153012990Y-66457858D01*
X153080811Y-66441063D01*
X153146946Y-66463600D01*
X153190397Y-66518315D01*
X153199500Y-66564949D01*
X153199500Y-69013745D01*
X153179815Y-69080784D01*
X153127011Y-69126539D01*
X153057853Y-69136483D01*
X152994297Y-69107458D01*
X152987819Y-69101426D01*
X152865674Y-68979281D01*
X152832189Y-68917958D01*
X152835423Y-68853284D01*
X152882171Y-68709409D01*
X152890933Y-68654087D01*
X152910500Y-68530551D01*
X152910500Y-68349448D01*
X152890302Y-68221930D01*
X152882171Y-68170591D01*
X152839578Y-68039500D01*
X152826212Y-67998363D01*
X152826211Y-67998360D01*
X152788737Y-67924815D01*
X152743996Y-67837006D01*
X152685552Y-67756564D01*
X152637558Y-67690505D01*
X152637554Y-67690500D01*
X152509499Y-67562445D01*
X152509494Y-67562441D01*
X152362995Y-67456004D01*
X152231314Y-67388908D01*
X152180519Y-67340934D01*
X152163724Y-67273113D01*
X152186262Y-67206978D01*
X152240977Y-67163527D01*
X152249295Y-67160492D01*
X152278217Y-67151095D01*
X152467554Y-67054622D01*
X152521716Y-67015270D01*
X152521717Y-67015270D01*
X151889409Y-66382962D01*
X151952993Y-66365925D01*
X152067007Y-66300099D01*
X152160099Y-66207007D01*
X152225925Y-66092993D01*
X152242962Y-66029408D01*
X152875270Y-66661717D01*
G37*
%TD.AperFunction*%
%TA.AperFunction,Conductor*%
G36*
X168443879Y-63780185D02*
G01*
X168487325Y-63828205D01*
X168554014Y-63959089D01*
X168556006Y-63962997D01*
X168662441Y-64109494D01*
X168662445Y-64109499D01*
X168790500Y-64237554D01*
X168790505Y-64237558D01*
X168904361Y-64320278D01*
X168937006Y-64343996D01*
X169038780Y-64395853D01*
X169068684Y-64411090D01*
X169119480Y-64459065D01*
X169136275Y-64526886D01*
X169113737Y-64593021D01*
X169059022Y-64636472D01*
X169050708Y-64639506D01*
X169021781Y-64648905D01*
X168832439Y-64745380D01*
X168778282Y-64784727D01*
X168778282Y-64784728D01*
X169410591Y-65417037D01*
X169347007Y-65434075D01*
X169232993Y-65499901D01*
X169139901Y-65592993D01*
X169074075Y-65707007D01*
X169057037Y-65770591D01*
X168424728Y-65138282D01*
X168424727Y-65138282D01*
X168385380Y-65192439D01*
X168288904Y-65381782D01*
X168223242Y-65583869D01*
X168223242Y-65583872D01*
X168190000Y-65793753D01*
X168190000Y-66006246D01*
X168223242Y-66216127D01*
X168223242Y-66216130D01*
X168288904Y-66418217D01*
X168385375Y-66607550D01*
X168424728Y-66661716D01*
X169057037Y-66029408D01*
X169074075Y-66092993D01*
X169139901Y-66207007D01*
X169232993Y-66300099D01*
X169347007Y-66365925D01*
X169410588Y-66382962D01*
X168778282Y-67015269D01*
X168778282Y-67015270D01*
X168832449Y-67054624D01*
X169021780Y-67151094D01*
X169050705Y-67160492D01*
X169108381Y-67199929D01*
X169135580Y-67264287D01*
X169123667Y-67333134D01*
X169076424Y-67384610D01*
X169068685Y-67388908D01*
X168937004Y-67456004D01*
X168790505Y-67562441D01*
X168790500Y-67562445D01*
X168662445Y-67690500D01*
X168662441Y-67690505D01*
X168556006Y-67837002D01*
X168487325Y-67971795D01*
X168439350Y-68022591D01*
X168376840Y-68039500D01*
X167610339Y-68039500D01*
X167610323Y-68039499D01*
X167602727Y-68039499D01*
X167497273Y-68039499D01*
X167449821Y-68052214D01*
X167395410Y-68066793D01*
X167354136Y-68090624D01*
X167354135Y-68090623D01*
X167304093Y-68119516D01*
X167304084Y-68119522D01*
X166822181Y-68601426D01*
X166760858Y-68634911D01*
X166691166Y-68629927D01*
X166635233Y-68588055D01*
X166610816Y-68522591D01*
X166610500Y-68513745D01*
X166610500Y-64087255D01*
X166630185Y-64020216D01*
X166646819Y-63999574D01*
X166849574Y-63796819D01*
X166910897Y-63763334D01*
X166937255Y-63760500D01*
X168376840Y-63760500D01*
X168443879Y-63780185D01*
G37*
%TD.AperFunction*%
%TA.AperFunction,Conductor*%
G36*
X158881107Y-67108562D02*
G01*
X158887226Y-67108449D01*
X158919596Y-67122514D01*
X159031507Y-67191542D01*
X159031516Y-67191546D01*
X159087203Y-67209999D01*
X159087206Y-67210000D01*
X159866000Y-67210000D01*
X159933039Y-67229685D01*
X159978794Y-67282489D01*
X159990000Y-67334000D01*
X159990000Y-67586000D01*
X159970315Y-67653039D01*
X159917511Y-67698794D01*
X159866000Y-67710000D01*
X159185496Y-67710000D01*
X159207548Y-67785906D01*
X159207472Y-67812162D01*
X159211209Y-67838147D01*
X159207374Y-67846543D01*
X159207348Y-67855775D01*
X159193090Y-67877820D01*
X159182184Y-67901703D01*
X159174417Y-67906694D01*
X159169405Y-67914445D01*
X159145492Y-67925282D01*
X159123406Y-67939477D01*
X159109886Y-67941420D01*
X159105767Y-67943288D01*
X159088471Y-67944500D01*
X158892255Y-67944500D01*
X158825216Y-67924815D01*
X158804574Y-67908181D01*
X158714280Y-67817887D01*
X158680795Y-67756564D01*
X158684919Y-67689254D01*
X158727741Y-67566879D01*
X158730500Y-67537457D01*
X158730499Y-67228050D01*
X158732724Y-67220473D01*
X158731456Y-67212680D01*
X158742425Y-67187433D01*
X158750183Y-67161013D01*
X158756152Y-67155840D01*
X158759299Y-67148598D01*
X158782179Y-67133287D01*
X158802987Y-67115258D01*
X158810804Y-67114133D01*
X158817368Y-67109742D01*
X158844893Y-67109232D01*
X158872146Y-67105314D01*
X158881107Y-67108562D01*
G37*
%TD.AperFunction*%
%TA.AperFunction,Conductor*%
G36*
X169449914Y-49290184D02*
G01*
X169495669Y-49342988D01*
X169505613Y-49412146D01*
X169476588Y-49475702D01*
X169417810Y-49513476D01*
X169402273Y-49516972D01*
X169270589Y-49537829D01*
X169098363Y-49593787D01*
X169098360Y-49593788D01*
X168937006Y-49676003D01*
X168805749Y-49771366D01*
X168805744Y-49771370D01*
X168790499Y-49782447D01*
X168662447Y-49910499D01*
X168651370Y-49925744D01*
X168651365Y-49925750D01*
X168556003Y-50057006D01*
X168473788Y-50218360D01*
X168473787Y-50218363D01*
X168417829Y-50390589D01*
X168389500Y-50569448D01*
X168389500Y-50750551D01*
X168417829Y-50929410D01*
X168473787Y-51101636D01*
X168473788Y-51101639D01*
X168556006Y-51262997D01*
X168662441Y-51409494D01*
X168662445Y-51409499D01*
X168790500Y-51537554D01*
X168790505Y-51537558D01*
X168881039Y-51603334D01*
X168937006Y-51643996D01*
X169032304Y-51692553D01*
X169068684Y-51711090D01*
X169119480Y-51759065D01*
X169136275Y-51826886D01*
X169113737Y-51893021D01*
X169059022Y-51936472D01*
X169050708Y-51939506D01*
X169021781Y-51948905D01*
X168832439Y-52045380D01*
X168778282Y-52084727D01*
X168778282Y-52084728D01*
X169410591Y-52717037D01*
X169347007Y-52734075D01*
X169232993Y-52799901D01*
X169139901Y-52892993D01*
X169074075Y-53007007D01*
X169057037Y-53070591D01*
X168424728Y-52438282D01*
X168424727Y-52438282D01*
X168385380Y-52492439D01*
X168288904Y-52681782D01*
X168223242Y-52883869D01*
X168223242Y-52883872D01*
X168190000Y-53093753D01*
X168190000Y-53306246D01*
X168223242Y-53516127D01*
X168223242Y-53516130D01*
X168288904Y-53718217D01*
X168385375Y-53907550D01*
X168424728Y-53961716D01*
X169057037Y-53329408D01*
X169074075Y-53392993D01*
X169139901Y-53507007D01*
X169232993Y-53600099D01*
X169347007Y-53665925D01*
X169410588Y-53682962D01*
X168778282Y-54315269D01*
X168778282Y-54315270D01*
X168832449Y-54354624D01*
X169021780Y-54451094D01*
X169050705Y-54460492D01*
X169108381Y-54499929D01*
X169135580Y-54564287D01*
X169123667Y-54633134D01*
X169076424Y-54684610D01*
X169068685Y-54688908D01*
X168937004Y-54756004D01*
X168790505Y-54862441D01*
X168790500Y-54862445D01*
X168662445Y-54990500D01*
X168662441Y-54990505D01*
X168556006Y-55137002D01*
X168473788Y-55298360D01*
X168473787Y-55298363D01*
X168417829Y-55470589D01*
X168389500Y-55649448D01*
X168389500Y-55830551D01*
X168417829Y-56009410D01*
X168473787Y-56181636D01*
X168473788Y-56181639D01*
X168520820Y-56273942D01*
X168554478Y-56340000D01*
X168556006Y-56342997D01*
X168651361Y-56474244D01*
X168651365Y-56474248D01*
X168662447Y-56489501D01*
X168790499Y-56617553D01*
X168805751Y-56628634D01*
X168805755Y-56628638D01*
X168909277Y-56703850D01*
X168937006Y-56723996D01*
X169031639Y-56772214D01*
X169098360Y-56806211D01*
X169098363Y-56806212D01*
X169184476Y-56834191D01*
X169270591Y-56862171D01*
X169343639Y-56873740D01*
X169430678Y-56887527D01*
X169493813Y-56917456D01*
X169530744Y-56976768D01*
X169529746Y-57046631D01*
X169491136Y-57104863D01*
X169430678Y-57132473D01*
X169270587Y-57157829D01*
X169126716Y-57204575D01*
X169056875Y-57206570D01*
X169000718Y-57174325D01*
X166775915Y-54949522D01*
X166775913Y-54949520D01*
X166724783Y-54920000D01*
X166684589Y-54896793D01*
X166633657Y-54883146D01*
X166582727Y-54869500D01*
X166582726Y-54869500D01*
X165270098Y-54869500D01*
X165203059Y-54849815D01*
X165182417Y-54833181D01*
X165138717Y-54789481D01*
X165138709Y-54789475D01*
X165001790Y-54710426D01*
X165001786Y-54710424D01*
X165001784Y-54710423D01*
X164849057Y-54669500D01*
X164690943Y-54669500D01*
X164538216Y-54710423D01*
X164538209Y-54710426D01*
X164401290Y-54789475D01*
X164401282Y-54789481D01*
X164289481Y-54901282D01*
X164289475Y-54901290D01*
X164210426Y-55038209D01*
X164210423Y-55038216D01*
X164169500Y-55190943D01*
X164169500Y-55349057D01*
X164208869Y-55495982D01*
X164210423Y-55501783D01*
X164210424Y-55501786D01*
X164211704Y-55504003D01*
X164212214Y-55506109D01*
X164213534Y-55509294D01*
X164213037Y-55509499D01*
X164228174Y-55571904D01*
X164205320Y-55637930D01*
X164150398Y-55681119D01*
X164124377Y-55688366D01*
X163956130Y-55715950D01*
X163929716Y-55712682D01*
X163903098Y-55713121D01*
X163895571Y-55708457D01*
X163886789Y-55707371D01*
X163866335Y-55690341D01*
X163843706Y-55676320D01*
X163839896Y-55668329D01*
X163833094Y-55662666D01*
X163825092Y-55637277D01*
X163813638Y-55613251D01*
X163814274Y-55602952D01*
X163812092Y-55596027D01*
X163815469Y-55583627D01*
X163816992Y-55558989D01*
X163847166Y-55455128D01*
X163847167Y-55455122D01*
X163849931Y-55420000D01*
X163330000Y-55420000D01*
X163330000Y-55982843D01*
X163343297Y-55978981D01*
X163413167Y-55979180D01*
X163471837Y-56017122D01*
X163500681Y-56080760D01*
X163496279Y-56134946D01*
X163456409Y-56262896D01*
X163450000Y-56333427D01*
X163450000Y-56340000D01*
X166449999Y-56340000D01*
X166449999Y-56333417D01*
X166443591Y-56262897D01*
X166443590Y-56262892D01*
X166393018Y-56100603D01*
X166308086Y-55960108D01*
X166290250Y-55892554D01*
X166311767Y-55826080D01*
X166365808Y-55781792D01*
X166435213Y-55773751D01*
X166497948Y-55804510D01*
X166501884Y-55808277D01*
X168434325Y-57740718D01*
X168467810Y-57802041D01*
X168464575Y-57866716D01*
X168417829Y-58010587D01*
X168389500Y-58189448D01*
X168389500Y-58370551D01*
X168417829Y-58549410D01*
X168473787Y-58721636D01*
X168473788Y-58721639D01*
X168512045Y-58796721D01*
X168554113Y-58879283D01*
X168556006Y-58882997D01*
X168662441Y-59029494D01*
X168662445Y-59029499D01*
X168790500Y-59157554D01*
X168790505Y-59157558D01*
X168918287Y-59250396D01*
X168937006Y-59263996D01*
X169042484Y-59317740D01*
X169098360Y-59346211D01*
X169098363Y-59346212D01*
X169184476Y-59374191D01*
X169270591Y-59402171D01*
X169343639Y-59413740D01*
X169430678Y-59427527D01*
X169493813Y-59457456D01*
X169530744Y-59516768D01*
X169529746Y-59586631D01*
X169491136Y-59644863D01*
X169430678Y-59672473D01*
X169270589Y-59697829D01*
X169098363Y-59753787D01*
X169098360Y-59753788D01*
X168937002Y-59836006D01*
X168790505Y-59942441D01*
X168790500Y-59942445D01*
X168662445Y-60070500D01*
X168662441Y-60070505D01*
X168556006Y-60217002D01*
X168473788Y-60378360D01*
X168473787Y-60378363D01*
X168417829Y-60550589D01*
X168389500Y-60729448D01*
X168389500Y-60910551D01*
X168417829Y-61089410D01*
X168473787Y-61261636D01*
X168473788Y-61261639D01*
X168556006Y-61422997D01*
X168662441Y-61569494D01*
X168662445Y-61569499D01*
X168790500Y-61697554D01*
X168790505Y-61697558D01*
X168918287Y-61790396D01*
X168937006Y-61803996D01*
X169042484Y-61857740D01*
X169098360Y-61886211D01*
X169098363Y-61886212D01*
X169184476Y-61914191D01*
X169270591Y-61942171D01*
X169343639Y-61953740D01*
X169430678Y-61967527D01*
X169493813Y-61997456D01*
X169530744Y-62056768D01*
X169529746Y-62126631D01*
X169491136Y-62184863D01*
X169430678Y-62212473D01*
X169270589Y-62237829D01*
X169098363Y-62293787D01*
X169098360Y-62293788D01*
X168937002Y-62376006D01*
X168790505Y-62482441D01*
X168790500Y-62482445D01*
X168662445Y-62610500D01*
X168662441Y-62610505D01*
X168556006Y-62757002D01*
X168487325Y-62891795D01*
X168439350Y-62942591D01*
X168376840Y-62959500D01*
X166667273Y-62959500D01*
X166565410Y-62986793D01*
X166474087Y-63039520D01*
X166474084Y-63039522D01*
X165889522Y-63624084D01*
X165889518Y-63624090D01*
X165836792Y-63715412D01*
X165836793Y-63715413D01*
X165809500Y-63817273D01*
X165809500Y-67625040D01*
X165789815Y-67692079D01*
X165737011Y-67737834D01*
X165667853Y-67747778D01*
X165604297Y-67718753D01*
X165597819Y-67712721D01*
X165555383Y-67670285D01*
X165555374Y-67670278D01*
X165416195Y-67587968D01*
X165416189Y-67587966D01*
X165308019Y-67556539D01*
X165249133Y-67518933D01*
X165219927Y-67455460D01*
X165218614Y-67437463D01*
X165218614Y-67330955D01*
X165218613Y-67330947D01*
X165178402Y-67174336D01*
X165178399Y-67174326D01*
X165100503Y-67032633D01*
X165086874Y-67016676D01*
X164623868Y-67479684D01*
X164562545Y-67513169D01*
X164492853Y-67508185D01*
X164448506Y-67479684D01*
X164270314Y-67301492D01*
X164236829Y-67240169D01*
X164241813Y-67170477D01*
X164270314Y-67126130D01*
X164733320Y-66663124D01*
X164733320Y-66663122D01*
X164717372Y-66649500D01*
X164717368Y-66649498D01*
X164647686Y-66611190D01*
X164598422Y-66561644D01*
X164583765Y-66493329D01*
X164608368Y-66427935D01*
X164619731Y-66414859D01*
X165265480Y-65769111D01*
X165318207Y-65677786D01*
X165345500Y-65575925D01*
X165345500Y-65470471D01*
X165345500Y-63604075D01*
X165318207Y-63502215D01*
X165265480Y-63410889D01*
X165190913Y-63336322D01*
X164687382Y-62832791D01*
X164653897Y-62771468D01*
X164658881Y-62701776D01*
X164700753Y-62645843D01*
X164742967Y-62625336D01*
X164801784Y-62609577D01*
X164938716Y-62530520D01*
X165050520Y-62418716D01*
X165129577Y-62281784D01*
X165170500Y-62129057D01*
X165170500Y-61970943D01*
X165129577Y-61818216D01*
X165055824Y-61690471D01*
X165047757Y-61676498D01*
X165031285Y-61608598D01*
X165054138Y-61542571D01*
X165109060Y-61499381D01*
X165155145Y-61490499D01*
X165797871Y-61490499D01*
X165797872Y-61490499D01*
X165857483Y-61484091D01*
X165992331Y-61433796D01*
X166107546Y-61347546D01*
X166193796Y-61232331D01*
X166244091Y-61097483D01*
X166250500Y-61037873D01*
X166250499Y-60542128D01*
X166244091Y-60482517D01*
X166205243Y-60378361D01*
X166193797Y-60347671D01*
X166193793Y-60347664D01*
X166107547Y-60232455D01*
X166107544Y-60232452D01*
X165992335Y-60146206D01*
X165992328Y-60146202D01*
X165857482Y-60095908D01*
X165857483Y-60095908D01*
X165797883Y-60089501D01*
X165797881Y-60089500D01*
X165797873Y-60089500D01*
X165797864Y-60089500D01*
X164102129Y-60089500D01*
X164102123Y-60089501D01*
X164042516Y-60095908D01*
X163907671Y-60146202D01*
X163907664Y-60146206D01*
X163792455Y-60232452D01*
X163792452Y-60232455D01*
X163706206Y-60347664D01*
X163706202Y-60347671D01*
X163655910Y-60482513D01*
X163655909Y-60482517D01*
X163649500Y-60542127D01*
X163649500Y-60542134D01*
X163649500Y-60542135D01*
X163649500Y-61037870D01*
X163649501Y-61037876D01*
X163655908Y-61097483D01*
X163706202Y-61232328D01*
X163706206Y-61232335D01*
X163792452Y-61347544D01*
X163792455Y-61347547D01*
X163907664Y-61433793D01*
X163907671Y-61433797D01*
X163976839Y-61459594D01*
X164039563Y-61482989D01*
X164095496Y-61524860D01*
X164119914Y-61590324D01*
X164105063Y-61658597D01*
X164093481Y-61674113D01*
X164094426Y-61674839D01*
X164089475Y-61681290D01*
X164010426Y-61818209D01*
X164010423Y-61818214D01*
X163994664Y-61877030D01*
X163958298Y-61936690D01*
X163895451Y-61967219D01*
X163826076Y-61958924D01*
X163787208Y-61932617D01*
X163281819Y-61427228D01*
X163248334Y-61365905D01*
X163245500Y-61339547D01*
X163245500Y-57055006D01*
X163265185Y-56987967D01*
X163317989Y-56942212D01*
X163387147Y-56932268D01*
X163450703Y-56961293D01*
X163487885Y-57018116D01*
X163506980Y-57079395D01*
X163594927Y-57224877D01*
X163715122Y-57345072D01*
X163860604Y-57433019D01*
X163860603Y-57433019D01*
X164022894Y-57483590D01*
X164022893Y-57483590D01*
X164093427Y-57489999D01*
X164699999Y-57489999D01*
X165200000Y-57489999D01*
X165806581Y-57489999D01*
X165877102Y-57483591D01*
X165877107Y-57483590D01*
X166039396Y-57433018D01*
X166184877Y-57345072D01*
X166305072Y-57224877D01*
X166393019Y-57079395D01*
X166443590Y-56917106D01*
X166450000Y-56846572D01*
X166450000Y-56840000D01*
X165200000Y-56840000D01*
X165200000Y-57489999D01*
X164699999Y-57489999D01*
X164700000Y-57489998D01*
X164700000Y-56840000D01*
X163450000Y-56840000D01*
X163433382Y-56856618D01*
X163372059Y-56890102D01*
X163302367Y-56885117D01*
X163246434Y-56843245D01*
X163225925Y-56801020D01*
X163223701Y-56792718D01*
X163220119Y-56779351D01*
X163218207Y-56772214D01*
X163190366Y-56723993D01*
X163165480Y-56680889D01*
X162660462Y-56175871D01*
X162626977Y-56114548D01*
X162631961Y-56044856D01*
X162673833Y-55988923D01*
X162739297Y-55964506D01*
X162782738Y-55969114D01*
X162829999Y-55982844D01*
X162830000Y-55982844D01*
X162830000Y-55294000D01*
X162849685Y-55226961D01*
X162902489Y-55181206D01*
X162954000Y-55170000D01*
X163080000Y-55170000D01*
X163080000Y-55044000D01*
X163099685Y-54976961D01*
X163152489Y-54931206D01*
X163204000Y-54920000D01*
X163849931Y-54920000D01*
X163847167Y-54884877D01*
X163847166Y-54884871D01*
X163802407Y-54730811D01*
X163802404Y-54730804D01*
X163754618Y-54650000D01*
X163734051Y-54638269D01*
X163706961Y-54630315D01*
X163661206Y-54577511D01*
X163650000Y-54526000D01*
X163650000Y-54223917D01*
X163660565Y-54173832D01*
X163697585Y-54089991D01*
X163700500Y-54064865D01*
X163700499Y-53394859D01*
X163720183Y-53327822D01*
X163772987Y-53282067D01*
X163839248Y-53271741D01*
X164040749Y-53295880D01*
X164066336Y-53306844D01*
X164093039Y-53314685D01*
X164098002Y-53320412D01*
X164104971Y-53323399D01*
X164120569Y-53346456D01*
X164138794Y-53367489D01*
X164140688Y-53376196D01*
X164144121Y-53381271D01*
X164144403Y-53393276D01*
X164150000Y-53419000D01*
X164150000Y-54520000D01*
X164247828Y-54520000D01*
X164247844Y-54519999D01*
X164307372Y-54513598D01*
X164307379Y-54513596D01*
X164442086Y-54463354D01*
X164442093Y-54463350D01*
X164557187Y-54377190D01*
X164557190Y-54377187D01*
X164643350Y-54262093D01*
X164643354Y-54262086D01*
X164693596Y-54127379D01*
X164693598Y-54127372D01*
X164699999Y-54067844D01*
X164700000Y-54067827D01*
X164700000Y-53974923D01*
X164719685Y-53907884D01*
X164720000Y-53907530D01*
X164720000Y-53096988D01*
X164729940Y-53114205D01*
X164785795Y-53170060D01*
X164854204Y-53209556D01*
X164930504Y-53230000D01*
X165009496Y-53230000D01*
X165085796Y-53209556D01*
X165154205Y-53170060D01*
X165210060Y-53114205D01*
X165220000Y-53096988D01*
X165220000Y-53899862D01*
X165261690Y-53891569D01*
X165261692Y-53891569D01*
X165443671Y-53816192D01*
X165443684Y-53816185D01*
X165607462Y-53706751D01*
X165607466Y-53706748D01*
X165746748Y-53567466D01*
X165746751Y-53567462D01*
X165856185Y-53403684D01*
X165856192Y-53403671D01*
X165931569Y-53221693D01*
X165931572Y-53221681D01*
X165962800Y-53064690D01*
X165969999Y-53028494D01*
X165970000Y-53028492D01*
X165970000Y-52630000D01*
X165270000Y-52630000D01*
X165270000Y-52130000D01*
X165970000Y-52130000D01*
X165970000Y-51731508D01*
X165969999Y-51731504D01*
X165931572Y-51538318D01*
X165931569Y-51538306D01*
X165856192Y-51356328D01*
X165856185Y-51356315D01*
X165746751Y-51192537D01*
X165746748Y-51192533D01*
X165607466Y-51053251D01*
X165607462Y-51053248D01*
X165443684Y-50943814D01*
X165443671Y-50943807D01*
X165261691Y-50868429D01*
X165261683Y-50868427D01*
X165220000Y-50860135D01*
X165220000Y-51663011D01*
X165210060Y-51645795D01*
X165154205Y-51589940D01*
X165085796Y-51550444D01*
X165009496Y-51530000D01*
X164930504Y-51530000D01*
X164854204Y-51550444D01*
X164785795Y-51589940D01*
X164729940Y-51645795D01*
X164720000Y-51663011D01*
X164720000Y-50860136D01*
X164719999Y-50860135D01*
X164678316Y-50868427D01*
X164678308Y-50868429D01*
X164496328Y-50943807D01*
X164496315Y-50943814D01*
X164332537Y-51053248D01*
X164332533Y-51053251D01*
X164193248Y-51192536D01*
X164080427Y-51361387D01*
X164079003Y-51360435D01*
X164035742Y-51404451D01*
X163967600Y-51419892D01*
X163901927Y-51396041D01*
X163899907Y-51394306D01*
X163899811Y-51394432D01*
X163893367Y-51389487D01*
X163893365Y-51389485D01*
X163827750Y-51351602D01*
X163762136Y-51313719D01*
X163688950Y-51294109D01*
X163615766Y-51274500D01*
X163464234Y-51274500D01*
X163464232Y-51274500D01*
X163334309Y-51309312D01*
X163264460Y-51307649D01*
X163206597Y-51268486D01*
X163179094Y-51204257D01*
X163190681Y-51135355D01*
X163214533Y-51101859D01*
X164259574Y-50056819D01*
X164320897Y-50023334D01*
X164347255Y-50020500D01*
X168092725Y-50020500D01*
X168092727Y-50020500D01*
X168194588Y-49993207D01*
X168285913Y-49940480D01*
X168919574Y-49306817D01*
X168980897Y-49273333D01*
X169007255Y-49270499D01*
X169382875Y-49270499D01*
X169449914Y-49290184D01*
G37*
%TD.AperFunction*%
%TA.AperFunction,Conductor*%
G36*
X158568709Y-65540643D02*
G01*
X158569199Y-65540504D01*
X158602188Y-65550474D01*
X158635260Y-65560185D01*
X158635593Y-65560569D01*
X158636081Y-65560717D01*
X158658468Y-65586968D01*
X158681015Y-65612989D01*
X158681087Y-65613492D01*
X158681418Y-65613880D01*
X158686055Y-65648043D01*
X158690959Y-65682147D01*
X158690770Y-65682779D01*
X158690816Y-65683115D01*
X158680605Y-65716900D01*
X158678455Y-65721510D01*
X158625144Y-65882393D01*
X158615000Y-65981677D01*
X158615000Y-66030000D01*
X159441000Y-66030000D01*
X159508039Y-66049685D01*
X159553794Y-66102489D01*
X159565000Y-66154000D01*
X159565000Y-66406000D01*
X159545315Y-66473039D01*
X159492511Y-66518794D01*
X159441000Y-66530000D01*
X158615001Y-66530000D01*
X158615001Y-66578326D01*
X158615016Y-66578464D01*
X158615010Y-66578493D01*
X158615162Y-66581470D01*
X158614450Y-66581506D01*
X158602237Y-66647155D01*
X158554349Y-66698033D01*
X158486557Y-66714944D01*
X158450701Y-66708090D01*
X158376880Y-66682258D01*
X158347461Y-66679500D01*
X158347457Y-66679500D01*
X158157255Y-66679500D01*
X158090216Y-66659815D01*
X158069574Y-66643181D01*
X157776819Y-66350426D01*
X157743334Y-66289103D01*
X157740500Y-66262745D01*
X157740500Y-65664500D01*
X157760185Y-65597461D01*
X157812989Y-65551706D01*
X157864500Y-65540500D01*
X158568221Y-65540500D01*
X158568709Y-65540643D01*
G37*
%TD.AperFunction*%
%TA.AperFunction,Conductor*%
G36*
X154119784Y-48540185D02*
G01*
X154140426Y-48556819D01*
X154663181Y-49079574D01*
X154696666Y-49140897D01*
X154699500Y-49167255D01*
X154699500Y-55111274D01*
X154679815Y-55178313D01*
X154663181Y-55198955D01*
X153679522Y-56182613D01*
X153679518Y-56182619D01*
X153626792Y-56273941D01*
X153626793Y-56273942D01*
X153599500Y-56375802D01*
X153599500Y-58905500D01*
X153579815Y-58972539D01*
X153527011Y-59018294D01*
X153475500Y-59029500D01*
X153310943Y-59029500D01*
X153158216Y-59070423D01*
X153158209Y-59070426D01*
X153021290Y-59149475D01*
X153021282Y-59149481D01*
X152909481Y-59261282D01*
X152909475Y-59261290D01*
X152830426Y-59398209D01*
X152830423Y-59398216D01*
X152789500Y-59550943D01*
X152789500Y-59709057D01*
X152823516Y-59836004D01*
X152830423Y-59861783D01*
X152830426Y-59861790D01*
X152909475Y-59998709D01*
X152909479Y-59998714D01*
X152909480Y-59998716D01*
X153021284Y-60110520D01*
X153137501Y-60177617D01*
X153185715Y-60228182D01*
X153199500Y-60285003D01*
X153199500Y-65235050D01*
X153179815Y-65302089D01*
X153127011Y-65347844D01*
X153057853Y-65357788D01*
X152994297Y-65328763D01*
X152965015Y-65291345D01*
X152914624Y-65192450D01*
X152875270Y-65138282D01*
X152875269Y-65138282D01*
X152242962Y-65770590D01*
X152225925Y-65707007D01*
X152160099Y-65592993D01*
X152067007Y-65499901D01*
X151952993Y-65434075D01*
X151889407Y-65417036D01*
X152521716Y-64784728D01*
X152467550Y-64745375D01*
X152278217Y-64648904D01*
X152249292Y-64639506D01*
X152191616Y-64600068D01*
X152164418Y-64535710D01*
X152176333Y-64466863D01*
X152223577Y-64415388D01*
X152231315Y-64411090D01*
X152362994Y-64343996D01*
X152509501Y-64237553D01*
X152637553Y-64109501D01*
X152743996Y-63962994D01*
X152826211Y-63801639D01*
X152882171Y-63629409D01*
X152896765Y-63537259D01*
X152910500Y-63450551D01*
X152910500Y-63269448D01*
X152885274Y-63110184D01*
X152882171Y-63090591D01*
X152837996Y-62954631D01*
X152826212Y-62918363D01*
X152826211Y-62918360D01*
X152797740Y-62862484D01*
X152743996Y-62757006D01*
X152703869Y-62701776D01*
X152637558Y-62610505D01*
X152637554Y-62610500D01*
X152509499Y-62482445D01*
X152509494Y-62482441D01*
X152362997Y-62376006D01*
X152362996Y-62376005D01*
X152362994Y-62376004D01*
X152311300Y-62349664D01*
X152201639Y-62293788D01*
X152201636Y-62293787D01*
X152029410Y-62237829D01*
X151869321Y-62212473D01*
X151806186Y-62182544D01*
X151769255Y-62123232D01*
X151770253Y-62053370D01*
X151808863Y-61995137D01*
X151869321Y-61967527D01*
X151939425Y-61956422D01*
X152029409Y-61942171D01*
X152201639Y-61886211D01*
X152362994Y-61803996D01*
X152509501Y-61697553D01*
X152637553Y-61569501D01*
X152743996Y-61422994D01*
X152826211Y-61261639D01*
X152882171Y-61089409D01*
X152896765Y-60997259D01*
X152910500Y-60910551D01*
X152910500Y-60729448D01*
X152894019Y-60625397D01*
X152882171Y-60550591D01*
X152826211Y-60378361D01*
X152826211Y-60378360D01*
X152778642Y-60285003D01*
X152743996Y-60217006D01*
X152666630Y-60110520D01*
X152637558Y-60070505D01*
X152637554Y-60070500D01*
X152509499Y-59942445D01*
X152509494Y-59942441D01*
X152362997Y-59836006D01*
X152362996Y-59836005D01*
X152362994Y-59836004D01*
X152311300Y-59809664D01*
X152201639Y-59753788D01*
X152201636Y-59753787D01*
X152029410Y-59697829D01*
X151869321Y-59672473D01*
X151806186Y-59642544D01*
X151769255Y-59583232D01*
X151770253Y-59513370D01*
X151808863Y-59455137D01*
X151869321Y-59427527D01*
X151939425Y-59416422D01*
X152029409Y-59402171D01*
X152201639Y-59346211D01*
X152362994Y-59263996D01*
X152509501Y-59157553D01*
X152637553Y-59029501D01*
X152743996Y-58882994D01*
X152826211Y-58721639D01*
X152882171Y-58549409D01*
X152896765Y-58457259D01*
X152910500Y-58370551D01*
X152910500Y-58189448D01*
X152890630Y-58064000D01*
X152882171Y-58010591D01*
X152826211Y-57838361D01*
X152826211Y-57838360D01*
X152776310Y-57740426D01*
X152743996Y-57677006D01*
X152726369Y-57652745D01*
X152637558Y-57530505D01*
X152637554Y-57530500D01*
X152509499Y-57402445D01*
X152509494Y-57402441D01*
X152362997Y-57296006D01*
X152362996Y-57296005D01*
X152362994Y-57296004D01*
X152311300Y-57269664D01*
X152201639Y-57213788D01*
X152201636Y-57213787D01*
X152029410Y-57157829D01*
X151869321Y-57132473D01*
X151806186Y-57102544D01*
X151769255Y-57043232D01*
X151770253Y-56973370D01*
X151808863Y-56915137D01*
X151869321Y-56887527D01*
X151939425Y-56876422D01*
X152029409Y-56862171D01*
X152201639Y-56806211D01*
X152362994Y-56723996D01*
X152509501Y-56617553D01*
X152637553Y-56489501D01*
X152743996Y-56342994D01*
X152826211Y-56181639D01*
X152882171Y-56009409D01*
X152900679Y-55892554D01*
X152910500Y-55830551D01*
X152910500Y-55649448D01*
X152887463Y-55504003D01*
X152882171Y-55470591D01*
X152848159Y-55365910D01*
X152826212Y-55298363D01*
X152826211Y-55298360D01*
X152789831Y-55226961D01*
X152743996Y-55137006D01*
X152676424Y-55044000D01*
X152637558Y-54990505D01*
X152637554Y-54990500D01*
X152509499Y-54862445D01*
X152509494Y-54862441D01*
X152362995Y-54756004D01*
X152231314Y-54688908D01*
X152180519Y-54640934D01*
X152163724Y-54573113D01*
X152186262Y-54506978D01*
X152240977Y-54463527D01*
X152249295Y-54460492D01*
X152278217Y-54451095D01*
X152467554Y-54354622D01*
X152521716Y-54315270D01*
X152521717Y-54315270D01*
X151889409Y-53682962D01*
X151952993Y-53665925D01*
X152067007Y-53600099D01*
X152160099Y-53507007D01*
X152225925Y-53392993D01*
X152242962Y-53329408D01*
X152875270Y-53961717D01*
X152875270Y-53961716D01*
X152914622Y-53907554D01*
X153011095Y-53718217D01*
X153076757Y-53516130D01*
X153076757Y-53516127D01*
X153110000Y-53306246D01*
X153110000Y-53093753D01*
X153076757Y-52883872D01*
X153076757Y-52883869D01*
X153011095Y-52681782D01*
X152914624Y-52492449D01*
X152875270Y-52438282D01*
X152875269Y-52438282D01*
X152242962Y-53070590D01*
X152225925Y-53007007D01*
X152160099Y-52892993D01*
X152067007Y-52799901D01*
X151952993Y-52734075D01*
X151889407Y-52717036D01*
X152521716Y-52084728D01*
X152467550Y-52045375D01*
X152278217Y-51948904D01*
X152249292Y-51939506D01*
X152191616Y-51900068D01*
X152164418Y-51835710D01*
X152176333Y-51766863D01*
X152223577Y-51715388D01*
X152231315Y-51711090D01*
X152362994Y-51643996D01*
X152509501Y-51537553D01*
X152637553Y-51409501D01*
X152743996Y-51262994D01*
X152826211Y-51101639D01*
X152882171Y-50929409D01*
X152898424Y-50826793D01*
X152910500Y-50750551D01*
X152910500Y-50569448D01*
X152894019Y-50465397D01*
X152882171Y-50390591D01*
X152826211Y-50218361D01*
X152826211Y-50218360D01*
X152797740Y-50162484D01*
X152743996Y-50057006D01*
X152697643Y-49993206D01*
X152637558Y-49910505D01*
X152637554Y-49910500D01*
X152509499Y-49782445D01*
X152509494Y-49782441D01*
X152362997Y-49676006D01*
X152362996Y-49676005D01*
X152362994Y-49676004D01*
X152311300Y-49649664D01*
X152201639Y-49593788D01*
X152201636Y-49593787D01*
X152029410Y-49537829D01*
X151897727Y-49516972D01*
X151834592Y-49487043D01*
X151797661Y-49427731D01*
X151798659Y-49357868D01*
X151837269Y-49299636D01*
X151901233Y-49271522D01*
X151917118Y-49270499D01*
X152654864Y-49270499D01*
X152654879Y-49270497D01*
X152654882Y-49270497D01*
X152679987Y-49267586D01*
X152679988Y-49267585D01*
X152679991Y-49267585D01*
X152782765Y-49222206D01*
X152862206Y-49142765D01*
X152907585Y-49039991D01*
X152910500Y-49014865D01*
X152910500Y-48644500D01*
X152930185Y-48577461D01*
X152982989Y-48531706D01*
X153034500Y-48520500D01*
X154052745Y-48520500D01*
X154119784Y-48540185D01*
G37*
%TD.AperFunction*%
%TA.AperFunction,Conductor*%
G36*
X160753039Y-57959685D02*
G01*
X160798794Y-58012489D01*
X160810000Y-58064000D01*
X160810000Y-59440000D01*
X161011097Y-59440000D01*
X161053824Y-59437102D01*
X161238523Y-59391168D01*
X161409022Y-59306609D01*
X161409025Y-59306607D01*
X161557366Y-59187367D01*
X161557367Y-59187366D01*
X161676607Y-59039025D01*
X161676609Y-59039022D01*
X161759412Y-58872065D01*
X161806833Y-58820752D01*
X161874468Y-58803222D01*
X161940843Y-58825042D01*
X161984885Y-58879283D01*
X161994500Y-58927159D01*
X161994500Y-61690471D01*
X161994500Y-61795925D01*
X162000473Y-61818216D01*
X162021793Y-61897787D01*
X162041903Y-61932617D01*
X162074520Y-61989111D01*
X162074522Y-61989113D01*
X163293728Y-63208319D01*
X163327213Y-63269642D01*
X163322229Y-63339334D01*
X163280357Y-63395267D01*
X163214893Y-63419684D01*
X163206056Y-63420000D01*
X163195378Y-63420000D01*
X163195352Y-63420001D01*
X163159089Y-63422854D01*
X163003803Y-63467969D01*
X162864625Y-63550278D01*
X162864616Y-63550285D01*
X162750285Y-63664616D01*
X162750278Y-63664625D01*
X162667969Y-63803803D01*
X162622854Y-63959089D01*
X162622854Y-63959092D01*
X162620000Y-63995355D01*
X162620000Y-64060000D01*
X162623681Y-64063681D01*
X162657166Y-64125004D01*
X162660000Y-64151362D01*
X162660000Y-64846000D01*
X162640315Y-64913039D01*
X162587511Y-64958794D01*
X162536000Y-64970000D01*
X162410000Y-64970000D01*
X162410000Y-65096000D01*
X162390315Y-65163039D01*
X162337511Y-65208794D01*
X162286000Y-65220000D01*
X161605496Y-65220000D01*
X161649337Y-65370906D01*
X161649261Y-65397162D01*
X161652998Y-65423147D01*
X161649163Y-65431543D01*
X161649137Y-65440775D01*
X161634879Y-65462820D01*
X161623973Y-65486703D01*
X161616206Y-65491694D01*
X161611194Y-65499445D01*
X161587281Y-65510282D01*
X161565195Y-65524477D01*
X161551675Y-65526420D01*
X161547556Y-65528288D01*
X161530260Y-65529500D01*
X161526835Y-65529500D01*
X161481346Y-65520854D01*
X161468969Y-65515973D01*
X161465588Y-65514640D01*
X161422242Y-65509435D01*
X161381144Y-65504500D01*
X161381138Y-65504500D01*
X160957254Y-65504500D01*
X160890215Y-65484815D01*
X160869573Y-65468181D01*
X160468132Y-65066740D01*
X160434647Y-65005417D01*
X160432733Y-64963980D01*
X160434357Y-64950720D01*
X160445368Y-64919255D01*
X160460500Y-64784954D01*
X160460500Y-64720000D01*
X161605496Y-64720000D01*
X162160000Y-64720000D01*
X162160000Y-64191210D01*
X162159999Y-64191209D01*
X162139087Y-64192854D01*
X162139081Y-64192855D01*
X161983809Y-64237966D01*
X161983804Y-64237968D01*
X161844625Y-64320278D01*
X161844616Y-64320285D01*
X161730285Y-64434616D01*
X161730278Y-64434625D01*
X161647968Y-64573804D01*
X161605496Y-64720000D01*
X160460500Y-64720000D01*
X160460500Y-63695046D01*
X160452505Y-63624084D01*
X160445369Y-63560750D01*
X160445368Y-63560745D01*
X160397118Y-63422854D01*
X160385789Y-63390478D01*
X160351760Y-63336322D01*
X160346582Y-63328080D01*
X160289816Y-63237738D01*
X160162262Y-63110184D01*
X160131077Y-63090589D01*
X160009523Y-63014211D01*
X159839254Y-62954631D01*
X159839249Y-62954630D01*
X159704960Y-62939500D01*
X159704954Y-62939500D01*
X158784500Y-62939500D01*
X158717461Y-62919815D01*
X158671706Y-62867011D01*
X158660500Y-62815500D01*
X158660500Y-59355404D01*
X158680185Y-59288365D01*
X158732989Y-59242610D01*
X158751507Y-59236630D01*
X158751394Y-59236267D01*
X158908320Y-59187366D01*
X158914270Y-59185512D01*
X158960519Y-59157554D01*
X159054648Y-59100651D01*
X159054647Y-59100651D01*
X159054653Y-59100648D01*
X159170648Y-58984653D01*
X159188810Y-58954608D01*
X159240337Y-58907421D01*
X159309196Y-58895581D01*
X159373525Y-58922848D01*
X159406016Y-58963663D01*
X159443390Y-59039022D01*
X159443392Y-59039025D01*
X159562632Y-59187366D01*
X159562633Y-59187367D01*
X159710974Y-59306607D01*
X159710977Y-59306609D01*
X159881476Y-59391168D01*
X160066175Y-59437102D01*
X160108903Y-59440000D01*
X160310000Y-59440000D01*
X160310000Y-58064000D01*
X160329685Y-57996961D01*
X160382489Y-57951206D01*
X160434000Y-57940000D01*
X160686000Y-57940000D01*
X160753039Y-57959685D01*
G37*
%TD.AperFunction*%
%TA.AperFunction,Conductor*%
G36*
X159104756Y-55056994D02*
G01*
X159149103Y-55085495D01*
X159425179Y-55361571D01*
X159425189Y-55361582D01*
X159429519Y-55365912D01*
X159429520Y-55365913D01*
X159504087Y-55440480D01*
X159512633Y-55445414D01*
X159560848Y-55495982D01*
X159574070Y-55564589D01*
X159557364Y-55615922D01*
X159477595Y-55750805D01*
X159437156Y-55890000D01*
X160126000Y-55890000D01*
X160193039Y-55909685D01*
X160238794Y-55962489D01*
X160250000Y-56014000D01*
X160250000Y-56266000D01*
X160230315Y-56333039D01*
X160177511Y-56378794D01*
X160126000Y-56390000D01*
X159437156Y-56390000D01*
X159477595Y-56529195D01*
X159477596Y-56529197D01*
X159525625Y-56610411D01*
X159529640Y-56626235D01*
X159538296Y-56640081D01*
X159538055Y-56659403D01*
X159542808Y-56678135D01*
X159537620Y-56694305D01*
X159537426Y-56709945D01*
X159525220Y-56732963D01*
X159522365Y-56741865D01*
X159398400Y-56929576D01*
X159377324Y-56947383D01*
X159358595Y-56967650D01*
X159351012Y-56969615D01*
X159345031Y-56974669D01*
X159317670Y-56978255D01*
X159290960Y-56985178D01*
X159283521Y-56982732D01*
X159275754Y-56983751D01*
X159250794Y-56971974D01*
X159224584Y-56963358D01*
X159218221Y-56956605D01*
X159212564Y-56953936D01*
X159206366Y-56944023D01*
X159188811Y-56925391D01*
X159170652Y-56895352D01*
X159170648Y-56895347D01*
X159054652Y-56779351D01*
X159054648Y-56779348D01*
X158956086Y-56719766D01*
X158908898Y-56668239D01*
X158896235Y-56613649D01*
X158896235Y-55214363D01*
X158904879Y-55184922D01*
X158911403Y-55154936D01*
X158915157Y-55149920D01*
X158915920Y-55147324D01*
X158932554Y-55126682D01*
X158973741Y-55085495D01*
X159035064Y-55052010D01*
X159104756Y-55056994D01*
G37*
%TD.AperFunction*%
%TA.AperFunction,Conductor*%
G36*
X157343039Y-53064685D02*
G01*
X157388794Y-53117489D01*
X157400000Y-53169000D01*
X157400000Y-53295000D01*
X157475500Y-53295000D01*
X157542539Y-53314685D01*
X157588294Y-53367489D01*
X157599500Y-53419000D01*
X157599500Y-53972744D01*
X157579815Y-54039783D01*
X157563181Y-54060425D01*
X157361681Y-54261925D01*
X157300358Y-54295410D01*
X157230666Y-54290426D01*
X157174733Y-54248554D01*
X157150316Y-54183090D01*
X157150000Y-54174244D01*
X157150000Y-53545000D01*
X156580000Y-53545000D01*
X156580000Y-53916262D01*
X156593999Y-53936813D01*
X156600000Y-53974923D01*
X156600000Y-54067844D01*
X156606401Y-54127372D01*
X156606403Y-54127379D01*
X156656645Y-54262086D01*
X156656649Y-54262093D01*
X156732571Y-54363511D01*
X156756989Y-54428975D01*
X156742138Y-54497248D01*
X156692733Y-54546654D01*
X156624460Y-54561506D01*
X156594302Y-54555528D01*
X156502608Y-54525144D01*
X156403322Y-54515000D01*
X156380000Y-54515000D01*
X156380000Y-55366000D01*
X156360315Y-55433039D01*
X156307511Y-55478794D01*
X156256000Y-55490000D01*
X156004000Y-55490000D01*
X155936961Y-55470315D01*
X155891206Y-55417511D01*
X155880000Y-55366000D01*
X155880000Y-54514999D01*
X155856693Y-54515000D01*
X155856674Y-54515001D01*
X155757391Y-54525144D01*
X155663503Y-54556255D01*
X155593675Y-54558656D01*
X155533633Y-54522924D01*
X155502441Y-54460404D01*
X155500500Y-54438549D01*
X155500500Y-53810423D01*
X155520185Y-53743384D01*
X155572989Y-53697629D01*
X155642147Y-53687685D01*
X155693391Y-53707321D01*
X155856316Y-53816185D01*
X155856328Y-53816192D01*
X156038308Y-53891569D01*
X156080000Y-53899862D01*
X156080000Y-53096988D01*
X156089940Y-53114205D01*
X156145795Y-53170060D01*
X156214204Y-53209556D01*
X156290504Y-53230000D01*
X156369496Y-53230000D01*
X156445796Y-53209556D01*
X156514205Y-53170060D01*
X156570060Y-53114205D01*
X156609556Y-53045796D01*
X156609769Y-53045000D01*
X157276000Y-53045000D01*
X157343039Y-53064685D01*
G37*
%TD.AperFunction*%
%TA.AperFunction,Conductor*%
G36*
X164038099Y-47270185D02*
G01*
X164083854Y-47322989D01*
X164093798Y-47392147D01*
X164085621Y-47421953D01*
X164008429Y-47608310D01*
X164008427Y-47608318D01*
X163970000Y-47801504D01*
X163970000Y-47950000D01*
X164670000Y-47950000D01*
X164670000Y-48450000D01*
X163970000Y-48450000D01*
X163970000Y-48598495D01*
X164008427Y-48791681D01*
X164008430Y-48791693D01*
X164083807Y-48973671D01*
X164083814Y-48973684D01*
X164125991Y-49036806D01*
X164146869Y-49103484D01*
X164128384Y-49170864D01*
X164076405Y-49217554D01*
X164054984Y-49225472D01*
X164010172Y-49237479D01*
X163975413Y-49246793D01*
X163975412Y-49246793D01*
X163975410Y-49246794D01*
X163884085Y-49299521D01*
X162420426Y-50763181D01*
X162359103Y-50796666D01*
X162332745Y-50799500D01*
X159467273Y-50799500D01*
X159365410Y-50826793D01*
X159274087Y-50879520D01*
X159274084Y-50879522D01*
X158494538Y-51659068D01*
X158433215Y-51692553D01*
X158363523Y-51687569D01*
X158307590Y-51645697D01*
X158299470Y-51633388D01*
X158274385Y-51589940D01*
X158220515Y-51496635D01*
X158113365Y-51389485D01*
X158047750Y-51351602D01*
X157982136Y-51313719D01*
X157908950Y-51294109D01*
X157835766Y-51274500D01*
X157684234Y-51274500D01*
X157537863Y-51313719D01*
X157406635Y-51389485D01*
X157400189Y-51394432D01*
X157398099Y-51391709D01*
X157350217Y-51417466D01*
X157280558Y-51412043D01*
X157224888Y-51369821D01*
X157219299Y-51360976D01*
X157106751Y-51192537D01*
X157106748Y-51192533D01*
X156967466Y-51053251D01*
X156967462Y-51053248D01*
X156803684Y-50943814D01*
X156803671Y-50943807D01*
X156621691Y-50868429D01*
X156621683Y-50868427D01*
X156580000Y-50860135D01*
X156580000Y-51663011D01*
X156570060Y-51645795D01*
X156514205Y-51589940D01*
X156445796Y-51550444D01*
X156369496Y-51530000D01*
X156290504Y-51530000D01*
X156214204Y-51550444D01*
X156145795Y-51589940D01*
X156089940Y-51645795D01*
X156080000Y-51663011D01*
X156080000Y-50860136D01*
X156079999Y-50860135D01*
X156038316Y-50868427D01*
X156038308Y-50868429D01*
X155856328Y-50943807D01*
X155856315Y-50943814D01*
X155693391Y-51052678D01*
X155626714Y-51073556D01*
X155559333Y-51055072D01*
X155512643Y-51003093D01*
X155500500Y-50949576D01*
X155500500Y-49380423D01*
X155520185Y-49313384D01*
X155572989Y-49267629D01*
X155642147Y-49257685D01*
X155693391Y-49277321D01*
X155856316Y-49386185D01*
X155856328Y-49386192D01*
X156038308Y-49461569D01*
X156080000Y-49469862D01*
X156080000Y-48666988D01*
X156089940Y-48684205D01*
X156145795Y-48740060D01*
X156214204Y-48779556D01*
X156290504Y-48800000D01*
X156369496Y-48800000D01*
X156445796Y-48779556D01*
X156514205Y-48740060D01*
X156570060Y-48684205D01*
X156580000Y-48666988D01*
X156580000Y-49469862D01*
X156621690Y-49461569D01*
X156621692Y-49461569D01*
X156803671Y-49386192D01*
X156803684Y-49386185D01*
X156967462Y-49276751D01*
X156967466Y-49276748D01*
X157106748Y-49137466D01*
X157106751Y-49137462D01*
X157216185Y-48973684D01*
X157216192Y-48973671D01*
X157291569Y-48791693D01*
X157291572Y-48791681D01*
X157329999Y-48598495D01*
X157330000Y-48598492D01*
X157330000Y-48450000D01*
X156630000Y-48450000D01*
X156630000Y-47950000D01*
X157330000Y-47950000D01*
X157330000Y-47801508D01*
X157329999Y-47801504D01*
X157291572Y-47608318D01*
X157291570Y-47608310D01*
X157214379Y-47421953D01*
X157206910Y-47352483D01*
X157238185Y-47290004D01*
X157298274Y-47254352D01*
X157328940Y-47250500D01*
X163971060Y-47250500D01*
X164038099Y-47270185D01*
G37*
%TD.AperFunction*%
%TA.AperFunction,Conductor*%
G36*
X168332539Y-47270185D02*
G01*
X168378294Y-47322989D01*
X168389500Y-47374500D01*
X168389500Y-48652744D01*
X168369815Y-48719783D01*
X168353181Y-48740425D01*
X167910426Y-49183181D01*
X167849103Y-49216666D01*
X167822745Y-49219500D01*
X165923924Y-49219500D01*
X165856885Y-49199815D01*
X165811130Y-49147011D01*
X165801186Y-49077853D01*
X165820822Y-49026609D01*
X165856185Y-48973684D01*
X165856192Y-48973671D01*
X165931569Y-48791693D01*
X165931572Y-48791681D01*
X165969999Y-48598495D01*
X165970000Y-48598492D01*
X165970000Y-48450000D01*
X165270000Y-48450000D01*
X165270000Y-47950000D01*
X165970000Y-47950000D01*
X165970000Y-47801508D01*
X165969999Y-47801504D01*
X165931572Y-47608318D01*
X165931570Y-47608310D01*
X165854379Y-47421953D01*
X165846910Y-47352483D01*
X165878185Y-47290004D01*
X165938274Y-47254352D01*
X165968940Y-47250500D01*
X168265500Y-47250500D01*
X168332539Y-47270185D01*
G37*
%TD.AperFunction*%
%TA.AperFunction,Conductor*%
G36*
X155398099Y-47270185D02*
G01*
X155443854Y-47322989D01*
X155453798Y-47392147D01*
X155445621Y-47421953D01*
X155368429Y-47608310D01*
X155368427Y-47608318D01*
X155330000Y-47801504D01*
X155330000Y-47950000D01*
X156030000Y-47950000D01*
X156030000Y-48450000D01*
X155325114Y-48450000D01*
X155274552Y-48477608D01*
X155204861Y-48472622D01*
X155160515Y-48444122D01*
X154515915Y-47799522D01*
X154515913Y-47799520D01*
X154470250Y-47773156D01*
X154424589Y-47746793D01*
X154373657Y-47733146D01*
X154322727Y-47719500D01*
X154322726Y-47719500D01*
X153034499Y-47719500D01*
X153025813Y-47716949D01*
X153016852Y-47718238D01*
X152992811Y-47707259D01*
X152967460Y-47699815D01*
X152961532Y-47692974D01*
X152953296Y-47689213D01*
X152939006Y-47666978D01*
X152921705Y-47647011D01*
X152919417Y-47636496D01*
X152915522Y-47630435D01*
X152910499Y-47595500D01*
X152910499Y-47374500D01*
X152930184Y-47307461D01*
X152982988Y-47261706D01*
X153034499Y-47250500D01*
X155331060Y-47250500D01*
X155398099Y-47270185D01*
G37*
%TD.AperFunction*%
%TD*%
M02*
