%TF.GenerationSoftware,KiCad,Pcbnew,9.0.8*%
%TF.CreationDate,2026-08-21T19:12:29-05:00*%
%TF.ProjectId,Devboard,44657662-6f61-4726-942e-6b696361645f,rev?*%
%TF.SameCoordinates,Original*%
%TF.FileFunction,Paste,Top*%
%TF.FilePolarity,Positive*%
%FSLAX46Y46*%
G04 Gerber Fmt 4.6, Leading zero omitted, Abs format (unit mm)*
G04 Created by KiCad (PCBNEW 9.0.8) date 2026-08-21 19:12:29*
%MOMM*%
%LPD*%
G01*
G04 APERTURE LIST*
G04 Aperture macros list*
%AMRoundRect*
0 Rectangle with rounded corners*
0 $1 Rounding radius*
0 $2 $3 $4 $5 $6 $7 $8 $9 X,Y pos of 4 corners*
0 Add a 4 corners polygon primitive as box body*
4,1,4,$2,$3,$4,$5,$6,$7,$8,$9,$2,$3,0*
0 Add four circle primitives for the rounded corners*
1,1,$1+$1,$2,$3*
1,1,$1+$1,$4,$5*
1,1,$1+$1,$6,$7*
1,1,$1+$1,$8,$9*
0 Add four rect primitives between the rounded corners*
20,1,$1+$1,$2,$3,$4,$5,0*
20,1,$1+$1,$4,$5,$6,$7,0*
20,1,$1+$1,$6,$7,$8,$9,0*
20,1,$1+$1,$8,$9,$2,$3,0*%
G04 Aperture macros list end*
%ADD10RoundRect,0.375000X-0.375000X0.625000X-0.375000X-0.625000X0.375000X-0.625000X0.375000X0.625000X0*%
%ADD11RoundRect,0.500000X-1.400000X0.500000X-1.400000X-0.500000X1.400000X-0.500000X1.400000X0.500000X0*%
%ADD12RoundRect,0.140000X0.170000X-0.140000X0.170000X0.140000X-0.170000X0.140000X-0.170000X-0.140000X0*%
%ADD13RoundRect,0.140000X-0.219203X-0.021213X-0.021213X-0.219203X0.219203X0.021213X0.021213X0.219203X0*%
%ADD14RoundRect,0.140000X-0.170000X0.140000X-0.170000X-0.140000X0.170000X-0.140000X0.170000X0.140000X0*%
%ADD15RoundRect,0.135000X-0.185000X0.135000X-0.185000X-0.135000X0.185000X-0.135000X0.185000X0.135000X0*%
%ADD16RoundRect,0.250000X0.450000X0.350000X-0.450000X0.350000X-0.450000X-0.350000X0.450000X-0.350000X0*%
%ADD17RoundRect,0.200000X-0.800000X0.200000X-0.800000X-0.200000X0.800000X-0.200000X0.800000X0.200000X0*%
%ADD18RoundRect,0.140000X-0.140000X-0.170000X0.140000X-0.170000X0.140000X0.170000X-0.140000X0.170000X0*%
%ADD19RoundRect,0.225000X0.225000X0.250000X-0.225000X0.250000X-0.225000X-0.250000X0.225000X-0.250000X0*%
%ADD20RoundRect,0.040000X-0.040000X-0.605000X0.040000X-0.605000X0.040000X0.605000X-0.040000X0.605000X0*%
%ADD21RoundRect,0.062500X-0.387500X-0.062500X0.387500X-0.062500X0.387500X0.062500X-0.387500X0.062500X0*%
%ADD22R,0.600000X1.450000*%
%ADD23R,0.300000X1.450000*%
%ADD24RoundRect,0.249999X-0.395001X-0.395001X0.395001X-0.395001X0.395001X0.395001X-0.395001X0.395001X0*%
%ADD25RoundRect,0.050000X-0.387500X-0.050000X0.387500X-0.050000X0.387500X0.050000X-0.387500X0.050000X0*%
%ADD26RoundRect,0.050000X-0.050000X-0.387500X0.050000X-0.387500X0.050000X0.387500X-0.050000X0.387500X0*%
%ADD27RoundRect,0.135000X-0.135000X-0.185000X0.135000X-0.185000X0.135000X0.185000X-0.135000X0.185000X0*%
%ADD28RoundRect,0.135000X0.135000X0.185000X-0.135000X0.185000X-0.135000X-0.185000X0.135000X-0.185000X0*%
%ADD29RoundRect,0.140000X0.021213X-0.219203X0.219203X-0.021213X-0.021213X0.219203X-0.219203X0.021213X0*%
G04 APERTURE END LIST*
D10*
%TO.C,U2*%
X160560000Y-57940000D03*
X158260000Y-57940000D03*
D11*
X158260000Y-64240000D03*
D10*
X155960000Y-57940000D03*
%TD*%
D12*
%TO.C,C17*%
X159990000Y-68420000D03*
X159990000Y-67460000D03*
%TD*%
D13*
%TO.C,C11*%
X163700000Y-81900000D03*
X164378822Y-82578822D03*
%TD*%
D12*
%TO.C,C6*%
X162410000Y-65930000D03*
X162410000Y-64970000D03*
%TD*%
D14*
%TO.C,C7*%
X154050000Y-77970000D03*
X154050000Y-78930000D03*
%TD*%
D15*
%TO.C,R2*%
X160250000Y-55120000D03*
X160250000Y-56140000D03*
%TD*%
D16*
%TO.C,Y1*%
X160910000Y-83350000D03*
X158710000Y-83350000D03*
X158710000Y-85050000D03*
X160910000Y-85050000D03*
%TD*%
D12*
%TO.C,C4*%
X163430000Y-65160000D03*
X163430000Y-64200000D03*
%TD*%
%TO.C,C1*%
X164990000Y-69280000D03*
X164990000Y-68320000D03*
%TD*%
D15*
%TO.C,R6*%
X156000000Y-66250000D03*
X156000000Y-67270000D03*
%TD*%
%TO.C,R4*%
X161380000Y-70090000D03*
X161380000Y-71110000D03*
%TD*%
D17*
%TO.C,SW1*%
X164950000Y-56590000D03*
X164950000Y-60790000D03*
%TD*%
D18*
%TO.C,C8*%
X166240000Y-77660000D03*
X167200000Y-77660000D03*
%TD*%
D12*
%TO.C,C12*%
X160980000Y-68900000D03*
X160980000Y-67940000D03*
%TD*%
D19*
%TO.C,C13*%
X161115000Y-66280000D03*
X159565000Y-66280000D03*
%TD*%
D20*
%TO.C,U3*%
X157275000Y-69120000D03*
D21*
X155850000Y-68370000D03*
X155850000Y-68870000D03*
X155850000Y-69370000D03*
X155850000Y-69870000D03*
X158700000Y-69870000D03*
X158700000Y-69370000D03*
X158700000Y-68870000D03*
X158700000Y-68370000D03*
%TD*%
D22*
%TO.C,J1*%
X163900000Y-53295000D03*
X163100000Y-53295000D03*
D23*
X161900000Y-53295000D03*
X160900000Y-53295000D03*
X160400000Y-53295000D03*
X159400000Y-53295000D03*
D22*
X158200000Y-53295000D03*
X157400000Y-53295000D03*
X157400000Y-53295000D03*
X158200000Y-53295000D03*
D23*
X158900000Y-53295000D03*
X159900000Y-53295000D03*
X161400000Y-53295000D03*
X162400000Y-53295000D03*
D22*
X163100000Y-53295000D03*
X163900000Y-53295000D03*
%TD*%
D12*
%TO.C,C2*%
X155070000Y-72800000D03*
X155070000Y-71840000D03*
%TD*%
D24*
%TO.C,U1*%
X159850000Y-75450000D03*
X159850000Y-77050000D03*
X161450000Y-75450000D03*
X161450000Y-77050000D03*
D25*
X157212500Y-73650000D03*
X157212500Y-74050000D03*
X157212500Y-74450000D03*
X157212500Y-74850000D03*
X157212500Y-75250000D03*
X157212500Y-75650000D03*
X157212500Y-76050000D03*
X157212500Y-76450000D03*
X157212500Y-76850000D03*
X157212500Y-77250000D03*
X157212500Y-77650000D03*
X157212500Y-78050000D03*
X157212500Y-78450000D03*
X157212500Y-78850000D03*
D26*
X158050000Y-79687500D03*
X158450000Y-79687500D03*
X158850000Y-79687500D03*
X159250000Y-79687500D03*
X159650000Y-79687500D03*
X160050000Y-79687500D03*
X160450000Y-79687500D03*
X160850000Y-79687500D03*
X161250000Y-79687500D03*
X161650000Y-79687500D03*
X162050000Y-79687500D03*
X162450000Y-79687500D03*
X162850000Y-79687500D03*
X163250000Y-79687500D03*
D25*
X164087500Y-78850000D03*
X164087500Y-78450000D03*
X164087500Y-78050000D03*
X164087500Y-77650000D03*
X164087500Y-77250000D03*
X164087500Y-76850000D03*
X164087500Y-76450000D03*
X164087500Y-76050000D03*
X164087500Y-75650000D03*
X164087500Y-75250000D03*
X164087500Y-74850000D03*
X164087500Y-74450000D03*
X164087500Y-74050000D03*
X164087500Y-73650000D03*
D26*
X163250000Y-72812500D03*
X162850000Y-72812500D03*
X162450000Y-72812500D03*
X162050000Y-72812500D03*
X161650000Y-72812500D03*
X161250000Y-72812500D03*
X160850000Y-72812500D03*
X160450000Y-72812500D03*
X160050000Y-72812500D03*
X159650000Y-72812500D03*
X159250000Y-72812500D03*
X158850000Y-72812500D03*
X158450000Y-72812500D03*
X158050000Y-72812500D03*
%TD*%
D14*
%TO.C,C9*%
X162527954Y-81849746D03*
X162527954Y-82809746D03*
%TD*%
D27*
%TO.C,R1*%
X162060000Y-55170000D03*
X163080000Y-55170000D03*
%TD*%
D28*
%TO.C,R5*%
X161467954Y-81899746D03*
X160447954Y-81899746D03*
%TD*%
D14*
%TO.C,C16*%
X157160000Y-84050000D03*
X157160000Y-85010000D03*
%TD*%
D15*
%TO.C,R3*%
X162320000Y-70090000D03*
X162320000Y-71110000D03*
%TD*%
D12*
%TO.C,C3*%
X163770000Y-70930000D03*
X163770000Y-69970000D03*
%TD*%
D19*
%TO.C,C14*%
X157680000Y-55490000D03*
X156130000Y-55490000D03*
%TD*%
D28*
%TO.C,R7*%
X158160000Y-67300000D03*
X157140000Y-67300000D03*
%TD*%
D29*
%TO.C,C10*%
X163680589Y-68069411D03*
X164359411Y-67390589D03*
%TD*%
D12*
%TO.C,C15*%
X162540000Y-84750000D03*
X162540000Y-83790000D03*
%TD*%
%TO.C,C5*%
X164980000Y-72680000D03*
X164980000Y-71720000D03*
%TD*%
M02*
